<svg width="71" height="70" viewBox="0 0 71 70" fill="none" xmlns="http://www.w3.org/2000/svg">
<g clip-path="url(#clip0_524_3670)">
<path d="M3.41678 3.79175H67.5835V66.2085H3.41678V3.79175Z" fill="#2E001E"/>
<path d="M0.5 0.875V69.1251H70.5V0.875H0.5ZM3.41678 3.79178H67.5835V66.2083H3.41678V3.79178Z" fill="#FF2BC2"/>
<path d="M51.3377 29.5459C50.8015 29.3275 50.2243 29.228 49.646 29.2543C45.9709 29.2543 43.521 32.0834 43.521 36.7793C43.521 42.146 46.0294 44.3043 49.2961 44.3043C49.981 44.3236 50.6636 44.2148 51.3086 43.9835V29.5459H51.3377ZM38.271 37.0127C38.271 30.2168 42.646 24.9085 49.8209 24.9085C50.3272 24.8982 50.8337 24.9177 51.3377 24.9668V17.3833C51.3379 17.306 51.3686 17.2319 51.4233 17.1773C51.478 17.1226 51.552 17.0918 51.6293 17.0916H56.3252C56.5586 17.0916 56.6168 17.1792 56.6168 17.3251V43.9833C56.5997 44.9383 56.6484 45.8933 56.7626 46.8416C56.7626 47.0464 56.7626 47.075 56.5877 47.1624C54.2555 48.2745 51.7047 48.8524 49.1209 48.8541C42.7919 48.8543 38.271 44.9459 38.271 37.0125V37.0127ZM28.3251 32.2877L36.4924 48.1252C36.6382 48.3586 36.5506 48.5918 36.3174 48.5918H31.2419C31.1118 48.6083 30.98 48.5796 30.8685 48.5106C30.7571 48.4415 30.6727 48.3363 30.6295 48.2125C28.7627 44.3625 26.8572 40.3667 24.9128 36.2251H24.8541C23.1042 40.1335 21.1791 44.3923 19.3125 48.2419C19.2658 48.3408 19.1912 48.4238 19.0979 48.4808C19.0046 48.5378 18.8967 48.5663 18.7874 48.5627H13.946C13.6543 48.5627 13.6252 48.3292 13.771 48.1543L21.7626 32.7828L14.0335 17.5C13.997 17.4624 13.9727 17.4146 13.964 17.3629C13.9553 17.3112 13.9626 17.258 13.9848 17.2105C14.007 17.163 14.0432 17.1234 14.0885 17.097C14.1338 17.0706 14.186 17.0585 14.2383 17.0625H19.2542C19.5459 17.0625 19.6917 17.1208 19.7793 17.3833C21.6168 21.2624 23.4835 25.0833 25.2334 28.9917H25.2916C26.9833 25.1417 28.85 21.2626 30.6292 17.4418C30.7751 17.2083 30.8627 17.0625 31.1543 17.0625H35.8501C36.0836 17.0625 36.1709 17.2375 36.0251 17.5L28.3251 32.2877Z" fill="#FF2BC2"/>
</g>
<defs>
<clipPath id="clip0_524_3670">
<rect width="70" height="68.2501" fill="white" transform="translate(0.5 0.875)"/>
</clipPath>
</defs>
</svg>
