<svg width="71" height="70" viewBox="0 0 71 70" fill="none" xmlns="http://www.w3.org/2000/svg">
<g clip-path="url(#clip0_1602_1773)">
<path d="M3.41675 3.79175H67.5834V66.2085H3.41675V3.79175Z" fill="#ABABAB"/>
<path d="M0.5 0.875V69.1251H70.5V0.875H0.5ZM3.41678 3.79178H67.5835V66.2083H3.41678V3.79178Z" fill="#C9C8CA"/>
<path d="M51.3376 29.5459C50.8014 29.3275 50.2243 29.228 49.6459 29.2543C45.9709 29.2543 43.5209 32.0834 43.5209 36.7793C43.5209 42.146 46.0294 44.3043 49.296 44.3043C49.981 44.3236 50.6635 44.2148 51.3085 43.9835V29.5459H51.3376ZM38.2709 37.0127C38.2709 30.2168 42.646 24.9085 49.8209 24.9085C50.3272 24.8982 50.8336 24.9177 51.3376 24.9668V17.3833C51.3378 17.306 51.3686 17.2319 51.4232 17.1773C51.4779 17.1226 51.552 17.0918 51.6293 17.0916H56.3251C56.5585 17.0916 56.6168 17.1792 56.6168 17.3251V43.9833C56.5996 44.9383 56.6483 45.8933 56.7626 46.8416C56.7626 47.0464 56.7626 47.075 56.5876 47.1624C54.2555 48.2745 51.7046 48.8524 49.1208 48.8541C42.7918 48.8543 38.2709 44.9459 38.2709 37.0125V37.0127ZM28.3251 32.2877L36.4923 48.1252C36.6381 48.3586 36.5505 48.5918 36.3174 48.5918H31.2418C31.1118 48.6083 30.98 48.5796 30.8685 48.5106C30.757 48.4415 30.6726 48.3363 30.6294 48.2125C28.7627 44.3625 26.8571 40.3667 24.9128 36.2251H24.8541C23.1042 40.1335 21.179 44.3923 19.3124 48.2419C19.2657 48.3408 19.1912 48.4238 19.0979 48.4808C19.0046 48.5378 18.8966 48.5663 18.7873 48.5627H13.9459C13.6542 48.5627 13.6251 48.3292 13.771 48.1543L21.7626 32.7828L14.0335 17.5C13.9969 17.4624 13.9727 17.4146 13.964 17.3629C13.9553 17.3112 13.9625 17.258 13.9847 17.2105C14.007 17.163 14.0431 17.1234 14.0884 17.097C14.1337 17.0706 14.186 17.0585 14.2382 17.0625H19.2542C19.5458 17.0625 19.6916 17.1208 19.7792 17.3833C21.6168 21.2624 23.4834 25.0833 25.2333 28.9917H25.2916C26.9833 25.1417 28.8499 21.2626 30.6292 17.4418C30.775 17.2083 30.8626 17.0625 31.1542 17.0625H35.8501C36.0835 17.0625 36.1709 17.2375 36.025 17.5L28.3251 32.2877Z" fill="#C9C8CA"/>
</g>
<defs>
<clipPath id="clip0_1602_1773">
<rect width="70" height="68.2501" fill="white" transform="translate(0.5 0.875)"/>
</clipPath>
</defs>
</svg>
