<svg width="60" height="60" viewBox="0 0 60 60" fill="none" xmlns="http://www.w3.org/2000/svg">
<g clip-path="url(#clip0_1443_3167)">
<path d="M28.125 4.6875V55.3125C28.125 57.3844 26.4469 59.0625 24.375 59.0625C23.4937 59.0625 22.6781 58.7531 22.0312 58.2375C21.3844 58.7531 20.5688 59.0625 19.6875 59.0625C18.7313 59.0625 17.8594 58.7062 17.1938 58.1063C17.0906 58.125 16.9781 58.125 16.875 58.125C15.4781 58.125 14.2594 57.3563 13.6125 56.2219C11.7563 55.9969 10.3125 54.4219 10.3125 52.5C10.3125 52.4625 10.3125 52.4156 10.3219 52.3781C8.97188 52.0406 7.9125 50.9625 7.59375 49.5938C5.925 49.2094 4.6875 47.7188 4.6875 45.9375C4.6875 45.4688 4.77188 45.0281 4.93125 44.6156C3.675 44.0156 2.8125 42.7313 2.8125 41.25C2.8125 40.8656 2.86875 40.5 2.97188 40.1531C2.29688 39.4688 1.875 38.5312 1.875 37.5C1.875 36.8531 2.04375 36.2437 2.325 35.7188C2.27813 35.6812 2.24062 35.6437 2.19375 35.6063C1.70625 35.1844 1.34063 34.6312 1.13438 34.0125C1.00313 33.6375 0.9375 33.2344 0.9375 32.8125C0.9375 31.9312 1.24687 31.1156 1.7625 30.4688C1.24687 29.8219 0.9375 29.0063 0.9375 28.125C0.9375 27.0938 1.35938 26.1562 2.03438 25.4719C1.93125 25.125 1.875 24.7594 1.875 24.375C1.875 23.3438 2.29688 22.4062 2.97188 21.7219C2.9625 21.6938 2.95312 21.6562 2.94375 21.6281C2.85938 21.3094 2.8125 20.9719 2.8125 20.625C2.8125 20.2781 2.85938 19.95 2.95312 19.6313C3.21563 18.6656 3.8625 17.85 4.71563 17.3625C4.86563 16.0688 5.68125 14.9812 6.80625 14.4469C6.64688 14.0344 6.5625 13.5938 6.5625 13.125C6.5625 11.7188 7.33125 10.5 8.475 9.8625C9.01875 9.55313 9.64688 9.375 10.3125 9.375C10.3219 7.29375 11.9906 5.625 14.0625 5.625C14.4094 5.625 14.7563 5.67188 15.075 5.76562C15.45 3.55313 17.3719 1.875 19.6875 1.875C20.3438 1.875 20.9625 2.00625 21.5344 2.25C22.2094 1.44375 23.2313 0.9375 24.375 0.9375C26.4469 0.9375 28.125 2.61562 28.125 4.6875Z" fill="#2F58CD"/>
<path d="M27.6375 57.15C27 58.2938 25.7812 59.0625 24.375 59.0625C23.4937 59.0625 22.6781 58.7531 22.0312 58.2375C21.3844 58.7531 20.5688 59.0625 19.6875 59.0625C18.7313 59.0625 17.8594 58.7062 17.1938 58.1063C17.0906 58.125 16.9781 58.125 16.875 58.125C15.4781 58.125 14.2594 57.3563 13.6125 56.2219C11.7563 55.9969 10.3125 54.4219 10.3125 52.5C10.3125 52.4625 10.3125 52.4156 10.3219 52.3781C8.97188 52.0406 7.9125 50.9625 7.59375 49.5938C5.925 49.2094 4.6875 47.7188 4.6875 45.9375C4.6875 45.4688 4.77188 45.0281 4.93125 44.6156C3.675 44.0156 2.8125 42.7313 2.8125 41.25C2.8125 40.8656 2.86875 40.5 2.97188 40.1531C2.29688 39.4688 1.875 38.5312 1.875 37.5C1.875 36.8531 2.04375 36.2437 2.325 35.7187C1.47188 35.0344 0.9375 33.9844 0.9375 32.8125C0.9375 31.9312 1.24687 31.1156 1.7625 30.4688C1.24687 29.8219 0.9375 29.0063 0.9375 28.125C0.9375 27.0938 1.35938 26.1562 2.03438 25.4719C1.93125 25.125 1.875 24.7594 1.875 24.375C1.875 23.3438 2.29688 22.4062 2.97188 21.7219C2.86875 21.375 2.8125 21.0094 2.8125 20.625C2.8125 19.2281 3.58125 18.0094 4.71563 17.3625C4.86563 16.0688 5.68125 14.9812 6.80625 14.4469C6.64688 14.0344 6.5625 13.5938 6.5625 13.125C6.5625 11.0531 8.24062 9.375 10.3125 9.375C10.3125 7.30312 11.9906 5.625 14.0625 5.625C14.2219 5.625 14.3906 5.63437 14.55 5.6625C14.2406 6.20625 14.0625 6.83438 14.0625 7.5C11.9906 7.5 10.3125 9.17812 10.3125 11.25C10.3125 11.7188 10.3969 12.1594 10.5563 12.5719C9.43125 13.1062 8.61562 14.1938 8.46562 15.4875C7.33125 16.1344 6.5625 17.3531 6.5625 18.75C6.5625 19.1344 6.61875 19.5 6.72188 19.8469C6.04688 20.5312 5.625 21.4688 5.625 22.5C5.625 22.8844 5.68125 23.25 5.78438 23.5969C5.10938 24.2812 4.6875 25.2188 4.6875 26.25C4.6875 27.1313 4.99688 27.9469 5.5125 28.5938C4.99688 29.2406 4.6875 30.0562 4.6875 30.9375C4.6875 32.1094 5.22188 33.1594 6.075 33.8437C5.79375 34.3687 5.625 34.9781 5.625 35.625C5.625 36.6562 6.04688 37.5938 6.72188 38.2781C6.61875 38.625 6.5625 38.9906 6.5625 39.375C6.5625 40.8563 7.425 42.1406 8.68125 42.7406C8.52188 43.1531 8.4375 43.5938 8.4375 44.0625C8.4375 45.8438 9.675 47.3344 11.3438 47.7188C11.6625 49.0875 12.7219 50.1656 14.0719 50.5031C14.0625 50.5406 14.0625 50.5875 14.0625 50.625C14.0625 52.5469 15.5063 54.1219 17.3625 54.3469C18.0094 55.4813 19.2281 56.25 20.625 56.25C20.7281 56.25 20.8406 56.25 20.9438 56.2313C21.6094 56.8312 22.4813 57.1875 23.4375 57.1875C24.3188 57.1875 25.1344 56.8781 25.7812 56.3625C26.3062 56.7844 26.9438 57.0656 27.6375 57.15Z" fill="#2F58CD"/>
<path d="M36.5625 4.6875C37.598 4.6875 38.4375 3.84803 38.4375 2.8125C38.4375 1.77697 37.598 0.9375 36.5625 0.9375C35.527 0.9375 34.6875 1.77697 34.6875 2.8125C34.6875 3.84803 35.527 4.6875 36.5625 4.6875Z" fill="white"/>
<path d="M47.8125 10.3125C48.848 10.3125 49.6875 9.47303 49.6875 8.4375C49.6875 7.40197 48.848 6.5625 47.8125 6.5625C46.777 6.5625 45.9375 7.40197 45.9375 8.4375C45.9375 9.47303 46.777 10.3125 47.8125 10.3125Z" fill="white"/>
<path d="M47.8125 17.8125C48.848 17.8125 49.6875 16.973 49.6875 15.9375C49.6875 14.902 48.848 14.0625 47.8125 14.0625C46.777 14.0625 45.9375 14.902 45.9375 15.9375C45.9375 16.973 46.777 17.8125 47.8125 17.8125Z" fill="white"/>
<path d="M48.75 27.1875C49.7855 27.1875 50.625 26.348 50.625 25.3125C50.625 24.277 49.7855 23.4375 48.75 23.4375C47.7145 23.4375 46.875 24.277 46.875 25.3125C46.875 26.348 47.7145 27.1875 48.75 27.1875Z" fill="white"/>
<path d="M57.1875 25.3125C58.223 25.3125 59.0625 24.473 59.0625 23.4375C59.0625 22.402 58.223 21.5625 57.1875 21.5625C56.152 21.5625 55.3125 22.402 55.3125 23.4375C55.3125 24.473 56.152 25.3125 57.1875 25.3125Z" fill="white"/>
<path d="M33.75 19.6875C34.7855 19.6875 35.625 18.848 35.625 17.8125C35.625 16.777 34.7855 15.9375 33.75 15.9375C32.7145 15.9375 31.875 16.777 31.875 17.8125C31.875 18.848 32.7145 19.6875 33.75 19.6875Z" fill="white"/>
<path d="M39.375 27.1875C40.4105 27.1875 41.25 26.348 41.25 25.3125C41.25 24.277 40.4105 23.4375 39.375 23.4375C38.3395 23.4375 37.5 24.277 37.5 25.3125C37.5 26.348 38.3395 27.1875 39.375 27.1875Z" fill="white"/>
<path d="M49.6875 34.6875C50.723 34.6875 51.5625 33.848 51.5625 32.8125C51.5625 31.777 50.723 30.9375 49.6875 30.9375C48.652 30.9375 47.8125 31.777 47.8125 32.8125C47.8125 33.848 48.652 34.6875 49.6875 34.6875Z" fill="white"/>
<path d="M45.9375 47.8125C46.973 47.8125 47.8125 46.973 47.8125 45.9375C47.8125 44.902 46.973 44.0625 45.9375 44.0625C44.902 44.0625 44.0625 44.902 44.0625 45.9375C44.0625 46.973 44.902 47.8125 45.9375 47.8125Z" fill="white"/>
<path d="M53.4375 51.5625C54.473 51.5625 55.3125 50.723 55.3125 49.6875C55.3125 48.652 54.473 47.8125 53.4375 47.8125C52.402 47.8125 51.5625 48.652 51.5625 49.6875C51.5625 50.723 52.402 51.5625 53.4375 51.5625Z" fill="white"/>
<path d="M57.1875 38.4375C58.223 38.4375 59.0625 37.598 59.0625 36.5625C59.0625 35.527 58.223 34.6875 57.1875 34.6875C56.152 34.6875 55.3125 35.527 55.3125 36.5625C55.3125 37.598 56.152 38.4375 57.1875 38.4375Z" fill="white"/>
<path d="M33.75 36.5625C34.7855 36.5625 35.625 35.723 35.625 34.6875C35.625 33.652 34.7855 32.8125 33.75 32.8125C32.7145 32.8125 31.875 33.652 31.875 34.6875C31.875 35.723 32.7145 36.5625 33.75 36.5625Z" fill="white"/>
<path d="M33.75 47.8125C34.7855 47.8125 35.625 46.973 35.625 45.9375C35.625 44.902 34.7855 44.0625 33.75 44.0625C32.7145 44.0625 31.875 44.902 31.875 45.9375C31.875 46.973 32.7145 47.8125 33.75 47.8125Z" fill="white"/>
<path d="M33.75 59.0625C34.7855 59.0625 35.625 58.223 35.625 57.1875C35.625 56.152 34.7855 55.3125 33.75 55.3125C32.7145 55.3125 31.875 56.152 31.875 57.1875C31.875 58.223 32.7145 59.0625 33.75 59.0625Z" fill="white"/>
<path d="M35.4562 57.9563C35.1656 58.6031 34.5094 59.0625 33.75 59.0625C32.7188 59.0625 31.875 58.2188 31.875 57.1875C31.875 56.4281 32.3344 55.7719 32.9813 55.4813C32.8688 55.7156 32.8125 55.9781 32.8125 56.25C32.8125 57.2813 33.6563 58.125 34.6875 58.125C34.9594 58.125 35.2219 58.0688 35.4562 57.9563ZM35.4562 46.7063C35.1656 47.3531 34.5094 47.8125 33.75 47.8125C32.7188 47.8125 31.875 46.9688 31.875 45.9375C31.875 45.1781 32.3344 44.5219 32.9813 44.2313C32.8688 44.4656 32.8125 44.7281 32.8125 45C32.8125 46.0313 33.6563 46.875 34.6875 46.875C34.9594 46.875 35.2219 46.8188 35.4562 46.7063ZM47.6438 46.7063C47.3531 47.3531 46.6969 47.8125 45.9375 47.8125C44.9063 47.8125 44.0625 46.9688 44.0625 45.9375C44.0625 45.1781 44.5219 44.5219 45.1688 44.2313C45.0563 44.4656 45 44.7281 45 45C45 46.0313 45.8438 46.875 46.875 46.875C47.1469 46.875 47.4094 46.8188 47.6438 46.7063ZM55.1438 50.4563C54.8531 51.1031 54.1969 51.5625 53.4375 51.5625C52.4063 51.5625 51.5625 50.7188 51.5625 49.6875C51.5625 48.9281 52.0219 48.2719 52.6688 47.9813C52.5563 48.2156 52.5 48.4781 52.5 48.75C52.5 49.7813 53.3438 50.625 54.375 50.625C54.6469 50.625 54.9094 50.5688 55.1438 50.4563ZM58.8938 37.3313C58.6031 37.9781 57.9469 38.4375 57.1875 38.4375C56.1563 38.4375 55.3125 37.5938 55.3125 36.5625C55.3125 35.8031 55.7719 35.1469 56.4188 34.8563C56.3063 35.0906 56.25 35.3531 56.25 35.625C56.25 36.6563 57.0938 37.5 58.125 37.5C58.3969 37.5 58.6594 37.4438 58.8938 37.3313ZM51.3938 33.5813C51.1031 34.2281 50.4469 34.6875 49.6875 34.6875C48.6563 34.6875 47.8125 33.8438 47.8125 32.8125C47.8125 32.0531 48.2719 31.3969 48.9188 31.1063C48.8063 31.3406 48.75 31.6031 48.75 31.875C48.75 32.9063 49.5938 33.75 50.625 33.75C50.8969 33.75 51.1594 33.6938 51.3938 33.5813ZM35.4562 35.4563C35.1656 36.1031 34.5094 36.5625 33.75 36.5625C32.7188 36.5625 31.875 35.7188 31.875 34.6875C31.875 33.9281 32.3344 33.2719 32.9813 32.9813C32.8688 33.2156 32.8125 33.4781 32.8125 33.75C32.8125 34.7813 33.6563 35.625 34.6875 35.625C34.9594 35.625 35.2219 35.5688 35.4562 35.4563ZM41.0813 26.0813C40.7906 26.7281 40.1344 27.1875 39.375 27.1875C38.3438 27.1875 37.5 26.3438 37.5 25.3125C37.5 24.5531 37.9594 23.8969 38.6063 23.6063C38.4938 23.8406 38.4375 24.1031 38.4375 24.375C38.4375 25.4063 39.2813 26.25 40.3125 26.25C40.5844 26.25 40.8469 26.1938 41.0813 26.0813ZM50.4563 26.0813C50.1656 26.7281 49.5094 27.1875 48.75 27.1875C47.7188 27.1875 46.875 26.3438 46.875 25.3125C46.875 24.5531 47.3344 23.8969 47.9813 23.6063C47.8688 23.8406 47.8125 24.1031 47.8125 24.375C47.8125 25.4063 48.6563 26.25 49.6875 26.25C49.9594 26.25 50.2219 26.1938 50.4563 26.0813ZM58.8938 24.2063C58.6031 24.8531 57.9469 25.3125 57.1875 25.3125C56.1563 25.3125 55.3125 24.4688 55.3125 23.4375C55.3125 22.6781 55.7719 22.0219 56.4188 21.7313C56.3063 21.9656 56.25 22.2281 56.25 22.5C56.25 23.5313 57.0938 24.375 58.125 24.375C58.3969 24.375 58.6594 24.3188 58.8938 24.2063ZM49.5188 16.7063C49.2281 17.3531 48.5719 17.8125 47.8125 17.8125C46.7813 17.8125 45.9375 16.9688 45.9375 15.9375C45.9375 15.1781 46.3969 14.5219 47.0438 14.2313C46.9313 14.4656 46.875 14.7281 46.875 15C46.875 16.0313 47.7188 16.875 48.75 16.875C49.0219 16.875 49.2844 16.8188 49.5188 16.7063ZM35.4562 18.5813C35.1656 19.2281 34.5094 19.6875 33.75 19.6875C32.7188 19.6875 31.875 18.8438 31.875 17.8125C31.875 17.0531 32.3344 16.3969 32.9813 16.1063C32.8688 16.3406 32.8125 16.6031 32.8125 16.875C32.8125 17.9063 33.6563 18.75 34.6875 18.75C34.9594 18.75 35.2219 18.6938 35.4562 18.5813ZM49.5188 9.20626C49.2281 9.85314 48.5719 10.3125 47.8125 10.3125C46.7813 10.3125 45.9375 9.46876 45.9375 8.43751C45.9375 7.67814 46.3969 7.02189 47.0438 6.73126C46.9313 6.96564 46.875 7.22814 46.875 7.50001C46.875 8.53126 47.7188 9.37501 48.75 9.37501C49.0219 9.37501 49.2844 9.31876 49.5188 9.20626ZM38.2688 3.58126C37.9781 4.22814 37.3219 4.68751 36.5625 4.68751C35.5313 4.68751 34.6875 3.84376 34.6875 2.81251C34.6875 2.05314 35.1469 1.39689 35.7938 1.10626C35.6813 1.34064 35.625 1.60314 35.625 1.87501C35.625 2.90626 36.4688 3.75001 37.5 3.75001C37.7719 3.75001 38.0344 3.69376 38.2688 3.58126Z" fill="white"/>
<path d="M24.375 0C23.2219 0 22.125 0.421875 21.2812 1.1625C20.7656 1.0125 20.2313 0.9375 19.6875 0.9375C17.2594 0.9375 15.1594 2.475 14.3813 4.69688C14.2781 4.6875 14.175 4.6875 14.0625 4.6875C11.775 4.6875 9.8625 6.3375 9.45 8.5125C7.275 8.925 5.625 10.8375 5.625 13.125C5.625 13.425 5.65313 13.7156 5.70938 14.0062C4.7625 14.6719 4.10625 15.6562 3.8625 16.8C2.625 17.6719 1.875 19.0969 1.875 20.625C1.875 20.9062 1.90312 21.1875 1.95 21.4688C1.29375 22.2937 0.9375 23.3156 0.9375 24.375C0.9375 24.6562 0.965625 24.9375 1.0125 25.2188C0.35625 26.0437 0 27.0656 0 28.125C0 28.95 0.225 29.7563 0.628125 30.4688C0.225 31.1812 0 31.9875 0 32.8125C0 33.9844 0.43125 35.1 1.2 35.9437C1.03125 36.45 0.9375 36.975 0.9375 37.5C0.9375 38.5594 1.29375 39.5812 1.95 40.4062C1.90312 40.6875 1.875 40.9688 1.875 41.25C1.875 42.7687 2.625 44.1844 3.83438 45.0563C3.77813 45.3375 3.75 45.6375 3.75 45.9375C3.75 47.9437 4.99688 49.6875 6.84375 50.3531C7.28438 51.5812 8.2125 52.5562 9.4125 53.0625C9.64688 55.0219 11.1 56.6437 13.05 57.075C13.9219 58.3125 15.3469 59.0625 16.875 59.0625H16.8844C18.3375 60.1594 20.4375 60.2906 22.0312 59.3719C22.7437 59.775 23.55 60 24.375 60C26.9625 60 29.0625 57.9 29.0625 55.3125V4.6875C29.0625 2.1 26.9625 0 24.375 0ZM27.1875 8.4375H20.625C18.5531 8.4375 16.875 10.1156 16.875 12.1875C16.875 12.7031 17.2969 13.125 17.8125 13.125C18.3281 13.125 18.75 12.7031 18.75 12.1875C18.75 11.1562 19.5938 10.3125 20.625 10.3125H27.1875V29.0625H10.3125C8.76562 29.0625 7.5 27.7969 7.5 26.25C7.5 25.7344 7.07812 25.3125 6.5625 25.3125C6.04688 25.3125 5.625 25.7344 5.625 26.25C5.625 28.8375 7.725 30.9375 10.3125 30.9375H27.1875V32.8125H20.625C18.5531 32.8125 16.875 34.4906 16.875 36.5625C16.875 37.0781 17.2969 37.5 17.8125 37.5C18.3281 37.5 18.75 37.0781 18.75 36.5625C18.75 35.5312 19.5938 34.6875 20.625 34.6875H27.1875V55.3125C27.1875 56.8594 25.9219 58.125 24.375 58.125C23.7375 58.125 23.1281 57.9094 22.6125 57.5062C22.4438 57.3656 22.2375 57.3 22.0312 57.3C21.825 57.3 21.6187 57.3656 21.45 57.5062C20.3906 58.35 18.8062 58.2938 17.8219 57.4125C17.6156 57.225 17.3062 57.1406 17.025 57.1875H16.95C15.9187 57.2062 14.9438 56.6625 14.4281 55.7531C14.2781 55.5 14.0156 55.3312 13.725 55.2938C12.3188 55.125 11.2594 53.9344 11.25 52.5094C11.3156 52.0406 11.0156 51.5906 10.5469 51.4688C9.54375 51.2156 8.74687 50.4 8.50312 49.3781C8.42812 49.0312 8.15625 48.7594 7.8 48.6844C6.525 48.3844 5.625 47.2594 5.625 45.9375C5.625 45.5906 5.68125 45.2719 5.80312 44.9531C5.98125 44.4938 5.775 43.9781 5.33437 43.7719C4.36875 43.3125 3.75 42.3187 3.75 41.25C3.75 40.9688 3.7875 40.6875 3.87188 40.425C3.96563 40.0969 3.88125 39.7406 3.6375 39.4969C3.10313 38.9531 2.8125 38.25 2.8125 37.5C2.8125 37.0406 2.925 36.5719 3.15 36.1594C3.15 36.1594 3.15 36.15 3.15937 36.15C3.15937 36.1406 3.16875 36.1406 3.16875 36.1313C3.27188 35.9156 4.24688 34.0688 6.17813 34.9406C6.64688 35.1562 7.2 34.9406 7.41562 34.4719C7.63125 34.0031 7.425 33.4406 6.94687 33.2344C4.82812 32.2687 3.21563 33.15 2.25938 34.2C2.01562 33.7781 1.875 33.3094 1.875 32.8125C1.875 32.175 2.09063 31.5656 2.49375 31.05C2.76562 30.7125 2.76562 30.225 2.49375 29.8875C2.09063 29.3719 1.875 28.7625 1.875 28.125C1.875 27.375 2.16563 26.6719 2.7 26.1281C2.94375 25.8844 3.02813 25.5281 2.93438 25.2C2.85 24.9375 2.8125 24.6562 2.8125 24.375C2.8125 23.6437 3.09375 22.9594 3.60938 22.425C3.98438 22.1625 5.89687 21 7.92188 22.3406C8.35312 22.6313 8.93437 22.5094 9.21562 22.0781C9.50625 21.6562 9.38438 21.0656 8.95312 20.7844C6.95625 19.4438 5.04375 19.7531 3.80625 20.2313C3.92812 19.3781 4.41563 18.6094 5.18438 18.1781C5.4375 18.0281 5.61562 17.7656 5.64375 17.475C5.75625 16.5375 6.35625 15.7031 7.20937 15.2906C7.65 15.0844 7.85625 14.5688 7.67812 14.1094C7.55625 13.7906 7.5 13.4719 7.5 13.125C7.5 11.85 8.35312 10.7812 9.525 10.4438C9.84375 11.7094 10.7531 13.3219 12.825 14.0156C12.9281 14.0437 13.0312 14.0625 13.125 14.0625C13.5188 14.0625 13.8844 13.8187 14.0156 13.425C14.175 12.9281 13.9125 12.4031 13.425 12.2344C11.325 11.5406 11.25 9.4875 11.25 9.375C11.25 7.81875 12.5156 6.5625 14.0625 6.5625C14.325 6.5625 14.5781 6.6 14.8125 6.66563C15.0656 6.74062 15.3469 6.70312 15.5719 6.5625C15.7969 6.42188 15.9562 6.1875 16.0031 5.925C16.3031 4.125 17.8594 2.8125 19.6875 2.8125C20.2031 2.8125 20.7 2.91562 21.1688 3.1125C21.5438 3.27187 21.9844 3.16875 22.2563 2.85C22.7719 2.23125 23.55 1.875 24.375 1.875C25.9219 1.875 27.1875 3.14062 27.1875 4.6875V8.4375Z" fill="#3A1078"/>
<path d="M12.1875 26.25C14.775 26.25 16.875 24.15 16.875 21.5625C16.875 21.0469 16.4531 20.625 15.9375 20.625C15.4219 20.625 15 21.0469 15 21.5625C15 23.1094 13.7344 24.375 12.1875 24.375C11.6719 24.375 11.25 24.7969 11.25 25.3125C11.25 25.8281 11.6719 26.25 12.1875 26.25Z" fill="#3A1078"/>
<path d="M13.1531 19.05C13.8656 18.2625 14.8781 17.8125 15.9375 17.8125C18.0094 17.8125 19.6875 19.4906 19.6875 21.5625C19.6875 22.0781 20.1094 22.5 20.625 22.5C21.1406 22.5 21.5625 22.0781 21.5625 21.5625C21.5625 18.4594 19.0406 15.9375 15.9375 15.9375C14.3438 15.9375 12.825 16.6125 11.7562 17.7937C11.4094 18.1781 11.4375 18.7687 11.8219 19.1156C12.2062 19.4625 12.7969 19.4344 13.1438 19.05H13.1531ZM21.5625 26.25C21.5625 26.7656 21.9844 27.1875 22.5 27.1875C23.0156 27.1875 23.4375 26.7656 23.4375 26.25C23.4375 25.7344 23.8594 25.3125 24.375 25.3125C24.8906 25.3125 25.3125 24.8906 25.3125 24.375C25.3125 23.8594 24.8906 23.4375 24.375 23.4375C22.8281 23.4375 21.5625 24.7031 21.5625 26.25ZM21.5625 16.875C22.0781 16.875 22.5 16.4531 22.5 15.9375C22.5 15.4219 22.9219 15 23.4375 15C23.9531 15 24.375 14.5781 24.375 14.0625C24.375 13.5469 23.9531 13.125 23.4375 13.125C21.8906 13.125 20.625 14.3906 20.625 15.9375C20.625 16.4531 21.0469 16.875 21.5625 16.875ZM19.6875 46.875C19.1719 46.875 18.75 47.2969 18.75 47.8125C18.75 49.3594 17.4844 50.625 15.9375 50.625C15.4219 50.625 15 51.0469 15 51.5625C15 52.0781 15.4219 52.5 15.9375 52.5C18.525 52.5 20.625 50.4 20.625 47.8125C20.625 47.2969 20.2031 46.875 19.6875 46.875ZM12.1875 33.75C11.6719 33.75 11.25 34.1719 11.25 34.6875C11.25 36.2344 9.98438 37.5 8.4375 37.5C7.92188 37.5 7.5 37.9219 7.5 38.4375C7.5 38.9531 7.92188 39.375 8.4375 39.375C11.025 39.375 13.125 37.275 13.125 34.6875C13.125 34.1719 12.7031 33.75 12.1875 33.75ZM15.9 45.8719C15.8437 44.8125 16.2469 43.7719 16.9969 43.0219C18.4125 41.6062 20.8781 41.6062 22.3031 43.0219C22.6688 43.3875 23.2594 43.3875 23.625 43.0219C23.9906 42.6562 23.9906 42.0656 23.625 41.7C22.5656 40.6406 21.15 40.05 19.65 40.05C18.15 40.05 16.7344 40.6313 15.675 41.7C14.55 42.825 13.95 44.3812 14.0344 45.9656C14.0625 46.4625 14.475 46.8563 14.9719 46.8563C14.9906 46.8563 15.0094 46.8563 15.0188 46.8563C15.5344 46.8281 15.9375 46.3875 15.9094 45.8719H15.9ZM23.4375 50.625C21.8906 50.625 20.625 51.8906 20.625 53.4375C20.625 53.9531 21.0469 54.375 21.5625 54.375C22.0781 54.375 22.5 53.9531 22.5 53.4375C22.5 52.9219 22.9219 52.5 23.4375 52.5C23.9531 52.5 24.375 52.0781 24.375 51.5625C24.375 51.0469 23.9531 50.625 23.4375 50.625ZM9.64687 42.075C9.28125 42.4406 9.28125 43.0312 9.64687 43.3969C9.825 43.575 9.91875 43.8094 9.91875 44.0625C9.91875 44.3156 9.825 44.55 9.64687 44.7281C9.28125 45.0938 9.28125 45.6844 9.64687 46.05C9.83437 46.2375 10.0687 46.3219 10.3125 46.3219C10.5563 46.3219 10.7906 46.2281 10.9781 46.05C11.5125 45.5156 11.8031 44.8125 11.8031 44.0625C11.8031 43.3125 11.5125 42.6094 10.9781 42.075C10.6125 41.7094 10.0219 41.7094 9.65625 42.075H9.64687ZM47.8125 13.125C46.2656 13.125 45 14.3906 45 15.9375C45 17.4844 46.2656 18.75 47.8125 18.75C49.0312 18.75 50.0625 17.9625 50.4562 16.875H52.8656L55.1719 21.4875C54.6844 21.9937 54.375 22.6781 54.375 23.4375C54.375 24.9844 55.6406 26.25 57.1875 26.25C58.7344 26.25 60 24.9844 60 23.4375C60 21.8906 58.7344 20.625 57.1875 20.625C57.075 20.625 56.9625 20.6438 56.85 20.6625L54.2719 15.525C54.1125 15.2062 53.7844 15.0094 53.4375 15.0094H50.4562C50.0719 13.9219 49.0406 13.1344 47.8125 13.1344V13.125ZM58.125 23.4375C58.125 23.9531 57.7031 24.375 57.1875 24.375C56.6719 24.375 56.25 23.9531 56.25 23.4375C56.25 22.9219 56.6719 22.5 57.1875 22.5C57.7031 22.5 58.125 22.9219 58.125 23.4375ZM47.8125 16.875C47.2969 16.875 46.875 16.4531 46.875 15.9375C46.875 15.4219 47.2969 15 47.8125 15C48.3281 15 48.75 15.4219 48.75 15.9375C48.75 16.4531 48.3281 16.875 47.8125 16.875ZM33.75 20.625C34.9688 20.625 36 19.8375 36.3937 18.75H40.8656L46.2188 24.1031C46.0406 24.4687 45.9375 24.8719 45.9375 25.3125C45.9375 26.8594 47.2031 28.125 48.75 28.125C50.2969 28.125 51.5625 26.8594 51.5625 25.3125C51.5625 23.7656 50.2969 22.5 48.75 22.5C48.3187 22.5 47.9156 22.6031 47.5406 22.7812L41.9062 17.1469C41.7281 16.9688 41.4938 16.875 41.2406 16.875H36.3844C36 15.7875 34.9688 15 33.7406 15C32.1938 15 30.9281 16.2656 30.9281 17.8125C30.9281 19.3594 32.1938 20.625 33.7406 20.625H33.75ZM49.6875 25.3125C49.6875 25.8281 49.2656 26.25 48.75 26.25C48.2344 26.25 47.8125 25.8281 47.8125 25.3125C47.8125 25.0594 47.9156 24.825 48.0844 24.6562C48.0844 24.6562 48.0844 24.6562 48.0938 24.6562C48.1031 24.6562 48.0938 24.6563 48.0938 24.6469C48.2625 24.4781 48.4875 24.375 48.75 24.375C49.2656 24.375 49.6875 24.7969 49.6875 25.3125ZM33.75 16.875C34.2656 16.875 34.6875 17.2969 34.6875 17.8125C34.6875 18.3281 34.2656 18.75 33.75 18.75C33.2344 18.75 32.8125 18.3281 32.8125 17.8125C32.8125 17.2969 33.2344 16.875 33.75 16.875ZM45.9375 43.125C44.7188 43.125 43.6875 43.9125 43.2938 45H39.375C38.8594 45 38.4375 45.4219 38.4375 45.9375V50.625H32.8125C32.2969 50.625 31.875 51.0469 31.875 51.5625C31.875 52.0781 32.2969 52.5 32.8125 52.5H39.375C39.8906 52.5 40.3125 52.0781 40.3125 51.5625V46.875H43.2938C43.6781 47.9625 44.7094 48.75 45.9375 48.75C47.4844 48.75 48.75 47.4844 48.75 45.9375C48.75 44.3906 47.4844 43.125 45.9375 43.125ZM45.9375 46.875C45.4219 46.875 45 46.4531 45 45.9375C45 45.4219 45.4219 45 45.9375 45C46.4531 45 46.875 45.4219 46.875 45.9375C46.875 46.4531 46.4531 46.875 45.9375 46.875ZM54.375 47.0438V44.0625C54.375 43.8094 54.2719 43.575 54.1031 43.3969L50.3531 39.6469C49.9875 39.2812 49.3969 39.2812 49.0312 39.6469C48.6656 40.0125 48.6656 40.6031 49.0312 40.9688L52.5094 44.4469V47.0438C51.4219 47.4281 50.6344 48.4594 50.6344 49.6875C50.6344 51.2344 51.9 52.5 53.4469 52.5C54.9937 52.5 56.2594 51.2344 56.2594 49.6875C56.2594 48.4688 55.4719 47.4375 54.3844 47.0438H54.375ZM53.4375 50.625C52.9219 50.625 52.5 50.2031 52.5 49.6875C52.5 49.1719 52.9219 48.75 53.4375 48.75C53.9531 48.75 54.375 49.1719 54.375 49.6875C54.375 50.2031 53.9531 50.625 53.4375 50.625ZM58.125 33.9188V29.0625C58.125 28.5469 57.7031 28.125 57.1875 28.125C56.6719 28.125 56.25 28.5469 56.25 29.0625V33.9188C55.1625 34.3031 54.375 35.3344 54.375 36.5625C54.375 38.1094 55.6406 39.375 57.1875 39.375C58.7344 39.375 60 38.1094 60 36.5625C60 35.3438 59.2125 34.3125 58.125 33.9188ZM57.1875 37.5C56.6719 37.5 56.25 37.0781 56.25 36.5625C56.25 36.0469 56.6719 35.625 57.1875 35.625C57.7031 35.625 58.125 36.0469 58.125 36.5625C58.125 37.0781 57.7031 37.5 57.1875 37.5ZM33.75 37.5C34.9688 37.5 36 36.7125 36.3937 35.625H39.375C39.6281 35.625 39.8625 35.5219 40.0406 35.3531L44.7281 30.6656C45.0938 30.3 45.0938 29.7094 44.7281 29.3438C44.3625 28.9781 43.7719 28.9781 43.4062 29.3438L38.9906 33.7594H36.3937C36.0094 32.6719 34.9781 31.8844 33.75 31.8844C32.2031 31.8844 30.9375 33.15 30.9375 34.6969C30.9375 36.2437 32.2031 37.5094 33.75 37.5094V37.5ZM33.75 33.75C34.2656 33.75 34.6875 34.1719 34.6875 34.6875C34.6875 35.2031 34.2656 35.625 33.75 35.625C33.2344 35.625 32.8125 35.2031 32.8125 34.6875C32.8125 34.1719 33.2344 33.75 33.75 33.75Z" fill="#3A1078"/>
<path d="M33.75 48.75C35.2969 48.75 36.5625 47.4844 36.5625 45.9375C36.5625 44.7188 35.775 43.6875 34.6875 43.2938V41.25H42.1875C42.4406 41.25 42.675 41.1469 42.8531 40.9781L48.4875 35.3438C48.8531 35.5219 49.2562 35.625 49.6969 35.625C51.2437 35.625 52.5094 34.3594 52.5094 32.8125C52.5094 31.2656 51.2437 30 49.6969 30C48.15 30 46.8844 31.2656 46.8844 32.8125C46.8844 33.2438 46.9875 33.6469 47.1656 34.0219L41.8125 39.375H33.7594C33.2437 39.375 32.8219 39.7969 32.8219 40.3125V43.2938C31.7344 43.6781 30.9469 44.7094 30.9469 45.9375C30.9469 47.4844 32.2125 48.75 33.7594 48.75H33.75ZM49.6875 31.875C50.2031 31.875 50.625 32.2969 50.625 32.8125C50.625 33.3281 50.2031 33.75 49.6875 33.75C49.4344 33.75 49.2 33.6469 49.0312 33.4781C49.0312 33.4781 49.0312 33.4781 49.0312 33.4688C49.0312 33.4594 49.0312 33.4688 49.0219 33.4688C48.8531 33.3 48.75 33.075 48.75 32.8125C48.75 32.2969 49.1719 31.875 49.6875 31.875ZM33.75 45C34.2656 45 34.6875 45.4219 34.6875 45.9375C34.6875 46.4531 34.2656 46.875 33.75 46.875C33.2344 46.875 32.8125 46.4531 32.8125 45.9375C32.8125 45.4219 33.2344 45 33.75 45ZM31.875 9.375H36.5625C37.0781 9.375 37.5 8.95312 37.5 8.4375V5.45625C38.5875 5.07188 39.375 4.04063 39.375 2.8125C39.375 1.26562 38.1094 0 36.5625 0C35.0156 0 33.75 1.26562 33.75 2.8125C33.75 4.03125 34.5375 5.0625 35.625 5.45625V7.5H31.875C31.3594 7.5 30.9375 7.92188 30.9375 8.4375C30.9375 8.95312 31.3594 9.375 31.875 9.375ZM36.5625 1.875C37.0781 1.875 37.5 2.29688 37.5 2.8125C37.5 3.32812 37.0781 3.75 36.5625 3.75C36.0469 3.75 35.625 3.32812 35.625 2.8125C35.625 2.29688 36.0469 1.875 36.5625 1.875Z" fill="#3A1078"/>
<path d="M31.875 13.125H39.375C39.6656 13.125 39.9469 12.9844 40.125 12.75L42.6562 9.375H45.1688C45.5531 10.4625 46.5844 11.25 47.8125 11.25C49.3594 11.25 50.625 9.98438 50.625 8.4375C50.625 6.89062 49.3594 5.625 47.8125 5.625C46.5938 5.625 45.5625 6.4125 45.1688 7.5H42.1875C41.8969 7.5 41.6156 7.64062 41.4375 7.875L38.9062 11.25H31.875C31.3594 11.25 30.9375 11.6719 30.9375 12.1875C30.9375 12.7031 31.3594 13.125 31.875 13.125ZM47.8125 7.5C48.3281 7.5 48.75 7.92188 48.75 8.4375C48.75 8.95312 48.3281 9.375 47.8125 9.375C47.2969 9.375 46.875 8.95312 46.875 8.4375C46.875 7.92188 47.2969 7.5 47.8125 7.5ZM31.875 26.25H36.7313C37.1156 27.3375 38.1469 28.125 39.375 28.125C40.9219 28.125 42.1875 26.8594 42.1875 25.3125C42.1875 23.7656 40.9219 22.5 39.375 22.5C38.1562 22.5 37.125 23.2875 36.7313 24.375H31.875C31.3594 24.375 30.9375 24.7969 30.9375 25.3125C30.9375 25.8281 31.3594 26.25 31.875 26.25ZM39.375 24.375C39.8906 24.375 40.3125 24.7969 40.3125 25.3125C40.3125 25.8281 39.8906 26.25 39.375 26.25C38.8594 26.25 38.4375 25.8281 38.4375 25.3125C38.4375 24.7969 38.8594 24.375 39.375 24.375ZM45.2063 51.9188L41.7375 56.25H36.3937C36.0094 55.1625 34.9781 54.375 33.75 54.375C32.2031 54.375 30.9375 55.6406 30.9375 57.1875C30.9375 58.7344 32.2031 60 33.75 60C34.9688 60 36 59.2125 36.3937 58.125H42.1875C42.4688 58.125 42.7406 57.9937 42.9187 57.7687L46.6687 53.0812C46.9875 52.6781 46.9219 52.0875 46.5187 51.7594C46.1156 51.4312 45.525 51.5062 45.1969 51.9094L45.2063 51.9188ZM33.75 58.125C33.2344 58.125 32.8125 57.7031 32.8125 57.1875C32.8125 56.6719 33.2344 56.25 33.75 56.25C34.2656 56.25 34.6875 56.6719 34.6875 57.1875C34.6875 57.7031 34.2656 58.125 33.75 58.125Z" fill="#3A1078"/>
</g>
<defs>
<clipPath id="clip0_1443_3167">
<rect width="60" height="60" fill="white"/>
</clipPath>
</defs>
</svg>
