<svg width="71" height="70" viewBox="0 0 71 70" fill="none" xmlns="http://www.w3.org/2000/svg">
<path d="M11.9909 49.834C8.96233 49.8356 6.5014 47.3714 6.50085 44.3434L6.49976 27.533C6.49866 24.5077 8.95905 22.044 11.9838 22.0435C13.4544 22.0424 14.8314 22.6128 15.8694 23.6496C16.9073 24.6865 17.4783 26.0657 17.4794 27.5319L17.4777 44.3428C17.4816 45.8079 16.9123 47.186 15.8748 48.2224C14.8401 49.2614 13.4593 49.8335 11.9909 49.834ZM11.9866 23.5184C9.77007 23.5173 7.97358 25.3181 7.97304 27.533L7.97577 44.3417C7.97632 46.5642 9.77608 48.358 11.9904 48.3602C14.2091 48.3574 16.0061 46.5637 16.0039 44.3423V27.5308C16.0028 25.3165 14.2041 23.5173 11.9866 23.5184Z" fill="white"/>
<path d="M55.0464 24.3507L53.5709 24.3501L17.4121 24.3551L15.9361 24.3556L15.935 22.8796C15.9317 16.8202 19.2327 11.1847 24.6396 7.85529L22.5374 4.01787C22.2804 3.56834 22.2159 2.99904 22.3657 2.47842C22.5177 1.95779 22.877 1.5099 23.3577 1.25397C23.6361 1.09647 23.9762 1.00897 24.3197 1.00951C25.0645 1.00951 25.7465 1.41365 26.1063 2.06662L28.3064 6.07467C30.583 5.23959 32.9866 4.81357 35.4699 4.81412C37.9888 4.81303 40.4044 5.23904 42.6909 6.07795L44.8877 2.06334C45.2415 1.41201 45.9284 1.00623 46.6721 1.00678C47.0068 1.00623 47.3409 1.08772 47.6352 1.24631C48.129 1.51701 48.4735 1.94959 48.625 2.47404C48.7759 2.99522 48.7152 3.54537 48.4511 4.02279L46.35 7.85803C51.7482 11.1945 55.0453 16.8257 55.0448 22.8747L55.0464 24.3507ZM44.3572 8.4235L47.1588 3.30748C47.3081 3.04006 47.2108 2.69772 46.9406 2.54951C46.6666 2.40131 46.3287 2.50248 46.1838 2.771L43.3531 7.93897C40.972 6.88131 38.306 6.28686 35.488 6.28959C32.6759 6.28686 30.0148 6.87912 27.6409 7.93295L24.8075 2.77647C24.6615 2.50467 24.3202 2.40514 24.0534 2.55498C23.7816 2.70045 23.6815 3.04225 23.833 3.30912L26.6357 8.42131C21.1287 11.2618 17.4077 16.6704 17.411 22.8801L53.5693 22.8758C53.5709 16.6682 49.8566 11.2705 44.3572 8.4235ZM27.2641 16.3297C26.4323 16.328 25.753 15.651 25.753 14.8143C25.753 13.9814 26.4312 13.2972 27.2657 13.2972C28.1041 13.2967 28.7822 13.9814 28.7833 14.8143C28.7838 15.6499 28.1041 16.3291 27.2641 16.3297ZM43.7288 16.3264C42.8932 16.3275 42.2113 15.651 42.2129 14.811C42.2129 13.9792 42.8921 13.2951 43.7294 13.2918C44.5612 13.2945 45.2431 13.9797 45.2426 14.8115C45.2426 15.6488 44.5639 16.3269 43.7288 16.3264ZM28.7795 68.9932C25.7536 68.9926 23.291 66.5317 23.2905 63.5037L23.2894 56.0842L21.8467 56.0858C20.3062 56.0864 18.8602 55.4876 17.7736 54.4004C16.6853 53.3143 16.0854 51.8667 16.0876 50.3251L16.0821 24.279V22.8019H17.5581L53.4457 22.7965L54.9223 22.7954V24.2714L54.9261 50.3207C54.9266 53.4975 52.3421 56.0826 49.1664 56.082L47.715 56.0831L47.7166 63.4998C47.7166 66.5262 45.2546 68.9899 42.2298 68.9899C40.7637 68.9932 39.3877 68.4233 38.3481 67.3837C37.3085 66.3469 36.7359 64.9687 36.7365 63.5031V56.0831H34.2695V63.5015C34.2684 66.5284 31.807 68.9937 28.7795 68.9932Z" fill="white"/>
<path d="M17.5652 50.3245C17.563 52.6963 19.4776 54.6109 21.8478 54.6104H24.7643L24.7676 63.5048C24.767 65.7196 26.5662 67.5194 28.7789 67.5199C30.997 67.5199 32.794 65.718 32.7919 63.5015L32.7924 54.6098L38.2114 54.6082L38.2108 63.502C38.213 65.7174 40.0144 67.5194 42.2265 67.515C44.4447 67.5166 46.2428 65.7147 46.2422 63.4987L46.2395 54.6071L49.1669 54.6066C51.5289 54.6071 53.4501 52.6881 53.4501 50.3207L53.4451 24.2703L17.5587 24.2769L17.5652 50.3245ZM59.0134 49.8269C55.9859 49.8274 53.5233 47.367 53.5239 44.3384L53.5195 27.5286C53.5206 24.5005 55.9794 22.0374 59.0052 22.0374C62.0349 22.0369 64.4991 24.4994 64.4986 27.5269L64.5002 44.3357C64.5008 47.3621 62.0404 49.8274 59.0134 49.8269ZM59.0079 23.5134C56.7915 23.5112 54.9955 25.311 54.9955 27.5286L54.9972 44.3379C54.9983 46.5576 56.7942 48.3536 59.0123 48.3519C61.2294 48.3514 63.0237 46.5576 63.0253 44.3362L63.0209 27.5275C63.0204 25.3094 61.2255 23.5123 59.0079 23.5134Z" fill="white"/>
<path d="M11.9865 23.5183C9.77005 23.5172 7.97357 25.3181 7.97302 27.5329L7.97576 44.3417C7.9763 46.5642 9.77388 48.3579 11.9909 48.3574C14.209 48.3574 16.0061 46.5637 16.0039 44.3422V27.5308C16.0028 25.3165 14.2041 23.5172 11.9865 23.5183ZM44.3572 8.42349L47.1588 3.30748C47.3081 3.04006 47.2102 2.6999 46.9395 2.54842C46.6661 2.40349 46.3286 2.50193 46.1837 2.77099L43.3536 7.9406C40.9726 6.88076 38.3076 6.28685 35.4879 6.28959C32.6759 6.28685 30.0121 6.87912 27.6408 7.93295L24.8075 2.77646C24.6604 2.50467 24.3213 2.40623 24.0539 2.55443C23.7815 2.70154 23.6815 3.04224 23.8329 3.30912L26.6357 8.42185C21.1286 11.2618 17.4077 16.6704 17.411 22.8801L53.5693 22.8758C53.5709 16.6682 49.8565 11.2705 44.3572 8.42349ZM27.264 16.3297C26.4322 16.328 25.753 15.651 25.753 14.8143C25.753 13.9814 26.4301 13.2967 27.2657 13.2972C28.104 13.2967 28.7822 13.9814 28.7833 14.8143C28.7838 15.6499 28.104 16.3291 27.264 16.3297ZM43.7288 16.3264C42.8932 16.3275 42.2129 15.6499 42.2129 14.811C42.2161 13.9797 42.8921 13.2951 43.7293 13.2918C44.5611 13.2945 45.2431 13.9797 45.2426 14.8115C45.2436 15.6488 44.5639 16.3269 43.7288 16.3264ZM17.5586 24.2769L17.5647 50.3272C17.563 52.6969 19.4798 54.6098 21.8478 54.6098L24.7643 54.6109L24.7676 63.5053C24.767 65.7201 26.5673 67.5204 28.7789 67.5204C30.997 67.5204 32.794 65.7185 32.7946 63.5026L32.7924 54.6104L38.2114 54.6087L38.2136 63.5026C38.2136 65.7158 40.0144 67.5199 42.2265 67.5155C44.4447 67.5172 46.2428 65.7152 46.2422 63.4993L46.2395 54.6076L49.1664 54.6054C51.5289 54.6065 53.4506 52.6914 53.4517 50.3212L53.4468 24.2708L17.5586 24.2769ZM63.0226 27.5269C63.022 25.3094 61.2255 23.5123 59.0079 23.5134C56.7915 23.5112 54.9955 25.311 54.9955 27.5286L54.9988 44.3384C54.9983 46.5576 56.7942 48.3514 59.0123 48.3519C61.2294 48.3514 63.0247 46.5576 63.0253 44.3362L63.0226 27.5269Z" fill="#ABABAB"/>
</svg>
