<svg width="71" height="70" viewBox="0 0 71 70" fill="none" xmlns="http://www.w3.org/2000/svg">
<path d="M62.6747 54.7021L67.5834 11.6258L35.5001 0L3.41675 11.6258L8.32841 54.7021L35.5001 70L62.6747 54.7021ZM22.9351 53.4071H15.4159L35.5001 7.73208L55.6017 53.4071H48.0972L44.0517 43.1871H26.9805L22.9351 53.4071Z" fill="#ABABAB"/>
<path d="M29.6172 36.89H41.383L35.5001 22.5779L29.6172 36.89Z" fill="#ABABAB"/>
<path d="M35.4999 7.73206L15.4158 53.4071H22.9349L26.9804 43.1871H35.4999V36.89H29.617L35.4999 22.5779V7.73206Z" fill="#DEDEDE"/>
<path d="M35.5001 0L3.41675 11.6258L8.32841 54.7021L35.5001 70V43.1871H26.9805L22.9351 53.4071H15.4159L35.5001 7.73208V0Z" fill="#ABABAB"/>
<path d="M35.5001 22.5779L29.6172 36.89H35.5001V22.5779Z" fill="#ABABAB"/>
</svg>
