<svg width="71" height="70" viewBox="0 0 71 70" fill="none" xmlns="http://www.w3.org/2000/svg">
<path d="M62.6746 54.7021L67.5834 11.6258L35.5 0L3.41669 11.6258L8.32835 54.7021L35.5 70L62.6746 54.7021ZM22.935 53.4071H15.4159L35.5 7.73208L55.6017 53.4071H48.0971L44.0517 43.1871H26.9804L22.935 53.4071Z" fill="#F44336"/>
<path d="M29.6171 36.89H41.3829L35.5 22.5779L29.6171 36.89Z" fill="#F44336"/>
<path d="M35.5 7.73206L15.4158 53.4071H22.935L26.9804 43.1871H35.5V36.89H29.6171L35.5 22.5779V7.73206Z" fill="#DEDEDE"/>
<path d="M35.5 0L3.41669 11.6258L8.32835 54.7021L35.5 70V43.1871H26.9804L22.935 53.4071H15.4159L35.5 7.73208V0Z" fill="#D43A2F"/>
<path d="M35.5 22.5779L29.6171 36.89H35.5V22.5779Z" fill="#D43A2F"/>
</svg>
