<svg width="71" height="70" viewBox="0 0 71 70" fill="none" xmlns="http://www.w3.org/2000/svg">
<path d="M47.0179 69.6383C44.88 69.6383 42.9754 68.915 41.1408 68.2267C39.5687 67.6288 38.0871 67.0688 36.6812 67.0688C35.4329 67.0688 34.0096 67.6025 32.5017 68.1625C30.6787 68.8363 28.6137 69.6092 26.3708 69.6092C22.6842 69.6092 19.3796 67.4975 16.2529 63.1663C16.1217 62.9825 3.39332 44.2896 9.57665 30.4092C12.9629 22.8083 17.8425 18.9496 24.0783 18.9496C27.3683 18.9496 30.4046 19.9821 32.8429 20.8133C34.2079 21.2771 35.4971 21.7146 36.1767 21.7146C36.9787 21.7146 38.2679 21.245 39.6242 20.7404C41.8875 19.9092 44.7108 18.8679 47.9483 18.8679C52.6412 18.8679 56.8879 21.035 60.9362 25.4917C61.0728 25.6439 61.1763 25.8228 61.24 26.0171C61.3038 26.2114 61.3265 26.4169 61.3067 26.6204C61.2841 26.8236 61.2199 27.0198 61.1181 27.197C61.0162 27.3742 60.8788 27.5284 60.7146 27.65C56.4475 30.7592 54.2833 34.3554 54.2833 38.3425C54.2833 43.2804 56.7217 46.9088 62.4237 50.4583C62.7239 50.6433 62.9463 50.9314 63.0493 51.2685C63.1524 51.6057 63.1291 51.9688 62.9837 52.29C57.6229 64.2833 52.6996 69.6383 47.0179 69.6383ZM36.3137 18.1154C35.9637 18.1154 35.6108 18.0921 35.2637 18.0513C34.9197 18.0103 34.6016 17.8475 34.3673 17.5923C34.1329 17.337 33.9978 17.0063 33.9862 16.66C33.6012 6.90085 41.8729 0.924596 47.9862 0.370429C48.3494 0.339493 48.7112 0.444334 49.0016 0.66468C49.292 0.885026 49.4903 1.20522 49.5583 1.56335C50.2321 5.32001 48.9721 9.45001 46.0933 12.8917C43.3575 16.1642 39.7 18.1154 36.3137 18.1154Z" fill="#ABABAB"/>
</svg>
