<svg width="164" height="112" viewBox="0 0 164 112" fill="none" xmlns="http://www.w3.org/2000/svg">
<g opacity="0.4">
<path d="M15.3077 30C15.3077 -6.83315 45.1669 -36.6923 82 -36.6923C118.833 -36.6923 148.692 -6.83315 148.692 30C148.692 66.8331 118.833 96.6923 82 96.6923C45.1669 96.6923 15.3077 66.8331 15.3077 30ZM82 -51C37.2649 -51 1 -14.7351 1 30C1 74.7351 37.2649 111 82 111C126.735 111 163 74.7351 163 30C163 -14.7351 126.735 -51 82 -51Z" fill="#8B8B8B" stroke="#8B8B8B" stroke-width="2" stroke-linecap="round" stroke-linejoin="round"/>
<path d="M82.0005 80.0323C87.7787 80.0323 92.4628 75.3481 92.4628 69.5699C92.4628 63.7917 87.7787 59.1075 82.0005 59.1075C76.2222 59.1075 71.5381 63.7917 71.5381 69.5699C71.5381 75.3481 76.2222 80.0323 82.0005 80.0323Z" fill="#8B8B8B" stroke="#8B8B8B" stroke-width="2"/>
<path d="M87.7281 -14.3169C82.0312 -15.4295 76.1259 -14.8586 70.7584 -12.6757C65.3908 -10.4928 60.8 -6.79491 57.5687 -2.0469C54.3373 2.70134 52.6113 8.28573 52.6113 14C52.6113 17.9901 55.9007 21.1936 59.9196 21.1936C63.9384 21.1936 67.2278 17.9901 67.2278 14C67.2278 11.1395 68.0917 8.34168 69.7124 5.96025C71.3332 3.5786 73.6389 1.71959 76.34 0.6211C79.0412 -0.477448 82.0146 -0.765153 84.8834 -0.204888C87.7522 0.355358 90.3848 1.73779 92.4493 3.76482C94.5137 5.79165 95.9174 8.37175 96.4859 11.1778C97.0544 13.9838 96.7628 16.8924 95.6472 19.5367C94.5315 22.1812 92.6409 24.4445 90.2116 26.0382C87.782 27.6321 84.9238 28.4839 81.9984 28.4839C80.066 28.4839 78.2091 29.2374 76.8372 30.5844C75.4647 31.9319 74.6902 33.7636 74.6902 35.6774V41.871C74.6902 45.8611 77.9796 49.0645 81.9984 49.0645C85.986 49.0645 89.2553 45.9108 89.3061 41.9641C92.4981 41.159 95.5472 39.8277 98.318 38.01C103.15 34.8398 106.92 30.332 109.146 25.0545C111.373 19.7767 111.956 13.9681 110.82 8.36409C109.685 2.76014 106.883 -2.38485 102.772 -6.4213C98.6607 -10.4576 93.4252 -13.2043 87.7281 -14.3169Z" fill="#8B8B8B" stroke="#8B8B8B" stroke-width="2" stroke-linecap="round" stroke-linejoin="round"/>
</g>
</svg>
