<svg width="117" height="70" viewBox="0 0 117 70" fill="none" xmlns="http://www.w3.org/2000/svg">
<g clip-path="url(#clip0_524_4297)">
<path d="M32.9961 25.4228C32.9659 26.5926 33.11 27.7604 33.4236 28.8878C33.7691 29.8518 34.185 30.789 34.6681 31.6918C34.841 31.9588 34.9354 32.2691 34.9403 32.5873C34.9403 32.9766 34.7069 33.3662 34.2016 33.7552L31.7525 35.3905C31.457 35.6036 31.1057 35.7254 30.7418 35.7408C30.299 35.7103 29.8834 35.516 29.5756 35.1958C29.0516 34.6321 28.5828 34.0193 28.1756 33.366C27.7869 32.7042 27.3978 31.964 26.9705 31.0689C23.9382 34.6501 20.1283 36.4407 15.5407 36.4407C12.274 36.4407 9.67046 35.506 7.76557 33.6366C5.86067 31.7673 4.88867 29.277 4.88867 26.1625C4.88867 22.8533 6.0549 20.1669 8.42646 18.1425C10.798 16.118 13.9467 15.1056 17.9509 15.1056C19.33 15.1169 20.7067 15.221 22.0718 15.4172C23.5103 15.6119 24.9876 15.9233 26.5425 16.2738V13.4317C26.5425 10.4718 25.9203 8.40951 24.7154 7.20243C23.4709 5.99558 21.372 5.41162 18.3785 5.41162C16.9637 5.41156 15.5541 5.58146 14.1798 5.91769C12.7507 6.25865 11.3476 6.701 9.98113 7.24138C9.53902 7.43947 9.0845 7.60851 8.62046 7.74744C8.41916 7.81391 8.2099 7.8532 7.99823 7.86428C7.45401 7.86428 7.18179 7.47505 7.18179 6.65742V4.74978C7.18179 4.12666 7.25956 3.65931 7.45401 3.38714C7.74736 3.03227 8.12053 2.75207 8.5429 2.56952C10.1022 1.79689 11.7461 1.20897 13.4414 0.817654C15.4223 0.308623 17.461 0.0599556 19.506 0.0779188C24.1332 0.0779188 27.5145 1.12899 29.6916 3.23136C31.8298 5.33373 32.9183 8.52612 32.9183 12.8088V25.4228H32.9961ZM17.2125 31.3404C18.5763 31.3254 19.9286 31.0887 21.2167 30.6396C22.6436 30.1453 23.9167 29.2861 24.9098 28.1471C25.5365 27.4295 25.9889 26.5765 26.2316 25.6546C26.4987 24.5457 26.6292 23.4082 26.6203 22.2675V20.6341C25.4415 20.3467 24.2477 20.1257 23.0443 19.9722C21.832 19.8184 20.6113 19.7408 19.3894 19.7397C16.7847 19.7397 14.8798 20.2457 13.5969 21.2975C12.314 22.3492 11.692 23.828 11.692 25.7746C11.692 27.6043 12.1587 28.967 13.1305 29.9014C14.0638 30.8748 15.4242 31.342 17.2125 31.342V31.3404ZM48.4299 35.5452C47.7301 35.5452 47.2636 35.4283 46.9525 35.1559C46.6414 34.9223 46.3694 34.377 46.1361 33.6375L36.9998 3.54292C36.8227 3.03916 36.7053 2.51631 36.6501 1.98512C36.6501 1.362 36.9612 1.01171 37.5834 1.01171H41.3932C42.1319 1.01171 42.6376 1.12855 42.9094 1.40094C43.2205 1.63461 43.4536 2.17984 43.6872 2.91936L50.2183 28.6924L56.2828 2.92002C56.4772 2.14112 56.7103 1.63528 57.0214 1.40161C57.3326 1.16794 57.8768 1.01238 58.577 1.01238H61.6881C62.4268 1.01238 62.9326 1.12922 63.2437 1.40161C63.5548 1.63528 63.8268 2.18051 63.9823 2.92002L70.1248 29.0046L76.8481 2.92002C77.0815 2.14112 77.3535 1.63528 77.6259 1.40161C77.937 1.16794 78.4424 1.01238 79.1422 1.01238H82.7577C83.3799 1.01238 83.7297 1.32394 83.7297 1.98579C83.7206 2.19526 83.6946 2.40364 83.6519 2.60891C83.591 2.94101 83.4999 3.26683 83.3797 3.58231L74.0106 33.6769C73.7774 34.4555 73.5052 34.9616 73.1941 35.1953C72.7547 35.477 72.2378 35.6132 71.7168 35.5845H68.3732C67.6346 35.5845 67.1288 35.4677 66.8177 35.1953C66.5066 34.9229 66.2346 34.4164 66.079 33.6375L60.0537 8.52612L54.0665 33.5986C53.8721 34.3775 53.639 34.8833 53.3279 35.1564C53.0168 35.4294 52.4725 35.5456 51.7723 35.5456L48.4299 35.5452ZM98.3855 36.5962C96.3694 36.5984 94.3599 36.3632 92.3986 35.8954C90.4548 35.4281 88.9386 34.922 87.9279 34.3376C87.3057 33.9873 86.8784 33.5979 86.7228 33.2472C86.5714 32.9035 86.492 32.5323 86.4895 32.1567V30.1725C86.4895 29.3549 86.8006 28.9656 87.3837 28.9656C87.6218 28.9664 87.8581 29.0059 88.0835 29.0825C88.3168 29.1604 88.6666 29.3162 89.0555 29.4717C90.4287 30.0765 91.8622 30.5333 93.332 30.8343C94.8547 31.1439 96.4044 31.3005 97.9582 31.3017C100.407 31.3017 102.312 30.8735 103.634 30.0169C104.267 29.6343 104.788 29.0905 105.143 28.4408C105.499 27.7912 105.676 27.0589 105.656 26.3185C105.67 25.8173 105.584 25.3184 105.404 24.8506C105.224 24.3828 104.953 23.9554 104.607 23.5932C103.907 22.8535 102.585 22.1912 100.68 21.5681L95.0422 19.8164C92.2042 18.9211 90.1048 17.5974 88.8222 15.8451C87.5706 14.2294 86.8872 12.2448 86.8784 10.1999C86.8468 8.69243 87.2086 7.20283 87.9279 5.8783C88.6224 4.62578 89.5773 3.53713 90.7279 2.68591C91.9396 1.76727 93.3103 1.0807 94.7711 0.660761C96.3625 0.20203 98.0125 -0.0205805 99.6684 2.85194e-05C100.539 -0.00629288 101.409 0.0457503 102.273 0.155809C103.167 0.272645 103.984 0.428425 104.8 0.583983C105.578 0.778709 106.316 0.973212 107.016 1.20711C107.583 1.38284 108.131 1.61772 108.649 1.9079C109.107 2.13907 109.506 2.47202 109.815 2.8813C110.068 3.26015 110.191 3.71112 110.165 4.16605V5.9958C110.165 6.81343 109.854 7.24204 109.271 7.24204C108.96 7.24204 108.454 7.08626 107.793 6.7747C105.577 5.76243 103.089 5.25629 100.329 5.25629C98.1131 5.25629 96.3637 5.60657 95.1586 6.34675C93.9535 7.08693 93.3315 8.21612 93.3315 9.81176C93.3209 10.3287 93.4192 10.8421 93.6202 11.3184C93.8211 11.7948 94.1202 12.2233 94.4977 12.576C95.2755 13.3157 96.7137 14.0554 98.7742 14.7173L104.295 16.4683C107.095 17.3638 109.115 18.6096 110.32 20.2057C111.507 21.7718 112.137 23.6904 112.109 25.6562C112.129 27.22 111.783 28.7667 111.098 30.1723C110.408 31.5048 109.44 32.6732 108.26 33.5983C106.976 34.5989 105.511 35.3396 103.945 35.7793C102.144 36.3339 100.269 36.6096 98.3853 36.5969L98.3855 36.5962Z" fill="#ABABAB"/>
<path d="M105.733 55.5166C92.9428 64.9772 74.3601 69.9993 58.3821 69.9993C35.9894 70.0002 15.8127 61.7076 0.573778 47.9257C-0.631336 46.8352 0.457111 45.3562 1.89556 46.2121C18.3789 55.7895 38.7112 61.5898 59.743 61.5898C73.9328 61.5898 89.5219 58.63 103.867 52.5575C106.006 51.5841 107.833 53.9595 105.734 55.5173L105.733 55.5166Z" fill="#ABABAB"/>
<path d="M111.059 49.4439C109.426 47.3415 100.252 48.4317 96.0917 48.9378C94.8473 49.0936 94.6533 48.0031 95.7806 47.1859C103.089 42.047 115.102 43.5262 116.502 45.2393C117.902 46.9912 116.113 59.0213 109.271 64.7834C108.221 65.6789 107.21 65.2115 107.677 64.0436C109.232 60.1892 112.692 51.5073 111.059 49.4439Z" fill="#ABABAB"/>
</g>
<defs>
<clipPath id="clip0_524_4297">
<rect width="116.889" height="70" fill="white" transform="translate(0.0555534)"/>
</clipPath>
</defs>
</svg>
