<svg width="117" height="70" viewBox="0 0 117 70" fill="none" xmlns="http://www.w3.org/2000/svg">
<g clip-path="url(#clip0_658_8541)">
<path d="M32.9961 25.4227C32.9659 26.5925 33.11 27.7604 33.4236 28.8877C33.7691 29.8517 34.185 30.789 34.6681 31.6917C34.841 31.9587 34.9354 32.2691 34.9403 32.5873C34.9403 32.9765 34.707 33.3662 34.2016 33.7552L31.7525 35.3904C31.457 35.6035 31.1057 35.7253 30.7418 35.7407C30.299 35.7102 29.8834 35.516 29.5756 35.1957C29.0516 34.632 28.5828 34.0193 28.1756 33.3659C27.7869 32.7041 27.3978 31.9639 26.9705 31.0688C23.9382 34.65 20.1283 36.4406 15.5407 36.4406C12.274 36.4406 9.67047 35.5059 7.76557 33.6366C5.86068 31.7672 4.88868 29.2769 4.88868 26.1624C4.88868 22.8532 6.0549 20.1669 8.42646 18.1424C10.798 16.1179 13.9467 15.1056 17.9509 15.1056C19.33 15.1169 20.7067 15.2209 22.0718 15.4171C23.5103 15.6119 24.9876 15.9232 26.5425 16.2737V13.4316C26.5425 10.4718 25.9203 8.40945 24.7154 7.20237C23.4709 5.99552 21.372 5.41156 18.3785 5.41156C16.9638 5.4115 15.5541 5.5814 14.1798 5.91763C12.7507 6.25859 11.3476 6.70094 9.98113 7.24132C9.53903 7.43941 9.08451 7.60845 8.62046 7.74738C8.41916 7.81385 8.20991 7.85314 7.99824 7.86422C7.45402 7.86422 7.18179 7.47499 7.18179 6.65736V4.74972C7.18179 4.1266 7.25957 3.65925 7.45402 3.38708C7.74737 3.03221 8.12053 2.75201 8.54291 2.56946C10.1022 1.79683 11.7461 1.20891 13.4414 0.817593C15.4223 0.308562 17.461 0.0598946 19.506 0.0778578C24.1332 0.0778578 27.5145 1.12893 29.6916 3.2313C31.8298 5.33367 32.9183 8.52606 32.9183 12.8087V25.4227H32.9961ZM17.2125 31.3404C18.5763 31.3253 19.9286 31.0887 21.2167 30.6396C22.6436 30.1452 23.9167 29.286 24.9098 28.1471C25.5365 27.4295 25.9889 26.5764 26.2316 25.6546C26.4987 24.5457 26.6292 23.4082 26.6203 22.2675V20.634C25.4416 20.3466 24.2477 20.1257 23.0443 19.9722C21.832 19.8184 20.6113 19.7407 19.3894 19.7396C16.7847 19.7396 14.8798 20.2457 13.5969 21.2974C12.314 22.3491 11.692 23.8279 11.692 25.7745C11.692 27.6043 12.1587 28.9669 13.1305 29.9014C14.0638 30.8748 15.4243 31.3419 17.2125 31.3419V31.3404ZM48.4299 35.5451C47.7301 35.5451 47.2636 35.4283 46.9525 35.1559C46.6414 34.9222 46.3694 34.377 46.1361 33.6374L36.9999 3.54286C36.8228 3.0391 36.7054 2.51625 36.6501 1.98506C36.6501 1.36193 36.9612 1.01165 37.5834 1.01165H41.3932C42.1319 1.01165 42.6376 1.12849 42.9094 1.40088C43.2205 1.63455 43.4536 2.17978 43.6872 2.9193L50.2183 28.6923L56.2828 2.91996C56.4772 2.14106 56.7103 1.63522 57.0214 1.40155C57.3326 1.16788 57.8768 1.01232 58.577 1.01232H61.6881C62.4268 1.01232 62.9326 1.12915 63.2437 1.40155C63.5548 1.63522 63.8268 2.18045 63.9823 2.91996L70.1248 29.0045L76.8482 2.91996C77.0815 2.14106 77.3535 1.63522 77.6259 1.40155C77.937 1.16788 78.4424 1.01232 79.1422 1.01232H82.7577C83.3799 1.01232 83.7297 1.32388 83.7297 1.98572C83.7206 2.19519 83.6946 2.40358 83.6519 2.60885C83.591 2.94095 83.4999 3.26677 83.3797 3.58225L74.0106 33.6768C73.7774 34.4554 73.5052 34.9616 73.1941 35.1953C72.7547 35.477 72.2378 35.6132 71.7168 35.5845H68.3732C67.6346 35.5845 67.1288 35.4676 66.8177 35.1953C66.5066 34.9229 66.2346 34.4163 66.079 33.6374L60.0537 8.52606L54.0665 33.5985C53.8721 34.3774 53.639 34.8832 53.3279 35.1563C53.0168 35.4294 52.4725 35.5455 51.7723 35.5455L48.4299 35.5451ZM98.3855 36.5962C96.3694 36.5983 94.3599 36.3631 92.3986 35.8954C90.4548 35.428 88.9386 34.922 87.9279 34.3376C87.3057 33.9873 86.8784 33.5978 86.7228 33.2471C86.5715 32.9034 86.492 32.5323 86.4895 32.1566V30.1724C86.4895 29.3548 86.8006 28.9656 87.3837 28.9656C87.6218 28.9664 87.8581 29.0058 88.0835 29.0824C88.3168 29.1603 88.6666 29.3161 89.0555 29.4717C90.4287 30.0765 91.8623 30.5333 93.332 30.8343C94.8547 31.1438 96.4044 31.3004 97.9582 31.3016C100.407 31.3016 102.312 30.8735 103.634 30.0169C104.267 29.6342 104.788 29.0904 105.143 28.4408C105.499 27.7911 105.676 27.0588 105.656 26.3184C105.67 25.8172 105.584 25.3183 105.404 24.8505C105.224 24.3827 104.953 23.9554 104.607 23.5932C103.907 22.8534 102.585 22.1911 100.68 21.568L95.0422 19.8164C92.2042 18.9211 90.1048 17.5974 88.8222 15.8451C87.5706 14.2293 86.8872 12.2447 86.8784 10.1998C86.8468 8.69237 87.2086 7.20277 87.9279 5.87824C88.6224 4.62572 89.5773 3.53707 90.728 2.68585C91.9396 1.76721 93.3103 1.08064 94.7711 0.6607C96.3625 0.201969 98.0125 -0.0206416 99.6684 -3.25157e-05C100.539 -0.00635391 101.409 0.0456892 102.273 0.155748C103.167 0.272583 103.984 0.428364 104.8 0.583922C105.578 0.778648 106.316 0.973151 107.016 1.20704C107.583 1.38278 108.131 1.61766 108.649 1.90783C109.107 2.139 109.506 2.47196 109.815 2.88124C110.068 3.26009 110.191 3.71106 110.165 4.16599V5.99574C110.165 6.81336 109.854 7.24198 109.271 7.24198C108.96 7.24198 108.454 7.0862 107.793 6.77464C105.577 5.76237 103.089 5.25623 100.329 5.25623C98.1131 5.25623 96.3637 5.60651 95.1586 6.34669C93.9535 7.08687 93.3315 8.21606 93.3315 9.8117C93.3209 10.3287 93.4192 10.8421 93.6202 11.3184C93.8211 11.7947 94.1202 12.2232 94.4977 12.5759C95.2755 13.3156 96.7137 14.0554 98.7742 14.7172L104.295 16.4682C107.095 17.3637 109.115 18.6095 110.32 20.2056C111.507 21.7717 112.137 23.6904 112.109 25.6561C112.129 27.2199 111.783 28.7666 111.098 30.1722C110.408 31.5047 109.44 32.6732 108.26 33.5983C106.977 34.5988 105.511 35.3396 103.945 35.7792C102.144 36.3338 100.269 36.6096 98.3853 36.5968L98.3855 36.5962Z" fill="#ABABAB"/>
<path d="M105.733 55.5166C92.9428 64.9772 74.3601 69.9993 58.3821 69.9993C35.9894 70.0002 15.8127 61.7076 0.573778 47.9257C-0.631336 46.8352 0.457111 45.3562 1.89556 46.2121C18.3789 55.7895 38.7112 61.5898 59.743 61.5898C73.9328 61.5898 89.5219 58.63 103.867 52.5575C106.006 51.5841 107.833 53.9595 105.734 55.5173L105.733 55.5166Z" fill="#ABABAB"/>
<path d="M111.059 49.4438C109.426 47.3414 100.252 48.4317 96.0917 48.9377C94.8473 49.0935 94.6533 48.0031 95.7806 47.1859C103.089 42.0469 115.102 43.5261 116.502 45.2393C117.902 46.9911 116.113 59.0212 109.271 64.7833C108.221 65.6788 107.21 65.2115 107.677 64.0436C109.232 60.1891 112.692 51.5072 111.059 49.4438Z" fill="#ABABAB"/>
</g>
<defs>
<clipPath id="clip0_658_8541">
<rect width="116.889" height="70" fill="white" transform="translate(0.0555573)"/>
</clipPath>
</defs>
</svg>
