<svg width="75" height="16" viewBox="0 0 75 16" fill="none" xmlns="http://www.w3.org/2000/svg">
<path d="M0.376 0.832H5.32C6.248 0.832 6.97333 1.09333 7.496 1.616C8.02933 2.13867 8.296 2.83733 8.296 3.712C8.296 4.128 8.23733 4.48533 8.12 4.784C8.00267 5.072 7.85333 5.312 7.672 5.504C7.49067 5.68533 7.28267 5.824 7.048 5.92C6.81333 6.00533 6.584 6.05867 6.36 6.08V6.176C6.584 6.18667 6.82933 6.24 7.096 6.336C7.37333 6.432 7.62933 6.58667 7.864 6.8C8.09867 7.00267 8.296 7.26933 8.456 7.6C8.616 7.92 8.696 8.31467 8.696 8.784C8.696 9.232 8.62133 9.65333 8.472 10.048C8.33333 10.4427 8.136 10.784 7.88 11.072C7.624 11.36 7.32 11.5893 6.968 11.76C6.616 11.92 6.232 12 5.816 12H0.376V0.832ZM2.184 10.448H5.288C5.75733 10.448 6.12533 10.3253 6.392 10.08C6.65867 9.83467 6.792 9.48267 6.792 9.024V8.48C6.792 8.02133 6.65867 7.66933 6.392 7.424C6.12533 7.17867 5.75733 7.056 5.288 7.056H2.184V10.448ZM2.184 5.552H4.984C5.432 5.552 5.77867 5.44 6.024 5.216C6.26933 4.98133 6.392 4.65067 6.392 4.224V3.712C6.392 3.28533 6.26933 2.96 6.024 2.736C5.77867 2.50133 5.432 2.384 4.984 2.384H2.184V5.552ZM11.0349 2.192C10.6722 2.192 10.4055 2.10667 10.2349 1.936C10.0749 1.76533 9.99487 1.54667 9.99487 1.28V1.008C9.99487 0.741333 10.0749 0.522666 10.2349 0.351999C10.4055 0.181333 10.6722 0.0959997 11.0349 0.0959997C11.3975 0.0959997 11.6589 0.181333 11.8189 0.351999C11.9789 0.522666 12.0589 0.741333 12.0589 1.008V1.28C12.0589 1.54667 11.9789 1.76533 11.8189 1.936C11.6589 2.10667 11.3975 2.192 11.0349 2.192ZM10.1549 3.68H11.8989V12H10.1549V3.68ZM21.0453 12.784C21.0453 13.648 20.7146 14.2987 20.0533 14.736C19.3919 15.1733 18.3146 15.392 16.8213 15.392C16.1386 15.392 15.5573 15.344 15.0773 15.248C14.6079 15.1627 14.2186 15.0347 13.9093 14.864C13.6106 14.6933 13.3919 14.4853 13.2533 14.24C13.1146 13.9947 13.0453 13.712 13.0453 13.392C13.0453 12.9333 13.1679 12.576 13.4133 12.32C13.6693 12.064 14.0213 11.888 14.4693 11.792V11.616C13.8399 11.4133 13.5253 10.9867 13.5253 10.336C13.5253 9.90933 13.6693 9.584 13.9573 9.36C14.2453 9.12533 14.5919 8.96 14.9973 8.864V8.8C14.5066 8.56533 14.1279 8.24 13.8613 7.824C13.6053 7.39733 13.4773 6.90133 13.4773 6.336C13.4773 5.48267 13.7599 4.79467 14.3253 4.272C14.9013 3.74933 15.7226 3.488 16.7893 3.488C17.3759 3.488 17.8773 3.57333 18.2933 3.744V3.52C18.2933 3.14667 18.3786 2.85867 18.5493 2.656C18.7306 2.44267 19.0079 2.336 19.3813 2.336H20.6613V3.744H18.9653V4.08C19.3386 4.32533 19.6266 4.64533 19.8293 5.04C20.0319 5.424 20.1333 5.856 20.1333 6.336C20.1333 7.17867 19.8453 7.86133 19.2693 8.384C18.6933 8.896 17.8719 9.152 16.8053 9.152C16.3999 9.152 16.0373 9.10933 15.7173 9.024C15.5039 9.09867 15.3173 9.20533 15.1573 9.344C14.9973 9.472 14.9173 9.64267 14.9173 9.856C14.9173 10.08 15.0186 10.24 15.2213 10.336C15.4239 10.432 15.7119 10.48 16.0853 10.48H18.1333C19.1573 10.48 19.8986 10.688 20.3573 11.104C20.8159 11.5093 21.0453 12.0693 21.0453 12.784ZM19.4133 12.976C19.4133 12.688 19.3013 12.4587 19.0773 12.288C18.8639 12.1173 18.4693 12.032 17.8933 12.032H15.0773C14.6933 12.256 14.5013 12.576 14.5013 12.992C14.5013 13.3333 14.6346 13.6053 14.9013 13.808C15.1786 14.0213 15.6426 14.128 16.2933 14.128H17.3813C18.7359 14.128 19.4133 13.744 19.4133 12.976ZM16.8053 7.888C17.3173 7.888 17.7119 7.776 17.9893 7.552C18.2773 7.31733 18.4213 6.96 18.4213 6.48V6.16C18.4213 5.68 18.2773 5.328 17.9893 5.104C17.7119 4.86933 17.3173 4.752 16.8053 4.752C16.2933 4.752 15.8933 4.86933 15.6053 5.104C15.3279 5.328 15.1893 5.68 15.1893 6.16V6.48C15.1893 6.96 15.3279 7.31733 15.6053 7.552C15.8933 7.776 16.2933 7.888 16.8053 7.888ZM24.9723 12V0.832H32.1243V2.432H26.7803V5.536H31.6283V7.136H26.7803V10.4H32.1243V12H24.9723ZM33.6886 12V3.68H35.4326V5.056H35.5126C35.694 4.608 35.966 4.23467 36.3286 3.936C36.702 3.63733 37.2086 3.488 37.8486 3.488C38.702 3.488 39.3633 3.77067 39.8326 4.336C40.3126 4.89067 40.5526 5.68533 40.5526 6.72V12H38.8086V6.944C38.8086 5.64267 38.286 4.992 37.2406 4.992C37.0166 4.992 36.7926 5.024 36.5686 5.088C36.3553 5.14133 36.1633 5.22667 35.9926 5.344C35.822 5.46133 35.6833 5.61067 35.5766 5.792C35.4806 5.97333 35.4326 6.18667 35.4326 6.432V12H33.6886ZM44.6339 12C44.0259 12 43.5672 11.8453 43.2579 11.536C42.9485 11.216 42.7939 10.768 42.7939 10.192V5.104H41.4979V3.68H42.2019C42.4899 3.68 42.6872 3.616 42.7939 3.488C42.9112 3.36 42.9699 3.152 42.9699 2.864V1.408H44.5379V3.68H46.2819V5.104H44.5379V10.576H46.1539V12H44.6339ZM48.4136 2.192C48.051 2.192 47.7843 2.10667 47.6136 1.936C47.4536 1.76533 47.3736 1.54667 47.3736 1.28V1.008C47.3736 0.741333 47.4536 0.522666 47.6136 0.351999C47.7843 0.181333 48.051 0.0959997 48.4136 0.0959997C48.7763 0.0959997 49.0376 0.181333 49.1976 0.351999C49.3576 0.522666 49.4376 0.741333 49.4376 1.008V1.28C49.4376 1.54667 49.3576 1.76533 49.1976 1.936C49.0376 2.10667 48.7763 2.192 48.4136 2.192ZM47.5336 3.68H49.2776V12H47.5336V3.68ZM53.432 12C52.824 12 52.3653 11.8453 52.056 11.536C51.7467 11.216 51.592 10.768 51.592 10.192V5.104H50.296V3.68H51C51.288 3.68 51.4853 3.616 51.592 3.488C51.7093 3.36 51.768 3.152 51.768 2.864V1.408H53.336V3.68H55.08V5.104H53.336V10.576H54.952V12H53.432ZM57.2118 2.192C56.8491 2.192 56.5824 2.10667 56.4118 1.936C56.2518 1.76533 56.1718 1.54667 56.1718 1.28V1.008C56.1718 0.741333 56.2518 0.522666 56.4118 0.351999C56.5824 0.181333 56.8491 0.0959997 57.2118 0.0959997C57.5744 0.0959997 57.8358 0.181333 57.9958 0.351999C58.1558 0.522666 58.2358 0.741333 58.2358 1.008V1.28C58.2358 1.54667 58.1558 1.76533 57.9958 1.936C57.8358 2.10667 57.5744 2.192 57.2118 2.192ZM56.3318 3.68H58.0758V12H56.3318V3.68ZM63.1901 12.192C62.5928 12.192 62.0595 12.0907 61.5901 11.888C61.1208 11.6853 60.7208 11.3973 60.3901 11.024C60.0595 10.64 59.8035 10.1813 59.6221 9.648C59.4515 9.104 59.3661 8.50133 59.3661 7.84C59.3661 7.17867 59.4515 6.58133 59.6221 6.048C59.8035 5.504 60.0595 5.04533 60.3901 4.672C60.7208 4.288 61.1208 3.99467 61.5901 3.792C62.0595 3.58933 62.5928 3.488 63.1901 3.488C63.7981 3.488 64.3315 3.59467 64.7901 3.808C65.2595 4.02133 65.6488 4.32 65.9581 4.704C66.2675 5.07733 66.4968 5.51467 66.6461 6.016C66.8061 6.51733 66.8861 7.056 66.8861 7.632V8.288H61.1741V8.56C61.1741 9.2 61.3608 9.728 61.7341 10.144C62.1181 10.5493 62.6621 10.752 63.3661 10.752C63.8781 10.752 64.3101 10.64 64.6621 10.416C65.0141 10.192 65.3128 9.888 65.5581 9.504L66.5821 10.512C66.2728 11.024 65.8248 11.4347 65.2381 11.744C64.6515 12.0427 63.9688 12.192 63.1901 12.192ZM63.1901 4.848C62.8915 4.848 62.6141 4.90133 62.3581 5.008C62.1128 5.11467 61.8995 5.264 61.7181 5.456C61.5475 5.648 61.4141 5.87733 61.3181 6.144C61.2221 6.41067 61.1741 6.704 61.1741 7.024V7.136H65.0461V6.976C65.0461 6.336 64.8808 5.824 64.5501 5.44C64.2195 5.04533 63.7661 4.848 63.1901 4.848ZM70.8167 12.192C70.0274 12.192 69.3661 12.0533 68.8327 11.776C68.2994 11.4987 67.8354 11.1147 67.4407 10.624L68.5607 9.6C68.8701 9.97333 69.2114 10.2667 69.5847 10.48C69.9687 10.6827 70.4114 10.784 70.9127 10.784C71.4247 10.784 71.8034 10.688 72.0487 10.496C72.3047 10.2933 72.4327 10.016 72.4327 9.664C72.4327 9.39733 72.3421 9.17333 72.1607 8.992C71.9901 8.8 71.6861 8.67733 71.2487 8.624L70.4807 8.528C69.6274 8.42133 68.9554 8.176 68.4647 7.792C67.9847 7.39733 67.7447 6.816 67.7447 6.048C67.7447 5.64267 67.8194 5.28533 67.9687 4.976C68.1181 4.656 68.3261 4.38933 68.5927 4.176C68.8701 3.952 69.1954 3.78133 69.5687 3.664C69.9527 3.54667 70.3741 3.488 70.8327 3.488C71.5794 3.488 72.1874 3.60533 72.6567 3.84C73.1367 4.07467 73.5634 4.4 73.9367 4.816L72.8647 5.84C72.6514 5.584 72.3687 5.36533 72.0167 5.184C71.6754 4.992 71.2807 4.896 70.8327 4.896C70.3527 4.896 69.9954 4.992 69.7607 5.184C69.5367 5.376 69.4247 5.62667 69.4247 5.936C69.4247 6.256 69.5261 6.496 69.7287 6.656C69.9314 6.816 70.2567 6.93333 70.7047 7.008L71.4727 7.104C72.3901 7.24267 73.0567 7.51467 73.4727 7.92C73.8994 8.31467 74.1127 8.848 74.1127 9.52C74.1127 9.92533 74.0327 10.2933 73.8727 10.624C73.7234 10.944 73.5047 11.2213 73.2167 11.456C72.9287 11.6907 72.5821 11.872 72.1767 12C71.7714 12.128 71.3181 12.192 70.8167 12.192Z" fill="#080E1B"/>
</svg>
