<svg width="124" height="40" viewBox="0 0 124 40" fill="none" xmlns="http://www.w3.org/2000/svg">
<g clip-path="url(#clip0_205_1778)">
<path d="M0.0805664 0.110602V4.09954H19.8672C23.1201 4.54739 25.6262 7.16377 25.9637 10.2643C26.3572 13.8851 23.7217 17.4752 19.8672 18.0608H15.2957V22.0498H19.8427C23.5171 22.5194 26.1771 25.8628 25.9637 29.4837C25.7679 32.7945 23.211 35.6104 19.8672 36.0364H0.0805664V40H19.8672C26.4884 40 29.9861 34.1979 29.9984 29.4964C29.9144 25.2772 28.3912 22.1749 25.6017 20.0553C28.4226 18.2693 29.9337 15.1725 29.9984 10.393C29.4387 4.54377 25.8641 0.364444 19.9739 0L0.0805664 0.110602Z" fill="white"/>
<path d="M16.8643 9.15918H0V13.0647H16.8643V9.15918Z" fill="white"/>
<path d="M7.53235 18.0762H0V21.8004H7.53235V18.0762Z" fill="white"/>
<path d="M17.1389 27.167H0V30.8386H17.1389V27.167Z" fill="white"/>
</g>
<path d="M40.312 11.832H45.48C45.9387 11.832 46.3493 11.9013 46.712 12.04C47.0853 12.1787 47.4 12.3707 47.656 12.616C47.912 12.8613 48.104 13.1653 48.232 13.528C48.3707 13.88 48.44 14.2693 48.44 14.696C48.44 15.1227 48.3813 15.4853 48.264 15.784C48.1573 16.072 48.008 16.312 47.816 16.504C47.6347 16.696 47.4213 16.84 47.176 16.936C46.9413 17.032 46.696 17.0853 46.44 17.096V17.192C46.6853 17.192 46.9467 17.24 47.224 17.336C47.512 17.432 47.7733 17.5867 48.008 17.8C48.2533 18.0027 48.456 18.2693 48.616 18.6C48.776 18.92 48.856 19.32 48.856 19.8C48.856 20.248 48.7813 20.6693 48.632 21.064C48.4933 21.448 48.296 21.784 48.04 22.072C47.784 22.36 47.48 22.5893 47.128 22.76C46.776 22.92 46.392 23 45.976 23H40.312V11.832ZM42.424 21.208H45.368C45.7733 21.208 46.088 21.1067 46.312 20.904C46.536 20.6907 46.648 20.3867 46.648 19.992V19.448C46.648 19.0533 46.536 18.7493 46.312 18.536C46.088 18.3227 45.7733 18.216 45.368 18.216H42.424V21.208ZM42.424 16.488H45.032C45.416 16.488 45.7147 16.3867 45.928 16.184C46.1413 15.9707 46.248 15.6773 46.248 15.304V14.808C46.248 14.4347 46.1413 14.1467 45.928 13.944C45.7147 13.7307 45.416 13.624 45.032 13.624H42.424V16.488ZM51.8174 13.432C51.3907 13.432 51.0814 13.336 50.8894 13.144C50.708 12.952 50.6174 12.7067 50.6174 12.408V12.088C50.6174 11.7893 50.708 11.544 50.8894 11.352C51.0814 11.16 51.3907 11.064 51.8174 11.064C52.2334 11.064 52.5374 11.16 52.7294 11.352C52.9214 11.544 53.0174 11.7893 53.0174 12.088V12.408C53.0174 12.7067 52.9214 12.952 52.7294 13.144C52.5374 13.336 52.2334 13.432 51.8174 13.432ZM50.7934 14.648H52.8414V23H50.7934V14.648ZM62.7513 23.704C62.7513 24.1413 62.6713 24.5253 62.5113 24.856C62.3619 25.1973 62.1113 25.48 61.7593 25.704C61.4073 25.928 60.9539 26.0987 60.3993 26.216C59.8446 26.3333 59.1673 26.392 58.3673 26.392C57.6633 26.392 57.0659 26.344 56.5753 26.248C56.0846 26.1627 55.6793 26.0347 55.3593 25.864C55.0499 25.704 54.8259 25.5013 54.6873 25.256C54.5486 25.0107 54.4793 24.7333 54.4793 24.424C54.4793 23.9547 54.6073 23.5867 54.8633 23.32C55.1299 23.064 55.4979 22.8987 55.9673 22.824V22.648C55.6259 22.5627 55.3593 22.3973 55.1673 22.152C54.9859 21.896 54.8953 21.5973 54.8953 21.256C54.8953 21.0427 54.9379 20.856 55.0233 20.696C55.1086 20.5253 55.2206 20.3813 55.3593 20.264C55.5086 20.1467 55.6739 20.0507 55.8553 19.976C56.0366 19.8907 56.2286 19.8267 56.4313 19.784V19.72C55.9193 19.4853 55.5353 19.16 55.2793 18.744C55.0339 18.328 54.9113 17.8427 54.9113 17.288C54.9113 16.4347 55.2046 15.752 55.7913 15.24C56.3779 14.7173 57.2366 14.456 58.3673 14.456C58.6233 14.456 58.8739 14.472 59.1193 14.504C59.3753 14.536 59.6099 14.5893 59.8233 14.664V14.392C59.8233 13.5813 60.2179 13.176 61.0073 13.176H62.3033V14.744H60.5273V14.968C60.9646 15.2133 61.2899 15.5333 61.5033 15.928C61.7166 16.3227 61.8233 16.776 61.8233 17.288C61.8233 18.1307 61.5299 18.808 60.9433 19.32C60.3673 19.832 59.5086 20.088 58.3673 20.088C57.8766 20.088 57.4499 20.04 57.0873 19.944C56.9273 20.0187 56.7886 20.12 56.6713 20.248C56.5539 20.3653 56.4953 20.5147 56.4953 20.696C56.4953 21.112 56.8579 21.32 57.5833 21.32H59.8233C60.8473 21.32 61.5886 21.5333 62.0473 21.96C62.5166 22.376 62.7513 22.9573 62.7513 23.704ZM60.8313 23.944C60.8313 23.6773 60.7246 23.4693 60.5113 23.32C60.2979 23.1707 59.9299 23.096 59.4073 23.096H56.5593C56.2713 23.3093 56.1273 23.5973 56.1273 23.96C56.1273 24.28 56.2606 24.5307 56.5273 24.712C56.7939 24.8933 57.2473 24.984 57.8873 24.984H58.9113C59.5833 24.984 60.0686 24.8987 60.3673 24.728C60.6766 24.5573 60.8313 24.296 60.8313 23.944ZM58.3673 18.696C59.3699 18.696 59.8713 18.2693 59.8713 17.416V17.144C59.8713 16.2907 59.3699 15.864 58.3673 15.864C57.3646 15.864 56.8633 16.2907 56.8633 17.144V17.416C56.8633 18.2693 57.3646 18.696 58.3673 18.696ZM67.8433 23V11.832H75.2033V13.704H69.9553V16.408H74.5953V18.28H69.9553V21.128H75.2033V23H67.8433ZM77.309 23V14.648H79.357V16.04H79.437C79.6077 15.592 79.8743 15.2187 80.237 14.92C80.6103 14.6107 81.1223 14.456 81.773 14.456C82.637 14.456 83.2983 14.7387 83.757 15.304C84.2157 15.8693 84.445 16.6747 84.445 17.72V23H82.397V17.928C82.397 17.3307 82.2903 16.8827 82.077 16.584C81.8637 16.2853 81.5117 16.136 81.021 16.136C80.8077 16.136 80.5997 16.168 80.397 16.232C80.205 16.2853 80.029 16.3707 79.869 16.488C79.7197 16.5947 79.597 16.7333 79.501 16.904C79.405 17.064 79.357 17.256 79.357 17.48V23H77.309ZM89.3233 23C88.6193 23 88.0806 22.8187 87.7073 22.456C87.3446 22.0827 87.1633 21.5547 87.1633 20.872V16.28H85.9313V14.648H86.5713C86.8806 14.648 87.0886 14.5787 87.1953 14.44C87.3126 14.2907 87.3713 14.072 87.3713 13.784V12.36H89.2113V14.648H90.9233V16.28H89.2113V21.368H90.7953V23H89.3233ZM93.7236 13.432C93.297 13.432 92.9876 13.336 92.7956 13.144C92.6143 12.952 92.5236 12.7067 92.5236 12.408V12.088C92.5236 11.7893 92.6143 11.544 92.7956 11.352C92.9876 11.16 93.297 11.064 93.7236 11.064C94.1396 11.064 94.4436 11.16 94.6356 11.352C94.8276 11.544 94.9236 11.7893 94.9236 12.088V12.408C94.9236 12.7067 94.8276 12.952 94.6356 13.144C94.4436 13.336 94.1396 13.432 93.7236 13.432ZM92.6996 14.648H94.7476V23H92.6996V14.648ZM99.7295 23C99.0255 23 98.4868 22.8187 98.1135 22.456C97.7508 22.0827 97.5695 21.5547 97.5695 20.872V16.28H96.3375V14.648H96.9775C97.2868 14.648 97.4948 14.5787 97.6015 14.44C97.7188 14.2907 97.7775 14.072 97.7775 13.784V12.36H99.6175V14.648H101.33V16.28H99.6175V21.368H101.202V23H99.7295ZM104.13 13.432C103.703 13.432 103.394 13.336 103.202 13.144C103.021 12.952 102.93 12.7067 102.93 12.408V12.088C102.93 11.7893 103.021 11.544 103.202 11.352C103.394 11.16 103.703 11.064 104.13 11.064C104.546 11.064 104.85 11.16 105.042 11.352C105.234 11.544 105.33 11.7893 105.33 12.088V12.408C105.33 12.7067 105.234 12.952 105.042 13.144C104.85 13.336 104.546 13.432 104.13 13.432ZM103.106 14.648H105.154V23H103.106V14.648ZM110.904 23.192C110.285 23.192 109.73 23.0907 109.24 22.888C108.76 22.6747 108.349 22.3813 108.008 22.008C107.677 21.624 107.421 21.1653 107.24 20.632C107.058 20.088 106.968 19.48 106.968 18.808C106.968 18.1467 107.053 17.5493 107.224 17.016C107.405 16.4827 107.661 16.0293 107.992 15.656C108.322 15.272 108.728 14.9787 109.208 14.776C109.688 14.5627 110.232 14.456 110.84 14.456C111.49 14.456 112.056 14.568 112.536 14.792C113.016 15.016 113.41 15.32 113.72 15.704C114.029 16.088 114.258 16.536 114.408 17.048C114.568 17.5493 114.648 18.088 114.648 18.664V19.336H109.096V19.544C109.096 20.152 109.266 20.6427 109.608 21.016C109.949 21.3787 110.456 21.56 111.128 21.56C111.64 21.56 112.056 21.4533 112.376 21.24C112.706 21.0267 113 20.7547 113.256 20.424L114.36 21.656C114.018 22.136 113.549 22.5147 112.952 22.792C112.365 23.0587 111.682 23.192 110.904 23.192ZM110.872 15.992C110.328 15.992 109.896 16.1733 109.576 16.536C109.256 16.8987 109.096 17.368 109.096 17.944V18.072H112.52V17.928C112.52 17.352 112.376 16.888 112.088 16.536C111.81 16.1733 111.405 15.992 110.872 15.992ZM119.186 23.192C118.386 23.192 117.714 23.0587 117.17 22.792C116.626 22.5147 116.146 22.136 115.73 21.656L116.978 20.44C117.287 20.792 117.623 21.0693 117.986 21.272C118.359 21.4747 118.786 21.576 119.266 21.576C119.756 21.576 120.108 21.4907 120.322 21.32C120.546 21.1493 120.658 20.9147 120.658 20.616C120.658 20.3707 120.578 20.1787 120.418 20.04C120.268 19.8907 120.007 19.7893 119.634 19.736L118.802 19.624C117.895 19.5067 117.202 19.2507 116.722 18.856C116.252 18.4507 116.018 17.864 116.018 17.096C116.018 16.6907 116.092 16.328 116.242 16.008C116.391 15.6773 116.604 15.4 116.882 15.176C117.159 14.9413 117.49 14.7653 117.874 14.648C118.268 14.52 118.706 14.456 119.186 14.456C119.591 14.456 119.948 14.488 120.258 14.552C120.578 14.6053 120.866 14.6907 121.122 14.808C121.378 14.9147 121.612 15.0533 121.826 15.224C122.039 15.384 122.247 15.5653 122.45 15.768L121.25 16.968C121.004 16.712 120.711 16.4987 120.37 16.328C120.028 16.1573 119.655 16.072 119.25 16.072C118.802 16.072 118.476 16.152 118.274 16.312C118.082 16.472 117.986 16.68 117.986 16.936C117.986 17.2133 118.066 17.4267 118.226 17.576C118.396 17.7147 118.679 17.816 119.074 17.88L119.922 17.992C121.724 18.248 122.626 19.0693 122.626 20.456C122.626 20.8613 122.54 21.2347 122.37 21.576C122.21 21.9067 121.98 22.1947 121.682 22.44C121.383 22.6747 121.02 22.8613 120.594 23C120.178 23.128 119.708 23.192 119.186 23.192Z" fill="white"/>
<defs>
<clipPath id="clip0_205_1778">
<rect width="30" height="40" fill="white"/>
</clipPath>
</defs>
</svg>
