<svg width="69" height="70" viewBox="0 0 69 70" fill="none" xmlns="http://www.w3.org/2000/svg">
<g clip-path="url(#clip0_1964_1790)">
<path d="M34.177 69.1385C53.0312 69.1385 68.3155 53.8542 68.3155 35C68.3155 16.1459 53.0312 0.861572 34.177 0.861572C15.3229 0.861572 0.0385742 16.1459 0.0385742 35C0.0385742 53.8542 15.3229 69.1385 34.177 69.1385Z" fill="#ABABAB"/>
<path d="M24.9157 17.5539C26.1003 17.877 27.2849 18.0923 28.4695 18.4154C29.6542 18.7385 30.8388 18.9539 32.0234 19.277C32.3465 19.3847 32.4542 19.277 32.5618 18.9539C32.9926 17.1231 33.4234 15.4 33.8542 13.5693C33.9618 13.2462 34.0695 13.1385 34.3926 13.2462C35.4695 13.5693 36.4388 13.7847 37.5157 14C37.8388 14.1077 37.8388 14.2154 37.7311 14.4308C37.3003 16.1539 36.8695 17.9847 36.4388 19.7077C36.4388 19.8154 36.4388 19.9231 36.3311 20.1385C37.1926 20.3539 38.1618 20.5693 39.0234 20.7847C39.1311 20.7847 39.2388 20.5693 39.3465 20.4616C39.6695 19.0616 39.9926 17.7693 40.4234 16.3693L40.7465 15.077C40.7465 14.8616 40.8542 14.7539 41.0695 14.8616C42.1465 15.1847 43.2234 15.4 44.408 15.7231C44.5157 15.7231 44.5157 15.8308 44.6234 15.8308C44.3003 17.2308 43.9772 18.5231 43.6542 19.8154C43.5465 20.3539 43.4388 20.8923 43.2234 21.4308C43.1157 21.7539 43.2234 21.8616 43.5465 21.9693L47.1003 23.5847C48.1772 24.2308 49.1465 25.0923 49.9003 26.1693C50.8695 27.7847 50.9772 29.5077 50.5465 31.2308C50.2234 32.4154 49.7926 33.4923 48.9311 34.3539C48.2849 35 47.4234 35.4308 46.5618 35.7539C46.4542 35.7539 46.3465 35.8616 46.1311 35.8616C46.5618 36.1847 46.9926 36.4 47.4234 36.7231C48.7157 37.6923 49.5772 38.877 50.008 40.3847C50.2234 41.5693 50.1157 42.8616 49.7926 44.0462C49.3618 45.5539 48.8234 46.8462 47.8542 48.0308C46.6695 49.4308 45.1618 50.1847 43.4388 50.4C41.1772 50.7231 39.0234 50.5077 36.8695 50.1847C36.5465 50.077 36.3311 50.1847 36.2234 50.5077C35.7926 52.2308 35.3618 54.0616 34.9311 55.7847C34.8234 56.2154 34.8234 56.3231 34.2849 56.1077C33.3157 55.8923 32.2388 55.5693 31.2695 55.3539C30.9465 55.2462 30.9465 55.1385 31.0542 54.9231C31.4849 53.0924 31.9157 51.2616 32.4542 49.5385C32.4542 49.3231 32.5618 49.2154 32.3465 49.1077C31.4849 48.8923 30.6234 48.677 29.6542 48.4616C29.4388 49.4308 29.1157 50.4 28.9003 51.3693C28.6849 52.3385 28.3618 53.3077 28.1465 54.277C28.0388 54.4924 28.0388 54.6 27.7157 54.4923C26.6388 54.1693 25.5618 53.9539 24.4849 53.7385C24.1618 53.6308 24.1618 53.5231 24.2695 53.3077C24.7003 51.477 25.1311 49.6462 25.6695 47.9231C25.6695 47.8154 25.7772 47.7077 25.7772 47.4923C23.3003 46.8462 20.8234 46.2 18.2388 45.5539C18.4542 45.1231 18.5618 44.8 18.7772 44.3693C19.208 43.4 19.6388 42.4308 19.9618 41.5693C20.0695 41.2462 20.1772 41.2462 20.5003 41.2462C21.2542 41.4616 22.1157 41.677 22.8695 41.7847C23.7311 42 24.3772 41.5693 24.4849 40.8154C25.8849 35.3231 27.2849 29.8308 28.5772 24.2308C28.7926 23.3693 28.2542 22.4 27.2849 22.077C26.3157 21.7539 25.3465 21.5385 24.4849 21.3231C24.2695 21.3231 24.1618 21.2154 24.2695 21C24.5926 19.8154 24.9157 18.5231 25.2388 17.3385C24.808 17.6616 24.808 17.6616 24.9157 17.5539ZM30.408 44.1539C30.5157 44.1539 30.6234 44.2616 30.6234 44.2616C32.3465 44.6923 34.1772 45.2308 36.008 45.3385C37.3003 45.4462 38.4849 45.4462 39.6695 45.0154C41.7157 44.3693 42.5772 41.677 41.3926 39.9539C40.8542 39.0923 39.9926 38.5539 39.1311 38.0154C37.1926 36.9385 34.9311 36.5077 32.7772 36.077C32.4542 35.9693 32.4542 36.077 32.3465 36.4C32.1311 37.477 31.808 38.4462 31.5926 39.5231C31.1618 41.0308 30.8388 42.5385 30.408 44.1539ZM39.4542 33.1693C39.6695 33.1693 40.208 33.0616 40.6388 32.9539C42.6849 32.5231 43.7618 30.1539 42.6849 28.3231C42.1465 27.3539 41.1772 26.7077 40.208 26.277C38.7003 25.6308 37.1926 25.3077 35.5772 24.877C35.2542 24.7693 35.1465 24.877 35.0388 25.2C34.5003 27.4616 33.9618 29.6154 33.3157 31.877C33.208 32.0924 33.3157 32.2 33.5311 32.3077C33.9618 32.4154 34.2849 32.5231 34.7157 32.6308C36.3311 32.8462 37.7311 33.1693 39.4542 33.1693Z" fill="#C9C8CA"/>
</g>
<defs>
<clipPath id="clip0_1964_1790">
<rect width="68.9231" height="70" fill="white" transform="translate(0.0385742)"/>
</clipPath>
</defs>
</svg>
