<svg width="69" height="70" viewBox="0 0 69 70" fill="none" xmlns="http://www.w3.org/2000/svg">
<g clip-path="url(#clip0_524_4080)">
<path d="M34.1769 69.1385C53.0311 69.1385 68.3154 53.8542 68.3154 35C68.3154 16.1459 53.0311 0.861542 34.1769 0.861542C15.3228 0.861542 0.0384521 16.1459 0.0384521 35C0.0384521 53.8542 15.3228 69.1385 34.1769 69.1385Z" fill="#F5B300"/>
<path d="M24.9154 17.5539C26.1 17.8769 27.2846 18.0923 28.4692 18.4154C29.6538 18.7385 30.8385 18.9539 32.0231 19.2769C32.3462 19.3846 32.4539 19.2769 32.5615 18.9539C32.9923 17.1231 33.4231 15.4 33.8538 13.5692C33.9615 13.2462 34.0692 13.1385 34.3923 13.2462C35.4692 13.5692 36.4385 13.7846 37.5154 14C37.8385 14.1077 37.8385 14.2154 37.7308 14.4308C37.3 16.1539 36.8692 17.9846 36.4385 19.7077C36.4385 19.8154 36.4385 19.9231 36.3308 20.1385C37.1923 20.3539 38.1615 20.5692 39.0231 20.7846C39.1308 20.7846 39.2385 20.5692 39.3462 20.4615C39.6692 19.0615 39.9923 17.7692 40.4231 16.3692L40.7462 15.0769C40.7462 14.8615 40.8538 14.7539 41.0692 14.8615C42.1462 15.1846 43.2231 15.4 44.4077 15.7231C44.5154 15.7231 44.5154 15.8308 44.6231 15.8308C44.3 17.2308 43.9769 18.5231 43.6539 19.8154C43.5462 20.3539 43.4385 20.8923 43.2231 21.4308C43.1154 21.7539 43.2231 21.8615 43.5462 21.9692L47.1 23.5846C48.1769 24.2308 49.1462 25.0923 49.9 26.1692C50.8692 27.7846 50.9769 29.5077 50.5462 31.2308C50.2231 32.4154 49.7923 33.4923 48.9308 34.3539C48.2846 35 47.4231 35.4308 46.5615 35.7539C46.4539 35.7539 46.3462 35.8615 46.1308 35.8615C46.5615 36.1846 46.9923 36.4 47.4231 36.7231C48.7154 37.6923 49.5769 38.8769 50.0077 40.3846C50.2231 41.5692 50.1154 42.8616 49.7923 44.0462C49.3615 45.5539 48.8231 46.8462 47.8539 48.0308C46.6692 49.4308 45.1615 50.1846 43.4385 50.4C41.1769 50.7231 39.0231 50.5077 36.8692 50.1846C36.5462 50.0769 36.3308 50.1846 36.2231 50.5077C35.7923 52.2308 35.3615 54.0616 34.9308 55.7846C34.8231 56.2154 34.8231 56.3231 34.2846 56.1077C33.3154 55.8923 32.2385 55.5692 31.2692 55.3539C30.9462 55.2462 30.9462 55.1385 31.0538 54.9231C31.4846 53.0923 31.9154 51.2616 32.4539 49.5385C32.4539 49.3231 32.5615 49.2154 32.3462 49.1077C31.4846 48.8923 30.6231 48.6769 29.6538 48.4616C29.4385 49.4308 29.1154 50.4 28.9 51.3692C28.6846 52.3385 28.3615 53.3077 28.1462 54.2769C28.0385 54.4923 28.0385 54.6 27.7154 54.4923C26.6385 54.1692 25.5615 53.9539 24.4846 53.7385C24.1615 53.6308 24.1615 53.5231 24.2692 53.3077C24.7 51.4769 25.1308 49.6462 25.6692 47.9231C25.6692 47.8154 25.7769 47.7077 25.7769 47.4923C23.3 46.8462 20.8231 46.2 18.2385 45.5539C18.4538 45.1231 18.5615 44.8 18.7769 44.3692C19.2077 43.4 19.6385 42.4308 19.9615 41.5692C20.0692 41.2462 20.1769 41.2462 20.5 41.2462C21.2538 41.4615 22.1154 41.6769 22.8692 41.7846C23.7308 42 24.3769 41.5692 24.4846 40.8154C25.8846 35.3231 27.2846 29.8308 28.5769 24.2308C28.7923 23.3692 28.2538 22.4 27.2846 22.0769C26.3154 21.7539 25.3462 21.5385 24.4846 21.3231C24.2692 21.3231 24.1615 21.2154 24.2692 21C24.5923 19.8154 24.9154 18.5231 25.2385 17.3385C24.8077 17.6615 24.8077 17.6615 24.9154 17.5539ZM30.4077 44.1539C30.5154 44.1539 30.6231 44.2615 30.6231 44.2615C32.3462 44.6923 34.1769 45.2308 36.0077 45.3385C37.3 45.4462 38.4846 45.4462 39.6692 45.0154C41.7154 44.3692 42.5769 41.6769 41.3923 39.9539C40.8539 39.0923 39.9923 38.5539 39.1308 38.0154C37.1923 36.9385 34.9308 36.5077 32.7769 36.0769C32.4538 35.9692 32.4538 36.0769 32.3462 36.4C32.1308 37.4769 31.8077 38.4462 31.5923 39.5231C31.1615 41.0308 30.8385 42.5385 30.4077 44.1539ZM39.4538 33.1692C39.6692 33.1692 40.2077 33.0616 40.6385 32.9539C42.6846 32.5231 43.7615 30.1539 42.6846 28.3231C42.1462 27.3539 41.1769 26.7077 40.2077 26.2769C38.7 25.6308 37.1923 25.3077 35.5769 24.8769C35.2539 24.7692 35.1462 24.8769 35.0385 25.2C34.5 27.4615 33.9615 29.6154 33.3154 31.8769C33.2077 32.0923 33.3154 32.2 33.5308 32.3077C33.9615 32.4154 34.2846 32.5231 34.7154 32.6308C36.3308 32.8462 37.7308 33.1692 39.4538 33.1692Z" fill="white"/>
</g>
<defs>
<clipPath id="clip0_524_4080">
<rect width="68.9231" height="70" fill="white" transform="translate(0.0384521)"/>
</clipPath>
</defs>
</svg>
