<svg width="126" height="107" viewBox="0 0 126 107" fill="none" xmlns="http://www.w3.org/2000/svg">
<path opacity="0.4" d="M109.736 50.5523C108.349 50.5523 106.899 50.1097 105.512 49.7936C102.706 49.1642 99.9469 48.3402 97.2544 47.3276C94.3299 46.2605 91.1153 46.3159 88.2292 47.4832C85.343 48.6505 82.9892 50.8472 81.6208 53.6506L80.2339 56.5591C74.1117 53.0765 68.4559 48.8271 63.4026 43.9133C58.5036 38.8446 54.267 33.1717 50.7949 27.031L53.6946 25.7032C56.4896 24.3306 58.6796 21.9697 59.8434 19.0748C61.0072 16.1799 61.0624 12.9556 59.9985 10.0223C58.9974 7.2973 58.1761 4.50919 57.54 1.67601C57.2248 0.284967 56.9727 -1.16931 56.7835 -2.56036C56.018 -7.01411 53.6923 -11.0474 50.2251 -13.9338C46.758 -16.8203 42.3773 -18.3702 37.8719 -18.3045H18.8973C16.2323 -18.308 13.5967 -17.7465 11.1632 -16.6568C8.7297 -15.5672 6.55329 -13.9739 4.77663 -11.9815C2.96314 -9.93509 1.61282 -7.51912 0.818455 -4.89962C0.0240925 -2.28011 -0.195485 0.480831 0.17481 3.19352C3.60151 29.5105 15.5891 53.9582 34.2787 72.7459C53.0097 91.4921 77.3837 103.516 103.621 106.953C104.44 107.016 105.261 107.016 106.08 106.953C110.728 106.96 115.217 105.249 118.688 102.148C120.674 100.366 122.262 98.1825 123.349 95.7417C124.435 93.3008 124.995 90.6572 124.991 87.9842V69.0153C124.957 64.6464 123.421 60.4232 120.641 57.0592C117.862 53.6953 114.01 51.3969 109.736 50.5523ZM112.825 88.49C112.823 89.3723 112.637 90.2444 112.278 91.0503C111.92 91.8561 111.398 92.5778 110.745 93.169C110.054 93.8003 109.232 94.2697 108.338 94.5431C107.443 94.8165 106.5 94.8871 105.575 94.7497C82.0512 91.6681 60.1892 80.9151 43.3563 64.1467C26.509 47.2484 15.6951 25.2439 12.5934 1.54955C12.4565 0.622198 12.5268 -0.324102 12.7994 -1.22083C13.072 -2.11755 13.5399 -2.94227 14.1694 -3.63526C14.7659 -4.29821 15.4956 -4.82691 16.3105 -5.18655C17.1254 -5.54619 18.007 -5.72862 18.8973 -5.72183H37.8089C39.2661 -5.75755 40.6906 -5.28564 41.84 -4.38643C42.9894 -3.48721 43.7925 -2.21627 44.1128 -0.789932C44.1128 0.917263 44.6801 2.68769 45.0583 4.39488C45.7869 7.70724 46.7561 10.9617 47.9581 14.1322L39.1327 18.3053C37.6158 19.0038 36.4369 20.2772 35.8547 21.8462C35.2242 23.3856 35.2242 25.1122 35.8547 26.6516C44.9272 46.1437 60.5485 61.8122 79.9818 70.9122C81.5165 71.5446 83.238 71.5446 84.7727 70.9122C86.337 70.3282 87.6065 69.1458 88.3029 67.6243L92.2743 58.7722C95.5265 59.9616 98.8539 60.9333 102.234 61.6807C103.873 62.0601 105.639 62.3762 107.341 62.6292C108.763 62.9504 110.03 63.756 110.926 64.9088C111.823 66.0616 112.293 67.4905 112.258 68.9521L112.825 88.49ZM75.6321 -19C74.1822 -19 72.6693 -19 71.2194 -19C69.5475 -18.8575 68.0005 -18.0546 66.9188 -16.768C65.8371 -15.4814 65.3092 -13.8166 65.4514 -12.1396C65.5935 -10.4627 66.3939 -8.91102 67.6766 -7.82603C68.9593 -6.74104 70.6192 -6.21158 72.2911 -6.35412H75.6321C85.6634 -6.35412 95.2839 -2.35713 102.377 4.75756C109.47 11.8722 113.455 21.5218 113.455 31.5835C113.455 32.7217 113.455 33.7966 113.455 34.9347C113.316 36.6027 113.841 38.2583 114.916 39.5384C115.992 40.8185 117.529 41.6187 119.192 41.7635H119.696C121.274 41.7699 122.797 41.1824 123.964 40.117C125.132 39.0517 125.858 37.586 126 36.0096C126 34.5553 126 33.0378 126 31.5835C126 18.1789 120.695 5.32234 111.251 -4.16209C101.807 -13.6465 88.9963 -18.9832 75.6321 -19ZM88.2398 31.5835C88.2398 33.2605 88.904 34.8687 90.0862 36.0545C91.2684 37.2403 92.8718 37.9065 94.5437 37.9065C96.2156 37.9065 97.819 37.2403 99.0012 36.0545C100.183 34.8687 100.848 33.2605 100.848 31.5835C100.848 24.8757 98.1909 18.4427 93.4621 13.6995C88.7333 8.95642 82.3197 6.29176 75.6321 6.29176C73.9602 6.29176 72.3568 6.95793 71.1746 8.14371C69.9924 9.32949 69.3282 10.9378 69.3282 12.6147C69.3282 14.2916 69.9924 15.8999 71.1746 17.0857C72.3568 18.2715 73.9602 18.9376 75.6321 18.9376C78.9759 18.9376 82.1827 20.27 84.5471 22.6415C86.9115 25.0131 88.2398 28.2296 88.2398 31.5835Z" fill="#8B8B8B"/>
</svg>
