<svg width="38" height="38" viewBox="0 0 38 38" fill="none" xmlns="http://www.w3.org/2000/svg">
<path d="M38 35.599C37.9996 35.9373 37.9268 36.2716 37.7865 36.5798C37.6461 36.8879 37.4415 37.1627 37.1862 37.386C36.9188 37.6159 36.606 37.7876 36.2681 37.8902C35.9301 37.9928 35.5743 38.024 35.2235 37.9817C26.2597 36.8375 17.9335 32.7551 11.5584 26.3784C5.18328 20.0017 1.12204 11.6936 0.0152646 2.76459C-0.0228289 2.41556 0.0105554 2.06246 0.113402 1.72664C0.216249 1.39081 0.386422 1.07923 0.613638 0.810728C0.837932 0.556562 1.11402 0.352859 1.42354 0.213173C1.73306 0.0734863 2.06892 0.00101847 2.40876 0.000590064H9.58923C10.1458 -0.0117393 10.6893 0.169479 11.1262 0.513051C11.5631 0.856624 11.866 1.34106 11.9827 1.88297C12.0785 2.53425 12.1981 3.1776 12.3418 3.813C12.6182 5.06906 12.9862 6.30341 13.4428 7.50627L10.0919 9.05506C9.80536 9.18593 9.54764 9.37184 9.33351 9.60213C9.11938 9.83243 8.95305 10.1026 8.84407 10.397C8.7351 10.6915 8.68562 11.0045 8.69849 11.318C8.71136 11.6316 8.78632 11.9395 8.91906 12.2241C12.3638 19.5696 18.295 25.4742 25.6735 28.9034C26.2562 29.1417 26.9098 29.1417 27.4926 28.9034C27.7911 28.7971 28.0654 28.6329 28.2996 28.4202C28.5338 28.2075 28.7232 27.9506 28.8569 27.6644L30.3408 24.3285C31.5782 24.769 32.841 25.1351 34.1225 25.4246C34.7608 25.5676 35.407 25.6867 36.0613 25.782C36.6056 25.8983 37.0922 26.1998 37.4374 26.6347C37.7825 27.0696 37.9645 27.6107 37.9521 28.1648L38 35.599Z" fill="white"/>
</svg>
