<svg width="60" height="60" viewBox="0 0 60 60" fill="none" xmlns="http://www.w3.org/2000/svg">
<path d="M14.7679 19.2262H15.6809L15.7638 18.3169C16.4289 11.0211 22.5814 5.28671 30 5.28671C37.42 5.28671 43.5672 11.0211 44.1757 18.3094L44.2523 19.2262H45.1722H45.9425C48.2625 19.2282 50.4873 20.1495 52.1296 21.7883C53.7718 23.4271 54.6978 25.6498 54.7048 27.9699C54.7118 30.29 53.7991 32.5183 52.1667 34.1669C50.535 35.8147 48.3171 36.7492 45.9983 36.766H24.7898H14.0574C11.7372 36.7642 9.51233 35.8431 7.86986 34.2044C6.22739 32.5657 5.3012 30.3429 5.29411 28.0228C5.28701 25.7027 6.19958 23.4743 7.832 21.8255C9.46363 20.1776 11.6815 19.243 14.0004 19.2262H14.7679Z" fill="#2F58CD" stroke="#3A1078" stroke-width="2"/>
<mask id="path-2-inside-1_1443_3079" fill="white">
<path d="M30 23.6344C29.7514 23.6344 29.5129 23.7331 29.3371 23.909C29.1613 24.0848 29.0625 24.3232 29.0625 24.5719V50.202C29.0628 50.3251 29.0872 50.4469 29.1346 50.5606C29.1819 50.6742 29.2511 50.7775 29.3384 50.8643C29.4256 50.9512 29.5291 51.0201 29.6429 51.067C29.7567 51.1139 29.8787 51.1379 30.0018 51.1377C30.1249 51.1375 30.2468 51.113 30.3604 51.0657C30.4741 51.0183 30.5773 50.9491 30.6642 50.8619C30.7511 50.7746 30.8199 50.6712 30.8668 50.5573C30.9137 50.4435 30.9378 50.3215 30.9375 50.1984V24.5719C30.9375 24.3232 30.8388 24.0848 30.6629 23.909C30.4871 23.7331 30.2487 23.6344 30 23.6344ZM18.9844 50.4914C19.2333 50.4909 19.4718 50.3916 19.6476 50.2154C19.8233 50.0392 19.922 49.8004 19.9219 49.5516V45.2344H24.7899C25.0486 45.2266 25.2947 45.1211 25.4787 44.9391C25.6626 44.7571 25.7708 44.5121 25.7813 44.2535V24.5719C25.7813 24.3232 25.6825 24.0848 25.5067 23.909C25.3309 23.7331 25.0924 23.6344 24.8438 23.6344C24.5951 23.6344 24.3567 23.7331 24.1809 23.909C24.005 24.0848 23.9063 24.3232 23.9063 24.5719V43.3594H18.9328C18.8147 43.3555 18.6971 43.376 18.5873 43.4197C18.4776 43.4634 18.378 43.5292 18.2948 43.6132C18.2116 43.6971 18.1467 43.7973 18.104 43.9075C18.0614 44.0177 18.0419 44.1355 18.0469 44.2535V49.5562C18.0469 49.6792 18.0712 49.801 18.1184 49.9146C18.1656 50.0282 18.2347 50.1314 18.3217 50.2182C18.4088 50.3051 18.5122 50.3739 18.6259 50.4208C18.7396 50.4677 18.8614 50.4917 18.9844 50.4914ZM35.2102 45.2344H40.0782V49.5562C40.0788 49.8049 40.1781 50.0431 40.3544 50.2185C40.5307 50.3938 40.7694 50.492 41.018 50.4914C41.2666 50.4908 41.5048 50.3914 41.6802 50.2152C41.8556 50.0389 41.9538 49.8002 41.9532 49.5516V44.2535C41.9581 44.1355 41.9387 44.0177 41.896 43.9075C41.8534 43.7973 41.7884 43.6971 41.7052 43.6132C41.6221 43.5292 41.5225 43.4634 41.4127 43.4197C41.3029 43.376 41.1853 43.3555 41.0672 43.3594H36.0938V24.5719C36.0938 24.3232 35.995 24.0848 35.8192 23.909C35.6434 23.7331 35.4049 23.6344 35.1563 23.6344C34.9076 23.6344 34.6692 23.7331 34.4934 23.909C34.3175 24.0848 34.2188 24.3232 34.2188 24.5719V44.2535C34.2293 44.5121 34.3374 44.7571 34.5214 44.9391C34.7054 45.1211 34.9515 45.2266 35.2102 45.2344Z"/>
</mask>
<path d="M29.0625 50.202H27.0625L27.0625 50.2057L29.0625 50.202ZM30.9375 50.1984H28.9375L28.9375 50.2022L30.9375 50.1984ZM18.9844 50.4914L18.9802 48.4914H18.9801L18.9844 50.4914ZM19.9219 49.5516H17.9219L17.9219 49.5523L19.9219 49.5516ZM19.9219 45.2344V43.2344H17.9219V45.2344H19.9219ZM24.7899 45.2344V47.2344H24.8198L24.8496 47.2335L24.7899 45.2344ZM25.7813 44.2535L27.7796 44.3347L27.7813 44.2941V44.2535H25.7813ZM23.9063 43.3594V45.3594H25.9063V43.3594H23.9063ZM18.9328 43.3594L18.8672 45.3583L18.9 45.3594H18.9328V43.3594ZM18.0469 44.2535H20.0469V44.2115L20.0451 44.1694L18.0469 44.2535ZM18.0469 49.5562H16.0469L16.0469 49.557L18.0469 49.5562ZM35.2102 45.2344L35.1504 47.2335L35.1803 47.2344H35.2102V45.2344ZM40.0782 45.2344H42.0782V43.2344H40.0782V45.2344ZM40.0782 49.5562H38.0781L38.0782 49.5612L40.0782 49.5562ZM41.9532 49.5516H39.9531L39.9532 49.5566L41.9532 49.5516ZM41.9532 44.2535L39.9549 44.1694L39.9532 44.2115V44.2535H41.9532ZM41.0672 43.3594V45.3594H41.1L41.1329 45.3583L41.0672 43.3594ZM36.0938 43.3594H34.0938V45.3594H36.0938V43.3594ZM34.2188 44.2535H32.2188V44.2941L32.2204 44.3347L34.2188 44.2535ZM30 21.6344C29.221 21.6344 28.4738 21.9439 27.9229 22.4947L30.7513 25.3232C30.5521 25.5224 30.2818 25.6344 30 25.6344V21.6344ZM27.9229 22.4947C27.372 23.0456 27.0625 23.7928 27.0625 24.5719H31.0625C31.0625 24.8537 30.9506 25.1239 30.7513 25.3232L27.9229 22.4947ZM27.0625 24.5719V50.202H31.0625V24.5719H27.0625ZM27.0625 50.2057C27.0633 50.5915 27.1399 50.9733 27.2882 51.3294L30.9809 49.7917C31.0345 49.9206 31.0623 50.0587 31.0625 50.1982L27.0625 50.2057ZM27.2882 51.3294C27.4365 51.6855 27.6535 52.009 27.9268 52.2812L30.7499 49.4475C30.8487 49.5459 30.9272 49.6629 30.9809 49.7917L27.2882 51.3294ZM27.9268 52.2812C28.2001 52.5534 28.5243 52.7692 28.881 52.9162L30.4048 49.2178C30.5338 49.271 30.6511 49.349 30.7499 49.4475L27.9268 52.2812ZM28.881 52.9162C29.2377 53.0632 29.6198 53.1384 30.0055 53.1377L29.998 49.1377C30.1375 49.1374 30.2758 49.1646 30.4048 49.2178L28.881 52.9162ZM30.0055 53.1377C30.3913 53.137 30.7731 53.0603 31.1292 52.912L29.5916 49.2193C29.7204 49.1657 29.8585 49.138 29.998 49.1377L30.0055 53.1377ZM31.1292 52.912C31.4854 52.7637 31.8088 52.5467 32.081 52.2734L29.2473 49.4503C29.3458 49.3515 29.4628 49.273 29.5916 49.2193L31.1292 52.912ZM32.081 52.2734C32.3533 52.0002 32.5691 51.6759 32.716 51.3192L29.0176 49.7954C29.0708 49.6664 29.1489 49.5491 29.2473 49.4503L32.081 52.2734ZM32.716 51.3192C32.863 50.9626 32.9382 50.5804 32.9375 50.1947L28.9375 50.2022C28.9373 50.0627 28.9645 49.9244 29.0176 49.7954L32.716 51.3192ZM32.9375 50.1984V24.5719H28.9375V50.1984H32.9375ZM32.9375 24.5719C32.9375 23.7928 32.628 23.0456 32.0772 22.4947L29.2487 25.3232C29.0495 25.1239 28.9375 24.8537 28.9375 24.5719H32.9375ZM32.0772 22.4947C31.5263 21.9439 30.7791 21.6344 30 21.6344V25.6344C29.7182 25.6344 29.448 25.5224 29.2487 25.3232L32.0772 22.4947ZM18.9886 52.4914C19.7673 52.4897 20.5136 52.1792 21.0635 51.6279L18.2316 48.803C18.43 48.604 18.6992 48.492 18.9802 48.4914L18.9886 52.4914ZM21.0635 51.6279C21.6135 51.0765 21.9222 50.3295 21.9219 49.5508L17.9219 49.5523C17.9218 49.2714 18.0332 49.0019 18.2316 48.803L21.0635 51.6279ZM21.9219 49.5516V45.2344H17.9219V49.5516H21.9219ZM19.9219 47.2344H24.7899V43.2344H19.9219V47.2344ZM24.8496 47.2335C25.6142 47.2106 26.3416 46.8988 26.8853 46.3609L24.072 43.5174C24.2478 43.3435 24.483 43.2427 24.7301 43.2353L24.8496 47.2335ZM26.8853 46.3609C27.429 45.8229 27.7486 45.0989 27.7796 44.3347L23.7829 44.1724C23.793 43.9253 23.8963 43.6912 24.072 43.5174L26.8853 46.3609ZM27.7813 44.2535V24.5719H23.7813V44.2535H27.7813ZM27.7813 24.5719C27.7813 23.7928 27.4718 23.0456 26.9209 22.4947L24.0925 25.3232C23.8932 25.1239 23.7813 24.8537 23.7813 24.5719H27.7813ZM26.9209 22.4947C26.37 21.9439 25.6229 21.6344 24.8438 21.6344V25.6344C24.562 25.6344 24.2917 25.5224 24.0925 25.3232L26.9209 22.4947ZM24.8438 21.6344C24.0647 21.6344 23.3175 21.9439 22.7667 22.4947L25.5951 25.3232C25.3958 25.5224 25.1256 25.6344 24.8438 25.6344V21.6344ZM22.7667 22.4947C22.2158 23.0456 21.9063 23.7928 21.9063 24.5719H25.9063C25.9063 24.8537 25.7943 25.1239 25.5951 25.3232L22.7667 22.4947ZM21.9063 24.5719V43.3594H25.9063V24.5719H21.9063ZM23.9063 41.3594H18.9328V45.3594H23.9063V41.3594ZM18.9985 41.3604C18.6053 41.3475 18.2137 41.4159 17.8481 41.5613L19.3266 45.2781C19.1806 45.3361 19.0242 45.3634 18.8672 45.3583L18.9985 41.3604ZM17.8481 41.5613C17.4826 41.7067 17.151 41.926 16.8741 42.2055L19.7155 45.0208C19.6049 45.1324 19.4725 45.22 19.3266 45.2781L17.8481 41.5613ZM16.8741 42.2055C16.5972 42.4849 16.381 42.8186 16.2389 43.1854L19.9692 44.6295C19.9124 44.776 19.8261 44.9092 19.7155 45.0208L16.8741 42.2055ZM16.2389 43.1854C16.0969 43.5523 16.0321 43.9445 16.0487 44.3376L20.0451 44.1694C20.0517 44.3264 20.0259 44.483 19.9692 44.6295L16.2389 43.1854ZM16.0469 44.2535V49.5562H20.0469V44.2535H16.0469ZM16.0469 49.557C16.047 49.9429 16.1233 50.325 16.2713 50.6815L19.9655 49.1477C20.0192 49.277 20.0468 49.4155 20.0469 49.5555L16.0469 49.557ZM16.2713 50.6815C16.4192 51.0379 16.636 51.3616 16.9093 51.6342L19.7342 48.8022C19.8333 48.9011 19.9119 49.0185 19.9655 49.1477L16.2713 50.6815ZM16.9093 51.6342C17.1825 51.9068 17.5068 52.1228 17.8636 52.2698L19.3881 48.5717C19.5175 48.6251 19.6351 48.7034 19.7342 48.8022L16.9093 51.6342ZM17.8636 52.2698C18.2204 52.4169 18.6027 52.4922 18.9887 52.4914L18.9801 48.4914C19.1201 48.4911 19.2587 48.5184 19.3881 48.5717L17.8636 52.2698ZM35.2102 47.2344H40.0782V43.2344H35.2102V47.2344ZM38.0782 45.2344V49.5562H42.0782V45.2344H38.0782ZM38.0782 49.5612C38.0801 50.3403 38.3915 51.0867 38.9437 51.6362L41.7651 48.8007C41.9648 48.9995 42.0774 49.2695 42.0781 49.5512L38.0782 49.5612ZM38.9437 51.6362C39.496 52.1857 40.2439 52.4933 41.023 52.4914L41.013 48.4914C41.2948 48.4907 41.5653 48.602 41.7651 48.8007L38.9437 51.6362ZM41.023 52.4914C41.8021 52.4894 42.5485 52.1781 43.098 51.6258L40.2625 48.8045C40.4612 48.6047 40.7312 48.4921 41.013 48.4914L41.023 52.4914ZM43.098 51.6258C43.6475 51.0736 43.9551 50.3256 43.9531 49.5466L39.9532 49.5566C39.9525 49.2748 40.0637 49.0042 40.2625 48.8045L43.098 51.6258ZM43.9532 49.5516V44.2535H39.9532V49.5516H43.9532ZM43.9514 44.3376C43.9679 43.9445 43.9031 43.5523 43.7611 43.1854L40.0309 44.6295C39.9742 44.4831 39.9483 44.3264 39.9549 44.1694L43.9514 44.3376ZM43.7611 43.1854C43.6191 42.8186 43.4029 42.4849 43.126 42.2055L40.2845 45.0208C40.174 44.9092 40.0876 44.776 40.0309 44.6295L43.7611 43.1854ZM43.126 42.2055C42.8491 41.926 42.5175 41.7067 42.1519 41.5613L40.6735 45.2781C40.5275 45.22 40.3951 45.1325 40.2845 45.0208L43.126 42.2055ZM42.1519 41.5613C41.7864 41.4159 41.3948 41.3475 41.0016 41.3604L41.1329 45.3583C40.9758 45.3634 40.8195 45.3361 40.6735 45.2781L42.1519 41.5613ZM41.0672 41.3594H36.0938V45.3594H41.0672V41.3594ZM38.0938 43.3594V24.5719H34.0938V43.3594H38.0938ZM38.0938 24.5719C38.0938 23.7928 37.7843 23.0456 37.2334 22.4947L34.405 25.3232C34.2057 25.1239 34.0938 24.8537 34.0938 24.5719H38.0938ZM37.2334 22.4947C36.6825 21.9439 35.9354 21.6344 35.1563 21.6344V25.6344C34.8745 25.6344 34.6042 25.5224 34.405 25.3232L37.2334 22.4947ZM35.1563 21.6344C34.3772 21.6344 33.63 21.9439 33.0792 22.4947L35.9076 25.3232C35.7083 25.5224 35.4381 25.6344 35.1563 25.6344V21.6344ZM33.0792 22.4947C32.5283 23.0456 32.2188 23.7928 32.2188 24.5719H36.2188C36.2188 24.8537 36.1068 25.1239 35.9076 25.3232L33.0792 22.4947ZM32.2188 24.5719V44.2535H36.2188V24.5719H32.2188ZM32.2204 44.3347C32.2515 45.0989 32.571 45.8229 33.1148 46.3609L35.928 43.5174C36.1038 43.6912 36.2071 43.9253 36.2171 44.1724L32.2204 44.3347ZM33.1148 46.3609C33.6585 46.8988 34.3859 47.2106 35.1504 47.2335L35.2699 43.2353C35.5171 43.2427 35.7523 43.3435 35.928 43.5174L33.1148 46.3609Z" fill="#3A1078" mask="url(#path-2-inside-1_1443_3079)"/>
<path d="M30.0004 50.2609L30.003 50.2609C30.3717 50.2598 30.7368 50.3319 31.0775 50.4728C31.4181 50.6138 31.7273 50.821 31.9873 51.0823L31.9892 51.0842C32.4494 51.5441 32.7358 52.1494 32.7997 52.7968C32.8636 53.4442 32.7011 54.0938 32.3397 54.6348C31.9784 55.1759 31.4407 55.5749 30.8182 55.7639C30.1956 55.9529 29.5268 55.9202 28.9257 55.6714C28.3246 55.4225 27.8283 54.973 27.5215 54.3993C27.2146 53.8256 27.1162 53.1633 27.243 52.5252C27.3697 51.8871 27.7138 51.3126 28.2166 50.8998C28.7194 50.4869 29.3498 50.2611 30.0004 50.2609ZM20.9219 50.4383L20.9238 50.4402C21.1851 50.7001 21.3922 51.0093 21.5333 51.3498C21.6744 51.6903 21.7465 52.0554 21.7456 52.424V52.4266C21.7456 53.0772 21.5201 53.7076 21.1074 54.2105C20.6947 54.7135 20.1204 55.0577 19.4823 55.1847C18.8442 55.3116 18.1819 55.2134 17.6081 54.9068C17.0344 54.6001 16.5847 54.104 16.3357 53.503C16.0867 52.9019 16.0538 52.2331 16.2426 51.6106C16.4315 50.988 16.8303 50.4502 17.3712 50.0887C17.9122 49.7273 18.5617 49.5645 19.2091 49.6283C19.8566 49.692 20.4619 49.9783 20.9219 50.4383ZM43.056 50.4381L43.0563 50.4385C43.45 50.832 43.7181 51.3333 43.8268 51.8791C43.9354 52.4249 43.8798 52.9907 43.6669 53.5049C43.454 54.0191 43.0933 54.4586 42.6306 54.7678C42.1679 55.077 41.6238 55.2421 41.0673 55.2421C40.5108 55.2421 39.9667 55.077 39.504 54.7678C39.0413 54.4586 38.6807 54.0191 38.4677 53.5049C38.2548 52.9907 38.1992 52.4249 38.3078 51.8791C38.4165 51.3333 38.6846 50.8319 39.0782 50.4385L39.0785 50.4381C39.3396 50.1769 39.6497 49.9696 39.9909 49.8282C40.3321 49.6869 40.6979 49.6141 41.0672 49.6141C41.4366 49.6141 41.8024 49.6869 42.1436 49.8282L42.5264 48.9044L42.1436 49.8282C42.4848 49.9696 42.7949 50.1769 43.056 50.4381Z" fill="#2F58CD" stroke="#3A1078" stroke-width="2"/>
</svg>
