<svg width="73" height="70" viewBox="0 0 73 70" fill="none" xmlns="http://www.w3.org/2000/svg">
<g clip-path="url(#clip0_524_4278)">
<path d="M2.71235 53.3053C1.96081 54.5309 1.11676 55.953 0.399905 57.0861C-0.241739 58.1704 0.102721 59.5689 1.17458 60.2311L16.2055 69.4809C16.7331 69.8066 17.3694 69.9068 17.9716 69.759C18.5738 69.6112 19.0914 69.2277 19.4082 68.6946C20.0095 67.6887 20.7841 66.3822 21.6282 64.9832C27.5827 55.1553 33.572 56.3577 44.3711 61.5145L59.2749 68.6021C59.8393 68.8708 60.4885 68.8995 61.0745 68.6817C61.6604 68.4638 62.1332 68.0181 62.3851 67.4459L69.5421 51.2588C70.0478 50.1027 69.5333 48.7546 68.3859 48.2295C65.241 46.7495 58.9858 43.8011 53.355 41.084C33.0979 31.2445 15.8818 31.8805 2.71235 53.3053Z" fill="url(#paint0_linear_524_4278)"/>
<path d="M70.11 16.5701C70.8615 15.3445 71.7056 13.9223 72.4224 12.7892C73.0641 11.7049 72.7196 10.3065 71.6477 9.64428L56.6168 0.394485C56.0849 0.036219 55.4281 -0.0850573 54.8033 0.0596304C54.1785 0.204318 53.6419 0.601974 53.3216 1.15759C52.7204 2.16351 51.9457 3.47004 51.1016 4.86907C45.1471 14.697 39.1578 13.4945 28.3587 8.33775L13.5012 1.28478C12.9368 1.01611 12.2876 0.987424 11.7016 1.20525C11.1157 1.42308 10.6429 1.86886 10.391 2.441L3.23394 18.6281C2.72829 19.7842 3.2428 21.1323 4.39017 21.6575C7.5351 23.1374 13.7903 26.0858 19.4211 28.8029C39.7244 38.6308 56.9406 37.9718 70.11 16.5701Z" fill="url(#paint1_linear_524_4278)"/>
</g>
<defs>
<linearGradient id="paint0_linear_524_4278" x1="6906.1" y1="3964.27" x2="5222.87" y2="102.715" gradientUnits="userSpaceOnUse">
<stop offset="0.18" stop-color="#0052CC"/>
<stop offset="1" stop-color="#2684FF"/>
</linearGradient>
<linearGradient id="paint1_linear_524_4278" x1="67.5654" y1="-439.228" x2="1753.47" y2="3424.2" gradientUnits="userSpaceOnUse">
<stop offset="0.18" stop-color="#0052CC"/>
<stop offset="1" stop-color="#2684FF"/>
</linearGradient>
<clipPath id="clip0_524_4278">
<rect width="72.8455" height="70" fill="white" transform="translate(0.07724)"/>
</clipPath>
</defs>
</svg>
