<svg width="388" height="508" viewBox="0 0 388 508" fill="none" xmlns="http://www.w3.org/2000/svg">
<path fill-rule="evenodd" clip-rule="evenodd" d="M94.5288 97.3611C99.1411 94.9308 101.673 90.1028 101.399 85.2197L95.6966 86.2169C95.6034 88.699 94.2221 91.065 91.8655 92.3067C88.357 94.1554 84.0152 92.8119 82.1679 89.3059C80.3206 85.7999 81.6672 81.4592 85.1758 79.6105C88.6843 77.7618 93.0261 79.1053 94.8734 82.6113C94.9446 82.7464 95.011 82.8827 95.0728 83.0201L100.804 82.018C100.578 81.315 100.288 80.6219 99.9316 79.9461C96.6134 73.6487 88.8147 71.2355 82.5127 74.5561C76.2106 77.8766 73.7917 85.6736 77.1099 91.971C80.428 98.2685 88.2268 100.682 94.5288 97.3611ZM96.0467 100.242C101.943 97.1349 105.126 90.8996 104.627 84.6553L131.696 79.9219L174.167 112.071L174.78 112.535L175.528 112.357L198.518 106.884L194.613 142.609L179.48 147.607L156.867 132.7L156.241 132.287L155.52 132.495L132.563 139.101C132.348 138.453 132.077 137.814 131.748 137.191C128.515 131.055 120.917 128.704 114.777 131.939C108.637 135.174 106.281 142.771 109.514 148.906C112.746 155.042 120.344 157.393 126.484 154.158C130.983 151.787 133.451 147.076 133.177 142.313L155.699 135.832L175.536 148.909L121.619 166.715L95.4044 148.887L94.7546 148.445L94.004 148.679L31.967 167.989C31.6703 166.991 31.2722 166.008 30.7685 165.052C26.612 157.163 16.843 154.141 8.94882 158.3C1.05461 162.46 -1.97542 172.226 2.18104 180.115C6.33751 188.003 16.1065 191.026 24.0007 186.867C29.9193 183.748 33.1037 177.478 32.5752 171.21L94.2203 152.022L120.45 169.86L121.114 170.311L121.877 170.059L179.002 151.194L216.559 175.952L214.773 196.496L211.061 198.279L168.491 172.146L167.85 171.752L167.135 171.985L110.089 190.518C109.926 190.154 109.751 189.792 109.562 189.433C104.944 180.668 94.0892 177.31 85.3179 181.931C76.5465 186.553 73.1798 197.405 77.7981 206.17C82.4164 214.935 93.2709 218.294 102.042 213.672C109.463 209.762 113.015 201.393 111.137 193.601L167.425 175.314L207.566 199.957L107.111 248.194L106.366 248.552L106.215 249.365L97.8814 294.116L81.1025 302.957C81.0119 302.774 80.9188 302.591 80.8231 302.41C74.7038 290.796 60.3217 286.346 48.6996 292.47C37.0776 298.593 32.6167 312.972 38.736 324.586C44.8552 336.199 59.2373 340.65 70.8594 334.526C81.3146 329.017 85.9744 316.827 82.3497 305.98L100.097 296.629L100.796 296.261L100.94 295.485L109.266 250.771L210.868 201.984L230.556 214.07L221.057 219.076L146.015 258.616L145.259 259.014L145.156 259.861L137.548 322.464L96.6351 348.54C92.767 344.062 86.1889 342.67 80.7255 345.548C74.3662 348.899 71.9254 356.767 75.2737 363.121C78.6219 369.476 86.4914 371.911 92.8506 368.56C99.1217 365.256 101.582 357.559 98.4383 351.253L139.947 324.796L140.596 324.382L140.689 323.618L148.288 261.099L222.575 221.957L233.782 216.051L250.765 226.477L251.575 226.974L252.407 226.514L274.607 214.218L287.983 223.036L288.787 223.566L289.64 223.117L313.804 210.385L325.965 218.365L284.698 247.91L283.993 248.414L284.018 249.28L285.153 289.588L271.697 301.148L228.03 278.541L227.189 278.105L226.394 278.621L215.76 285.52C210.584 278.507 200.917 276.136 192.964 280.327C184.192 284.948 180.826 295.8 185.444 304.565C190.062 313.33 200.917 316.689 209.688 312.067C218.301 307.529 221.703 296.983 217.45 288.305L227.371 281.868L271.174 304.545L272.151 305.051L272.985 304.334L285.272 293.78L285.573 304.488L252.931 334.889L226.087 322.096L225.177 321.662L224.382 322.283L93.2569 424.83L92.7496 425.227L92.6506 425.863L87.3229 460.073C82.3742 459.25 77.1249 459.98 72.3429 462.499C60.7208 468.623 56.26 483.002 62.3792 494.615C68.4984 506.229 82.8806 510.679 94.5026 504.556C106.125 498.432 110.586 484.053 104.466 472.439C101.413 466.644 96.3014 462.632 90.5022 460.828L95.7708 426.998L225.594 325.47L250.368 337.276L221.831 363.853C217.896 360.363 212.057 359.482 207.126 362.081C200.766 365.431 198.325 373.299 201.674 379.654C205.022 386.008 212.891 388.443 219.251 385.093C225.61 381.742 228.051 373.874 224.703 367.52C224.48 367.097 224.237 366.692 223.976 366.305L253.528 338.782L343.901 381.85L345.064 382.404L345.872 381.4L374.876 345.349L386.929 349.687L388.088 350.104L388.805 349.104L427.418 295.303L427.787 294.789L427.713 294.162L426.327 282.427L445.698 258.008L449.945 260.862L451.319 261.786L452.221 260.396L473.219 228.042L473.549 227.534L473.467 226.935L472.132 217.175L481.114 204.66L481.514 204.102L481.395 203.427L471.691 148.552L475.031 144.905C476.659 146.398 479.113 146.787 481.182 145.698C483.813 144.311 484.823 141.055 483.438 138.426C482.052 135.797 478.796 134.789 476.164 136.175C474.034 137.298 472.966 139.646 473.372 141.894L470.976 144.51L469.095 133.871L465.887 134.44L468.203 147.539L462.618 153.637L457.168 148.741L458.689 147.123L459.262 146.515L459.102 145.695L456.31 131.429C456.337 131.415 456.365 131.4 456.393 131.386C459.024 129.999 460.034 126.744 458.649 124.114C457.263 121.485 454.007 120.477 451.376 121.864C448.744 123.25 447.734 126.506 449.12 129.135C449.95 130.712 451.454 131.705 453.091 131.949L455.744 145.502L454.745 146.564L440.701 133.947L439.663 133.015L438.581 133.898L426.863 143.471L425.016 135.565L430.255 132.805L431.272 132.269L431.109 131.132L429.919 122.844L435.603 119.849L434.085 116.968L429.428 119.422L425.663 93.1927L430.806 98.7137L431.655 99.625L432.757 99.044L452.61 88.5837L451.092 85.7029L432.342 95.5823L424.852 87.5414L422.561 71.5784L432.756 69.0819L434.261 68.7135L433.97 67.1931L432.168 57.7881L439.438 53.9575L437.92 51.0767L429.582 55.4701L428.514 56.0328L428.741 57.2177L430.479 66.2871L422.096 68.3397L421.692 65.523C424.322 64.1359 425.331 60.8813 423.946 58.2524C422.56 55.6229 419.304 54.6153 416.673 56.0018C414.041 57.3883 413.031 60.6439 414.417 63.2734C415.263 64.8802 416.809 65.8814 418.483 66.1007L418.916 69.1183L418.529 69.2132L405.808 55.6756L409.041 54.7295L410.488 54.3063L410.179 52.8322L406.615 35.8146L409.23 36.0536C409.292 36.2026 409.362 36.3501 409.439 36.4957C410.824 39.1251 414.08 40.1328 416.712 38.7463C419.343 37.3597 420.353 34.1042 418.968 31.4747C417.582 28.8452 414.326 27.8376 411.694 29.2241C410.258 29.9807 409.305 31.2941 408.961 32.7585L404.718 32.3709L402.523 32.1703L402.974 34.3271L406.681 52.0273L403.308 53.0145L391.463 40.4087L390.829 39.7347L389.925 39.9337L372.65 43.7382L350.081 19.6356L349.514 19.0298L348.69 19.133L319.662 22.7692L318.277 22.9427L318.235 24.3374L317.922 34.826L307.8 36.3756L296.308 26.4907L295.812 26.0643L295.159 26.0993L251.25 28.4517L249.74 28.5326L249.708 30.044L248.927 66.637L203.253 74.4471L202.041 74.6544L201.907 75.8763L198.894 103.447L175.523 109.011L133.099 76.8974L132.534 76.4696L131.835 76.5918L104.039 81.4523C103.74 80.4244 103.333 79.4111 102.814 78.4271C98.658 70.5387 88.889 67.5158 80.9948 71.6753C73.1006 75.8348 70.0705 85.6016 74.227 93.49C78.3835 101.378 88.1525 104.401 96.0467 100.242ZM455.864 129.153L455.749 128.566C456.594 127.755 456.839 126.456 456.267 125.369C455.574 124.055 453.946 123.551 452.63 124.244C451.314 124.937 450.809 126.565 451.502 127.88C451.741 128.333 452.091 128.69 452.501 128.935L452.628 129.581C451.97 129.302 451.401 128.804 451.042 128.122C450.215 126.554 450.818 124.611 452.388 123.784C453.958 122.957 455.9 123.558 456.727 125.127C457.462 126.523 457.066 128.214 455.864 129.153ZM422.024 59.2651C422.72 60.5856 422.403 62.1709 421.349 63.1329L421.255 62.4791C421.928 61.6667 422.086 60.4983 421.564 59.5076C420.871 58.1929 419.243 57.6891 417.927 58.3823C416.611 59.0756 416.106 60.7034 416.799 62.0181C417.089 62.5683 417.543 62.9765 418.069 63.2144L418.154 63.8061C417.4 63.5523 416.739 63.0198 416.339 62.2607C415.512 60.6919 416.115 58.7495 417.685 57.9223C419.255 57.0951 421.197 57.6963 422.024 59.2651ZM411.979 36.3046L413.01 36.3988C413.598 36.6881 414.284 36.7605 414.936 36.5748L415.078 36.5878L415.084 36.5283C415.21 36.4842 415.335 36.4302 415.457 36.3658C416.773 35.6725 417.278 34.0448 416.585 32.73C415.892 31.4153 414.264 30.9115 412.949 31.6047C412.352 31.9191 411.922 32.4258 411.695 33.0082L411.159 32.9594C411.414 32.2059 411.947 31.5447 412.706 31.1446C414.276 30.3174 416.219 30.9185 417.046 32.4874C417.872 34.0562 417.27 35.9986 415.7 36.8258C414.444 37.4875 412.949 37.2352 411.979 36.3046ZM128.865 138.71C129.088 139.133 129.275 139.565 129.428 140.003L125.649 141.091C125.575 140.904 125.491 140.72 125.395 140.538C124.01 137.908 120.754 136.901 118.122 138.287C115.491 139.674 114.481 142.929 115.866 145.559C117.252 148.188 120.508 149.196 123.14 147.809C124.526 147.079 125.463 145.829 125.835 144.426L129.937 143.245C129.862 146.513 128.065 149.644 124.967 151.277C120.419 153.673 114.791 151.932 112.396 147.387C110.002 142.843 111.747 137.216 116.295 134.82C120.843 132.424 126.471 134.165 128.865 138.71ZM219.432 366.088L216.521 368.798C214.79 367.597 212.465 367.378 210.47 368.429C207.62 369.931 206.526 373.458 208.026 376.306C209.527 379.155 213.055 380.247 215.906 378.745C218.601 377.324 219.726 374.094 218.572 371.338L221.552 368.563C221.645 368.718 221.734 368.877 221.82 369.039C224.33 373.802 222.5 379.7 217.733 382.212C212.966 384.724 207.067 382.898 204.557 378.135C202.047 373.371 203.876 367.473 208.643 364.961C212.243 363.065 216.488 363.641 219.432 366.088ZM82.2434 348.429C86.1909 346.349 90.9147 347.243 93.8475 350.317L90.43 352.495C88.6738 351.096 86.1857 350.782 84.0703 351.897C81.2196 353.399 80.1255 356.926 81.6264 359.774C83.1274 362.623 86.655 363.714 89.5057 362.212C92.0863 360.853 93.2275 357.834 92.3071 355.16L95.6701 353.017C97.7961 357.684 95.9309 363.257 91.3327 365.68C86.5657 368.191 80.6665 366.366 78.1565 361.602C75.6466 356.839 77.4763 350.941 82.2434 348.429ZM86.8216 463.292L85.2403 473.446C83.0416 473.015 80.7159 473.295 78.6144 474.402C73.5709 477.06 71.7286 483.477 74.4996 488.736C77.2706 493.995 83.6055 496.104 88.649 493.446C93.6925 490.789 95.5348 484.371 92.7638 479.113C91.717 477.126 90.1616 475.589 88.3594 474.588L89.9946 464.088C94.808 465.71 99.0296 469.112 101.583 473.958C106.864 483.981 103.015 496.39 92.9847 501.675C82.9549 506.96 70.543 503.119 65.262 493.096C59.9811 483.074 63.8309 470.665 73.8608 465.38C77.9983 463.2 82.5412 462.573 86.8216 463.292ZM77.9402 303.929C78.036 304.111 78.1287 304.293 78.2185 304.476L69.1968 309.23C69.1718 309.181 69.1464 309.132 69.1206 309.083C66.3496 303.824 60.0147 301.715 54.9712 304.372C49.9276 307.03 48.0854 313.447 50.8564 318.706C53.6273 323.965 59.9622 326.074 65.0058 323.417C69.0343 321.294 71.0204 316.772 70.2445 312.358L79.4216 307.523C82.2375 316.753 78.1999 326.978 69.3415 331.645C59.3116 336.93 46.8998 333.089 41.6188 323.067C36.3379 313.044 40.1876 300.635 50.2175 295.35C60.2474 290.066 72.6592 293.906 77.9402 303.929ZM213.02 287.298L207.442 290.917C205.042 288.133 200.956 287.267 197.563 289.055C193.616 291.135 192.101 296.018 194.179 299.963C196.257 303.907 201.142 305.418 205.089 303.338C208.6 301.488 210.187 297.42 209.031 293.767L214.692 290.095C217.91 297.127 215.102 305.534 208.17 309.186C200.991 312.969 192.107 310.22 188.327 303.046C184.547 295.872 187.302 286.99 194.481 283.207C200.93 279.809 208.755 281.682 213.02 287.298ZM106.679 190.952C106.78 191.144 106.877 191.338 106.969 191.532L100.584 193.606C98.3869 189.984 93.7175 188.658 89.9171 190.66C85.97 192.74 84.455 197.623 86.5332 201.567C88.6114 205.512 93.4959 207.023 97.443 204.943C100.541 203.311 102.141 199.951 101.681 196.674L108.026 194.612C109.429 200.918 106.519 207.633 100.524 210.791C93.3452 214.574 84.461 211.825 80.681 204.651C76.901 197.477 79.6566 188.595 86.8358 184.812C94.0149 181.029 102.899 183.778 106.679 190.952ZM28.8549 168.958L23.3939 170.657C23.259 170.174 23.0711 169.698 22.8277 169.236C20.9804 165.73 16.6386 164.387 13.1301 166.235C9.62154 168.084 8.27486 172.425 10.1222 175.931C11.9695 179.437 16.3113 180.78 19.8198 178.931C21.7951 177.891 23.0852 176.06 23.5058 174.033L29.3683 172.208C29.5005 176.966 26.9806 181.616 22.4828 183.986C16.1808 187.306 8.38207 184.893 5.06391 178.596C1.74575 172.298 4.16466 164.501 10.4667 161.181C16.7688 157.86 24.5675 160.273 27.8856 166.571C28.2948 167.347 28.6167 168.147 28.8549 168.958ZM201.883 106.083L197.738 144.002L197.624 145.044L196.629 145.372L182.946 149.891L216.88 172.261L219.219 145.359L219.312 144.298L220.321 143.957L255.2 132.169L256.025 131.89L256.715 132.421L295.398 162.163L302.837 158.244L298.857 133.203L298.656 131.939L299.837 131.444L335.943 116.334L331.924 100.739L331.534 99.2233L333.034 98.7726L349.542 93.8129C349.8 92.1958 350.79 90.7157 352.351 89.8933C354.983 88.5068 358.239 89.5144 359.624 92.1438C360.529 93.8605 360.412 95.8441 359.49 97.4002L366.701 103.972L388.278 96.0048L389.066 95.714L389.759 96.1859L405.605 106.967L402.169 82.7932L402.008 81.6578L403.023 81.1229L412.553 76.1019L413.655 75.5209L414.504 76.4322L420.961 83.364L419.381 72.357L418.379 72.6025L417.455 72.8286L416.804 72.1361L402.301 56.7019L380.912 62.961L379.966 63.2378L379.282 62.5287L357.463 39.9029L349.26 40.7001L352.129 68.9012L352.277 70.3549L350.847 70.6595L312.081 78.92L311.302 79.086L310.692 78.5732L284.558 56.5733C284.2 56.8284 283.82 57.0627 283.421 57.2734C278.596 59.8153 272.626 57.968 270.086 53.1473C269.719 52.4502 269.444 51.7291 269.256 50.9978L259.644 53.6476L259.266 91.1509L259.253 92.4244L258.013 92.7195L201.883 106.083ZM335.47 101.441L350.043 97.0624C350.06 97.0966 350.077 97.1308 350.095 97.1648C351.423 99.6857 354.471 100.716 357.039 99.575L365.237 107.046L365.969 107.714L366.899 107.37L388.618 99.3503L406.225 111.329L408.441 126.92L396.165 115.851L395.374 115.138L394.403 115.576L320.238 149.078L319.212 149.542L319.282 150.664L321.238 182.03L298.239 164.347L305.388 160.58L306.421 160.036L306.238 158.883L302.275 133.954L338.501 118.794L339.802 118.249L339.45 116.885L335.47 101.441ZM352.176 96.4214C352.838 97.4295 353.996 97.9581 355.15 97.8532L354.578 97.3313C353.846 97.2541 353.158 96.8789 352.7 96.2639L352.176 96.4214ZM357.413 95.5067L357.827 95.8841C358.18 95.0323 358.166 94.0357 357.702 93.1565C356.876 91.5877 354.933 90.9865 353.363 91.8138C352.805 92.1077 352.369 92.5425 352.077 93.0512L352.907 92.8017C353.104 92.5942 353.338 92.4147 353.605 92.2739C354.921 91.5806 356.549 92.0844 357.242 93.3992C357.598 94.0755 357.638 94.8346 357.413 95.5067ZM272.398 50.1314C272.524 50.6408 272.714 51.1432 272.969 51.6283C274.671 54.858 278.671 56.0956 281.903 54.3926L281.943 54.3715L280.121 52.8379C278.103 53.4518 275.87 52.5706 274.851 50.6368C274.668 50.2901 274.536 49.9303 274.45 49.5657L272.398 50.1314ZM284.364 52.1508L282.719 50.7661C283.452 49.4797 283.533 47.8587 282.792 46.4526C281.637 44.2614 278.924 43.4217 276.731 44.5771C276.065 44.9279 275.524 45.4221 275.126 46.0018L272.461 46.7364C272.939 45.06 274.075 43.5739 275.74 42.6968C278.972 40.9938 282.972 42.2314 284.674 45.4612C285.83 47.6566 285.628 50.2073 284.364 52.1508ZM286.869 54.2592C288.954 51.3212 289.35 47.3456 287.556 43.9422C285.016 39.1214 279.046 37.2741 274.222 39.8161C271.139 41.4406 269.27 44.4648 268.986 47.6945L257.595 50.8347L256.411 51.1612L256.399 52.389L256.021 89.8466L202.258 102.646L205.013 77.4499L250.801 69.6203L252.127 69.3935L252.156 68.049L252.933 31.6228L294.678 29.3863L306.242 39.3332L306.81 39.8216L307.551 39.7082L319.756 37.8396L321.098 37.6342L321.138 36.2776L321.45 25.8272L348.269 22.4677L370.904 46.641L371.537 47.3176L372.443 47.1181L389.721 43.3132L399.801 54.0408L380.945 59.5586L359.263 37.0756L358.717 36.5092L357.933 36.5853L347.317 37.6171L345.687 37.7755L345.853 39.4035L348.74 67.7791L312.183 75.5688L286.869 54.2592ZM421.772 89.0152L412.968 79.5636L405.557 83.4687L409.024 107.869L413.416 105.555C412.508 103.065 413.557 100.224 415.969 98.9529C418.601 97.5664 421.857 98.574 423.242 101.204C423.434 101.568 423.58 101.944 423.682 102.326L421.772 89.0152ZM423.862 103.577C423.91 105.557 422.858 107.489 420.986 108.475C419.163 109.436 417.039 109.247 415.446 108.165L409.511 111.293L411.973 128.619L426.368 121.034L423.862 103.577ZM417.899 106.873C418.582 106.998 419.312 106.904 419.974 106.555C420.637 106.205 421.128 105.657 421.411 105.023L420.48 105.513C420.273 105.743 420.022 105.942 419.732 106.095C419.442 106.247 419.137 106.342 418.83 106.383L417.899 106.873ZM420.906 101.608C419.95 100.506 418.328 100.164 416.981 100.873C415.634 101.583 414.999 103.114 415.368 104.526L415.844 104.276C415.599 103.127 416.132 101.908 417.223 101.333C418.315 100.758 419.621 101.007 420.43 101.859L420.906 101.608ZM426.859 124.456L412.46 132.043L413.639 140.34L413.8 141.475L412.785 142.01L405.327 145.939L415.089 153.09L424.054 145.766L421.557 135.083L421.271 133.858L422.384 133.271L427.72 130.46L426.859 124.456ZM424.879 149.297L416.173 156.409L415.196 157.207L414.179 156.462L390.723 139.28L350.276 164.332L354.302 201.061L354.406 202.008L353.63 202.562L331.724 218.246L346.307 227.815L349.571 224.896C349.261 224.493 348.981 224.059 348.736 223.594C346.427 219.212 348.11 213.786 352.496 211.475C356.882 209.164 362.309 210.844 364.618 215.226C366.927 219.609 365.244 225.035 360.858 227.345C357.965 228.87 354.619 228.658 352.014 227.079L347.545 231.077L346.611 231.912L345.565 231.225L328.884 220.28L287.299 250.053L288.336 286.854L312.07 266.466L312.929 265.728L313.92 266.275L351.441 287.006C352.213 285.98 353.219 285.103 354.43 284.465C357.402 282.899 360.853 283.165 363.487 284.863L406.21 241.005L402.459 211.37L402.049 208.132L404.883 209.75L424.126 220.737L446.337 198.796C446.122 198.489 445.924 198.165 445.745 197.825C443.436 193.443 445.119 188.017 449.505 185.706C449.938 185.478 450.381 185.289 450.831 185.137L445.497 157.375L445.34 156.558L445.911 155.952L452.511 148.937L439.561 137.303L427.689 147.002L432.007 165.482L432.294 166.707L431.18 167.294L428.286 168.819C428.931 171.197 427.868 173.789 425.595 174.986C422.964 176.373 419.707 175.365 418.322 172.736C416.936 170.106 417.946 166.851 420.578 165.464C422.558 164.421 424.891 164.733 426.515 166.071L428.549 165L424.879 149.297ZM423.633 167.59L424.287 167.246C423.442 166.907 422.459 166.927 421.59 167.385C420.02 168.212 419.417 170.154 420.244 171.723C421.07 173.292 423.013 173.893 424.583 173.066C425.784 172.433 426.419 171.147 426.281 169.876L425.778 170.141C425.808 171.136 425.282 172.11 424.341 172.606C423.025 173.299 421.397 172.795 420.704 171.481C420.011 170.166 420.516 168.538 421.832 167.845C422.407 167.542 423.043 167.468 423.633 167.59ZM425.535 223.922L448.66 201.078C451.312 202.865 454.838 203.172 457.867 201.576C462.253 199.266 463.936 193.84 461.627 189.457C460.084 186.528 457.147 184.806 454.06 184.677L448.854 157.576L454.934 151.114L461.64 157.138L462.84 158.217L463.931 157.026L468.918 151.58L478.067 203.32L469.107 215.805L468.728 216.333L468.816 216.976L470.157 226.778L450.39 257.236L446.267 254.466L445.017 253.626L444.081 254.806L423.354 280.935L422.933 281.466L423.012 282.138L424.403 293.919L386.877 346.206L374.889 341.891L373.795 341.498L373.067 342.403L344.141 378.356L256.092 336.395L288.333 306.368L288.872 305.866L288.851 305.13L288.454 291.046L313.333 269.673L349.987 289.924C349.369 292.072 349.547 294.452 350.671 296.584C352.98 300.967 358.407 302.646 362.793 300.335C367.178 298.024 368.862 292.598 366.552 288.216C366.344 287.821 366.111 287.448 365.856 287.098L409.092 242.713L409.64 242.151L409.541 241.372L406.101 214.197L423.582 224.178L424.655 224.791L425.535 223.922ZM459.705 190.47C458.621 188.413 456.632 187.142 454.485 186.888L454.956 189.338C456.077 189.668 457.069 190.434 457.657 191.549C458.811 193.74 457.97 196.453 455.777 197.609C454.555 198.253 453.171 198.277 451.985 197.793L450.246 199.511C452.207 200.655 454.697 200.793 456.855 199.656C460.179 197.904 461.455 193.792 459.705 190.47ZM451.693 189.624L451.245 187.295C450.999 187.39 450.756 187.501 450.517 187.627C447.193 189.378 445.917 193.491 447.667 196.813C447.744 196.959 447.826 197.101 447.912 197.24L449.624 195.549C448.609 193.392 449.464 190.797 451.596 189.674C451.628 189.657 451.66 189.64 451.693 189.624ZM361.93 286.461C359.989 285.381 357.556 285.272 355.442 286.385C354.62 286.818 353.924 287.396 353.367 288.07L355.448 289.219C355.756 288.913 356.116 288.646 356.521 288.432C357.712 287.805 359.058 287.766 360.224 288.213L361.93 286.461ZM351.953 291.011L354.127 292.212C354.094 292.979 354.257 293.764 354.641 294.492C355.795 296.683 358.509 297.523 360.702 296.368C362.862 295.23 363.711 292.58 362.632 290.407L364.311 288.684C364.34 288.728 364.368 288.773 364.396 288.817C364.42 288.856 364.443 288.895 364.467 288.935C364.523 289.031 364.578 289.129 364.631 289.228C366.381 292.55 365.105 296.663 361.781 298.415C358.456 300.166 354.343 298.893 352.592 295.571C351.825 294.115 351.639 292.506 351.953 291.011ZM355.694 223.788L353.733 225.542C355.606 226.439 357.866 226.468 359.846 225.425C363.171 223.673 364.446 219.561 362.696 216.239C360.946 212.917 356.832 211.644 353.508 213.396C350.184 215.147 348.908 219.26 350.658 222.582C350.818 222.886 350.998 223.173 351.196 223.442L352.934 221.887C352.853 221.764 352.777 221.636 352.706 221.503C351.552 219.311 352.394 216.598 354.586 215.443C356.779 214.287 359.493 215.127 360.647 217.318C361.802 219.51 360.96 222.223 358.767 223.378C357.785 223.896 356.698 224.013 355.694 223.788ZM328.805 216.331L350.959 200.47L347.207 166.233L345.946 167.014L345.949 185.367L345.949 186.35L345.079 186.809L332.374 193.504L331.449 193.991L330.621 193.354L322.941 187.449L277.824 212.437L288.974 219.787L313.136 207.056L313.986 206.608L314.789 207.135L328.805 216.331ZM274.756 210.414L320.127 185.285L295.067 166.018L261.307 183.807L259.819 200.567L274.756 210.414ZM256.729 198.53L258.14 182.637L258.218 181.753L259.003 181.34L292.226 163.834L255.417 135.533L222.373 146.701L219.973 174.3L256.729 198.53ZM219.652 177.991L217.938 197.702L217.858 198.627L217.02 199.03L214.362 200.306L233.907 212.305L254.914 201.236L219.652 177.991ZM258.017 203.282L237.133 214.285L251.662 223.204L271.539 212.195L258.017 203.282ZM409.156 131.952L394.772 118.982L322.604 151.583L324.667 184.667L331.78 190.136L342.691 184.387L342.688 166.109L342.688 165.202L343.46 164.724L346.814 162.646L345.6 151.577L345.48 150.475L346.461 149.958L382.989 130.711L383.89 130.236L384.712 130.838L390.877 135.354L392.797 134.165L393.894 133.486L394.807 134.397L403.594 143.172L410.252 139.664L409.156 131.952ZM387.89 137.205L383.606 134.067L348.96 152.322L349.883 160.745L387.89 137.205ZM267.105 7.81759C267.087 7.29399 266.954 6.76625 266.693 6.27174C265.77 4.51875 263.599 3.84701 261.845 4.77134C260.103 5.68882 259.427 7.83394 260.32 9.57997L260.321 9.78945L260.325 11.8059C259.829 11.3966 259.404 10.8844 259.086 10.2801C257.798 7.83479 258.737 4.80723 261.184 3.51783C263.631 2.22845 266.659 3.1655 267.948 5.6108C268.304 6.28748 268.49 7.00876 268.521 7.72543L267.105 7.81759ZM270.689 7.58425C270.639 6.57178 270.373 5.55394 269.87 4.59814C268.022 1.09217 263.681 -0.251347 260.172 1.59733C256.663 3.446 255.317 7.7868 257.164 11.2928C257.897 12.6829 259.021 13.733 260.33 14.379L260.34 19.016L233.519 23.0283L232.263 23.2161L232.138 24.4792L229.639 49.7057L221.079 49.4405C220.892 48.6102 220.594 47.7907 220.178 47.0019C217.638 42.1811 211.668 40.3338 206.844 42.8758C202.02 45.4177 200.168 51.3863 202.708 56.207C205.248 61.0277 211.218 62.875 216.043 60.3331C219.046 58.7505 220.898 55.8395 221.254 52.7042L231.058 53.008L232.58 53.0552L232.731 51.54L235.255 26.0613L262.213 22.0286L263.604 21.8204L263.601 20.4138L263.59 15.1231C264.696 15.1121 265.816 14.8447 266.862 14.2936C268.337 13.5165 269.429 12.2991 270.064 10.8885L284.408 9.95454L307.639 31.4383L309.93 33.5567L310.36 30.4658L312.247 16.8819C313.338 16.8641 314.442 16.5965 315.473 16.053C317.397 15.0393 318.671 13.2765 319.125 11.3128L327.186 12.1438L334.37 17.5289L334.858 17.8942L335.466 17.8499L350.381 16.7622L368.086 33.5306L368.479 33.9023L369.016 33.9655L371.934 34.3085C372.068 34.7775 372.252 35.2397 372.489 35.6883C374.336 39.1943 378.678 40.5378 382.186 38.6891C385.695 36.8404 387.042 32.4996 385.194 28.9937C383.347 25.4877 379.005 24.1442 375.497 25.9929C373.482 27.0542 372.181 28.9371 371.787 31.0118L369.936 30.7942L352.101 13.9035L351.58 13.4095L350.863 13.4618L335.839 14.5575L328.781 9.26733L328.42 8.99683L327.971 8.95056L319.114 8.03756C318.978 7.46575 318.768 6.90158 318.481 6.35752C316.634 2.85155 312.292 1.50804 308.784 3.35672C305.275 5.20538 303.928 9.54618 305.776 13.0521C306.529 14.4817 307.697 15.5517 309.054 16.1924L307.562 26.9288L286.108 7.08858L285.594 6.6138L284.896 6.65929L270.689 7.58425ZM373.951 31.2662C374.258 29.8779 375.152 28.6284 376.509 27.9134C378.956 26.624 381.984 27.561 383.272 30.0063C384.561 32.4516 383.622 35.4792 381.174 36.7686C378.727 38.058 375.699 37.1209 374.411 34.6756C374.397 34.6487 374.383 34.6217 374.369 34.5947L376.238 34.8144C377.317 35.9502 379.059 36.2817 380.514 35.515C382.268 34.5906 382.942 32.4202 382.018 30.6672C381.094 28.9143 378.924 28.2425 377.169 29.1668C376.241 29.6557 375.616 30.4931 375.369 31.4329L373.951 31.2662ZM314.461 14.1325C313.849 14.4552 313.2 14.6384 312.551 14.6934L312.753 13.239C313.11 13.1756 313.463 13.0569 313.801 12.879C314.62 12.4475 315.203 11.7444 315.498 10.939L316.94 11.0876C316.576 12.3513 315.717 13.4708 314.461 14.1325ZM316.559 7.3702C316.633 7.50994 316.699 7.65161 316.758 7.79472L315.051 7.61868C314.025 6.17805 312.065 5.68299 310.456 6.53085C308.702 7.45519 308.028 9.62558 308.952 11.3786C309.127 11.7111 309.347 12.0048 309.601 12.256L309.374 13.8879C308.69 13.4387 308.106 12.8149 307.698 12.0395C306.409 9.59419 307.348 6.56662 309.795 5.27723C312.243 3.98784 315.271 4.92489 316.559 7.3702ZM267.437 11.0595L264.985 11.2191C264.531 11.4232 264.055 11.5253 263.583 11.5338L263.586 12.9514C264.351 12.9411 265.126 12.7545 265.85 12.3731C266.485 12.0386 267.018 11.5873 267.437 11.0595ZM215.832 52.5362L217.981 52.6028C217.673 54.6026 216.453 56.4362 214.525 57.4524C211.293 59.1554 207.293 57.9177 205.591 54.688C203.889 51.4583 205.13 47.4595 208.362 45.7565C211.594 44.0535 215.594 45.2911 217.296 48.5209C217.436 48.7874 217.556 49.0592 217.657 49.3344L215.271 49.2605C214.047 47.2582 211.46 46.5267 209.353 47.6367C207.16 48.7921 206.319 51.5051 207.473 53.6964C208.628 55.8876 211.341 56.7273 213.534 55.5719C214.76 54.9258 215.564 53.7928 215.832 52.5362ZM303.038 114.543L291.095 106.396C292.168 103.786 292.118 100.737 290.7 98.0458C288.16 93.2251 282.19 91.3777 277.366 93.9197C274.038 95.6734 272.124 99.0583 272.092 102.572L226.092 114.232C225.948 113.848 225.778 113.468 225.581 113.095C223.041 108.274 217.071 106.427 212.247 108.969C207.423 111.511 205.571 117.479 208.111 122.3C210.651 127.121 216.621 128.968 221.445 126.426C224.881 124.616 226.809 121.067 226.717 117.433L272.607 105.801C272.773 106.292 272.98 106.777 273.23 107.251C275.77 112.072 281.74 113.919 286.564 111.377C287.66 110.799 288.603 110.045 289.376 109.167L302.01 117.786L302.82 118.339L303.688 117.881L320.364 109.095L321.187 108.661L321.232 107.733L322.297 86.0646L347.937 80.0989L367.922 94.6644L368.527 95.105L369.256 94.9334L381.439 92.062L382.884 91.7215L382.68 90.252L381.299 80.3207C382.03 80.1966 382.755 79.9561 383.447 79.5914C386.319 78.0784 387.742 74.896 387.151 71.8682L397.695 67.6779C399.314 69.3687 401.918 69.8592 404.093 68.7128C406.725 67.3262 407.735 64.0707 406.349 61.4412C404.964 58.8117 401.708 57.804 399.076 59.1906C396.997 60.2858 395.931 62.5475 396.257 64.7455L385.817 68.8944C383.733 66.1498 379.909 65.2346 376.757 66.8952C373.249 68.7439 371.902 73.0847 373.749 76.5906C374.674 78.3447 376.222 79.5575 377.979 80.1L379.248 89.2328L369.238 91.5919L349.255 77.028L348.653 76.589L347.926 76.758L320.362 83.1716L319.163 83.4504L319.103 84.6786L318.024 106.647L303.038 114.543ZM400.016 66.7555L400.687 66.489C401.37 66.7302 402.148 66.6965 402.839 66.3321C404.155 65.6389 404.66 64.011 403.967 62.6963C403.275 61.3816 401.646 60.8777 400.331 61.571C399.498 62.0096 398.99 62.8223 398.905 63.6931L398.372 63.905C398.39 62.7693 399.012 61.6782 400.088 61.1111C401.658 60.2838 403.601 60.885 404.427 62.4538C405.254 64.0226 404.651 65.965 403.081 66.7923C402.083 67.3185 400.933 67.2667 400.016 66.7555ZM377.631 77.5989C376.824 77.143 376.135 76.4582 375.671 75.578C374.383 73.1327 375.322 70.1051 377.769 68.8157C379.777 67.7577 382.176 68.1987 383.685 69.742L382.202 70.3311C381.132 69.5615 379.676 69.4127 378.43 70.0693C376.675 70.9936 376.002 73.1641 376.926 74.9171C377.046 75.1447 377.187 75.3542 377.345 75.5442L377.631 77.5989ZM381 78.1686L380.804 76.7629C381.135 76.6967 381.461 76.5825 381.775 76.4174C382.994 75.775 383.691 74.5306 383.693 73.2428L385.081 72.6911C385.299 74.6757 384.31 76.6833 382.435 77.671C381.972 77.9149 381.488 78.0791 381 78.1686ZM287.817 99.5648C288.65 101.145 288.778 102.909 288.313 104.499L286.418 103.206C286.529 102.324 286.381 101.402 285.936 100.556C284.781 98.365 282.067 97.5254 279.875 98.6808C278.839 99.2263 278.105 100.119 277.74 101.14L275.416 101.729C275.704 99.6988 276.93 97.83 278.884 96.8004C282.116 95.0974 286.116 96.3351 287.817 99.5648ZM284.852 106.082L286.654 107.311C286.193 107.774 285.655 108.176 285.046 108.496C281.814 110.199 277.815 108.962 276.113 105.732C275.986 105.491 275.875 105.245 275.78 104.996L277.863 104.468C277.903 104.56 277.947 104.651 277.995 104.74C279.149 106.932 281.863 107.771 284.056 106.616C284.345 106.463 284.611 106.284 284.852 106.082ZM222.698 114.614C222.772 114.755 222.841 114.897 222.904 115.04L220.8 115.574C219.636 113.406 216.938 112.58 214.756 113.73C212.563 114.885 211.721 117.598 212.876 119.79C214.03 121.981 216.744 122.82 218.937 121.665C220.095 121.054 220.877 120.009 221.186 118.835L223.436 118.265C223.246 120.43 221.994 122.457 219.927 123.545C216.695 125.248 212.696 124.011 210.994 120.781C209.292 117.551 210.533 113.553 213.765 111.85C216.997 110.147 220.996 111.384 222.698 114.614ZM481.055 139.681C481.748 140.996 481.243 142.624 479.927 143.317C478.612 144.01 476.983 143.506 476.291 142.192C475.598 140.877 476.103 139.249 477.419 138.556C478.734 137.863 480.362 138.367 481.055 139.681ZM480.17 143.777C481.74 142.95 482.342 141.007 481.516 139.439C480.689 137.87 478.746 137.269 477.176 138.096C475.606 138.923 475.004 140.866 475.83 142.434C476.657 144.003 478.6 144.604 480.17 143.777Z" fill="#090017" fill-opacity="0.15"/>
</svg>
