<svg width="71" height="70" viewBox="0 0 71 70" fill="none" xmlns="http://www.w3.org/2000/svg">
<path d="M10.7889 62.411L5.29062 0.73938H65.7094L60.2056 62.4017L35.4634 69.2612L10.7889 62.411Z" fill="#1572B6"/>
<path d="M35.5005 64.0183L55.4938 58.4752L60.1974 5.78156H35.5005V64.0183Z" fill="#33A9DC"/>
<path d="M35.5005 28.1253H45.5095L46.2007 20.3799H35.5005V12.816H54.4673L54.2857 14.8455L52.4263 35.6891H35.5005V28.1253Z" fill="white"/>
<path d="M35.5454 47.769L35.512 47.7788L27.0885 45.5044L26.5498 39.4718H18.9581L20.0174 51.3483L35.5109 55.6484L35.5454 55.6385V47.769Z" fill="#EBEBEB"/>
<path d="M44.8663 35.3691L43.9552 45.4984L35.5191 47.7755V55.6451L51.0252 51.3477L51.139 50.0697L52.4548 35.3691H44.8663Z" fill="white"/>
<path d="M35.5263 12.816V20.3799H17.2563L17.1048 18.6802L16.7602 14.8455L16.5792 12.816H35.5263ZM35.5006 28.1264V35.6902H27.1831L27.0316 33.9905L26.6866 30.1558L26.5061 28.1264H35.5006Z" fill="#EBEBEB"/>
</svg>
