<svg width="71" height="70" viewBox="0 0 71 70" fill="none" xmlns="http://www.w3.org/2000/svg">
<path d="M10.7888 62.411L5.29053 0.73938H65.7093L60.2055 62.4017L35.4633 69.2612L10.7888 62.411Z" fill="#ABABAB"/>
<path d="M35.5005 64.0183L55.4937 58.4752L60.1974 5.78162H35.5005V64.0183Z" fill="#ABABAB"/>
<path d="M35.5005 28.1253H45.5094L46.2006 20.3799H35.5005V12.816H54.4672L54.2856 14.8455L52.4263 35.6891H35.5005V28.1253Z" fill="#C9C8CA"/>
<path d="M35.5453 47.769L35.5119 47.7788L27.0884 45.5044L26.5497 39.4718H18.958L20.0173 51.3483L35.5108 55.6484L35.5453 55.6385V47.769Z" fill="#C9C8CA"/>
<path d="M44.8662 35.3691L43.9551 45.4984L35.519 47.7755V55.6451L51.0251 51.3477L51.1389 50.0697L52.4547 35.3691H44.8662Z" fill="#C9C8CA"/>
<path d="M35.5261 12.816V20.3799H17.2561L17.1046 18.6802L16.7601 14.8455L16.5791 12.816H35.5261ZM35.5004 28.1264V35.6902H27.183L27.0315 33.9905L26.6864 30.1558L26.506 28.1264H35.5004Z" fill="#C9C8CA"/>
</svg>
