<svg width="71" height="70" viewBox="0 0 71 70" fill="none" xmlns="http://www.w3.org/2000/svg">
<g clip-path="url(#clip0_544_4607)">
<path fill-rule="evenodd" clip-rule="evenodd" d="M20.7481 43.459C20.911 43.459 21.0662 43.4897 21.2096 43.5451C21.0544 43.6351 20.949 43.8034 20.949 43.9958C20.949 44.2834 21.182 44.5161 21.4697 44.5161C21.6666 44.5161 21.8375 44.4067 21.9261 44.2452C21.9883 44.3957 22.0232 44.5609 22.0232 44.7343C22.0232 45.4385 21.4522 46.0094 20.7481 46.0094C20.044 46.0094 19.4728 45.4385 19.4728 44.7343C19.4728 44.0298 20.044 43.459 20.7481 43.459ZM20.7481 46.9156C19.5452 46.9156 18.5664 45.9372 18.5664 44.7343C18.5664 43.5314 19.5452 42.5527 20.7481 42.5527C21.9508 42.5527 22.9295 43.5314 22.9295 44.7343C22.9295 45.9372 21.9508 46.9156 20.7481 46.9156ZM59.959 32.6194C53.7641 49.0343 39.7738 56.346 23.2799 56.346C15.4865 56.346 9.26914 53.6655 5.29276 49.196L5.32206 49.1767C6.46776 49.2347 7.49295 49.2545 8.53365 49.2545C9.48523 49.2545 10.4161 49.2445 11.2782 49.196C11.3532 49.1918 11.447 49.1814 11.5215 49.1767C11.5222 49.1765 11.7874 49.1592 11.6577 49.1571C13.8486 49.022 15.5469 48.7174 17.1305 48.2655C17.1302 48.2657 17.1308 48.2654 17.1305 48.2655C17.4183 48.1832 17.6984 48.0962 17.9658 48.0036C18.2649 47.8998 18.4232 47.5733 18.3196 47.2742C18.216 46.9749 17.8897 46.8162 17.5904 46.9203C15.5789 47.6173 12.9253 48.001 9.67307 48.073C8.01827 48.1096 6.20842 48.066 4.24648 47.9399C3.84062 47.398 3.46477 46.8349 3.12118 46.2516L2.57807 45.2585C0.937218 42.0326 0.218822 38.2642 0.600083 34.1716H48.3232C52.2438 34.1716 56.0726 32.7085 57.8896 31.0945C54.6337 28.4471 54.9564 22.1588 57.0315 19.7593C58.8325 21.2063 61.7366 24.2545 61.2371 28.1348C63.5034 26.9955 67.4393 26.4325 70.5 28.1988C68.5784 31.9497 64.3543 33.0702 59.959 32.6194ZM7.07733 33.0134H13.5309V26.5595H7.07733V33.0134ZM14.5236 33.0134H20.9778V26.5595H14.5236V33.0134ZM14.5236 25.5668H20.9778V19.1131H14.5236V25.5668ZM21.9704 33.0134H28.4243V26.5595H21.9704V33.0134ZM21.9704 25.5668H28.4243V19.1131H21.9704V25.5668ZM29.4168 33.0134H35.8707V26.5595H29.4168V33.0134ZM29.4168 25.5668H35.8707V19.1131H29.4168V25.5668ZM29.4168 18.1205H35.8707V11.6666H29.4168V18.1205ZM36.8633 33.0134H43.3171V26.5595H36.8633V33.0134Z" fill="#ABABAB"/>
</g>
<defs>
<clipPath id="clip0_544_4607">
<rect width="70" height="70" fill="white" transform="translate(0.5)"/>
</clipPath>
</defs>
</svg>
