<svg width="156" height="109" viewBox="0 0 156 109" fill="none" xmlns="http://www.w3.org/2000/svg">
<path opacity="0.4" d="M132.6 -16.4H23.4C17.1939 -16.4 11.2421 -13.9346 6.8537 -9.54629C2.46535 -5.15794 0 0.793941 0 7.00001V85C0 91.2061 2.46535 97.158 6.8537 101.546C11.2421 105.935 17.1939 108.4 23.4 108.4H132.6C138.806 108.4 144.758 105.935 149.146 101.546C153.535 97.158 156 91.2061 156 85V7.00001C156 0.793941 153.535 -5.15794 149.146 -9.54629C144.758 -13.9346 138.806 -16.4 132.6 -16.4ZM127.374 -0.799994L78 36.25L28.626 -0.799994H127.374ZM132.6 92.8H23.4C21.3313 92.8 19.3474 91.9782 17.8846 90.5154C16.4218 89.0527 15.6 87.0687 15.6 85V8.95001L73.32 52.24C74.6702 53.2526 76.3123 53.8 78 53.8C79.6877 53.8 81.3299 53.2526 82.68 52.24L140.4 8.95001V85C140.4 87.0687 139.578 89.0527 138.115 90.5154C136.653 91.9782 134.669 92.8 132.6 92.8Z" fill="#8B8B8B"/>
</svg>
