<svg width="45" height="70" viewBox="0 0 45 70" fill="none" xmlns="http://www.w3.org/2000/svg">
<path d="M22.6077 0.861572V25.9539C22.6077 26.0616 22.5 26.1693 22.3923 26.1693C21.6385 26.4923 20.9923 26.8154 20.2385 27.1385C19.2692 27.5693 18.1923 28 17.2231 28.5385L13.6692 30.1539L10.7615 31.4462L7.20769 33.0616C6.23846 33.4923 5.26923 33.9231 4.19231 34.4616C3.43846 34.7847 2.57692 35.2154 1.82308 35.5385C1.71538 35.5385 1.71538 35.6462 1.60769 35.5385H1.5C1.82308 35 2.14615 34.5693 2.46923 34.0308C4.19231 31.1231 6.02308 28.2154 7.74615 25.3077C9.57692 22.1847 11.5154 19.0616 13.3462 15.9385C15.0692 13.0308 16.7923 10.1231 18.5154 7.32311C19.8077 5.16926 21.1 3.12311 22.2846 0.969265C22.5 0.969265 22.5 0.861572 22.6077 0.861572Z" fill="#ABABAB"/>
<path d="M43.5 35.5384C41.8846 36.6154 40.1615 37.5846 38.5462 38.5538C33.2692 41.6769 28.1 44.6923 22.8231 47.8154C22.7154 47.8154 22.7154 47.9231 22.6077 47.9231C22.5 47.9231 22.5 47.8154 22.5 47.8154V47.4923V26.4923V26.1692C22.5 26.0615 22.6077 26.0615 22.7154 26.0615C23.1462 26.2769 23.5769 26.4923 24.1154 26.7077C25.4077 27.3538 26.8077 27.8923 28.1 28.5384C29.2846 29.0769 30.3615 29.6154 31.5462 30.0461C32.7308 30.5846 33.8077 31.1231 34.9923 31.6615C35.9615 32.0923 37.0385 32.5231 38.0077 33.0615C38.9769 33.4923 40.0538 33.9231 41.0231 34.4615C41.7769 34.7846 42.5308 35.2154 43.3923 35.5384C43.3923 35.4308 43.3923 35.5384 43.5 35.5384Z" fill="#ABABAB"/>
<path d="M22.6079 69.0309C22.5002 69.0309 22.5002 69.0309 22.3925 68.9232C20.2387 65.9078 18.1925 63.0001 16.0387 59.9847L9.57714 50.9386C7.53099 48.0309 5.37714 45.1232 3.33099 42.1078L1.7156 39.8462C1.7156 39.7386 1.60791 39.7386 1.60791 39.6309C1.7156 39.6309 1.7156 39.7386 1.82329 39.7386C4.73099 41.4616 7.74637 43.1847 10.6541 44.9078C13.9925 46.9539 17.4387 48.8924 20.7771 50.9386C21.3156 51.2616 21.9618 51.5847 22.5002 51.9078C22.6079 51.9078 22.6079 52.0155 22.6079 52.1232V69.0309Z" fill="#ABABAB"/>
<path d="M1.60791 35.5385C1.7156 35.5385 1.7156 35.5385 1.60791 35.5385C1.60791 35.6461 1.60791 35.6461 1.60791 35.5385Z" fill="#ABABAB"/>
<path d="M1.71533 35.6462C1.71533 35.5385 1.71533 35.5385 1.71533 35.6462C2.79226 35.1077 3.86918 34.6769 4.9461 34.1385L9.1461 32.2C10.223 31.6615 11.2999 31.2308 12.3769 30.6923C13.8846 29.9385 15.4999 29.2923 17.0076 28.5385C18.0846 28.1077 19.1615 27.5692 20.2384 27.1385C20.9923 26.8154 21.7461 26.4923 22.4999 26.0616C22.6076 26.0616 22.6076 25.9539 22.7153 25.9539V47.9231C22.6076 48.0308 22.6076 47.9231 22.4999 47.9231C22.1769 47.7077 21.8538 47.6 21.6384 47.3846L1.93072 35.7539C1.82302 35.6462 1.71533 35.6462 1.71533 35.6462Z" fill="#ABABAB"/>
<path d="M43.3925 39.6309C43.3925 39.7386 43.3925 39.7386 43.2848 39.8462C37.0387 48.677 30.7925 57.4001 24.5464 66.2309C23.9002 67.2001 23.2541 68.0616 22.6079 69.0309V68.9232V68.7078V52.2309V51.9078C24.0079 51.0462 25.4079 50.1847 26.8079 49.4309L43.2848 39.7386C43.2848 39.6309 43.3925 39.6309 43.3925 39.6309Z" fill="#ABABAB"/>
<path d="M22.6079 26.0615V25.8462V1.18462V0.969238L43.2848 35.2154C43.3925 35.3231 43.5002 35.4308 43.5002 35.5385C43.0694 35.3231 42.6387 35.1077 42.1002 34.8923C41.5618 34.6769 41.0233 34.3539 40.4848 34.1385C40.1618 34.0308 39.8387 33.8154 39.4079 33.7077C38.8694 33.4923 38.2233 33.1692 37.6848 32.9539C37.3618 32.8462 37.0387 32.6308 36.7156 32.5231L34.4541 31.5539C34.0233 31.3385 33.7002 31.2308 33.2694 31.0154C32.731 30.8 32.1925 30.4769 31.6541 30.2615C31.331 30.1539 31.0079 29.9385 30.6848 29.8308L28.4233 28.8615C27.9925 28.6462 27.6694 28.5385 27.2387 28.3231C26.7002 28.1077 26.1618 27.7846 25.6233 27.5692C25.3002 27.3539 24.8694 27.2462 24.5464 27.0308L22.6079 26.0615Z" fill="#ABABAB"/>
</svg>
