<svg width="45" height="70" viewBox="0 0 45 70" fill="none" xmlns="http://www.w3.org/2000/svg">
<path d="M22.6077 0.861542V25.9539C22.6077 26.0615 22.5 26.1692 22.3923 26.1692C21.6385 26.4923 20.9923 26.8154 20.2385 27.1385C19.2692 27.5692 18.1923 28 17.2231 28.5385L13.6692 30.1539L10.7615 31.4462L7.20769 33.0615C6.23846 33.4923 5.26923 33.9231 4.19231 34.4615C3.43846 34.7846 2.57692 35.2154 1.82308 35.5385C1.71538 35.5385 1.71538 35.6462 1.60769 35.5385H1.5C1.82308 35 2.14615 34.5692 2.46923 34.0308C4.19231 31.1231 6.02308 28.2154 7.74615 25.3077C9.57692 22.1846 11.5154 19.0615 13.3462 15.9385C15.0692 13.0308 16.7923 10.1231 18.5154 7.32308C19.8077 5.16923 21.1 3.12308 22.2846 0.969234C22.5 0.969234 22.5 0.861542 22.6077 0.861542Z" fill="#8A92B2"/>
<path d="M43.5 35.5385C41.8846 36.6154 40.1615 37.5846 38.5462 38.5539C33.2692 41.6769 28.1 44.6923 22.8231 47.8154C22.7154 47.8154 22.7154 47.9231 22.6077 47.9231C22.5 47.9231 22.5 47.8154 22.5 47.8154V47.4923V26.4923V26.1692C22.5 26.0616 22.6077 26.0616 22.7154 26.0616C23.1462 26.2769 23.5769 26.4923 24.1154 26.7077C25.4077 27.3539 26.8077 27.8923 28.1 28.5385C29.2846 29.0769 30.3615 29.6154 31.5462 30.0462C32.7308 30.5846 33.8077 31.1231 34.9923 31.6616C35.9615 32.0923 37.0385 32.5231 38.0077 33.0616C38.9769 33.4923 40.0538 33.9231 41.0231 34.4616C41.7769 34.7846 42.5308 35.2154 43.3923 35.5385C43.3923 35.4308 43.3923 35.5385 43.5 35.5385Z" fill="#454A75"/>
<path d="M22.6077 69.0308C22.5 69.0308 22.5 69.0308 22.3923 68.9231C20.2385 65.9077 18.1923 63 16.0385 59.9846L9.57693 50.9385C7.53077 48.0308 5.37693 45.1231 3.33077 42.1077L1.71539 39.8462C1.71539 39.7385 1.6077 39.7385 1.6077 39.6308C1.71539 39.6308 1.71539 39.7385 1.82308 39.7385C4.73077 41.4615 7.74616 43.1846 10.6539 44.9077C13.9923 46.9538 17.4385 48.8923 20.7769 50.9385C21.3154 51.2615 21.9615 51.5846 22.5 51.9077C22.6077 51.9077 22.6077 52.0154 22.6077 52.1231V69.0308Z" fill="#8A92B2"/>
<path d="M1.6077 35.5385C1.71539 35.5385 1.71539 35.5385 1.6077 35.5385C1.6077 35.6461 1.6077 35.6461 1.6077 35.5385Z" fill="#808080"/>
<path d="M1.71539 35.6462C1.71539 35.5385 1.71539 35.5385 1.71539 35.6462C2.79232 35.1077 3.86924 34.6769 4.94616 34.1385L9.14616 32.2C10.2231 31.6615 11.3 31.2308 12.3769 30.6923C13.8846 29.9385 15.5 29.2923 17.0077 28.5385C18.0846 28.1077 19.1615 27.5692 20.2385 27.1385C20.9923 26.8154 21.7462 26.4923 22.5 26.0616C22.6077 26.0616 22.6077 25.9539 22.7154 25.9539V47.9231C22.6077 48.0308 22.6077 47.9231 22.5 47.9231C22.1769 47.7077 21.8539 47.6 21.6385 47.3846L1.93078 35.7539C1.82309 35.6462 1.71539 35.6462 1.71539 35.6462Z" fill="#62688F"/>
<path d="M43.3923 39.6308C43.3923 39.7385 43.3923 39.7385 43.2846 39.8462C37.0385 48.6769 30.7923 57.4 24.5462 66.2308C23.9 67.2 23.2539 68.0615 22.6077 69.0308V68.9231V68.7077V52.2308V51.9077C24.0077 51.0462 25.4077 50.1846 26.8077 49.4308L43.2846 39.7385C43.2846 39.6308 43.3923 39.6308 43.3923 39.6308Z" fill="#62688F"/>
<path d="M22.6077 26.0615V25.8462V1.18462V0.969238L43.2846 35.2154C43.3923 35.3231 43.5 35.4308 43.5 35.5385C43.0692 35.3231 42.6385 35.1077 42.1 34.8923C41.5615 34.6769 41.0231 34.3539 40.4846 34.1385C40.1615 34.0308 39.8385 33.8154 39.4077 33.7077C38.8692 33.4923 38.2231 33.1692 37.6846 32.9539C37.3615 32.8462 37.0385 32.6308 36.7154 32.5231L34.4539 31.5539C34.0231 31.3385 33.7 31.2308 33.2692 31.0154C32.7308 30.8 32.1923 30.4769 31.6539 30.2615C31.3308 30.1539 31.0077 29.9385 30.6846 29.8308L28.4231 28.8615C27.9923 28.6462 27.6692 28.5385 27.2385 28.3231C26.7 28.1077 26.1615 27.7846 25.6231 27.5692C25.3 27.3539 24.8692 27.2462 24.5462 27.0308L22.6077 26.0615Z" fill="#62688F"/>
</svg>
