<svg width="71" height="70" viewBox="0 0 71 70" fill="none" xmlns="http://www.w3.org/2000/svg">
<g clip-path="url(#clip0_524_3583)">
<path d="M23.8334 70C30.2734 70 35.5 64.7733 35.5 58.3333V46.6666H23.8334C17.3934 46.6666 12.1667 51.8933 12.1667 58.3333C12.1667 64.7733 17.3934 70 23.8334 70Z" fill="#0ACF83"/>
<path d="M12.1667 35C12.1667 28.56 17.3934 23.3334 23.8334 23.3334H35.5V46.6667H23.8334C17.3934 46.6667 12.1667 41.44 12.1667 35Z" fill="#A259FF"/>
<path d="M12.1667 11.6667C12.1667 5.22667 17.3934 0 23.8334 0H35.5V23.3333H23.8334C17.3934 23.3333 12.1667 18.1067 12.1667 11.6667Z" fill="#F24E1E"/>
<path d="M35.5 0H47.1667C53.6067 0 58.8333 5.22667 58.8333 11.6667C58.8333 18.1067 53.6067 23.3333 47.1667 23.3333H35.5V0Z" fill="#FF7262"/>
<path d="M58.8333 35C58.8333 41.44 53.6067 46.6667 47.1667 46.6667C40.7267 46.6667 35.5 41.44 35.5 35C35.5 28.56 40.7267 23.3334 47.1667 23.3334C53.6067 23.3334 58.8333 28.56 58.8333 35Z" fill="#1ABCFE"/>
</g>
<defs>
<clipPath id="clip0_524_3583">
<rect width="70" height="70" fill="white" transform="translate(0.5)"/>
</clipPath>
</defs>
</svg>
