<svg width="71" height="70" viewBox="0 0 71 70" fill="none" xmlns="http://www.w3.org/2000/svg">
<g clip-path="url(#clip0_524_3977)">
<path d="M34.1467 61.9237L42.2229 70H63.7771L44.9267 51.1496L34.1467 61.9237Z" fill="#0D47A1"/>
<path d="M23.3929 51.1525L34.1554 40.39L44.9179 51.1525L34.1554 61.9179L23.3929 51.1525Z" fill="#42A5F5"/>
<path d="M45.335 51.5579L50.1417 56.3996L38.7375 60.34L35.6575 63.42L34.1583 61.9208L34.1467 61.9238L42.2229 70H63.7771L45.335 51.5579Z" fill="#0B3E8C"/>
<path d="M44.9121 51.1467H23.4017L23.3929 51.1525L34.1554 61.9179L44.9179 51.1525L44.9121 51.1467Z" fill="#3990D5"/>
<path d="M63.7771 32.2962H42.22L34.1467 40.3696L44.9208 51.1437H44.9267L63.7771 32.2962ZM63.7771 0H42.22L7.22 34.9971L18 45.7771L63.7771 0Z" fill="#68B7F7"/>
<path d="M61.295 32.2963H42.2229L34.1496 40.3696L44.9237 51.1437H44.9296L61.295 34.7783V32.2963ZM46.2771 17.5H24.72L7.22292 34.9971L18 45.7771L46.2771 17.5Z" fill="#5B9FD7"/>
</g>
<defs>
<clipPath id="clip0_524_3977">
<rect width="70" height="70" fill="white" transform="translate(0.5)"/>
</clipPath>
</defs>
</svg>
