<svg width="32" height="21" viewBox="0 0 32 21" fill="none" xmlns="http://www.w3.org/2000/svg">
<path fill-rule="evenodd" clip-rule="evenodd" d="M20.8119 0.324226C21.2405 -0.108075 21.9356 -0.108075 22.3642 0.324226L31.6785 9.71725C31.8843 9.92485 32 10.2064 32 10.5C32 10.7936 31.8843 11.0752 31.6785 11.2828L22.3642 20.6758C21.9356 21.1081 21.2405 21.1081 20.8119 20.6758C20.3832 20.2435 20.3832 19.5426 20.8119 19.1103L28.2522 11.607H1.0977C0.491455 11.607 0 11.1114 0 10.5C0 9.88863 0.491455 9.39302 1.0977 9.39302H28.2522L20.8119 1.88973C20.3832 1.45743 20.3832 0.756528 20.8119 0.324226Z" fill="#4C4CFF"/>
</svg>
