<svg width="89" height="70" viewBox="0 0 89 70" fill="none" xmlns="http://www.w3.org/2000/svg">
<g clip-path="url(#clip0_658_8535)">
<path d="M58.4095 19.3252L65.9783 11.7558L66.4813 8.57028C52.6902 -3.9725 30.7656 -2.549 18.3296 11.5374C14.8541 15.5291 12.3303 20.2578 10.9486 25.367L13.6583 24.9834L28.7966 22.4915L29.9632 21.2969C33.2012 17.7169 37.6825 15.5066 42.4938 15.1164C47.3051 14.7263 52.084 16.1857 55.8565 19.1971L58.4095 19.3252Z" fill="#EA4335"/>
<path d="M76.7638 25.1406C75.024 18.7331 71.4515 12.9729 66.4847 8.56689L55.8605 19.1911C58.0743 20.9999 59.8485 23.2878 61.0492 25.8822C62.25 28.4766 62.846 31.3098 62.7922 34.1681V36.0529C65.2857 36.0529 67.6771 37.0434 69.4403 38.8066C71.2034 40.5697 72.194 42.9611 72.194 45.4546C72.194 47.9481 71.2034 50.3395 69.4403 52.1027C67.6771 53.8659 65.2857 54.8564 62.7922 54.8564H43.8586L42.0004 56.8752V68.2175L43.8586 69.9987H62.7929C68.0674 70.0544 73.2193 68.4082 77.4842 65.3042C81.749 62.2002 84.8995 57.804 86.4681 52.7678C88.0367 47.7316 87.9398 42.3239 86.1918 37.3471C84.4437 32.3704 81.1371 28.0898 76.7638 25.1406Z" fill="#4285F4"/>
<path d="M24.9459 69.9986H43.8596V54.8603H24.9459C23.6077 54.8593 22.2854 54.5701 21.0689 54.0122L18.3858 54.8338L10.7633 62.4026L10.0996 64.9782C14.3669 68.229 19.5815 69.9924 24.9459 69.9986Z" fill="#34A853"/>
<path d="M24.9467 20.8942C19.8229 20.9254 14.8367 22.556 10.6846 25.5583C6.53244 28.5606 3.42159 32.7847 1.78649 37.6407C0.151378 42.4967 0.0736542 47.7421 1.56417 52.6444C3.05468 57.5467 6.03901 61.8611 10.1004 64.9851L21.0704 54.0151C19.6764 53.3854 18.4561 52.4269 17.514 51.2218C16.5719 50.0168 15.9363 48.6012 15.6617 47.0964C15.387 45.5917 15.4815 44.0428 15.9371 42.5827C16.3926 41.1225 17.1957 39.7947 18.2773 38.7131C19.3588 37.6315 20.6867 36.8285 22.1468 36.3729C23.607 35.9173 25.1559 35.8228 26.6606 36.0975C28.1653 36.3721 29.581 37.0078 30.786 37.9498C31.9911 38.8919 32.9496 40.1122 33.5793 41.5062L44.5493 30.5362C42.2468 27.5261 39.2791 25.0895 35.8785 23.4168C32.4779 21.7441 28.7364 20.8807 24.9467 20.8942Z" fill="#FBBC05"/>
</g>
<defs>
<clipPath id="clip0_658_8535">
<rect width="88" height="70.0001" fill="white" transform="translate(0.5)"/>
</clipPath>
</defs>
</svg>
