<svg width="71" height="70" viewBox="0 0 71 70" fill="none" xmlns="http://www.w3.org/2000/svg">
<path d="M39.0321 35.0247L44.2191 40.9527L51.2339 45.4481L52.4689 35.0741L51.2339 24.9471L44.1203 28.8991L39.0321 35.0247Z" fill="#ABABAB"/>
<path d="M8.79919 44.4601V53.3028C8.79919 55.3282 10.4294 56.9584 12.4548 56.9584H21.2974L23.1252 50.2893L21.3468 44.4601L15.2706 42.6323L8.79919 44.4601Z" fill="#ABABAB"/>
<path d="M21.3468 13.0416L8.79919 25.5399L15.2212 27.3677L21.2974 25.5399L23.0758 19.8094L21.3468 13.0416Z" fill="#ABABAB"/>
<path d="M21.3468 25.5399H8.79919V44.4601H21.2974V25.5399H21.3468Z" fill="#ABABAB"/>
<path d="M59.1874 18.3274L51.1845 24.8977V45.4481L59.1874 52.0183C60.373 52.9569 62.1514 52.1171 62.1514 50.5857V19.7601C62.2008 18.2286 60.4224 17.3394 59.1874 18.3274ZM39.0321 35.0247V44.4601H21.3469V56.9584H47.5783C49.6037 56.9584 51.2339 55.3282 51.2339 53.3027V45.4481L39.0321 35.0247Z" fill="#ABABAB"/>
<path d="M47.5783 13.0416H21.3469V25.5399H39.0321V34.9753L51.2339 24.8483V16.6972C51.2339 14.6718 49.6037 13.0416 47.5783 13.0416Z" fill="#ABABAB"/>
</svg>
