<svg width="71" height="70" viewBox="0 0 71 70" fill="none" xmlns="http://www.w3.org/2000/svg">
<path d="M10.207 62.8906L4.60156 0H66.2617L60.6562 62.8906L35.3633 70" fill="#ABABAB"/>
<path d="M35.5 64.5312L55.8711 58.9258L60.6562 5.05859H35.5" fill="#ABABAB"/>
<path d="M35.5 28.4375H25.2461L24.5625 20.5078H35.5V12.8516H16.0859L18.1367 36.2305H35.5V28.4375ZM35.3633 48.5352L26.75 46.2109L26.2031 40.0586H18.5469L19.5039 52.2266L35.3633 56.6016V48.5352Z" fill="#C9C8CA"/>
<path d="M35.3633 28.4375V36.2305H44.9336L43.9766 46.2109L35.3633 48.5352V56.6016L51.2227 52.2266L53.4102 28.4375H35.3633ZM35.3633 12.8516V20.5078H54.0938L54.7773 12.8516H35.3633Z" fill="#C9C8CA"/>
</svg>
