<svg width="71" height="70" viewBox="0 0 71 70" fill="none" xmlns="http://www.w3.org/2000/svg">
<g clip-path="url(#clip0_1964_4074)">
<path d="M48.8963 2.94005L17.1979 6.0288C17.1358 5.54568 16.8957 5.1031 16.5246 4.78757C16.1535 4.47204 15.6781 4.30623 15.1913 4.32255C14.6444 4.33009 14.122 4.55069 13.7353 4.93743C13.3486 5.32416 13.128 5.84651 13.1204 6.39338C13.1204 7.14005 13.5288 7.72047 14.0713 8.08505L0.80917 36.855L0.672086 36.9834C0.497086 37.1584 0.500003 37.1584 0.500003 37.3334C0.500003 37.3334 0.500003 37.5025 0.672086 37.5025L19.1579 63.6767C18.8416 64.0412 18.6612 64.5039 18.6475 64.9863C18.6475 66.1967 19.6829 67.0571 20.7183 67.0571C20.9815 67.0669 21.2439 67.0241 21.4903 66.9314C21.7367 66.8386 21.9622 66.6977 22.1536 66.5169C22.345 66.3361 22.4985 66.119 22.6051 65.8782C22.7117 65.6375 22.7693 65.3779 22.7746 65.1146L53.8663 62.0813L54.2513 62.2213C54.3131 62.168 54.3645 62.1038 54.4029 62.0317C54.5108 62.02 54.6013 61.9909 54.6013 61.8742L67.8721 33.0692C68.0529 33.1217 68.2367 33.183 68.4263 33.183C69.4646 33.183 70.5 32.1475 70.5 31.1121C70.4947 30.5637 70.2751 30.0392 69.8882 29.6506C69.5012 29.2619 68.9775 29.0401 68.4292 29.0326C68.1657 29.0345 67.9051 29.088 67.6621 29.1901L49.2375 3.11213C49.0625 2.93713 49.0625 2.93713 48.8933 2.93713L48.8963 2.94005ZM47.3738 3.75672L32.9304 11.6638L17.0813 7.00297C17.1368 6.86094 17.1807 6.71462 17.2125 6.56547L47.3738 3.75672ZM48.5521 3.80338L52.5188 21.0321L43.4333 15.3942C43.6548 15.0795 43.8078 14.7218 43.8825 14.3442C43.875 13.7973 43.6544 13.275 43.2676 12.8883C42.8809 12.5015 42.3585 12.2809 41.8117 12.2734C41.3787 12.2783 40.9581 12.4188 40.6092 12.6752C40.2602 12.9315 40.0004 13.2908 39.8663 13.7025L33.8288 11.9292L48.5521 3.80338ZM49.3454 4.51505L67.0263 29.6188C66.9388 29.7005 66.8746 29.7938 66.8046 29.89L53.1663 21.4317L49.3454 4.51505ZM16.9879 7.26838L32.56 11.868L21.9317 17.6867L16.46 7.94797C16.6754 7.75578 16.8564 7.52537 16.9879 7.26838ZM15.8796 8.32713L21.2608 17.9084L21.2958 18.0805L15.1913 23.6717V8.46713C15.4276 8.46553 15.6614 8.41798 15.8796 8.32713ZM14.6254 8.3563C14.7538 8.39713 14.8879 8.42338 15.0192 8.43505V23.835L2.13625 35.6417L14.6254 8.3563ZM33.4554 12.1334L39.8021 14.0088C39.7788 14.1226 39.7321 14.2305 39.7321 14.3442C39.7321 14.8284 39.9275 15.2309 40.1929 15.5692L32.8138 21.9509L22.4188 18.2234L33.4554 12.1334ZM40.2775 15.6917C40.468 15.913 40.7026 16.0922 40.9662 16.2178C41.2299 16.3433 41.5168 16.4125 41.8088 16.4209C41.8729 16.4209 41.9342 16.4063 41.9983 16.3976L43.8213 25.8971L32.9625 22.0063L40.2775 15.6917ZM43.1913 15.7442L52.6558 21.6271L54.5225 29.7325L44.0283 25.9701L42.22 16.3596C42.5954 16.2503 42.9321 16.0369 43.1913 15.7442ZM22.1038 18.6667L32.3908 22.3155L24.2154 29.3855L22.1038 18.6667ZM21.4621 18.9234L23.6438 29.8784L16.7021 35.875C16.5056 35.6748 16.2701 35.5169 16.0103 35.4111C15.7505 35.3053 15.4717 35.2537 15.1913 35.2596V24.6663L21.4621 18.9234ZM53.3004 22.0296L66.5567 30.2721C66.5129 30.3684 66.4925 30.4646 66.4633 30.5638L55.0388 29.7325L53.3004 22.0296ZM32.5396 22.3709L43.9204 26.4075L45.9825 37.1701L37.0079 44.87L26.5546 41.2592L24.2417 29.5255L32.5396 22.3709ZM15.0192 24.8209V35.2771C14.5047 35.3259 14.0263 35.5626 13.6755 35.9419C13.3246 36.3213 13.126 36.8167 13.1175 37.3334C13.1243 37.8813 13.345 38.4048 13.7324 38.7922C14.1199 39.1797 14.6434 39.4003 15.1913 39.4071C15.2788 39.4071 15.3546 39.3692 15.4392 39.3576L16.6263 45.6196L1.53542 37.1613L15.0192 24.8209ZM44.1275 26.4775L54.2513 30.0738L46.1138 37.0563L44.1275 26.4775ZM23.67 30.0184L25.8633 41.0201L17.0696 37.9838C17.161 37.7758 17.2266 37.5573 17.265 37.3334C17.269 36.8354 17.0929 36.3527 16.7692 35.9742L23.67 30.0184ZM55.1117 30.4267L66.3642 31.2521C66.3951 31.5885 66.5127 31.911 66.7054 32.1884L54.8404 42.8167L55.1117 30.4267ZM54.5838 30.8292L54.3067 43.2921L49.7392 47.3842C49.3643 47.045 48.8796 46.8523 48.3742 46.8417C48.2283 46.8417 48.1029 46.8913 47.9658 46.9146L46.2858 37.9663L54.5838 30.8292ZM67.0467 32.6317C67.1225 32.7017 67.2188 32.7396 67.3033 32.798L54.4496 60.728L54.8288 43.403L67.0467 32.6317ZM46.1575 38.0742L47.855 46.935C47.5375 46.9992 47.2415 47.1432 46.995 47.3535C46.7486 47.5637 46.5597 47.8333 46.4463 48.1367L37.8946 45.1792L46.1575 38.0742ZM16.9675 38.2346L25.9217 41.3321L28.0508 52.0188L16.8567 45.748L15.6113 39.3196C15.9022 39.2472 16.174 39.1128 16.4081 38.9255C16.6422 38.7382 16.833 38.5026 16.9675 38.2346ZM2.02542 38.2696L16.8129 46.5821L19.9483 63.07C19.8608 63.108 19.7908 63.1692 19.7121 63.2159L2.02542 38.2696ZM26.6129 41.5713L36.7688 45.0771L28.675 52.0246L26.6129 41.5713ZM54.295 43.8696L53.9071 61.3609L37.3725 55.4692L46.7 50.0588C46.885 50.3361 47.1333 50.5653 47.4244 50.7276C47.7155 50.8899 48.0411 50.9806 48.3742 50.9921C48.9231 50.9846 49.4474 50.763 49.8353 50.3745C50.2232 49.9861 50.444 49.4615 50.4508 48.9125C50.4419 48.4562 50.2749 48.017 49.9783 47.67L54.295 43.8696ZM37.6583 45.3834L46.3967 48.4021C46.3588 48.5713 46.3033 48.7288 46.3033 48.9125C46.3033 49.2334 46.385 49.525 46.5104 49.7905L36.9583 55.3205L29.2788 52.5876L37.6583 45.3834ZM17.0404 46.7134L28.0829 52.9259L21.6283 63.1138C21.1821 62.8956 20.6707 62.8509 20.1933 62.9884L17.0404 46.7134ZM28.6604 53.1796L36.1067 55.8134L22.3808 63.7555C22.3079 63.6534 22.2438 63.5425 22.1475 63.455L28.6604 53.1796ZM36.5267 55.9621L52.6646 61.6642L22.6988 64.4555C22.6667 64.3184 22.6346 64.1813 22.5763 64.0559L36.5267 55.9621Z" fill="#ABABAB"/>
</g>
<defs>
<clipPath id="clip0_1964_4074">
<rect width="70" height="70" fill="white" transform="translate(0.5)"/>
</clipPath>
</defs>
</svg>
