<svg width="71" height="70" viewBox="0 0 71 70" fill="none" xmlns="http://www.w3.org/2000/svg">
<g clip-path="url(#clip0_524_4156)">
<path d="M48.8963 2.93999L17.1979 6.02874C17.1358 5.54562 16.8957 5.10304 16.5246 4.78751C16.1535 4.47198 15.6781 4.30617 15.1913 4.32249C14.6444 4.33003 14.122 4.55063 13.7353 4.93737C13.3486 5.3241 13.128 5.84645 13.1204 6.39332C13.1204 7.13999 13.5288 7.72041 14.0713 8.08499L0.809168 36.855L0.672084 36.9833C0.497084 37.1583 0.500001 37.1583 0.500001 37.3333C0.500001 37.3333 0.500001 37.5025 0.672084 37.5025L19.1579 63.6767C18.8416 64.0411 18.6612 64.5038 18.6475 64.9862C18.6475 66.1967 19.6829 67.0571 20.7183 67.0571C20.9815 67.0668 21.2439 67.024 21.4903 66.9313C21.7367 66.8385 21.9622 66.6976 22.1536 66.5168C22.345 66.336 22.4985 66.1189 22.6051 65.8781C22.7117 65.6374 22.7693 65.3778 22.7746 65.1146L53.8663 62.0812L54.2513 62.2212C54.3131 62.168 54.3645 62.1037 54.4029 62.0317C54.5108 62.02 54.6013 61.9908 54.6013 61.8742L67.8721 33.0692C68.0529 33.1217 68.2367 33.1829 68.4263 33.1829C69.4646 33.1829 70.5 32.1475 70.5 31.1121C70.4947 30.5637 70.2751 30.0391 69.8882 29.6505C69.5012 29.2619 68.9775 29.0401 68.4292 29.0325C68.1657 29.0345 67.9051 29.088 67.6621 29.19L49.2375 3.11207C49.0625 2.93707 49.0625 2.93707 48.8933 2.93707L48.8963 2.93999ZM47.3738 3.75666L32.9304 11.6637L17.0813 7.00291C17.1368 6.86088 17.1807 6.71456 17.2125 6.56541L47.3738 3.75666ZM48.5521 3.80332L52.5188 21.0321L43.4333 15.3942C43.6548 15.0794 43.8078 14.7217 43.8825 14.3442C43.875 13.7973 43.6544 13.2749 43.2676 12.8882C42.8809 12.5015 42.3585 12.2809 41.8117 12.2733C41.3787 12.2782 40.9581 12.4188 40.6092 12.6751C40.2602 12.9315 40.0004 13.2908 39.8663 13.7025L33.8288 11.9292L48.5521 3.80332ZM49.3454 4.51499L67.0263 29.6187C66.9388 29.7004 66.8746 29.7937 66.8046 29.89L53.1663 21.4317L49.3454 4.51499ZM16.9879 7.26832L32.56 11.8679L21.9317 17.6867L16.46 7.94791C16.6754 7.75572 16.8564 7.52531 16.9879 7.26832ZM15.8796 8.32707L21.2608 17.9083L21.2958 18.0804L15.1913 23.6717V8.46707C15.4276 8.46547 15.6614 8.41792 15.8796 8.32707ZM14.6254 8.35624C14.7538 8.39707 14.8879 8.42332 15.0192 8.43499V23.835L2.13625 35.6417L14.6254 8.35624ZM33.4554 12.1333L39.8021 14.0087C39.7788 14.1225 39.7321 14.2304 39.7321 14.3442C39.7321 14.8283 39.9275 15.2308 40.1929 15.5692L32.8138 21.9508L22.4188 18.2233L33.4554 12.1333ZM40.2775 15.6917C40.468 15.913 40.7026 16.0921 40.9662 16.2177C41.2299 16.3432 41.5168 16.4124 41.8088 16.4208C41.8729 16.4208 41.9342 16.4062 41.9983 16.3975L43.8213 25.8971L32.9625 22.0062L40.2775 15.6917ZM43.1913 15.7442L52.6558 21.6271L54.5225 29.7325L44.0283 25.97L42.22 16.3596C42.5954 16.2502 42.9321 16.0369 43.1913 15.7442ZM22.1038 18.6667L32.3908 22.3154L24.2154 29.3854L22.1038 18.6667ZM21.4621 18.9233L23.6438 29.8783L16.7021 35.875C16.5056 35.6748 16.2701 35.5169 16.0103 35.411C15.7505 35.3052 15.4717 35.2537 15.1913 35.2596V24.6662L21.4621 18.9233ZM53.3004 22.0296L66.5567 30.2721C66.5129 30.3683 66.4925 30.4646 66.4633 30.5637L55.0388 29.7325L53.3004 22.0296ZM32.5396 22.3708L43.9204 26.4075L45.9825 37.17L37.0079 44.87L26.5546 41.2592L24.2417 29.5254L32.5396 22.3708ZM15.0192 24.8208V35.2771C14.5047 35.3258 14.0263 35.5625 13.6755 35.9419C13.3246 36.3212 13.126 36.8167 13.1175 37.3333C13.1243 37.8812 13.345 38.4047 13.7324 38.7922C14.1199 39.1796 14.6434 39.4003 15.1913 39.4071C15.2788 39.4071 15.3546 39.3692 15.4392 39.3575L16.6263 45.6196L1.53542 37.1612L15.0192 24.8208ZM44.1275 26.4775L54.2513 30.0737L46.1138 37.0562L44.1275 26.4775ZM23.67 30.0183L25.8633 41.02L17.0696 37.9837C17.161 37.7757 17.2266 37.5573 17.265 37.3333C17.269 36.8353 17.0929 36.3526 16.7692 35.9742L23.67 30.0183ZM55.1117 30.4267L66.3642 31.2521C66.3951 31.5884 66.5127 31.911 66.7054 32.1883L54.8404 42.8167L55.1117 30.4267ZM54.5838 30.8292L54.3067 43.2921L49.7392 47.3842C49.3643 47.0449 48.8796 46.8523 48.3742 46.8417C48.2283 46.8417 48.1029 46.8912 47.9658 46.9146L46.2858 37.9662L54.5838 30.8292ZM67.0467 32.6317C67.1225 32.7017 67.2188 32.7396 67.3033 32.7979L54.4496 60.7279L54.8288 43.4029L67.0467 32.6317ZM46.1575 38.0742L47.855 46.935C47.5375 46.9992 47.2415 47.1432 46.995 47.3534C46.7486 47.5637 46.5597 47.8332 46.4463 48.1367L37.8946 45.1792L46.1575 38.0742ZM16.9675 38.2346L25.9217 41.3321L28.0508 52.0187L16.8567 45.7479L15.6113 39.3196C15.9022 39.2472 16.174 39.1127 16.4081 38.9254C16.6422 38.7382 16.833 38.5025 16.9675 38.2346ZM2.02542 38.2696L16.8129 46.5821L19.9483 63.07C19.8608 63.1079 19.7908 63.1692 19.7121 63.2158L2.02542 38.2696ZM26.6129 41.5712L36.7688 45.0771L28.675 52.0246L26.6129 41.5712ZM54.295 43.8696L53.9071 61.3608L37.3725 55.4692L46.7 50.0587C46.885 50.336 47.1333 50.5653 47.4244 50.7276C47.7155 50.8899 48.0411 50.9805 48.3742 50.9921C48.9231 50.9845 49.4474 50.7629 49.8353 50.3744C50.2232 49.986 50.444 49.4614 50.4508 48.9125C50.4419 48.4561 50.2749 48.017 49.9783 47.67L54.295 43.8696ZM37.6583 45.3833L46.3967 48.4021C46.3588 48.5712 46.3033 48.7287 46.3033 48.9125C46.3033 49.2333 46.385 49.525 46.5104 49.7904L36.9583 55.3204L29.2788 52.5875L37.6583 45.3833ZM17.0404 46.7133L28.0829 52.9258L21.6283 63.1137C21.1821 62.8955 20.6707 62.8508 20.1933 62.9883L17.0404 46.7133ZM28.6604 53.1796L36.1067 55.8133L22.3808 63.7554C22.3079 63.6533 22.2438 63.5425 22.1475 63.455L28.6604 53.1796ZM36.5267 55.9621L52.6646 61.6642L22.6988 64.4554C22.6667 64.3183 22.6346 64.1812 22.5763 64.0558L36.5267 55.9621Z" fill="black"/>
</g>
<defs>
<clipPath id="clip0_524_4156">
<rect width="70" height="70" fill="white" transform="translate(0.5)"/>
</clipPath>
</defs>
</svg>
