<svg width="71" height="70" viewBox="0 0 71 70" fill="none" xmlns="http://www.w3.org/2000/svg">
<g clip-path="url(#clip0_1655_1764)">
<path d="M60 0H11C5.20101 0 0.5 4.70101 0.5 10.5V59.5C0.5 65.299 5.20101 70 11 70H60C65.799 70 70.5 65.299 70.5 59.5V10.5C70.5 4.70101 65.799 0 60 0Z" fill="#ABABAB"/>
<path d="M44.7969 50.5859C46.1641 52.9102 48.0781 54.5508 51.2227 54.5508C53.957 54.5508 55.7344 53.1836 55.7344 51.2695C55.7344 49.082 53.957 48.2617 50.9492 46.8945L49.3086 46.2109C44.5234 44.1602 41.3789 41.6992 41.3789 36.3672C41.3789 31.4453 45.0703 27.6172 50.9492 27.6172C55.1875 27.6172 58.1953 29.1211 60.2461 32.9492L55.1875 36.2305C54.0938 34.1797 52.8633 33.3594 50.9492 33.3594C49.0352 33.3594 47.8047 34.5898 47.8047 36.2305C47.8047 38.1445 49.0352 38.9648 51.9062 40.1953L53.5469 40.8789C59.1523 43.3398 62.2969 45.6641 62.2969 51.2695C62.2969 57.1484 57.6484 60.4297 51.3594 60.4297C45.207 60.4297 41.2422 57.5586 39.3281 53.7305L44.7969 50.5859ZM21.5547 51.1328C22.6484 52.9102 23.4688 54.5508 25.793 54.5508C27.9805 54.5508 29.3477 53.7305 29.3477 50.4492V27.7539H35.9102V50.1758C35.9102 57.0117 31.9453 60.0195 26.0664 60.0195C20.7344 60.0195 17.7266 57.2852 16.2227 54.0039L21.5547 51.1328Z" fill="#C9C8CA"/>
</g>
<defs>
<clipPath id="clip0_1655_1764">
<rect width="70" height="70" fill="white" transform="translate(0.5)"/>
</clipPath>
</defs>
</svg>
