<svg width="53" height="70" viewBox="0 0 53 70" fill="none" xmlns="http://www.w3.org/2000/svg">
<path d="M50.9454 33.7138C50.9454 47.5471 39.9776 58.7719 26.4407 58.7719C12.9038 58.7719 1.93597 47.5471 1.93597 33.7138C1.93597 19.8805 12.9038 8.65576 26.4407 8.65576C39.9776 8.65576 50.9454 19.8805 50.9454 33.7138Z" fill="#ABABAB"/>
<path d="M2.94382 39.919C2.94382 39.919 1.16525 13.7938 25.255 13.0429L23.5752 10.2367L10.5126 14.6238L6.77763 18.9122L3.51692 25.1569L1.6593 32.4293L2.21263 37.2907" fill="#ABABAB"/>
<path d="M9.66284 16.6197C5.37452 21.0266 2.70666 27.0935 2.70666 33.8125C2.70666 40.5316 5.37452 46.5985 9.66284 51.0054C13.9709 55.4123 19.8797 58.1197 26.4407 58.1197C33.0016 58.1197 38.9104 55.4123 43.2185 51.0054C47.5068 46.5985 50.1747 40.5316 50.1747 33.8125C50.1747 27.0935 47.5068 21.0266 43.2185 16.6197C38.9104 12.2326 33.0016 9.50543 26.4407 9.50543C19.8995 9.50543 13.9709 12.2128 9.66284 16.6197ZM8.57594 52.0528C4.01095 47.389 1.185 40.9268 1.185 33.8125C1.185 26.6983 4.01095 20.2361 8.57594 15.5526C13.1409 10.8888 19.4647 7.98376 26.4407 7.98376C33.4166 7.98376 39.7404 10.8888 44.3054 15.5526C48.8704 20.2164 51.6964 26.6785 51.6964 33.8125C51.6964 40.9268 48.8704 47.389 44.3054 52.0528C39.7404 56.7363 33.4166 59.6216 26.4407 59.6216C19.4647 59.6216 13.1409 56.7363 8.57594 52.0528Z" fill="#231F20"/>
<path d="M36.7564 33.8521L33.0214 34.4054L27.9821 34.9785L24.7214 35.0575L21.5397 34.9587L19.109 34.2078L16.955 31.8759L15.2752 27.1133L14.8997 26.0857L12.6666 25.3347L11.3623 23.1807L10.4335 20.0978L11.4612 17.3904L13.8919 16.5407L15.8483 17.4695L16.7771 19.5247L17.9035 19.3469L18.279 18.8726L17.9035 16.7185L17.8047 14.0111L18.358 10.2761L18.3383 8.14186L20.0378 5.41473L23.0218 3.26068L28.239 1.02759L34.0292 1.87735L39.0685 5.51354L41.4004 9.24853L42.9023 11.9559L43.2778 18.6749L42.1514 24.4652L40.0961 29.6033L38.1594 32.3502" fill="#F0D6B7"/>
<path d="M33.5945 49.9976L20.2552 50.5509V52.784L21.3816 60.6295L20.8283 61.2816L11.5007 58.0999L10.8486 56.9735L9.91975 46.4207L7.72618 40.0969L7.25189 38.595L14.7219 33.4569L17.0538 32.5281L19.109 35.0576L20.8876 36.6385L22.9428 37.2907L23.8716 37.5674L24.9981 42.4288L25.8478 43.4564L28.0019 42.7054L26.5 45.6104L34.6023 49.4442L33.5945 49.9976Z" fill="#ABABAB"/>
<path d="M11.4612 17.4299L13.8919 16.5802L15.8483 17.509L16.7771 19.5642L17.9035 19.3864L18.1802 18.2599L17.6269 16.1059L18.1802 10.9678L17.7059 8.16162L19.3857 6.2052L23.0219 3.31996L21.9943 1.91687L16.8562 4.44639L14.7021 6.12615L13.4966 8.73472L11.639 11.2642L11.0857 14.2483L11.4612 17.4299Z" fill="#6D6B6D"/>
<path d="M15.295 8.65571C15.295 8.65571 16.6981 5.19738 22.2907 3.51762C27.8833 1.83786 22.5673 2.31214 22.5673 2.31214L16.5005 4.64404L14.1685 6.97595L13.1409 8.83356L15.295 8.65571Z" fill="#DCD9D8"/>
<path d="M12.4888 16.7778C12.4888 16.7778 10.5324 10.2366 18.0024 9.30782L17.7257 8.1814L12.5876 9.38687L11.0857 14.2483L11.4612 17.43L12.4888 16.7778Z" fill="#DCD9D8"/>
<path d="M15.4728 25.4533L16.6981 24.2676C16.6981 24.2676 17.2514 24.3269 17.3502 24.979C17.449 25.6311 17.7257 31.5202 21.7374 34.6821C22.1128 34.9785 18.7533 34.2078 18.7533 34.2078L15.7693 29.544" fill="#F7E4CD"/>
<path d="M32.6459 23.6747C32.6459 23.6747 32.8633 20.8487 33.634 21.0661C34.4047 21.2835 34.4047 22.0542 34.4047 22.0542C34.4047 22.0542 32.5471 23.2399 32.6459 23.6747Z" fill="#F7E4CD"/>
<path d="M40.3926 13.3195C40.3926 13.3195 38.8512 13.6356 38.7128 14.9992C38.5745 16.3628 40.3926 15.2759 40.6692 15.1771" fill="#F7E4CD"/>
<path d="M29.1085 13.4183C29.1085 13.4183 27.0533 13.695 27.0533 14.9993C27.0533 16.3036 29.3852 16.2048 30.0373 15.6514" fill="#F7E4CD"/>
<path d="M16.4214 19.4852C16.4214 19.4852 12.884 17.3312 12.5085 19.3864C12.1331 21.4416 11.3031 22.9238 13.0619 25.0778L11.8564 24.7023L10.73 21.8171L10.3545 19.0109L12.5085 16.7778L14.9392 16.9557L16.3423 18.0821L16.4214 19.4852Z" fill="#F7E4CD"/>
<path d="M18.1012 13.5962C18.1012 13.5962 19.6821 5.37522 27.7054 3.79427C34.3059 2.48999 37.784 4.07094 39.0883 5.57284C39.0883 5.57284 33.1992 -1.42286 27.6066 0.711421C22.014 2.86547 17.9035 6.77832 18.0024 9.28808C18.1604 13.5962 18.1012 13.5962 18.1012 13.5962Z" fill="#F7E4CD"/>
<path d="M39.7405 6.50166C39.7405 6.50166 37.0331 6.40285 36.9343 8.83356C36.9343 8.83356 36.9343 9.20903 37.1121 9.58451C37.1121 9.58451 39.2662 7.1538 40.5704 8.45808" fill="#F7E4CD"/>
<path d="M27.903 9.84147C27.903 9.84147 27.4287 6.12623 24.2668 8.28028C22.2116 9.68337 22.4092 11.6398 22.7649 12.0153C23.1404 12.3907 23.0416 13.1417 23.3183 12.6279C23.5949 12.1141 23.5159 10.4343 24.5435 9.96004C25.5514 9.48575 27.2509 8.97194 27.903 9.84147Z" fill="#F7E4CD"/>
<path d="M19.1288 35.0575L10.3545 38.9704C10.3545 38.9704 13.9907 53.4361 12.1331 57.922L10.8288 57.4477L10.73 51.9342L8.29929 41.4999L7.27167 38.6147L16.4214 32.449L19.1288 35.0575Z" fill="#49728B"/>
<path d="M20.0181 43.0612L21.2631 44.5828V50.1754H19.7809C19.7809 50.1754 19.6031 46.2626 19.6031 45.7883C19.6031 45.314 19.7809 43.6343 19.7809 43.6343" fill="#49728B"/>
<path d="M20.0576 51.0251L15.8483 51.203L17.0538 52.0528L20.0378 52.527" fill="#49728B"/>
<path d="M34.4245 50.0964L37.8828 49.9976L38.7326 58.5742L35.1952 59.0485L34.4245 50.0964Z" fill="#ABABAB"/>
<path d="M35.3533 50.0964L40.5704 49.8198C40.5704 49.8198 42.7245 44.405 42.7245 44.1283C42.7245 43.8517 44.5821 36.2829 44.5821 36.2829L40.3728 31.8957L39.523 31.1448L37.2899 33.3779V42.0533L35.3533 50.0964Z" fill="#ABABAB"/>
<path d="M37.6852 49.4442L34.4245 50.0964L34.8988 52.7049C36.1043 53.2583 38.1595 51.7761 38.1595 51.7761" fill="#49728B"/>
<path d="M37.784 33.1012L44.3252 37.9626L44.503 35.7295L39.5626 31.1646L37.784 33.1012Z" fill="#49728B"/>
<path d="M23.2986 68.475L21.3619 60.6295L20.3936 54.8393L20.2355 50.5509L28.99 50.0767H34.4245L33.9305 59.8786L34.7802 67.4474L34.6814 68.8504L27.5869 69.4038L23.2986 68.475Z" fill="white"/>
<path d="M33.219 49.9975C33.219 49.9975 32.7447 59.7006 34.1478 66.6173C34.1478 66.6173 31.3416 68.3959 27.2509 68.8504L35.0964 68.5737L36.0252 68.0204L34.8988 52.7247L34.6023 49.4442" fill="#DCD9D8"/>
<path d="M38.8709 57.843L42.5071 56.8154L49.404 56.4399L50.4316 53.2582L48.574 47.7447L46.4199 47.468L43.4359 48.3968L40.5902 49.7999L39.0685 49.5233L37.8828 49.9975" fill="white"/>
<path d="M38.8116 55.9657C38.8116 55.9657 41.2424 54.8393 41.6178 54.9381L40.5902 49.8L41.7957 49.3257C41.7957 49.3257 42.6455 54.1871 42.6455 54.7404C42.6455 54.7404 47.8626 55.0171 48.3369 55.0171C48.3369 55.0171 49.4633 52.8631 49.1866 50.63L50.2143 53.614L50.3131 55.2938L48.8112 57.5269L47.1314 57.9023L44.3252 57.8035L43.3964 56.5981L40.1357 57.0723L39.1081 57.4478" fill="#DCD9D8"/>
<path d="M35.1359 49.3455L33.0807 44.1283L30.9266 41.0455C30.9266 41.0455 31.4009 39.7412 32.0531 39.7412H34.2071L36.2623 40.4922L36.0845 43.9505L35.1359 49.3455Z" fill="white"/>
<path d="M35.5509 47.5669C35.5509 47.5669 32.9423 42.5276 32.9423 41.7767C32.9423 41.7767 33.4166 40.6502 34.0687 40.9269C34.7209 41.2036 36.124 41.9545 36.124 41.9545V40.1759L32.9423 39.5238L30.7883 39.8005L34.4245 48.4166L35.1754 48.5155" fill="#DCD9D8"/>
<path d="M24.1285 35.2552L21.5397 34.9785L19.109 34.2275V35.0773L20.2947 36.3816L24.0297 38.0613" fill="white"/>
<path d="M19.9588 35.5319C19.9588 35.5319 22.844 36.7373 23.7926 36.4607L23.8914 37.5871L21.2829 37.0338L19.7019 35.9073L19.9588 35.5319Z" fill="#DCD9D8"/>
<path d="M38.8709 40.0574C37.29 40.0178 35.8473 39.8202 34.6023 39.4645C34.6814 38.9507 34.5233 38.4567 34.6616 38.0812C35.0173 37.8243 35.5904 37.8243 36.124 37.765C35.6695 37.5476 35.0173 37.4488 34.5035 37.5871C34.4838 37.2314 34.3257 37.014 34.2269 36.7374C35.1162 36.4212 37.2109 34.3462 38.3966 35.0181C38.9697 35.354 39.2069 37.2117 39.2464 38.1405C39.2859 38.8914 39.1673 39.6424 38.8709 40.0574Z" fill="#ABABAB"/>
<path d="M38.8709 40.0574C37.29 40.0178 35.8473 39.8202 34.6023 39.4645C34.6814 38.9507 34.5233 38.4567 34.6616 38.0812C35.0173 37.8243 35.5904 37.8243 36.124 37.765C35.6695 37.5476 35.0173 37.4488 34.5035 37.5871C34.4838 37.2314 34.3257 37.014 34.2269 36.7374C35.1162 36.4212 37.2109 34.3462 38.3966 35.0181C38.9697 35.354 39.2069 37.2117 39.2464 38.1405C39.2859 38.8914 39.1673 39.6424 38.8709 40.0574Z" fill="black" stroke="#ABABAB" stroke-width="2"/>
<path d="M31.3021 37.4685C31.3021 37.5871 31.3021 37.7056 31.2823 37.8242C30.7883 38.1404 29.9978 38.1404 29.4445 38.4171C30.2349 38.4566 30.8673 38.6542 31.4206 38.9111C31.4009 39.2075 31.4009 39.5237 31.3811 39.8202C30.4721 40.4328 29.6421 41.3616 28.5749 41.9545C28.0611 42.2311 26.3023 42.9425 25.7687 42.8042C25.4723 42.7252 25.4328 42.3497 25.3142 41.994C25.0573 41.243 24.4645 40.0178 24.4052 38.8716C24.3459 37.429 24.1878 34.9983 25.749 35.2947C27.0137 35.5318 28.4761 36.1049 29.4445 36.6385C30.0571 36.9942 30.393 37.3895 31.3021 37.4685Z" fill="#ABABAB"/>
<path d="M31.3021 37.4685C31.3021 37.5871 31.3021 37.7056 31.2823 37.8242C30.7883 38.1404 29.9978 38.1404 29.4445 38.4171C30.2349 38.4566 30.8673 38.6542 31.4206 38.9111C31.4009 39.2075 31.4009 39.5237 31.3811 39.8202C30.4721 40.4328 29.6421 41.3616 28.5749 41.9545C28.0611 42.2311 26.3023 42.9425 25.7687 42.8042C25.4723 42.7252 25.4328 42.3497 25.3142 41.994C25.0573 41.243 24.4645 40.0178 24.4052 38.8716C24.3459 37.429 24.1878 34.9983 25.749 35.2947C27.0137 35.5318 28.4761 36.1049 29.4445 36.6385C30.0571 36.9942 30.393 37.3895 31.3021 37.4685Z" fill="black" stroke="#ABABAB" stroke-width="2"/>
<path d="M32.1914 39.1878C32.0531 38.3974 31.895 38.18 31.9543 37.4883C34.0688 36.0852 34.4443 39.8993 32.1914 39.1878Z" fill="#ABABAB"/>
<path d="M32.1914 39.1878C32.0531 38.3974 31.895 38.18 31.9543 37.4883C34.0688 36.0852 34.4443 39.8993 32.1914 39.1878Z" fill="black" stroke="#ABABAB" stroke-width="2"/>
<path d="M35.2347 39.8201C35.2347 39.8201 34.5826 38.8913 35.0569 38.6147C35.5311 38.338 35.9857 38.6147 36.2623 38.1404C36.539 37.6661 36.2623 37.3894 36.3611 36.8361C36.46 36.2828 36.9145 36.184 37.3888 36.0851C37.863 35.9863 39.1673 35.8085 39.3452 36.263L38.7919 34.5832L37.6654 34.2078L34.1281 36.263L33.9502 37.2906V39.3459" fill="#ABABAB"/>
<path d="M25.4328 42.903C25.3143 41.4406 25.1957 39.998 25.0771 38.5357C24.8795 36.3618 25.5909 36.7373 27.4881 36.7373C27.7845 36.7373 29.2666 37.0733 29.3655 37.2907C29.8793 38.338 28.5157 38.1009 29.9583 38.8914C31.1638 39.5435 33.3178 38.4961 32.8238 37.014C32.5471 36.678 31.4009 36.9152 30.9859 36.6978C30.2547 36.3223 29.5235 35.9468 28.7924 35.5714C27.8636 35.0971 25.7293 34.3857 24.7412 35.0576C22.2314 36.7571 24.8993 41.0257 25.7886 42.8042" fill="#ABABAB"/>
<path d="M27.903 9.8414C25.3538 9.24855 24.089 10.9085 23.3183 12.6278C22.6266 12.4697 22.9033 11.5212 23.0811 11.0469C23.5357 9.80188 25.3735 8.12212 26.8754 8.35926C27.5078 8.43831 28.3773 9.03117 27.903 9.8414Z" fill="#231F20"/>
<path d="M40.2937 12.7267H40.4123C40.9854 13.9124 41.4795 15.1772 42.2106 16.2443C41.7166 17.3905 38.5349 18.3786 38.5745 16.3629C39.2661 16.0664 40.4518 16.3036 41.0645 15.9083C40.7087 14.94 40.2147 14.11 40.2937 12.7267Z" fill="#231F20"/>
<path d="M29.1876 12.7662C29.7409 13.7741 29.9188 14.8215 30.6895 15.5724C31.0452 15.9084 31.7171 16.3234 31.3812 17.2719C31.3021 17.4893 30.729 17.9834 30.3931 18.0822C29.1876 18.4379 26.3617 18.1612 27.3102 16.6396C28.3181 16.6791 29.6619 17.2917 30.4128 16.5605C29.8397 15.6515 28.8121 13.8334 29.1876 12.7662Z" fill="#231F20"/>
<path d="M39.8392 22.9238C38.0211 24.0897 35.9857 25.3742 32.9818 25.0778C32.3495 24.5245 32.0926 23.2795 32.7249 22.4692C33.0411 23.0226 32.8435 24.0502 33.7526 24.2083C35.4521 24.5047 37.4283 23.1609 38.6535 22.7064C39.4045 21.4219 38.5942 20.9673 37.9026 20.1373C36.4995 18.4576 34.6418 16.3628 34.7011 13.8531C35.2742 13.4381 35.3137 14.4854 35.3928 14.6633C36.124 16.3628 37.9618 18.5564 39.2859 20.0188C39.6218 20.3745 40.1554 20.7302 40.2147 20.9673C40.3925 21.6392 39.7602 22.4692 39.8392 22.9238Z" fill="#231F20"/>
<path d="M15.7693 21.6985C15.1962 21.3625 15.0579 19.9397 14.386 19.9002C13.4176 19.8409 13.5955 21.7578 13.5955 22.8842C12.9433 22.2914 12.8248 20.4337 13.299 19.4852C12.7457 19.2085 12.5086 19.7816 12.1924 19.9792C12.6074 17.1137 16.4017 18.6552 15.7693 21.6985Z" fill="#231F20"/>
<path d="M40.9854 24.1293C40.1357 25.7497 38.9302 27.5283 36.4402 27.5876C36.3809 27.0738 36.3414 26.2636 36.4402 25.9474C38.3571 25.7497 39.5428 24.7814 40.9854 24.1293Z" fill="#231F20"/>
<path d="M29.0493 25.1766C30.6302 26.0066 33.555 26.1054 35.7288 26.0462C35.8473 26.5204 35.8473 27.1133 35.8473 27.6864C33.0609 27.805 29.7804 27.1133 29.0493 25.1766Z" fill="#231F20"/>
<path d="M28.7528 26.718C29.8595 29.4847 33.634 29.1685 36.8157 29.0894C36.6774 29.4452 36.3809 29.8799 35.9857 30.0183C34.9581 30.4333 32.1519 30.7494 30.729 29.9985C29.8397 29.5242 29.2469 28.4373 28.7528 27.8049C28.5355 27.5085 27.3497 26.7378 28.7528 26.718Z" fill="#231F20"/>
<path d="M39.7009 41.9545C38.4164 44.1679 37.1714 46.4405 35.6497 48.3771C36.2821 46.4998 36.5588 43.3379 36.6576 40.9269C38.0014 40.2945 39.1476 41.0653 39.7009 41.9545Z" fill="#81B0C4"/>
<path d="M46.6373 49.8988C45.1947 50.1952 44.1868 51.5983 42.764 51.4995C43.5545 50.4126 44.8983 49.9383 46.6373 49.8988Z" fill="#231F20"/>
<path d="M47.2697 52.1516C46.084 52.2702 44.7007 52.4678 43.515 52.369C44.088 51.4995 46.2619 51.8157 47.2697 52.1516Z" fill="#231F20"/>
<path d="M47.6847 54.108C46.3607 54.1278 44.7204 54.108 43.4557 54.0092C44.2066 53.199 46.835 53.7128 47.6847 54.108Z" fill="#231F20"/>
<path d="M37.2109 59.4438C37.4085 61.1038 38.0607 62.7835 37.9816 64.6016C37.2504 64.8388 36.8354 65.0562 35.8473 65.0562C35.7881 63.5147 35.5707 61.1433 35.63 59.6612C36.1042 59.7007 36.8157 59.3252 37.2109 59.4438Z" fill="#DCD9D8"/>
<path d="M35.0766 34.939C34.4047 35.3737 33.8514 35.9073 33.1992 36.3816C31.7764 36.4606 31.0056 36.2828 29.978 35.4725C29.9978 35.4132 30.0966 35.433 30.0966 35.354C31.6183 36.0259 33.5549 35.0773 35.0766 34.939Z" fill="#F0D6B7"/>
<path d="M27.1323 45.2744C27.5473 43.4761 29.1876 42.5275 30.6697 41.5394C32.1914 43.4761 33.1202 45.9661 34.1478 48.377C31.7171 47.6459 29.2468 46.4799 27.1323 45.2744Z" fill="#81B0C4"/>
<path d="M35.6299 59.6809C35.5706 61.163 35.7683 63.5147 35.8473 65.0759C36.8354 65.0759 37.2504 64.8585 37.9816 64.6214C38.0606 62.8033 37.4085 61.1235 37.2109 59.4635C36.8156 59.3252 36.1042 59.7006 35.6299 59.6809ZM20.3738 51.3018C21.0259 57.2502 21.9547 62.2302 23.674 67.5066C27.488 68.6725 32.0728 68.7714 35.4521 67.724C34.8395 64.7597 35.0964 61.1433 34.7406 57.9616C34.464 55.5704 34.6023 53.1792 34.2268 50.7485C30.1361 49.8988 24.3657 50.5509 20.3738 51.3018ZM35.1952 50.788C35.1556 53.3373 35.3137 55.8668 35.5114 58.4161C36.4994 58.2778 37.1516 58.179 38.0606 57.9616C37.7642 55.5111 37.8037 52.7247 37.1911 50.5509C36.4994 50.5707 35.8868 50.5509 35.1952 50.788ZM40.1554 50.373C39.6811 50.2742 39.1475 50.373 38.7128 50.373C38.9302 52.448 39.4242 54.7404 39.6021 56.934C40.2937 56.9538 40.6692 56.6178 41.2423 56.519C41.2818 54.6021 41.0842 51.954 40.1554 50.373ZM47.6847 57.2502C49.1471 56.8945 50.0561 55.1159 49.6411 53.278C49.3644 52.0528 48.8901 49.7209 48.3566 48.9304C47.9811 48.3573 46.9337 47.5866 46.084 48.1202C44.7204 48.9897 42.3292 49.2466 41.3411 50.294C41.8352 51.954 41.9933 54.2068 42.1909 56.3016C43.8904 56.4004 45.9654 55.8273 47.3882 56.4399C46.4002 56.7561 45.1354 56.7561 44.2856 57.2304C44.9971 57.5664 46.6175 57.5071 47.6847 57.2502ZM34.128 48.3771C33.1004 45.9661 32.1716 43.4761 30.6499 41.5395C29.1678 42.5276 27.5473 43.4762 27.1126 45.2745C29.2468 46.48 31.7171 47.6459 34.128 48.3771ZM36.6575 40.9269C36.5587 43.3378 36.2821 46.4997 35.6497 48.3771C37.1714 46.4207 38.4164 44.1678 39.7009 41.9545C39.1475 41.0652 38.0014 40.2945 36.6575 40.9269ZM33.7921 39.919C33.219 39.8597 32.7249 40.5909 31.974 40.2747C31.7961 40.4723 31.638 40.67 31.4602 40.8676C33.1202 42.8833 33.8909 45.729 35.1754 48.0807C35.8671 45.8081 35.788 43.3378 35.9461 40.8676C34.9975 40.9071 34.464 39.9783 33.7921 39.919ZM31.9542 37.4883C31.8949 38.18 32.053 38.3973 32.1914 39.1878C34.4442 39.8992 34.0687 36.0852 31.9542 37.4883ZM29.4445 36.6583C28.4761 36.1247 27.0137 35.5516 25.749 35.3145C24.1878 35.0181 24.3459 37.4488 24.4052 38.8914C24.4645 40.0376 25.0573 41.2431 25.3142 42.0138C25.4328 42.3695 25.4723 42.745 25.7687 42.824C26.3023 42.9426 28.0809 42.2509 28.5749 41.9742C29.6421 41.4012 30.4721 40.4723 31.3811 39.84C31.4009 39.5435 31.4009 39.2273 31.4206 38.9309C30.8673 38.6543 30.2547 38.4764 29.4445 38.4369C29.978 38.1602 30.7883 38.1602 31.2823 37.844C31.2823 37.7254 31.2823 37.6069 31.3021 37.4883C30.393 37.3895 30.0571 36.9943 29.4445 36.6583ZM20.1564 34.9785C19.3461 35.8085 22.429 36.9152 23.3973 36.9745C23.3973 36.4607 23.6938 35.9666 23.6345 35.5912C22.4685 35.3935 20.9468 35.5319 20.1564 34.9785ZM30.1164 35.354C30.1164 35.4331 30.0176 35.4133 29.9978 35.4726C31.0452 36.2828 31.8159 36.4607 33.219 36.3816C33.8514 35.9271 34.4245 35.3738 35.0964 34.939C33.5549 35.0774 31.6183 36.0259 30.1164 35.354ZM39.2463 38.1207C39.2068 37.2116 38.9697 35.3343 38.3966 34.9983C37.2109 34.3066 35.1161 36.4014 34.2268 36.7176C34.3256 36.9943 34.4837 37.2116 34.5035 37.5673C35.0371 37.429 35.6695 37.5278 36.124 37.7452C35.5904 37.8045 35.0173 37.8045 34.6616 38.0614C34.543 38.4369 34.7011 38.9309 34.6023 39.4447C35.8473 39.8004 37.2899 39.9783 38.8709 40.0376C39.1673 39.6423 39.2859 38.8914 39.2463 38.1207ZM18.7928 35.769C18.5359 35.5912 16.8166 33.3581 16.5795 33.4569C13.4769 34.6821 10.5719 36.7966 7.98306 38.8123C10.4533 44.1283 11.4611 50.6299 11.639 56.8945C14.465 58.2185 16.955 60.1354 20.8085 60.333C20.354 57.1909 19.9588 54.3649 19.7019 51.4007C18.7335 50.9857 17.3502 51.4204 16.4411 51.2821C16.4411 50.1952 17.8245 50.8078 17.943 50.0766C18.0221 49.5233 17.1723 49.4838 17.449 48.6142C18.1604 48.8711 18.5359 49.4442 19.2869 49.6616C19.9785 48.1597 19.2869 45.4919 19.3857 44.2271C19.4054 43.99 19.5042 42.9228 20.0378 43.1007C20.5121 43.2588 20.018 45.9661 20.0576 47.1519C20.0971 48.2585 19.9192 49.3059 20.3738 49.9976C24.089 49.4838 27.8635 49.1676 31.8949 49.049C31.0056 48.6735 29.9583 48.3178 28.8121 47.6657C28.1797 47.31 26.2233 46.5788 26.0454 45.9859C25.749 45.0373 26.7964 44.5433 26.9742 43.7331C25.0968 44.7607 24.7411 42.745 24.2866 41.3419C23.8914 40.0573 23.6542 39.089 23.5554 38.3578C21.9152 37.5278 20.1761 36.7571 18.7928 35.769ZM37.6061 33.7138C40.1949 32.4688 40.6692 38.3973 39.6416 40.3142C39.7997 40.8873 40.3333 41.1047 40.5506 41.6185C39.108 44.2073 37.5073 46.6183 36.0252 49.1676C37.1121 48.4759 38.693 49.049 39.9775 48.5352C40.4518 48.3573 40.7878 47.2704 41.1435 46.4009C42.1316 44.0295 43.1592 41.0257 43.6137 38.7728C43.7125 38.259 44.009 37.1326 43.9299 36.6781C43.8113 35.8481 42.7047 35.2354 42.1316 34.7414C41.0842 33.7928 40.4321 32.9826 39.3254 32.0933C38.9104 32.7454 37.9618 33.1802 37.6061 33.7138ZM12.884 10.7702C11.6588 12.1338 11.9157 14.6633 12.054 16.4814C14.2871 15.0783 17.2316 16.6 17.2119 18.9714C18.279 18.9517 17.6071 17.6474 17.4095 16.7976C16.7771 14.0507 18.4766 11.0864 17.4885 8.57666C15.5716 8.73476 14.0104 9.50547 12.884 10.7702ZM21.6978 2.88524C18.9114 3.67572 15.3345 5.71119 14.1883 8.22095C15.0776 8.08262 15.6902 7.64786 16.5597 7.58857C16.8957 7.56881 17.3304 7.7269 17.7059 7.62809C18.4569 7.43048 19.109 5.73095 19.6821 5.09857C20.2354 4.48596 20.9073 4.20929 21.3619 3.65596C21.6583 3.51762 22.093 3.51762 22.1128 3.08286C21.9942 2.94453 21.8559 2.84572 21.6978 2.88524ZM36.2228 3.6362C33.3178 1.99596 28.4168 0.770722 25.334 2.31215C22.844 3.55715 19.4845 5.61238 18.3383 8.20119C19.4054 10.7109 18.0221 13.0033 17.9233 15.5526C17.8838 16.9162 18.5557 18.0821 18.6149 19.5643C18.2395 20.1769 17.1328 20.2362 16.3621 20.1967C16.1052 18.8924 15.6507 17.43 14.3069 17.2719C12.4097 17.0545 11.0066 18.6355 10.9276 20.2757C10.8288 22.2124 12.4097 25.4138 14.6626 25.1964C15.5321 25.1174 15.7495 24.2478 16.698 24.2478C17.2119 25.2755 15.9076 25.5916 15.7692 26.3228C15.7297 26.5205 15.868 27.2516 15.9669 27.6074C16.3819 29.2871 17.2909 31.4807 18.1802 32.7652C19.3264 34.4054 21.5595 34.6426 23.9704 34.8007C24.4052 33.8719 25.9861 33.9509 27.0137 34.1881C25.7687 33.694 24.6226 32.5083 23.674 31.4609C22.5871 30.2555 21.4804 28.9709 21.4211 27.39C23.4961 30.2554 25.1957 32.7652 28.9504 34.03C31.7961 34.9785 35.1161 33.5952 37.3097 32.0538C38.2187 31.4214 38.7523 30.3938 39.4044 29.4847C41.8154 26.0066 42.9418 21.0662 42.7047 16.264C42.6059 14.2878 42.6059 12.3117 41.934 10.9876C41.2423 9.60428 38.8906 8.33952 37.5073 9.60428C37.2504 8.24071 38.6535 7.41071 40.2937 7.90476C39.1278 6.3831 37.9025 4.58477 36.2228 3.6362ZM41.6375 48.3178C43.9102 47.1914 48.1392 45.2942 49.5423 48.3178C50.0759 49.4442 50.6885 51.3216 50.9454 52.4876C51.3209 54.108 50.5304 57.5466 48.8506 58.0802C47.3685 58.5545 45.6492 58.5347 43.8706 58.179C43.6532 58.0011 43.4359 57.7047 43.258 57.3885C41.9933 57.349 40.7878 57.4478 39.7997 57.9814C39.8985 58.9299 39.2661 59.0683 38.6535 59.2659C38.2187 61.0247 39.5428 63.3171 39.2266 64.898C39.0092 66.0442 37.6061 66.2221 36.5785 66.4197C36.539 67.0521 36.618 67.5856 36.6971 68.1192C36.4599 68.9887 35.4125 69.4828 34.4047 69.6013C31.1045 69.9966 26.1047 70.1745 22.9428 69.0283C22.0535 66.8545 21.3619 64.2261 20.6307 61.7559C17.5478 62.0918 15.038 60.4318 12.6864 59.3252C11.8761 58.9497 10.7497 58.7323 10.4335 58.0802C10.1371 57.4478 10.2557 56.2423 10.1766 55.1159C9.99877 52.2109 9.82091 49.4047 9.06996 46.4404C8.73401 45.0966 8.12139 43.9307 7.70639 42.6461C7.31115 41.4604 6.63925 39.9783 6.46139 38.7926C6.20449 37.0338 7.86449 36.935 8.91187 36.1642C10.5521 34.9785 11.8366 34.3264 13.6152 33.2593C14.1488 32.9431 15.7297 32.1526 15.9076 31.7771C16.2633 31.0459 15.295 30.0183 15.038 29.4452C14.623 28.5362 14.4057 27.7655 14.3464 26.8762C12.8642 26.639 11.7181 25.7497 11.0461 24.7616C9.91972 23.1016 9.12925 20.0386 10.1173 17.7264C10.1964 17.5486 10.5719 17.1731 10.6311 16.8964C10.7497 16.3431 10.4138 15.6119 10.394 15.019C10.2952 11.9955 10.9078 9.3869 12.9433 8.47786C13.7733 5.17762 16.7376 4.09072 19.524 2.45048C20.5714 1.83786 21.7176 1.44263 22.9033 1.00786C27.1521 -0.553324 33.6933 -0.256895 37.2306 2.41096C38.7325 3.53739 41.1237 5.92857 41.9735 7.66762C44.2461 12.2326 44.0683 19.8805 42.4873 25.4533C42.2699 26.2043 41.9735 27.2912 41.5387 28.2002C41.2423 28.8326 40.3135 30.0776 40.4123 30.6309C40.5309 31.204 42.5466 32.7257 42.9813 33.1407C43.7521 33.8916 45.2342 34.8797 45.3528 35.8283C45.4911 36.8362 44.918 38.2195 44.6216 39.1878C43.673 42.4288 42.7244 45.4128 41.6375 48.3178Z" fill="#231F20"/>
<path d="M26.5198 25.8683C26.6383 25.7102 27.3102 25.4533 28.2588 25.9079C28.2588 25.9079 27.1324 26.0857 27.2312 27.9631L26.7569 27.8643C26.7767 27.884 26.2826 26.1845 26.5198 25.8683Z" fill="#F7E4CD"/>
<path d="M34.7011 41.9149C34.7011 42.1916 34.464 42.4287 34.1873 42.4287C33.9107 42.4287 33.6735 42.1916 33.6735 41.9149C33.6735 41.6383 33.9107 41.4011 34.1873 41.4011C34.4838 41.4011 34.7011 41.6383 34.7011 41.9149Z" fill="#1D1919"/>
<path d="M35.2149 44.3062C35.2149 44.5828 34.9778 44.82 34.7011 44.82C34.4245 44.82 34.1873 44.5828 34.1873 44.3062C34.1873 44.0295 34.4245 43.7924 34.7011 43.7924C34.9976 43.7924 35.2149 44.0097 35.2149 44.3062Z" fill="#1D1919"/>
</svg>
