<svg width="71" height="70" viewBox="0 0 71 70" fill="none" xmlns="http://www.w3.org/2000/svg">
<path d="M64.1397 7.4986H34.0422C34.0422 11.102 35.4737 14.5577 38.0216 17.1057C40.5696 19.6536 44.0254 21.0851 47.6287 21.0851H53.173V26.4382C53.1779 33.935 59.2539 40.0112 66.7507 40.0161V10.1096C66.7507 8.66797 65.582 7.4986 64.1397 7.4986Z" fill="#2684FF"/>
<path d="M49.2476 22.4951H19.1503C19.155 29.9918 25.231 36.0681 32.728 36.073H38.2723V41.4432C38.2818 48.94 44.362 55.0121 51.8588 55.0121V25.1065C51.8588 23.6644 50.6896 22.4951 49.2476 22.4951Z" fill="url(#paint0_linear_524_4255)"/>
<path d="M34.3468 37.483H4.24927C4.24927 44.9866 10.3324 51.0694 17.8357 51.0694H23.3974V56.4223C23.4023 63.9122 29.4678 69.9858 36.958 70V40.0942C36.958 38.6521 35.7888 37.483 34.3468 37.483Z" fill="url(#paint1_linear_524_4255)"/>
<defs>
<linearGradient id="paint0_linear_524_4255" x1="8205.97" y1="37.4657" x2="4959.06" y2="3831.95" gradientUnits="userSpaceOnUse">
<stop offset="0.18" stop-color="#0052CC"/>
<stop offset="1" stop-color="#2684FF"/>
</linearGradient>
<linearGradient id="paint1_linear_524_4255" x1="8411.1" y1="79.791" x2="4655.27" y2="4218.38" gradientUnits="userSpaceOnUse">
<stop offset="0.18" stop-color="#0052CC"/>
<stop offset="1" stop-color="#2684FF"/>
</linearGradient>
</defs>
</svg>
