<svg width="71" height="70" viewBox="0 0 71 70" fill="none" xmlns="http://www.w3.org/2000/svg">
<path fill-rule="evenodd" clip-rule="evenodd" d="M9.76078 0.940063C9.14445 0.988188 8.53906 0.980532 7.94242 1.14405C6.63703 1.50225 5.47711 2.07483 4.45391 2.95749C3.85234 3.47592 3.32734 4.03483 2.88164 4.69327C2.19367 5.70991 1.725 6.80256 1.48984 8.03249C1.58391 8.19709 1.68289 8.36991 1.78789 8.54545C2.45453 9.65999 3.12172 10.7669 3.79 11.8803L5.54656 14.8012C6.08687 15.7013 6.62609 16.602 7.16531 17.5022L9.68531 21.7065C10.2579 22.6625 10.831 23.619 11.4041 24.5744C12.2392 25.9662 13.0765 27.3569 13.9105 28.7492L16.9779 33.874C17.8622 35.35 18.7481 36.8249 19.6341 38.2998L19.7522 38.4715C19.8807 38.5126 19.983 38.4776 20.0891 38.4524C21.2561 38.1724 22.4231 37.894 23.5902 37.6151C25.4829 37.1629 27.3756 36.7122 29.2684 36.2594L32.233 35.5501C34.1465 35.093 36.0605 34.6369 37.9741 34.1786C39.9084 33.7159 41.8421 33.2511 43.777 32.7879C44.7548 32.5533 45.7326 32.3197 46.7109 32.0862C48.6037 31.6345 50.4964 31.1839 52.3891 30.7333L58.5732 29.2605L58.9073 29.1703L58.816 28.9893L57.1284 26.6038L55.4615 24.244L53.6787 21.7262L51.9746 19.3129L50.2859 16.928L48.5424 14.4632C47.9731 13.6593 47.4027 12.8565 46.8329 12.0531L45.9322 10.7811C45.7944 10.5858 45.6845 10.3753 45.6112 10.1473C45.4329 9.59436 45.6363 9.22631 45.959 8.95452C46.1679 8.77788 46.4085 8.64827 46.6688 8.5717C47.0314 8.46506 47.3973 8.3628 47.768 8.2928C48.5112 8.15225 49.2594 8.03303 50.0053 7.90889L52.5341 7.49655C53.0673 7.4085 53.5999 7.31608 54.1331 7.22584C54.8577 7.10334 55.5823 6.9803 56.3075 6.85944C57.0113 6.74131 57.7152 6.62428 58.419 6.50834L60.723 6.13155L62.322 5.86303C62.9302 5.76131 63.5377 5.66014 64.1453 5.56061C64.9033 5.43702 65.6607 5.31233 66.4187 5.19366C66.8704 5.12311 67.3221 5.0985 67.7705 5.22756C68.1069 5.32436 68.4131 5.48186 68.6981 5.68311L69.0923 5.95819C69.1317 5.86741 69.0748 5.81819 69.0486 5.76624C68.4798 4.61506 67.7044 3.62522 66.7189 2.80108C65.8029 2.03436 64.7742 1.47053 63.6367 1.11124C62.9646 0.898501 62.2739 0.997485 61.5706 0.944438M30.9549 69.4531C30.921 69.4531 30.8909 69.207 30.8527 69.1419C30.0323 67.7419 29.2033 66.2391 28.3928 64.8342C27.3718 63.0634 26.3601 61.2872 25.3538 59.5076C24.2792 57.6056 23.2139 55.6981 22.1475 53.7917C21.1336 51.9794 20.123 50.1654 19.1129 48.3514C18.5031 47.2549 17.8972 46.1562 17.288 45.0592L17.1261 44.8082L16.8297 44.8667C16.2434 45.0182 15.6583 45.1708 15.0731 45.325C14.2583 45.5394 13.444 45.7576 12.6286 45.9703C10.7982 46.4466 8.96781 46.9202 7.13742 47.3949C5.27586 47.8783 3.33609 48.3629 1.47398 48.8441C1.36078 48.8731 1.59375 48.883 1.04688 48.9021V60.4658C1.27219 60.8245 1.25086 60.6555 1.26508 60.7737C1.30828 61.116 1.37828 61.4611 1.43844 61.8001C1.66375 63.0634 2.1707 64.2201 2.90352 65.2733C3.97813 66.8188 5.4093 67.9235 7.16258 68.5994C7.78875 68.8401 8.44227 69.0096 9.11055 69.0916L9.78922 69.271" fill="#FD4F31"/>
<path fill-rule="evenodd" clip-rule="evenodd" d="M3.22125 42.5152C5.37539 42.0027 7.53008 41.4909 9.68422 40.9795C10.6303 40.7553 11.577 40.5338 12.523 40.3085C12.9961 40.1959 13.4702 40.0887 13.9395 39.9618C14.3573 39.8492 14.4087 39.7108 14.1938 39.334C13.8831 38.7893 13.567 38.2479 13.2526 37.7049L10.4832 32.9361L7.71492 28.1668C6.77594 26.5492 5.83586 24.9315 4.89633 23.3144C4.09187 21.9308 3.28742 20.5472 2.48352 19.1636C2.1357 18.5653 1.71352 17.9654 1.36406 17.3677C1.29898 17.2588 1.59375 17.1287 1.04688 17.0707V42.9904C1.04688 42.9729 1.29461 42.9581 1.37828 42.9379L3.22125 42.5152ZM69.5287 61.0422C68.6844 61.3424 67.8395 61.6449 66.9956 61.9473C65.0734 62.6363 63.1511 63.3254 61.2288 64.015C60.1608 64.3984 59.0949 64.7861 58.0263 65.1678C55.8487 65.9449 53.6699 66.7193 51.4917 67.4948C50.2295 67.9443 48.9668 68.4999 47.7052 68.9517C47.3595 69.0758 47.0188 69.4531 46.6765 69.4531H61.1632L61.4749 69.2743C61.8435 69.2585 62.2061 69.1491 62.5681 69.0829C64.0551 68.8111 65.3867 68.168 66.5663 67.2279C67.4725 66.5055 68.2097 65.6223 68.7872 64.6149C69.3811 63.5781 69.7338 62.4564 69.9034 61.2785C69.9181 61.1767 69.9498 61.0613 69.8645 60.9563C69.7442 60.947 69.6381 61.0034 69.5287 61.0422ZM68.2846 41.5893C67.6459 40.7154 67.0055 39.8431 66.3678 38.9687C65.4879 37.7617 64.6096 36.5537 63.7308 35.3462C63.3737 34.8562 63.0116 34.37 62.6633 33.8745C62.5583 33.7253 62.4385 33.6853 62.275 33.7296L62.1815 33.7564C60.5638 34.1496 58.9456 34.5417 57.3274 34.9338L54.4279 35.6377C52.5373 36.0965 50.6462 36.5559 48.7557 37.0152C46.8859 37.4697 45.0162 37.9247 43.1459 38.3781L37.3151 39.7901C35.4027 40.2544 33.4913 40.7203 31.5795 41.1852L26.033 42.5316C25.0558 42.7689 24.0785 43.0052 23.1023 43.2436C22.9585 43.2786 22.8038 43.2874 22.6506 43.4033L22.7813 43.6521C23.6 45.0663 24.4187 46.48 25.2395 47.8931C26.1687 49.4933 27.0984 51.0929 28.0302 52.6914C29.0551 54.4485 30.0827 56.2045 31.1091 57.9611C31.6992 58.9701 32.2855 59.9802 32.8805 60.9864C33.5416 62.1042 34.205 63.2199 34.8782 64.3306C35.08 64.6625 35.3091 64.9797 35.5399 65.2925C35.6947 65.5014 35.8861 65.6797 36.112 65.8159C36.3449 65.9564 36.5959 66.0007 36.8606 65.9411C36.9973 65.9099 37.1313 65.8651 37.2637 65.8192L37.7504 65.6387C39.5206 65.0333 41.2903 64.4279 43.0611 63.8247C44.4425 63.3544 45.8255 62.8863 47.208 62.4187C48.5802 61.9533 49.9534 61.4901 51.326 61.0269L55.4134 59.6466C56.8068 59.1757 58.1997 58.7049 59.5926 58.2329C61.3021 57.6527 63.0111 57.0703 64.7217 56.4911C66.3705 55.9333 68.021 55.3788 69.6704 54.822C69.7716 54.7881 69.8831 54.7739 69.9668 54.6629L69.9772 54.4228C69.9777 51.0021 69.9766 47.5809 69.9805 44.1602C69.9805 43.9775 69.9318 43.8299 69.8224 43.6828C69.304 42.9888 68.7959 42.2877 68.2846 41.5893ZM68.0008 9.35759C67.6169 8.87142 67.128 8.7172 66.5286 8.87361C66.2677 8.94197 65.9998 8.98517 65.734 9.03384C64.8623 9.19353 63.9895 9.35048 63.1177 9.50853C61.8413 9.74041 60.5655 9.97447 59.2891 10.2042C58.2784 10.3857 57.2673 10.5645 56.2561 10.7417L52.1994 11.4516C52.0293 11.4811 51.8576 11.5106 51.6935 11.5631C51.4545 11.6397 51.3856 11.7895 51.495 12.0143C51.5841 12.1981 51.6952 12.3736 51.8155 12.5388C52.6544 13.6949 53.4971 14.8482 54.3398 16.0021C55.5014 17.593 56.6635 19.1833 57.8256 20.7731C58.8089 22.1184 59.7933 23.4637 60.7771 24.8085C61.5504 25.865 62.3237 26.9216 63.098 27.9776L63.2506 28.1624L69.9613 26.5038L69.9772 26.156C69.9777 21.5015 69.9766 16.847 69.9805 12.192C69.9805 11.9864 69.9307 11.8213 69.8011 11.6583C69.2367 10.9457 68.6827 10.2249 68.1244 9.50744L68.0008 9.35759ZM69.806 31.9113C68.791 32.1552 67.7722 32.387 66.7326 32.6621C66.8425 32.8574 69.6939 36.7063 69.8596 36.8889L69.9635 36.9463L69.975 36.7117L69.9755 35.0913C69.9761 34.1513 69.9783 33.2112 69.9761 32.2711C69.9761 32.1568 70.0084 32.0338 69.9296 31.9178L69.806 31.9113Z" fill="#FD4F31"/>
</svg>
