<svg width="71" height="70" viewBox="0 0 71 70" fill="none" xmlns="http://www.w3.org/2000/svg">
<path fill-rule="evenodd" clip-rule="evenodd" d="M64.1562 0.000725912H6.84521C5.16235 0.000725912 3.54843 0.669237 2.35847 1.85919C1.16851 3.04915 0.5 4.66308 0.5 6.34593V63.6555C0.5 65.3384 1.16851 66.9523 2.35847 68.1423C3.54843 69.3322 5.16235 70.0007 6.84521 70.0007H64.1548C65.8376 70.0007 67.4516 69.3322 68.6415 68.1423C69.8315 66.9523 70.5 65.3384 70.5 63.6555V6.34448C70.5 4.66162 69.8315 3.04769 68.6415 1.85774C67.4516 0.667779 65.8376 -0.000732422 64.1548 -0.000732422L64.1562 0.000725912ZM23.896 22.0245C26.2221 22.0245 28.1719 20.2016 28.1719 17.8099C28.1719 15.4211 26.2221 13.5982 23.896 13.5982C21.5685 13.5982 19.6202 15.4211 19.6202 17.8099C19.6202 20.2016 21.5685 22.0245 23.896 22.0245ZM15.0294 44.5893C14.787 45.627 14.6598 46.6883 14.6502 47.7538C14.6502 51.4653 16.6627 53.9284 20.94 53.9284C24.4867 53.9284 27.3625 51.8226 29.4319 48.4218L28.1675 53.4953H35.2113L39.2363 37.3516C40.2425 33.2639 42.1908 31.142 45.1469 31.142C47.4729 31.142 48.9196 32.5886 48.9196 34.9774C48.9196 35.6701 48.8569 36.4241 48.6046 37.2422L46.5294 44.6622C46.2339 45.6839 46.0861 46.7427 46.0904 47.8064C46.0904 51.3297 48.1642 53.9051 52.5042 53.9051C56.2142 53.9051 59.1688 51.5178 60.805 45.7938L58.0385 44.7264C56.6531 48.5603 55.4588 49.253 54.5167 49.253C53.5731 49.253 53.07 48.6259 53.07 47.3674C53.07 46.8016 53.1954 46.1745 53.3835 45.4176L55.396 38.1886C55.8992 36.4911 56.0888 34.9861 56.0888 33.6022C56.0888 28.1947 52.8177 25.3728 48.8554 25.3728C45.1469 25.3728 41.3742 28.7182 39.4871 32.2416L40.8696 25.9197H30.1173L28.6079 31.4876H33.6392L30.5417 43.8907C28.1077 49.2982 23.6394 49.3857 23.0779 49.2603C22.1577 49.0532 21.5685 48.7032 21.5685 47.5059C21.5685 46.8161 21.694 45.8245 22.009 44.6286L26.7252 25.9182H14.7771L13.2677 31.4876H18.2363L15.0294 44.5893Z" fill="#FF2A63"/>
</svg>
