<svg width="20" height="20" viewBox="0 0 20 20" fill="none" xmlns="http://www.w3.org/2000/svg">
<g clip-path="url(#clip0_205_1789)">
<path d="M20.0001 19.5581V12.1625C20.0001 8.19995 17.8851 6.3562 15.0651 6.3562C12.7894 6.3562 11.7694 7.60808 11.2013 8.48683V6.65933H6.91382C6.97069 7.86995 6.91382 19.5575 6.91382 19.5575H11.2013V12.3543C11.2013 11.97 11.2288 11.5843 11.3426 11.3093C11.6519 10.5387 12.3576 9.7412 13.5413 9.7412C15.0932 9.7412 15.7132 10.9237 15.7132 12.6575V19.5587H20.0001V19.5581Z" fill="white"/>
<path d="M2.37 4.89877H2.39688C3.89125 4.89877 4.82313 3.90752 4.82313 2.66939C4.79563 1.40439 3.89188 0.441895 2.42563 0.441895C0.959375 0.441895 0 1.40377 0 2.66939C0 3.90752 0.930625 4.89877 2.37 4.89877Z" fill="white"/>
<path d="M0.253662 6.65942H4.54054V19.5575H0.253662V6.65942Z" fill="white"/>
</g>
<defs>
<clipPath id="clip0_205_1789">
<rect width="20" height="20" fill="white"/>
</clipPath>
</defs>
</svg>
