<svg width="60" height="60" viewBox="0 0 60 60" fill="none" xmlns="http://www.w3.org/2000/svg">
<path d="M46.25 40H6.25C4.875 40 3.75 38.875 3.75 37.5V12.5C3.75 11.125 4.875 10 6.25 10H46.25C47.625 10 48.75 11.125 48.75 12.5V37.5C48.75 38.875 47.625 40 46.25 40Z" fill="#2F58CD"/>
<path d="M46.25 40H6.25C4.875 40 3.75 38.875 3.75 37.5V32.5H48.75V37.5C48.75 38.875 47.625 40 46.25 40Z" fill="#F7F7FB"/>
<path d="M30 51.25H22.5C22.1685 51.25 21.8505 51.1183 21.6161 50.8839C21.3817 50.6495 21.25 50.3315 21.25 50V40C21.25 39.6685 21.3817 39.3505 21.6161 39.1161C21.8505 38.8817 22.1685 38.75 22.5 38.75H30C30.3315 38.75 30.6495 38.8817 30.8839 39.1161C31.1183 39.3505 31.25 39.6685 31.25 40V50C31.25 50.3315 31.1183 50.6495 30.8839 50.8839C30.6495 51.1183 30.3315 51.25 30 51.25ZM23.75 48.75H28.75V41.25H23.75V48.75Z" fill="#3A1078"/>
<path d="M22.5 40H30V50H22.5V40Z" fill="#F7F7FB"/>
<path d="M26.25 37.5C26.9404 37.5 27.5 36.9404 27.5 36.25C27.5 35.5596 26.9404 35 26.25 35C25.5596 35 25 35.5596 25 36.25C25 36.9404 25.5596 37.5 26.25 37.5Z" fill="#3A1078"/>
<path d="M46.25 8.75H6.25C4.1825 8.75 2.5 10.4325 2.5 12.5V37.5C2.5 39.5675 4.1825 41.25 6.25 41.25H21.25V48.75H14.375C14.0435 48.75 13.7255 48.8817 13.4911 49.1161C13.2567 49.3505 13.125 49.6685 13.125 50C13.125 50.3315 13.2567 50.6495 13.4911 50.8839C13.7255 51.1183 14.0435 51.25 14.375 51.25H38.125C38.4565 51.25 38.7745 51.1183 39.0089 50.8839C39.2433 50.6495 39.375 50.3315 39.375 50C39.375 49.6685 39.2433 49.3505 39.0089 49.1161C38.7745 48.8817 38.4565 48.75 38.125 48.75H31.25V41.25H46.25C48.3175 41.25 50 39.5675 50 37.5V12.5C50 10.4325 48.3175 8.75 46.25 8.75ZM5 12.5C5 11.8112 5.56125 11.25 6.25 11.25H46.25C46.94 11.25 47.5 11.8112 47.5 12.5V31.25H5V12.5ZM28.75 48.75H23.75V41.25H28.75V48.75ZM47.5 37.5C47.5 38.1887 46.94 38.75 46.25 38.75H6.25C5.56125 38.75 5 38.1887 5 37.5V33.75H47.5V37.5Z" fill="#3A1078"/>
<path d="M53.75 50H43.75C43.087 50 42.4511 49.7366 41.9822 49.2678C41.5134 48.7989 41.25 48.163 41.25 47.5V25C41.25 24.337 41.5134 23.7011 41.9822 23.2322C42.4511 22.7634 43.087 22.5 43.75 22.5H53.75C54.413 22.5 55.0489 22.7634 55.5178 23.2322C55.9866 23.7011 56.25 24.337 56.25 25V47.5C56.25 48.163 55.9866 48.7989 55.5178 49.2678C55.0489 49.7366 54.413 50 53.75 50Z" fill="#F7F7FB"/>
<path d="M41.25 27.5H56.25V45H41.25V27.5Z" fill="#2F58CD"/>
<path d="M53.75 21.25H43.75C41.6825 21.25 40 22.9325 40 25V47.5C40 49.5675 41.6825 51.25 43.75 51.25H53.75C55.8175 51.25 57.5 49.5675 57.5 47.5V25C57.5 22.9325 55.8175 21.25 53.75 21.25ZM42.5 28.75H55V43.75H42.5V28.75ZM42.5 25C42.5 24.3112 43.06 23.75 43.75 23.75H53.75C54.44 23.75 55 24.3112 55 25V26.25H42.5V25ZM55 47.5C55 48.1887 54.44 48.75 53.75 48.75H43.75C43.06 48.75 42.5 48.1887 42.5 47.5V46.25H55V47.5Z" fill="#3A1078"/>
</svg>
