<svg width="71" height="70" viewBox="0 0 71 70" fill="none" xmlns="http://www.w3.org/2000/svg">
<g clip-path="url(#clip0_524_4176)">
<path fill-rule="evenodd" clip-rule="evenodd" d="M14.5 0H56.5C64.2 0 70.5 6.3 70.5 14V56C70.5 63.7 64.2 70 56.5 70H14.5C6.8 70 0.5 63.7 0.5 56V14C0.5 6.3 6.8 0 14.5 0Z" fill="url(#paint0_linear_524_4176)"/>
<path d="M45.58 24.724C46.392 24.724 47.12 25.032 47.68 25.62L50.872 28.812C51.32 29.26 51.88 29.484 52.496 29.484C53.028 29.484 53.532 29.316 53.924 28.952C54.428 28.532 54.68 27.916 54.68 27.272C54.68 26.684 54.456 26.124 54.036 25.676L50.9 22.54C49.472 21.112 47.568 20.328 45.58 20.328C43.564 20.328 41.66 21.112 40.26 22.54L19.036 43.764C18.084 44.716 16.824 45.248 15.48 45.248C14.248 45.248 13.044 44.772 12.148 43.932C11.168 43.008 10.636 41.748 10.636 40.404C10.636 39.116 11.168 37.884 12.064 36.96L13.016 36.008L14.836 37.828V30.912H7.892L9.852 32.872L8.984 33.74C5.316 37.408 5.26 43.344 8.872 46.984C10.636 48.748 12.96 49.728 15.48 49.728C17.972 49.728 20.296 48.776 22.06 47.012L43.452 25.62C43.984 25.06 44.712 24.752 45.524 24.752L45.58 24.724Z" fill="white"/>
<path d="M61.96 33.712L60.364 32.116L62.324 30.156H55.408V37.072L57.228 35.252L58.908 36.932C59.804 37.828 60.336 39.088 60.336 40.376C60.336 41.72 59.804 42.98 58.824 43.904C57.928 44.772 56.752 45.22 55.492 45.22C54.148 45.22 52.888 44.688 51.936 43.736L40.596 32.396L37.46 35.532L48.884 46.956C50.648 48.72 52.972 49.672 55.464 49.672C57.956 49.672 60.308 48.692 62.072 46.928C65.6 43.316 65.544 37.38 61.904 33.684L61.96 33.712Z" fill="white"/>
<path d="M16.376 29.596C16.768 29.932 17.272 30.128 17.804 30.128C18.392 30.128 19.008 29.876 19.428 29.456L23.292 25.592C23.852 25.032 24.58 24.696 25.392 24.696C26.204 24.696 26.932 25.004 27.492 25.592L30.348 28.448L33.484 25.284L30.712 22.512C29.284 21.084 27.38 20.3 25.392 20.3C23.376 20.3 21.472 21.084 20.072 22.512L16.236 26.32C15.816 26.74 15.592 27.3 15.592 27.916C15.592 28.56 15.872 29.148 16.376 29.596Z" fill="white"/>
</g>
<defs>
<linearGradient id="paint0_linear_524_4176" x1="1.48" y1="35" x2="70.276" y2="35" gradientUnits="userSpaceOnUse">
<stop stop-color="#734CE2"/>
<stop offset="0.6196" stop-color="#604DF1"/>
<stop offset="1" stop-color="#524DFB"/>
</linearGradient>
<clipPath id="clip0_524_4176">
<rect width="70" height="70" fill="white" transform="translate(0.5)"/>
</clipPath>
</defs>
</svg>
