<svg width="71" height="70" viewBox="0 0 71 70" fill="none" xmlns="http://www.w3.org/2000/svg">
<g clip-path="url(#clip0_1964_1341)">
<path fill-rule="evenodd" clip-rule="evenodd" d="M14.5 0H56.5C64.2 0 70.5 6.3 70.5 14V56C70.5 63.7 64.2 70 56.5 70H14.5C6.8 70 0.5 63.7 0.5 56V14C0.5 6.3 6.8 0 14.5 0Z" fill="#ABABAB"/>
<path d="M45.5801 24.724C46.3921 24.724 47.1201 25.032 47.6801 25.62L50.8721 28.812C51.3201 29.26 51.8801 29.484 52.4961 29.484C53.0281 29.484 53.5321 29.316 53.9241 28.952C54.4281 28.532 54.6801 27.916 54.6801 27.272C54.6801 26.684 54.4561 26.124 54.0361 25.676L50.9001 22.54C49.4721 21.112 47.5681 20.328 45.5801 20.328C43.5641 20.328 41.6601 21.112 40.2601 22.54L19.0361 43.764C18.0841 44.716 16.8241 45.248 15.4801 45.248C14.2481 45.248 13.0441 44.772 12.1481 43.932C11.1681 43.008 10.6361 41.748 10.6361 40.404C10.6361 39.116 11.1681 37.884 12.0641 36.96L13.0161 36.008L14.8361 37.828V30.912H7.89212L9.85212 32.872L8.98412 33.74C5.31612 37.408 5.26012 43.344 8.87212 46.984C10.6361 48.748 12.9601 49.728 15.4801 49.728C17.9721 49.728 20.2961 48.776 22.0601 47.012L43.4521 25.62C43.9841 25.06 44.7121 24.752 45.5241 24.752L45.5801 24.724Z" fill="#C9C8CA"/>
<path d="M61.96 33.712L60.364 32.116L62.324 30.156H55.408V37.072L57.228 35.252L58.908 36.932C59.804 37.828 60.336 39.088 60.336 40.376C60.336 41.72 59.804 42.98 58.824 43.904C57.928 44.772 56.752 45.22 55.492 45.22C54.148 45.22 52.888 44.688 51.936 43.736L40.596 32.396L37.46 35.532L48.884 46.956C50.648 48.72 52.972 49.672 55.464 49.672C57.956 49.672 60.308 48.692 62.072 46.928C65.6 43.316 65.544 37.38 61.904 33.684L61.96 33.712Z" fill="#C9C8CA"/>
<path d="M16.3763 29.596C16.7683 29.932 17.2723 30.128 17.8043 30.128C18.3923 30.128 19.0083 29.876 19.4283 29.456L23.2923 25.592C23.8523 25.032 24.5803 24.696 25.3923 24.696C26.2043 24.696 26.9323 25.004 27.4923 25.592L30.3483 28.448L33.4843 25.284L30.7123 22.512C29.2843 21.084 27.3803 20.3 25.3923 20.3C23.3763 20.3 21.4723 21.084 20.0723 22.512L16.2363 26.32C15.8163 26.74 15.5923 27.3 15.5923 27.916C15.5923 28.56 15.8723 29.148 16.3763 29.596Z" fill="#C9C8CA"/>
</g>
<defs>
<clipPath id="clip0_1964_1341">
<rect width="70" height="70" fill="white" transform="translate(0.5)"/>
</clipPath>
</defs>
</svg>
