<svg width="75" height="70" viewBox="0 0 75 70" fill="none" xmlns="http://www.w3.org/2000/svg">
<path d="M28.4009 32.6667C21.6343 28.7063 18.335 20.628 20.3557 12.9741C22.3789 5.32285 29.2182 0 37.0327 0C44.8473 0 51.6866 5.32285 53.7098 12.9741C55.733 20.628 52.4337 28.7038 45.6646 32.6667L40.4674 23.5385C43.16 21.9625 44.4712 18.7495 43.669 15.7042C42.8667 12.6589 40.144 10.5415 37.0352 10.5415C33.9265 10.5415 31.2063 12.6589 30.4015 15.7042C29.5968 18.7495 30.9105 21.9625 33.6031 23.5385L28.4059 32.6667H28.4009Z" fill="#ABABAB"/>
<path d="M65.9658 37.3334C72.9152 41.2937 76.3037 49.3721 74.2284 57.0259C72.1505 64.6797 65.1264 70 57.1006 70C49.0749 70 42.0507 64.6772 39.9728 57.0259C37.8949 49.3721 41.2834 41.2963 48.2355 37.3334L53.5731 46.4615C50.8077 48.0375 49.4611 51.2506 50.285 54.2958C51.1116 57.3411 53.9052 59.4586 57.098 59.4586C60.2908 59.4586 63.0845 57.3411 63.9111 54.2958C64.7376 51.2506 63.3884 48.0375 60.623 46.4615L65.9606 37.3334H65.9658Z" fill="#ABABAB"/>
<path d="M35.6308 52.2663C35.6308 60.292 30.2392 67.316 22.4892 69.3939C14.7366 71.4717 6.55654 68.0833 2.54249 61.1314C-1.46899 54.182 -0.315498 45.402 5.35928 39.7271C11.0341 34.0523 19.814 32.8962 26.7633 36.9103L21.4258 46.1564C18.6605 44.56 15.1691 45.0209 12.9111 47.2764C10.653 49.5319 10.1947 53.0259 11.791 55.7912C13.3874 58.5566 16.6419 59.9032 19.7264 59.0792C22.811 58.2553 24.9558 55.4591 24.9558 52.2663H35.6333H35.6308Z" fill="#ABABAB"/>
</svg>
