<svg width="75" height="70" viewBox="0 0 75 70" fill="none" xmlns="http://www.w3.org/2000/svg">
<path d="M28.4009 32.6667C21.6343 28.7063 18.335 20.628 20.3557 12.9741C22.3789 5.32285 29.2182 0 37.0328 0C44.8473 0 51.6866 5.32285 53.7098 12.9741C55.733 20.628 52.4337 28.7038 45.6646 32.6667L40.4674 23.5385C43.16 21.9625 44.4712 18.7495 43.669 15.7042C42.8667 12.6589 40.144 10.5415 37.0353 10.5415C33.9265 10.5415 31.2063 12.6589 30.4015 15.7042C29.5968 18.7495 30.9105 21.9625 33.6031 23.5385L28.4059 32.6667H28.4009Z" fill="#FF0101"/>
<path d="M65.9658 37.3333C72.9152 41.2936 76.3037 49.372 74.2284 57.0258C72.1505 64.6796 65.1264 69.9999 57.1006 69.9999C49.0749 69.9999 42.0507 64.6771 39.9728 57.0258C37.8949 49.372 41.2834 41.2962 48.2355 37.3333L53.5731 46.4614C50.8077 48.0374 49.4611 51.2505 50.285 54.2957C51.1116 57.341 53.9052 59.4584 57.098 59.4584C60.2908 59.4584 63.0845 57.341 63.9111 54.2957C64.7376 51.2505 63.3884 48.0374 60.623 46.4614L65.9606 37.3333H65.9658Z" fill="#0101FF"/>
<path d="M35.6308 52.2665C35.6308 60.2921 30.2392 67.3161 22.4892 69.394C14.7366 71.4718 6.55656 68.0834 2.5425 61.1315C-1.46898 54.1821 -0.315483 45.4021 5.35929 39.7272C11.0341 34.0524 19.814 32.8963 26.7633 36.9104L21.4258 46.1565C18.6605 44.5601 15.1691 45.021 12.9111 47.2765C10.653 49.532 10.1947 53.026 11.791 55.7914C13.3874 58.5567 16.6419 59.9033 19.7265 59.0794C22.811 58.2554 24.9558 55.4592 24.9558 52.2665H35.6333H35.6308Z" fill="#01FF01"/>
</svg>
