<svg width="71" height="70" viewBox="0 0 71 70" fill="none" xmlns="http://www.w3.org/2000/svg">
<path d="M35.5018 0.0162619C32.6162 0.0162619 29.8237 0.280429 27.3926 0.727896C20.1868 1.96787 18.922 4.54484 18.922 9.42385V15.8124H35.8632V17.9419H12.6142C7.74647 17.9419 3.42629 20.8693 2.07384 26.3683C0.540695 32.7568 0.453087 36.66 2.07384 43.3127C3.2456 48.2834 6.13119 51.7391 11.0865 51.7391H16.9453V44.1106C16.9453 38.6116 21.8131 33.7326 27.4857 33.7326H44.3338C49.0209 33.7326 52.8045 29.9157 52.8045 25.2146V9.3322C52.8045 4.80901 48.9278 1.43414 44.3338 0.636246C41.3552 0.194171 38.382 -0.0699968 35.5018 0.0162619ZM26.3085 5.07318C28.0223 5.07318 29.4624 6.49106 29.4624 8.26475C29.4624 10.0384 28.0223 11.4563 26.3085 11.4563C24.5946 11.4563 23.1546 10.0384 23.1546 8.26475C23.1546 6.49106 24.507 5.07318 26.3085 5.07318Z" fill="#ABABAB"/>
<path d="M54.3097 18.2609V25.5688C54.3097 31.2931 49.4723 36.0438 43.9293 36.0438H27.4822C22.9976 36.0438 19.2132 39.9171 19.2132 44.4966V60.2573C19.2132 64.7458 23.0832 67.3887 27.4822 68.7101C32.6724 70.2936 37.6862 70.5611 44.0202 68.7101C48.152 67.4796 52.2892 65.0989 52.2892 60.2573V53.9177H35.7459V51.8045H60.5528C65.3047 51.8045 67.1488 48.4608 68.8218 43.4427C70.5804 38.248 70.4949 33.3207 68.8218 26.6281C67.678 21.872 65.3902 18.2662 60.5528 18.2662L54.3097 18.2609ZM44.9823 58.1441C46.6554 58.1441 48.0612 59.5511 48.0612 61.3112C48.0612 63.0713 46.6554 64.4783 44.9823 64.4783C43.3093 64.4783 41.9035 63.0713 41.9035 61.3112C41.9035 59.5511 43.3146 58.1441 44.9823 58.1441Z" fill="#ABABAB"/>
</svg>
