<svg width="71" height="70" viewBox="0 0 71 70" fill="none" xmlns="http://www.w3.org/2000/svg">
<path d="M35.5019 0.0162619C32.6163 0.0162619 29.8237 0.280429 27.3926 0.727896C20.1868 1.96787 18.922 4.54484 18.922 9.42385V15.8124H35.8632V17.9419H12.6142C7.74648 17.9419 3.4263 20.8693 2.07385 26.3683C0.540703 32.7568 0.453094 36.66 2.07385 43.3127C3.24561 48.2834 6.1312 51.7391 11.0865 51.7391H16.9453V44.1106C16.9453 38.6116 21.8131 33.7326 27.4857 33.7326H44.3338C49.0209 33.7326 52.8045 29.9157 52.8045 25.2146V9.3322C52.8045 4.80901 48.9278 1.43414 44.3338 0.636246C41.3552 0.194171 38.382 -0.0699968 35.5019 0.0162619ZM26.3085 5.07318C28.0223 5.07318 29.4624 6.49106 29.4624 8.26475C29.4624 10.0384 28.0223 11.4563 26.3085 11.4563C24.5946 11.4563 23.1546 10.0384 23.1546 8.26475C23.1546 6.49106 24.507 5.07318 26.3085 5.07318Z" fill="url(#paint0_linear_521_9161)"/>
<path d="M54.3097 18.261V25.5689C54.3097 31.2933 49.4723 36.0439 43.9294 36.0439H27.4822C22.9976 36.0439 19.2133 39.9172 19.2133 44.4967V60.2574C19.2133 64.746 23.0832 67.3888 27.4822 68.7102C32.6724 70.2938 37.6862 70.5613 44.0202 68.7102C48.152 67.4797 52.2892 65.099 52.2892 60.2574V53.9178H35.7459V51.8046H60.5529C65.3047 51.8046 67.1488 48.461 68.8219 43.4428C70.5804 38.2481 70.4949 33.3209 68.8219 26.6282C67.678 21.8721 65.3902 18.2663 60.5529 18.2663L54.3097 18.261ZM44.9824 58.1442C46.6554 58.1442 48.0612 59.5512 48.0612 61.3113C48.0612 63.0714 46.6554 64.4785 44.9824 64.4785C43.3093 64.4785 41.9035 63.0714 41.9035 61.3113C41.9035 59.5512 43.3147 58.1442 44.9824 58.1442Z" fill="url(#paint1_linear_521_9161)"/>
<defs>
<linearGradient id="paint0_linear_521_9161" x1="-0.976954" y1="1.90583" x2="37.5481" y2="35.2443" gradientUnits="userSpaceOnUse">
<stop stop-color="#5CA0D5"/>
<stop offset="1" stop-color="#316A99"/>
</linearGradient>
<linearGradient id="paint1_linear_521_9161" x1="52.2626" y1="55.2606" x2="38.5746" y2="36.099" gradientUnits="userSpaceOnUse">
<stop stop-color="#FFD43E"/>
<stop offset="1" stop-color="#FFE975"/>
</linearGradient>
</defs>
</svg>
