<svg width="59" height="70" viewBox="0 0 59 70" fill="none" xmlns="http://www.w3.org/2000/svg">
<path d="M49.8824 20.3837L44.6784 25.5982C53.1941 34.1309 53.1941 47.8781 44.6784 56.2528C36.1627 64.7855 22.443 64.7855 14.085 56.2528C5.56935 47.7201 5.56935 33.9729 14.085 25.5982L27.5682 12.088L29.4606 10.1919V0L9.11755 20.3837C-2.23669 31.7607 -2.23669 50.0903 9.11755 61.4673C20.4718 72.8442 38.7647 72.8442 49.8824 61.4673C61.2367 50.0113 61.2367 31.7607 49.8824 20.3837Z" fill="#EE4C2C"/>
<path d="M43.4954 15.328C43.4954 17.4224 41.8009 19.1203 39.7107 19.1203C37.6204 19.1203 35.9259 17.4224 35.9259 15.328C35.9259 13.2335 37.6204 11.5356 39.7107 11.5356C41.8009 11.5356 43.4954 13.2335 43.4954 15.328Z" fill="#EE4C2C"/>
</svg>
