<svg width="71" height="70" viewBox="0 0 71 70" fill="none" xmlns="http://www.w3.org/2000/svg">
<path d="M56.2317 36.0967C55.8895 35.7058 55.5288 35.314 55.1496 34.9213C55.414 34.6413 55.6707 34.3622 55.9196 34.0842C60.6008 28.8225 62.5783 23.5433 60.7467 20.3729C58.9908 17.3308 53.7671 16.4238 47.225 17.6954C46.5814 17.8218 45.9407 17.9638 45.3029 18.1213C45.1804 17.7013 45.0511 17.2832 44.915 16.8671C42.6954 10.1792 39.1108 5.83043 35.4475 5.83334C31.9358 5.83334 28.5408 9.90793 26.3738 16.2108C26.1599 16.8331 25.9625 17.4592 25.7817 18.0892C25.3558 17.9842 24.9281 17.887 24.4983 17.7975C17.5975 16.3829 12.0413 17.3163 10.2125 20.4925C8.45959 23.5346 10.2913 28.5133 14.6692 33.5358C15.1047 34.0317 15.552 34.5178 16.0108 34.9942C15.4683 35.5483 14.9579 36.1054 14.4796 36.6596C10.2067 41.6121 8.48001 46.5063 10.23 49.5367C12.0383 52.6692 17.5158 53.6929 24.1863 52.3804C24.7268 52.2735 25.2645 52.1529 25.7992 52.0188C25.9936 52.7013 26.2085 53.3789 26.4438 54.0517C28.6021 60.2263 31.9767 64.1667 35.4767 64.1667C39.0933 64.1667 42.7158 59.9288 44.9121 53.4946C45.0871 52.9871 45.2475 52.4592 45.405 51.9167C46.0953 52.0878 46.7904 52.2395 47.4904 52.3717C53.9158 53.5879 59.0171 52.6342 60.7642 49.6008C62.5696 46.4654 60.7058 41.2096 56.2317 36.0967ZM12.3708 21.735C13.4967 19.7808 18.0379 19.0167 23.9967 20.2417C24.3778 20.3195 24.7657 20.407 25.1604 20.5042C24.5779 23.0777 24.1668 25.6871 23.9296 28.315C21.7807 29.826 19.7319 31.4745 17.7958 33.25C17.37 32.8086 16.9549 32.3565 16.5504 31.8938C12.7967 27.5946 11.315 23.5696 12.3708 21.735ZM23.7079 38.4417C22.2204 37.3129 20.835 36.1579 19.5779 34.9971C20.8321 33.8421 22.2175 32.6929 23.705 31.5671C23.6506 32.7124 23.6243 33.8586 23.6263 35.0058C23.6263 36.1531 23.6535 37.2983 23.7079 38.4417ZM23.7079 49.9333C21.1798 50.4964 18.5697 50.5893 16.0079 50.2075C15.3056 50.1526 14.6221 49.9542 13.9995 49.6246C13.3769 49.295 12.8286 48.8412 12.3883 48.2913C11.3238 46.4538 12.7121 42.5221 16.3667 38.2871C16.8256 37.7563 17.3 37.239 17.79 36.7354C19.7269 38.5219 21.7799 40.1783 23.9354 41.6938C24.175 44.3549 24.59 46.9973 25.1779 49.6038C24.6918 49.7263 24.2008 49.8371 23.705 49.9363L23.7079 49.9333ZM44.4163 26.4863C43.4382 25.8699 42.4485 25.2739 41.4471 24.6983C40.4593 24.1306 39.4608 23.5832 38.4517 23.0563C40.1813 22.33 41.8817 21.7088 43.5238 21.2042C43.9099 22.9487 44.2078 24.7117 44.4163 26.4863ZM28.7333 17.0188C30.5883 11.6229 33.3358 8.32709 35.4533 8.32709C37.7079 8.32418 40.6363 11.8796 42.5525 17.6517C42.677 18.0289 42.7936 18.4081 42.9025 18.7892C40.387 19.5688 37.9258 20.5139 35.535 21.6183C33.1522 20.5004 30.6966 19.5444 28.185 18.7571C28.3542 18.1738 28.537 17.5943 28.7333 17.0188ZM27.5667 21.1721C29.279 21.711 30.9631 22.336 32.6125 23.0446C30.567 24.0985 28.5758 25.2467 26.6392 26.4892C26.8725 24.6283 27.1846 22.8463 27.5667 21.1721ZM26.6421 43.5138C27.6085 44.134 28.5895 44.73 29.585 45.3017C30.6 45.885 31.6276 46.445 32.6679 46.9817C31.0067 47.7148 29.3089 48.3622 27.5813 48.9213C27.1798 47.1362 26.8664 45.3325 26.6421 43.5167V43.5138ZM42.5554 52.6896C41.7795 55.1601 40.5555 57.4667 38.9446 59.4942C38.5469 60.0754 38.0342 60.5689 37.4382 60.9441C36.8422 61.3194 36.1756 61.5684 35.4796 61.6758C33.3533 61.6758 30.6438 58.5113 28.8004 53.2292C28.5826 52.605 28.3824 51.975 28.1996 51.3392C30.7231 50.5252 33.1885 49.541 35.5788 48.3933C37.9898 49.5067 40.4714 50.4606 43.0075 51.2488C42.8675 51.7329 42.7168 52.2132 42.5554 52.6896ZM43.6113 48.8279C41.9517 48.3146 40.2279 47.6817 38.4721 46.9438C39.4618 46.4246 40.4583 45.8753 41.4617 45.2958C42.4922 44.7008 43.4956 44.0913 44.4717 43.4671C44.2767 45.2676 43.9896 47.0569 43.6113 48.8279ZM44.915 34.9942C44.915 36.7656 44.8596 38.535 44.7488 40.3025C43.3108 41.2767 41.7942 42.2275 40.2163 43.1375C38.6413 44.0446 37.0867 44.8788 35.5583 45.6342C33.9503 44.8642 32.3733 44.0339 30.8275 43.1433C29.2914 42.2586 27.7903 41.3165 26.3242 40.3171C26.1881 38.5476 26.12 36.7763 26.12 35.0029C26.12 33.2315 26.1861 31.4611 26.3183 29.6917C29.2503 27.6899 32.3294 25.9125 35.5292 24.3746C37.1158 25.1465 38.6743 25.9739 40.2046 26.8567C41.7407 27.7395 43.2476 28.6718 44.7254 29.6538C44.8518 31.431 44.915 33.2111 44.915 34.9942ZM47.7033 20.1396C53.3092 19.0517 57.5325 19.7838 58.5913 21.6183C59.72 23.5725 58.1042 27.8833 54.0588 32.4275C53.8352 32.6783 53.6038 32.9301 53.3646 33.1829C51.3943 31.4018 49.305 29.7569 47.1113 28.2596C46.8903 25.6607 46.4957 23.0795 45.93 20.5333C46.5328 20.3856 47.1239 20.2543 47.7033 20.1396ZM47.3242 31.4708C48.8045 32.5513 50.2278 33.7079 51.5883 34.9358C50.2342 36.1835 48.8157 37.3596 47.3388 38.4592C47.3835 37.3042 47.4058 36.1492 47.4058 34.9942C47.4058 33.8197 47.3786 32.6453 47.3242 31.4708ZM58.6088 48.3554C57.5471 50.1958 53.4521 50.9629 47.9542 49.9246C47.3242 49.806 46.6786 49.664 46.0175 49.4988C46.5696 46.9197 46.9467 44.3062 47.1463 41.6763C49.3361 40.1538 51.4187 38.4825 53.3792 36.6742C53.7233 37.03 54.05 37.3839 54.3592 37.7358C56.1122 39.6421 57.4994 41.8548 58.4513 44.2633C58.7559 44.8984 58.9271 45.5892 58.9542 46.2931C58.9812 46.9969 58.8637 47.6988 58.6088 48.3554ZM32.8867 30.4442C31.9945 30.9593 31.2751 31.7275 30.8195 32.6515C30.3639 33.5754 30.1924 34.6138 30.3269 35.6352C30.4614 36.6566 30.8957 37.6152 31.5749 38.3898C32.2541 39.1644 33.1478 39.7201 34.1429 39.9869C35.138 40.2536 36.1898 40.2192 37.1654 39.8882C38.141 39.5572 38.9965 38.9443 39.6238 38.127C40.251 37.3098 40.6219 36.3249 40.6895 35.2969C40.757 34.2689 40.5183 33.244 40.0033 32.3517C39.6614 31.7591 39.206 31.2396 38.6633 30.8231C38.1205 30.4065 37.501 30.1009 36.8401 29.9237C36.1793 29.7466 35.49 29.7014 34.8116 29.7907C34.1333 29.88 33.4792 30.102 32.8867 30.4442Z" fill="#6563FF"/>
</svg>
