<svg width="71" height="70" viewBox="0 0 71 70" fill="none" xmlns="http://www.w3.org/2000/svg">
<path d="M56.6781 36.2633C56.3359 35.8725 55.9752 35.4807 55.596 35.0879C55.8605 34.8079 56.1171 34.5289 56.366 34.2508C61.0473 28.9892 63.0248 23.71 61.1931 20.5396C59.4373 17.4975 54.2135 16.5904 47.6715 17.8621C47.0278 17.9885 46.3871 18.1304 45.7494 18.2879C45.6269 17.8679 45.4976 17.4499 45.3615 17.0338C43.1419 10.3458 39.5573 5.99708 35.894 6C32.3823 6 28.9873 10.0746 26.8202 16.3775C26.6063 16.9997 26.409 17.6258 26.2281 18.2558C25.8023 18.1508 25.3745 18.0536 24.9448 17.9642C18.0439 16.5496 12.4877 17.4829 10.6589 20.6592C8.90603 23.7013 10.7377 28.68 15.1156 33.7025C15.5512 34.1983 15.9984 34.6844 16.4573 35.1608C15.9148 35.715 15.4044 36.2721 14.926 36.8263C10.6531 41.7788 8.92645 46.6729 10.6764 49.7033C12.4848 52.8358 17.9623 53.8596 24.6327 52.5471C25.1733 52.4401 25.7109 52.3196 26.2456 52.1854C26.4401 52.8679 26.6549 53.5456 26.8902 54.2183C29.0485 60.3929 32.4231 64.3333 35.9231 64.3333C39.5398 64.3333 43.1623 60.0954 45.3585 53.6612C45.5335 53.1537 45.694 52.6258 45.8515 52.0833C46.5417 52.2544 47.2369 52.4061 47.9369 52.5383C54.3623 53.7546 59.4635 52.8008 61.2106 49.7675C63.016 46.6321 61.1523 41.3763 56.6781 36.2633ZM12.8173 21.9017C13.9431 19.9475 18.4844 19.1833 24.4431 20.4083C24.8242 20.4861 25.2121 20.5736 25.6069 20.6708C25.0244 23.2444 24.6132 25.8537 24.376 28.4817C22.2272 29.9927 20.1783 31.6411 18.2423 33.4167C17.8164 32.9753 17.4013 32.5232 16.9969 32.0604C13.2431 27.7613 11.7615 23.7362 12.8173 21.9017ZM24.1544 38.6083C22.6669 37.4796 21.2814 36.3246 20.0244 35.1637C21.2785 34.0088 22.6639 32.8596 24.1514 31.7338C24.097 32.879 24.0708 34.0253 24.0727 35.1725C24.0727 36.3197 24.0999 37.465 24.1544 38.6083ZM24.1544 50.1C21.6263 50.663 19.0161 50.756 16.4544 50.3742C15.7521 50.3192 15.0685 50.1209 14.4459 49.7913C13.8234 49.4617 13.275 49.0079 12.8348 48.4579C11.7702 46.6204 13.1585 42.6888 16.8131 38.4538C17.272 37.9229 17.7464 37.4057 18.2364 36.9021C20.1734 38.6885 22.2263 40.3449 24.3819 41.8604C24.6214 44.5216 25.0365 47.164 25.6244 49.7704C25.1383 49.8929 24.6473 50.0037 24.1514 50.1029L24.1544 50.1ZM44.8627 26.6529C43.8846 26.0365 42.8949 25.4406 41.8935 24.865C40.9058 24.2972 39.9073 23.7499 38.8981 23.2229C40.6277 22.4967 42.3281 21.8754 43.9702 21.3708C44.3563 23.1154 44.6542 24.8783 44.8627 26.6529ZM29.1798 17.1854C31.0348 11.7896 33.7823 8.49375 35.8998 8.49375C38.1544 8.49083 41.0827 12.0463 42.999 17.8183C43.1234 18.1956 43.2401 18.5747 43.3489 18.9558C40.8334 19.7354 38.3722 20.6805 35.9815 21.785C33.5986 20.667 31.143 19.7111 28.6314 18.9238C28.8006 18.3404 28.9834 17.761 29.1798 17.1854ZM28.0131 21.3387C29.7255 21.8777 31.4096 22.5027 33.059 23.2113C31.0134 24.2651 29.0223 25.4133 27.0856 26.6558C27.3189 24.795 27.631 23.0129 28.0131 21.3387ZM27.0885 43.6804C28.0549 44.3007 29.0359 44.8967 30.0315 45.4683C31.0464 46.0517 32.0741 46.6117 33.1144 47.1483C31.4531 47.8815 29.7553 48.5288 28.0277 49.0879C27.6263 47.3029 27.3129 45.4992 27.0885 43.6833V43.6804ZM43.0019 52.8563C42.2259 55.3268 41.0019 57.6334 39.391 59.6608C38.9933 60.242 38.4806 60.7355 37.8846 61.1108C37.2887 61.486 36.6221 61.7351 35.926 61.8425C33.7998 61.8425 31.0902 58.6779 29.2469 53.3958C29.0291 52.7717 28.8288 52.1417 28.646 51.5058C31.1695 50.6918 33.6349 49.7076 36.0252 48.56C38.4363 49.6734 40.9179 50.6272 43.454 51.4154C43.3139 51.8996 43.1633 52.3799 43.0019 52.8563ZM44.0577 48.9946C42.3981 48.4812 40.6744 47.8483 38.9185 47.1104C39.9083 46.5912 40.9048 46.0419 41.9081 45.4625C42.9387 44.8675 43.942 44.2579 44.9181 43.6338C44.7232 45.4342 44.436 47.2235 44.0577 48.9946ZM45.3615 35.1608C45.3615 36.9322 45.306 38.7017 45.1952 40.4692C43.7573 41.4433 42.2406 42.3942 40.6627 43.3042C39.0877 44.2113 37.5331 45.0454 36.0048 45.8008C34.3967 45.0308 32.8198 44.2006 31.2739 43.31C29.7378 42.4253 28.2367 41.4832 26.7706 40.4837C26.6345 38.7143 26.5665 36.9429 26.5665 35.1696C26.5665 33.3982 26.6326 31.6278 26.7648 29.8583C29.6968 27.8566 32.7758 26.0791 35.9756 24.5413C37.5623 25.3132 39.1208 26.1406 40.651 27.0233C42.1871 27.9061 43.6941 28.8385 45.1719 29.8204C45.2983 31.5976 45.3615 33.3778 45.3615 35.1608ZM48.1498 20.3063C53.7556 19.2183 57.979 19.9504 59.0377 21.785C60.1665 23.7392 58.5506 28.05 54.5052 32.5942C54.2816 32.845 54.0502 33.0968 53.811 33.3496C51.8407 31.5684 49.7515 29.9235 47.5577 28.4263C47.3368 25.8274 46.9421 23.2462 46.3764 20.7C46.9792 20.5522 47.5703 20.421 48.1498 20.3063ZM47.7706 31.6375C49.251 32.718 50.6743 33.8745 52.0348 35.1025C50.6806 36.3502 49.2621 37.5262 47.7852 38.6258C47.8299 37.4708 47.8523 36.3158 47.8523 35.1608C47.8523 33.9864 47.8251 32.8119 47.7706 31.6375ZM59.0552 48.5221C57.9935 50.3625 53.8985 51.1296 48.4006 50.0913C47.7706 49.9726 47.1251 49.8307 46.464 49.6654C47.016 47.0863 47.3931 44.4729 47.5927 41.8429C49.7826 40.3204 51.8651 38.6491 53.8256 36.8408C54.1698 37.1967 54.4964 37.5506 54.8056 37.9025C56.5587 39.8088 57.9458 42.0215 58.8977 44.43C59.2023 45.0651 59.3735 45.7559 59.4006 46.4597C59.4277 47.1636 59.3101 47.8655 59.0552 48.5221ZM33.3331 30.6108C32.441 31.126 31.7216 31.8941 31.2659 32.8181C30.8103 33.7421 30.6389 34.7804 30.7733 35.8018C30.9078 36.8232 31.3421 37.7818 32.0213 38.5564C32.7006 39.331 33.5942 39.8868 34.5893 40.1535C35.5844 40.4202 36.6363 40.3859 37.6118 40.0549C38.5874 39.7238 39.4429 39.1109 40.0702 38.2937C40.6975 37.4765 41.0683 36.4916 41.1359 35.4636C41.2035 34.4356 40.9647 33.4106 40.4498 32.5183C40.1078 31.9257 39.6524 31.4063 39.1097 30.9897C38.5669 30.5731 37.9475 30.2675 37.2866 30.0904C36.6257 29.9133 35.9364 29.868 35.2581 29.9573C34.5797 30.0466 33.9256 30.2687 33.3331 30.6108Z" fill="#6563FF"/>
</svg>
