<svg width="71" height="70" viewBox="0 0 71 70" fill="none" xmlns="http://www.w3.org/2000/svg">
<path d="M56.2316 36.0967C55.8894 35.7059 55.5287 35.3141 55.1495 34.9213C55.4139 34.6413 55.6706 34.3623 55.9195 34.0842C60.6007 28.8225 62.5783 23.5434 60.7466 20.373C58.9908 17.3309 53.767 16.4238 47.2249 17.6955C46.5813 17.8218 45.9406 17.9638 45.3028 18.1213C45.1803 17.7013 45.051 17.2832 44.9149 16.8671C42.6953 10.1792 39.1108 5.83046 35.4474 5.83338C31.9358 5.83338 28.5408 9.90796 26.3737 16.2109C26.1598 16.8331 25.9624 17.4592 25.7816 18.0892C25.3558 17.9842 24.928 17.887 24.4982 17.7975C17.5974 16.383 12.0412 17.3163 10.2124 20.4925C8.4595 23.5346 10.2912 28.5134 14.6691 33.5359C15.1046 34.0317 15.5519 34.5178 16.0107 34.9942C15.4682 35.5484 14.9578 36.1055 14.4795 36.6596C10.2066 41.6121 8.47992 46.5063 10.2299 49.5367C12.0382 52.6692 17.5158 53.693 24.1862 52.3805C24.7267 52.2735 25.2644 52.153 25.7991 52.0188C25.9935 52.7013 26.2084 53.3789 26.4437 54.0517C28.602 60.2263 31.9766 64.1667 35.4766 64.1667C39.0932 64.1667 42.7158 59.9288 44.912 53.4946C45.087 52.9871 45.2474 52.4592 45.4049 51.9167C46.0952 52.0878 46.7903 52.2395 47.4903 52.3717C53.9158 53.588 59.017 52.6342 60.7641 49.6009C62.5695 46.4655 60.7057 41.2096 56.2316 36.0967ZM12.3708 21.735C13.4966 19.7809 18.0378 19.0167 23.9966 20.2417C24.3777 20.3195 24.7656 20.407 25.1603 20.5042C24.5779 23.0778 24.1667 25.6871 23.9295 28.315C21.7807 29.8261 19.7318 31.4745 17.7957 33.25C17.3699 32.8087 16.9548 32.3566 16.5503 31.8938C12.7966 27.5946 11.3149 23.5696 12.3708 21.735ZM23.7078 38.4417C22.2203 37.313 20.8349 36.158 19.5778 34.9971C20.832 33.8421 22.2174 32.693 23.7049 31.5671C23.6505 32.7124 23.6242 33.8587 23.6262 35.0059C23.6262 36.1531 23.6534 37.2984 23.7078 38.4417ZM23.7078 49.9334C21.1797 50.4964 18.5696 50.5893 16.0078 50.2075C15.3055 50.1526 14.622 49.9542 13.9994 49.6246C13.3768 49.295 12.8285 48.8412 12.3883 48.2913C11.3237 46.4538 12.712 42.5221 16.3666 38.2871C16.8255 37.7563 17.2999 37.2391 17.7899 36.7355C19.7268 38.5219 21.7798 40.1783 23.9353 41.6938C24.1749 44.3549 24.5899 46.9974 25.1778 49.6038C24.6917 49.7263 24.2007 49.8371 23.7049 49.9363L23.7078 49.9334ZM44.4162 26.4863C43.4381 25.8699 42.4484 25.2739 41.447 24.6984C40.4592 24.1306 39.4608 23.5832 38.4516 23.0563C40.1812 22.33 41.8816 21.7088 43.5237 21.2042C43.9098 22.9488 44.2077 24.7117 44.4162 26.4863ZM28.7333 17.0188C30.5883 11.623 33.3358 8.32713 35.4533 8.32713C37.7078 8.32421 40.6362 11.8796 42.5524 17.6517C42.6769 18.0289 42.7935 18.4081 42.9024 18.7892C40.3869 19.5688 37.9257 20.5139 35.5349 21.6184C33.1521 20.5004 30.6965 19.5445 28.1849 18.7571C28.3541 18.1738 28.5369 17.5943 28.7333 17.0188ZM27.5666 21.1721C29.2789 21.7111 30.963 22.336 32.6124 23.0446C30.5669 24.0985 28.5758 25.2467 26.6391 26.4892C26.8724 24.6284 27.1845 22.8463 27.5666 21.1721ZM26.642 43.5138C27.6084 44.1341 28.5894 44.73 29.5849 45.3017C30.5999 45.885 31.6276 46.445 32.6678 46.9817C31.0066 47.7148 29.3088 48.3622 27.5812 48.9213C27.1798 47.1362 26.8663 45.3325 26.642 43.5167V43.5138ZM42.5553 52.6896C41.7794 55.1601 40.5554 57.4667 38.9445 59.4942C38.5468 60.0754 38.0341 60.5689 37.4381 60.9441C36.8421 61.3194 36.1755 61.5684 35.4795 61.6759C33.3533 61.6759 30.6437 58.5113 28.8003 53.2292C28.5826 52.605 28.3823 51.975 28.1995 51.3392C30.723 50.5252 33.1884 49.541 35.5787 48.3934C37.9897 49.5068 40.4713 50.4606 43.0074 51.2488C42.8674 51.733 42.7167 52.2132 42.5553 52.6896ZM43.6112 48.828C41.9516 48.3146 40.2278 47.6817 38.472 46.9438C39.4617 46.4246 40.4583 45.8753 41.4616 45.2959C42.4921 44.7009 43.4955 44.0913 44.4716 43.4671C44.2767 45.2676 43.9895 47.0569 43.6112 48.828ZM44.9149 34.9942C44.9149 36.7656 44.8595 38.535 44.7487 40.3025C43.3107 41.2767 41.7941 42.2275 40.2162 43.1375C38.6412 44.0446 37.0866 44.8788 35.5583 45.6342C33.9502 44.8642 32.3732 44.0339 30.8274 43.1434C29.2913 42.2587 27.7902 41.3166 26.3241 40.3171C26.188 38.5477 26.1199 36.7763 26.1199 35.003C26.1199 33.2316 26.186 31.4612 26.3183 29.6917C29.2503 27.6899 32.3293 25.9125 35.5291 24.3746C37.1158 25.1466 38.6742 25.9739 40.2045 26.8567C41.7406 27.7395 43.2476 28.6718 44.7253 29.6538C44.8517 31.431 44.9149 33.2112 44.9149 34.9942ZM47.7033 20.1396C53.3091 19.0517 57.5324 19.7838 58.5912 21.6184C59.7199 23.5725 58.1041 27.8834 54.0587 32.4275C53.8351 32.6784 53.6037 32.9302 53.3645 33.183C51.3942 31.4018 49.3049 29.7569 47.1112 28.2596C46.8902 25.6607 46.4956 23.0795 45.9299 20.5334C46.5327 20.3856 47.1238 20.2543 47.7033 20.1396ZM47.3241 31.4709C48.8045 32.5513 50.2278 33.7079 51.5883 34.9359C50.2341 36.1835 48.8156 37.3596 47.3387 38.4592C47.3834 37.3042 47.4058 36.1492 47.4058 34.9942C47.4058 33.8198 47.3785 32.6453 47.3241 31.4709ZM58.6087 48.3555C57.547 50.1959 53.452 50.963 47.9541 49.9246C47.3241 49.806 46.6785 49.6641 46.0174 49.4988C46.5695 46.9197 46.9466 44.3062 47.1462 41.6763C49.336 40.1538 51.4186 38.4825 53.3791 36.6742C53.7232 37.03 54.0499 37.3839 54.3591 37.7359C56.1122 39.6421 57.4993 41.8548 58.4512 44.2634C58.7558 44.8984 58.927 45.5892 58.9541 46.2931C58.9812 46.9969 58.8636 47.6989 58.6087 48.3555ZM32.8866 30.4442C31.9944 30.9594 31.275 31.7275 30.8194 32.6515C30.3638 33.5755 30.1924 34.6138 30.3268 35.6352C30.4613 36.6566 30.8956 37.6152 31.5748 38.3898C32.254 39.1644 33.1477 39.7202 34.1428 39.9869C35.1379 40.2536 36.1897 40.2193 37.1653 39.8882C38.1409 39.5572 38.9964 38.9443 39.6237 38.1271C40.2509 37.3098 40.6218 36.325 40.6894 35.297C40.7569 34.269 40.5182 33.244 40.0033 32.3517C39.6613 31.7591 39.2059 31.2397 38.6632 30.8231C38.1204 30.4065 37.5009 30.1009 36.84 29.9238C36.1792 29.7466 35.4899 29.7014 34.8115 29.7907C34.1332 29.88 33.4791 30.1021 32.8866 30.4442Z" fill="#ABABAB"/>
</svg>
