<svg width="60" height="60" viewBox="0 0 60 60" fill="none" xmlns="http://www.w3.org/2000/svg">
<path d="M13.5938 26.25H46.9688L54.1406 40.3594H5.85938L13.5938 26.25Z" fill="#2F58CD"/>
<path d="M54.1406 41.2969H5.85937C5.53125 41.2969 5.20312 41.1094 5.0625 40.8281C4.875 40.5469 4.875 40.1719 5.0625 39.8906L12.7969 25.7813C12.9844 25.5 13.2656 25.3125 13.6406 25.3125H47.0156C47.3906 25.3125 47.6719 25.5 47.8594 25.8281L55.0312 39.9375C55.1719 40.2188 55.1719 40.5938 54.9844 40.875C54.75 41.1562 54.4688 41.2969 54.1406 41.2969ZM7.45312 39.4219H52.6406L46.4062 27.1875H14.1562L7.45312 39.4219Z" fill="#3A1078"/>
<path d="M26.1562 28.6875C25.6406 28.6875 25.1719 29.0156 25.1719 29.4375V37.2188C25.1719 37.6406 25.5937 37.9688 26.1562 37.9688H34.3125C34.8281 37.9688 35.2969 37.6406 35.2969 37.2188V29.625C35.2969 29.1094 34.7344 28.6875 34.0781 28.6875H26.1562Z" fill="#3A1078"/>
<path d="M32.0156 35.2031C32.0156 35.7188 31.6406 36.1406 31.2187 36.1406H28.3125C27.8906 36.1406 27.5156 35.7188 27.5156 35.2031C27.5156 34.6875 27.8906 34.2656 28.3125 34.2656H31.2187C31.6406 34.2656 32.0156 34.6875 32.0156 35.2031ZM32.9062 31.4531C32.9062 31.9688 32.4844 32.3906 31.9687 32.3906H28.5C27.9844 32.3906 27.5625 31.9688 27.5625 31.4531C27.5625 30.9375 27.9844 30.5156 28.5 30.5156H31.9687C32.4844 30.5156 32.9062 30.9375 32.9062 31.4531Z" fill="white"/>
<path d="M22.3594 58.125H10.0781V55.4531C10.0781 52.4063 12.5625 49.9219 15.6094 49.9219H16.875C19.9219 49.9219 22.4062 52.4063 22.4062 55.4531L22.3594 58.125Z" fill="#2F58CD"/>
<path d="M22.4062 59.0625H10.0781C9.5625 59.0625 9.14062 58.6406 9.14062 58.125V55.4531C9.14062 51.8906 12.0469 48.9844 15.6094 48.9844H16.875C20.4375 48.9844 23.3438 51.8906 23.3438 55.4531V58.125C23.3438 58.6406 22.9219 59.0625 22.4062 59.0625ZM11.0156 57.1875H21.4688V55.4531C21.4688 52.9219 19.4062 50.8594 16.875 50.8594H15.6094C13.0781 50.8594 11.0156 52.9219 11.0156 55.4531V57.1875Z" fill="#3A1078"/>
<path d="M19.4531 58.6406C18.9375 58.6406 18.5156 58.2187 18.5156 57.7031V56.3906C18.5156 55.875 18.9375 55.4531 19.4531 55.4531C19.9688 55.4531 20.3906 55.875 20.3906 56.3906V57.7031C20.3906 58.2187 19.9688 58.6406 19.4531 58.6406ZM13.0312 58.6406C12.5156 58.6406 12.0938 58.2187 12.0938 57.7031V56.3906C12.0938 55.875 12.5156 55.4531 13.0312 55.4531C13.5469 55.4531 13.9687 55.875 13.9687 56.3906V57.7031C13.9687 58.2187 13.5469 58.6406 13.0312 58.6406Z" fill="#3A1078"/>
<path d="M16.2188 51.0938C18.3675 51.0938 20.1094 49.3309 20.1094 47.1563C20.1094 44.9816 18.3675 43.2188 16.2188 43.2188C14.07 43.2188 12.3281 44.9816 12.3281 47.1563C12.3281 49.3309 14.07 51.0938 16.2188 51.0938Z" fill="#FCFCFC"/>
<path d="M16.2188 52.0312C13.5469 52.0312 11.3906 49.8281 11.3906 47.1562C11.3906 44.4844 13.5937 42.3281 16.2188 42.3281C18.8438 42.3281 21.0469 44.5312 21.0469 47.2031C21.0469 49.875 18.8906 52.0312 16.2188 52.0312ZM16.2188 44.2031C14.5781 44.2031 13.2656 45.5625 13.2656 47.2031C13.2656 48.8437 14.5781 50.2031 16.2188 50.2031C17.8594 50.2031 19.1719 48.8437 19.1719 47.2031C19.1719 45.5625 17.8594 44.2031 16.2188 44.2031Z" fill="#3A1078"/>
<path d="M50.3438 58.125H38.0625V55.4531C38.0625 52.4063 40.5469 49.9219 43.5938 49.9219H44.8594C47.9063 49.9219 50.3906 52.4063 50.3906 55.4531L50.3438 58.125Z" fill="#2F58CD"/>
<path d="M50.3906 59.0625H38.0625C37.5469 59.0625 37.125 58.6406 37.125 58.125V55.4531C37.125 51.8906 40.0313 48.9844 43.5938 48.9844H44.8594C48.4219 48.9844 51.3281 51.8906 51.3281 55.4531V58.125C51.3281 58.6406 50.9063 59.0625 50.3906 59.0625ZM39 57.1875H49.4531V55.4531C49.4531 52.9219 47.3906 50.8594 44.8594 50.8594H43.5938C41.0625 50.8594 39 52.9219 39 55.4531V57.1875Z" fill="#3A1078"/>
<path d="M47.4375 58.6406C46.9219 58.6406 46.5 58.2187 46.5 57.7031V56.3906C46.5 55.875 46.9219 55.4531 47.4375 55.4531C47.9531 55.4531 48.375 55.875 48.375 56.3906V57.7031C48.375 58.2187 47.9531 58.6406 47.4375 58.6406ZM41.0156 58.6406C40.5 58.6406 40.0781 58.2187 40.0781 57.7031V56.3906C40.0781 55.875 40.5 55.4531 41.0156 55.4531C41.5312 55.4531 41.9531 55.875 41.9531 56.3906V57.7031C41.9531 58.2187 41.5312 58.6406 41.0156 58.6406Z" fill="#3A1078"/>
<path d="M44.2031 51.0938C46.3519 51.0938 48.0937 49.3309 48.0937 47.1563C48.0937 44.9816 46.3519 43.2188 44.2031 43.2188C42.0544 43.2188 40.3125 44.9816 40.3125 47.1563C40.3125 49.3309 42.0544 51.0938 44.2031 51.0938Z" fill="#FCFCFC"/>
<path d="M44.2031 52.0313C41.5313 52.0313 39.375 49.8281 39.375 47.1563C39.375 44.4844 41.5313 42.2812 44.2031 42.2812C46.875 42.2812 49.0312 44.4844 49.0312 47.1563C49.0312 49.8281 46.875 52.0313 44.2031 52.0313ZM44.2031 44.2031C42.5625 44.2031 41.25 45.5625 41.25 47.2031C41.25 48.8438 42.5625 50.2031 44.2031 50.2031C45.8438 50.2031 47.1562 48.8438 47.1562 47.2031C47.1562 45.5625 45.8438 44.2031 44.2031 44.2031Z" fill="#3A1078"/>
<path d="M33.4219 12.5625C32.6719 13.1719 31.7812 13.5469 30.75 13.6406H30.7969H29.9063H29.9531C28.875 13.5469 27.8906 13.1719 27.0938 12.5625C24.3281 13.5 22.3125 16.0781 22.3125 19.1719V22.5H38.1563V19.1719C38.2031 16.125 36.1875 13.5469 33.4219 12.5625Z" fill="#2F58CD"/>
<path d="M38.1563 23.4844H22.3125C21.7969 23.4844 21.375 23.0625 21.375 22.5469V19.2188C21.375 15.8438 23.5312 12.8438 26.7656 11.7188C27.0469 11.625 27.375 11.6719 27.6563 11.8594C28.3125 12.375 29.1094 12.7031 29.9531 12.75H30.7031C31.5 12.6563 32.25 12.375 32.8125 11.8594C33.0469 11.6719 33.4219 11.5781 33.7031 11.6719C36.9844 12.7969 39.1406 15.7969 39.0938 19.1719V22.5C39.0938 23.0625 38.6719 23.4844 38.1563 23.4844ZM23.25 21.6094H37.2188V19.2188C37.2656 16.8281 35.7656 14.6719 33.5625 13.6875C32.8125 14.2031 31.9688 14.5313 30.9844 14.625C30.9375 14.625 30.8438 14.625 30.7969 14.625H29.9063C29.8594 14.625 29.8125 14.625 29.7656 14.625C28.7813 14.5313 27.7969 14.2031 26.9531 13.6406C24.75 14.5781 23.25 16.7813 23.25 19.1719V21.6094Z" fill="#3A1078"/>
<path d="M34.3594 22.9688C33.8438 22.9688 33.4219 22.5469 33.4219 22.0312V20.3438C33.4219 19.8281 33.8438 19.4063 34.3594 19.4063C34.875 19.4063 35.2969 19.8281 35.2969 20.3438V22.0312C35.2969 22.5469 34.875 22.9688 34.3594 22.9688ZM26.1094 22.9688C25.5938 22.9688 25.1719 22.5469 25.1719 22.0312V20.3438C25.1719 19.8281 25.5938 19.4063 26.1094 19.4063C26.625 19.4063 27.0469 19.8281 27.0469 20.3438V22.0312C27.0469 22.5469 26.625 22.9688 26.1094 22.9688ZM28.4531 19.0781L30.3281 20.8125L32.0156 19.1719L30.7969 13.6875H30.75C30.6094 13.6875 30.4219 13.7344 30.2344 13.7344C30.1406 13.7344 30 13.7344 29.9531 13.7344H29.9062L28.4531 19.0781Z" fill="#FCFCFC"/>
<path d="M38.1563 23.4844H22.3125C21.7969 23.4844 21.375 23.0625 21.375 22.5469V19.2188C21.375 15.8438 23.5312 12.8438 26.7656 11.7188C27.0469 11.625 27.375 11.6719 27.6563 11.8594C28.3125 12.375 29.1094 12.7031 29.9531 12.75H30.7031C31.5 12.6563 32.25 12.375 32.8125 11.8594C33.0469 11.6719 33.4219 11.5781 33.7031 11.6719C36.9844 12.7969 39.1406 15.7969 39.0938 19.1719V22.5C39.0938 23.0625 38.6719 23.4844 38.1563 23.4844ZM23.25 21.6094H37.2188V19.2188C37.2656 16.8281 35.7656 14.6719 33.5625 13.6875C32.8125 14.2031 31.9688 14.5313 30.9844 14.625C30.9375 14.625 30.8438 14.625 30.7969 14.625H29.9063C29.8594 14.625 29.8125 14.625 29.7656 14.625C28.7813 14.5313 27.7969 14.2031 26.9531 13.6406C24.75 14.5781 23.25 16.7813 23.25 19.1719V21.6094Z" fill="#3A1078"/>
<path d="M30.2344 10.875C32.7973 10.875 34.875 8.86028 34.875 6.375C34.875 3.88972 32.7973 1.875 30.2344 1.875C27.6714 1.875 25.5938 3.88972 25.5938 6.375C25.5938 8.86028 27.6714 10.875 30.2344 10.875Z" fill="#FCFCFC"/>
<path d="M30.2344 11.8125C27.1406 11.8125 24.6562 9.375 24.6562 6.375C24.6562 3.375 27.1406 0.9375 30.2344 0.9375C33.3281 0.9375 35.8125 3.375 35.8125 6.375C35.8125 9.375 33.3281 11.8125 30.2344 11.8125ZM30.2344 2.8125C28.2188 2.8125 26.5313 4.40625 26.5313 6.375C26.5313 8.34375 28.1719 9.9375 30.2344 9.9375C32.2969 9.9375 33.9375 8.34375 33.9375 6.375C33.9375 4.40625 32.25 2.8125 30.2344 2.8125Z" fill="#3A1078"/>
</svg>
