<svg width="60" height="60" viewBox="0 0 60 60" fill="none" xmlns="http://www.w3.org/2000/svg">
<path d="M13.75 8.75H46.25V51.25H13.75V8.75Z" fill="white"/>
<path d="M17.5 8.75V20C17.5 27.625 20.529 34.9376 25.9207 40.3293C31.3124 45.721 38.625 48.75 46.25 48.75C46.375 48.75 46.25 50.25 46.25 8.75H17.5Z" fill="white"/>
<path d="M46.25 3.75V8.75H13.75V3.75C13.75 3.08696 14.0134 2.45107 14.4822 1.98223C14.9511 1.51339 15.587 1.25 16.25 1.25H43.75C44.413 1.25 45.0489 1.51339 45.5178 1.98223C45.9866 2.45107 46.25 3.08696 46.25 3.75Z" fill="#2F58CD"/>
<path d="M46.25 3.75V6.25H22.5C21.1739 6.25 19.9021 5.72322 18.9645 4.78553C18.0268 3.84785 17.5 2.57608 17.5 1.25H43.75C44.413 1.25 45.0489 1.51339 45.5178 1.98223C45.9866 2.45107 46.25 3.08696 46.25 3.75Z" fill="#2F58CD"/>
<path d="M46.25 51.25V56.25C46.25 56.913 45.9866 57.5489 45.5178 58.0178C45.0489 58.4866 44.413 58.75 43.75 58.75H16.25C15.587 58.75 14.9511 58.4866 14.4822 58.0178C14.0134 57.5489 13.75 56.913 13.75 56.25V51.25H46.25Z" fill="#2F58CD"/>
<path d="M46.25 51.25V56.25H22.5C21.1739 56.25 19.9021 55.7232 18.9645 54.7855C18.0268 53.8479 17.5 52.5761 17.5 51.25H46.25Z" fill="#2F58CD"/>
<path d="M33.75 6.25H26.25C25.9184 6.25 25.6005 6.1183 25.3661 5.88388C25.1316 5.64946 25 5.33152 25 5C25 4.66848 25.1316 4.35054 25.3661 4.11612C25.6005 3.8817 25.9184 3.75 26.25 3.75H33.75C34.0815 3.75 34.3994 3.8817 34.6338 4.11612C34.8683 4.35054 35 4.66848 35 5C35 5.33152 34.8683 5.64946 34.6338 5.88388C34.3994 6.1183 34.0815 6.25 33.75 6.25ZM31.25 56.25H28.75C28.4184 56.25 28.1005 56.1183 27.8661 55.8839C27.6316 55.6495 27.5 55.3315 27.5 55C27.5 54.6685 27.6316 54.3505 27.8661 54.1161C28.1005 53.8817 28.4184 53.75 28.75 53.75H31.25C31.5815 53.75 31.8994 53.8817 32.1338 54.1161C32.3683 54.3505 32.5 54.6685 32.5 55C32.5 55.3315 32.3683 55.6495 32.1338 55.8839C31.8994 56.1183 31.5815 56.25 31.25 56.25ZM21.25 6.25C20.9631 6.24663 20.6861 6.14469 20.4655 5.96129C20.2449 5.77789 20.0941 5.52419 20.0384 5.24277C19.9827 4.96136 20.0255 4.66934 20.1596 4.41574C20.2938 4.16214 20.511 3.96239 20.775 3.85C20.9461 3.77715 21.1313 3.74339 21.3171 3.75119C21.5029 3.75898 21.6846 3.80814 21.849 3.89508C22.0134 3.98201 22.1563 4.10454 22.2674 4.25371C22.3784 4.40289 22.4548 4.57497 22.4909 4.7574C22.527 4.93983 22.5219 5.12802 22.4761 5.30824C22.4302 5.48847 22.3447 5.6562 22.2259 5.7992C22.107 5.94221 21.9577 6.05688 21.7888 6.13487C21.62 6.21285 21.4359 6.25219 21.25 6.25Z" fill="white"/>
<path d="M41.25 31.875V28.125L38.3625 27.4C38.1995 26.8963 37.9946 26.4071 37.75 25.9375L39.275 23.375L36.625 20.725L34.0625 22.25C33.5929 22.0054 33.1037 21.8005 32.6 21.6375L31.875 18.75H28.125L27.4 21.6375C26.8963 21.8005 26.4071 22.0054 25.9375 22.25L23.375 20.725L20.725 23.375L22.25 25.9375C22.0054 26.4071 21.8005 26.8963 21.6375 27.4L18.75 28.125V31.875L21.6375 32.6C21.8005 33.1037 22.0054 33.5929 22.25 34.0625L20.725 36.625L23.375 39.275L25.9375 37.75C26.4071 37.9946 26.8963 38.1995 27.4 38.3625L28.125 41.25H31.875L32.6 38.3625C33.1037 38.1995 33.5929 37.9946 34.0625 37.75L36.625 39.275L39.275 36.625L37.75 34.0625C37.9946 33.5929 38.1995 33.1037 38.3625 32.6L41.25 31.875ZM30 33.75C29.2583 33.75 28.5333 33.5301 27.9166 33.118C27.2999 32.706 26.8193 32.1203 26.5355 31.4351C26.2516 30.7498 26.1774 29.9958 26.3221 29.2684C26.4667 28.541 26.8239 27.8728 27.3483 27.3483C27.8728 26.8239 28.541 26.4667 29.2684 26.3221C29.9958 26.1774 30.7498 26.2516 31.4351 26.5355C32.1203 26.8193 32.706 27.2999 33.118 27.9166C33.5301 28.5333 33.75 29.2583 33.75 30C33.75 30.9946 33.3549 31.9484 32.6517 32.6517C31.9484 33.3549 30.9946 33.75 30 33.75Z" fill="#2F58CD"/>
<path d="M41.2499 31.875V28.125L38.3624 27.4C38.1994 26.8963 37.9945 26.4071 37.7499 25.9375L39.2749 23.375L36.6249 20.725L34.0624 22.25C33.5929 22.0054 33.1037 21.8005 32.5999 21.6375L31.8749 18.75H28.1249L27.3999 21.6375C25.3499 22.2875 26.5874 22.6375 24.3624 21.3125C23.3053 22.9193 22.6778 24.7702 22.5397 26.6886C22.4017 28.6069 22.7578 30.5287 23.5741 32.2702C24.3903 34.0117 25.6394 35.5149 27.202 36.6362C28.7647 37.7575 30.5887 38.4594 32.4999 38.675C32.6374 38.0875 32.3124 38.675 34.0374 37.75L36.5999 39.275L39.2499 36.625L37.7499 34.0625C37.9945 33.5929 38.1994 33.1037 38.3624 32.6L41.2499 31.875ZM29.9999 33.75C29.2582 33.75 28.5332 33.5301 27.9165 33.118C27.2999 32.706 26.8192 32.1203 26.5354 31.4351C26.2516 30.7498 26.1773 29.9958 26.322 29.2684C26.4667 28.541 26.8238 27.8728 27.3483 27.3483C27.8727 26.8239 28.5409 26.4667 29.2683 26.3221C29.9958 26.1774 30.7498 26.2516 31.435 26.5355C32.1202 26.8193 32.7059 27.2999 33.1179 27.9166C33.53 28.5333 33.7499 29.2583 33.7499 30C33.7499 30.9946 33.3548 31.9484 32.6516 32.6517C31.9483 33.3549 30.9945 33.75 29.9999 33.75Z" fill="#2F58CD"/>
<path d="M43.75 0H16.25C15.2554 0 14.3016 0.395088 13.5983 1.09835C12.8951 1.80161 12.5 2.75544 12.5 3.75V56.25C12.5 57.2446 12.8951 58.1984 13.5983 58.9016C14.3016 59.6049 15.2554 60 16.25 60H43.75C44.7446 60 45.6984 59.6049 46.4016 58.9016C47.1049 58.1984 47.5 57.2446 47.5 56.25V3.75C47.5 2.75544 47.1049 1.80161 46.4016 1.09835C45.6984 0.395088 44.7446 0 43.75 0ZM15 10H45V50H15V10ZM15 3.75C15 3.41848 15.1317 3.10054 15.3661 2.86612C15.6005 2.6317 15.9185 2.5 16.25 2.5H43.75C44.0815 2.5 44.3995 2.6317 44.6339 2.86612C44.8683 3.10054 45 3.41848 45 3.75V7.5H15V3.75ZM45 56.25C45 56.5815 44.8683 56.8995 44.6339 57.1339C44.3995 57.3683 44.0815 57.5 43.75 57.5H16.25C15.9185 57.5 15.6005 57.3683 15.3661 57.1339C15.1317 56.8995 15 56.5815 15 56.25V52.5H45V56.25Z" fill="#3A1078"/>
<path d="M33.7499 3.75H26.2499C25.9184 3.75 25.6004 3.8817 25.366 4.11612C25.1316 4.35054 24.9999 4.66848 24.9999 5C24.9999 5.33152 25.1316 5.64946 25.366 5.88388C25.6004 6.1183 25.9184 6.25 26.2499 6.25H33.7499C34.0814 6.25 34.3993 6.1183 34.6338 5.88388C34.8682 5.64946 34.9999 5.33152 34.9999 5C34.9999 4.66848 34.8682 4.35054 34.6338 4.11612C34.3993 3.8817 34.0814 3.75 33.7499 3.75ZM28.7499 56.25H31.2499C31.5814 56.25 31.8993 56.1183 32.1338 55.8839C32.3682 55.6495 32.4999 55.3315 32.4999 55C32.4999 54.6685 32.3682 54.3505 32.1338 54.1161C31.8993 53.8817 31.5814 53.75 31.2499 53.75H28.7499C28.4184 53.75 28.1004 53.8817 27.866 54.1161C27.6316 54.3505 27.4999 54.6685 27.4999 55C27.4999 55.3315 27.6316 55.6495 27.866 55.8839C28.1004 56.1183 28.4184 56.25 28.7499 56.25ZM22.3999 4.525C22.3137 4.31523 22.1721 4.13287 21.9902 3.99743C21.8083 3.86199 21.593 3.77858 21.3673 3.75615C21.1417 3.73371 20.9141 3.77309 20.7091 3.87006C20.5041 3.96704 20.3294 4.11795 20.2036 4.30664C20.0778 4.49533 20.0057 4.71469 19.995 4.94122C19.9844 5.16774 20.0355 5.3929 20.143 5.59258C20.2505 5.79226 20.4103 5.95893 20.6053 6.07474C20.8003 6.19055 21.0231 6.25113 21.2499 6.25C21.4546 6.24898 21.656 6.19769 21.8362 6.10064C22.0165 6.00358 22.1702 5.86374 22.2837 5.69339C22.3973 5.52304 22.4673 5.32741 22.4875 5.12368C22.5078 4.91996 22.4777 4.71437 22.3999 4.525ZM29.9999 25C29.011 25 28.0443 25.2932 27.222 25.8427C26.3998 26.3921 25.7589 27.173 25.3805 28.0866C25.002 29.0002 24.903 30.0055 25.096 30.9755C25.2889 31.9454 25.7651 32.8363 26.4643 33.5355C27.1636 34.2348 28.0545 34.711 29.0244 34.9039C29.9943 35.0969 30.9997 34.9978 31.9133 34.6194C32.8269 34.241 33.6078 33.6001 34.1572 32.7779C34.7066 31.9556 34.9999 30.9889 34.9999 30C34.9999 28.6739 34.4731 27.4021 33.5354 26.4645C32.5977 25.5268 31.326 25 29.9999 25ZM29.9999 32.5C29.5054 32.5 29.0221 32.3534 28.611 32.0787C28.1998 31.804 27.8794 31.4135 27.6902 30.9567C27.501 30.4999 27.4515 29.9972 27.5479 29.5123C27.6444 29.0273 27.8825 28.5819 28.2321 28.2322C28.5817 27.8826 29.0272 27.6445 29.5122 27.548C29.9971 27.4516 30.4998 27.5011 30.9566 27.6903C31.4134 27.8795 31.8039 28.2 32.0786 28.6111C32.3533 29.0222 32.4999 29.5055 32.4999 30C32.4999 30.663 32.2365 31.2989 31.7676 31.7678C31.2988 32.2366 30.6629 32.5 29.9999 32.5Z" fill="#3A1078"/>
<path d="M41.55 26.9125C38.95 26.2625 39.375 26.475 39.1625 26C40.4125 24.025 41 23.3125 40.1625 22.4875C37.4625 19.7875 37.05 19.0125 35.9875 19.65C33.6875 21.025 34.125 20.9 33.65 20.6875C33.0875 18.4625 33.05 17.5 31.875 17.5C28.05 17.5 27.2125 17.25 26.875 18.45C26.225 21.05 26.4375 20.625 25.9625 20.8375C23.9875 19.5875 23.275 19 22.45 19.8375C19.75 22.5375 18.975 22.9625 19.6125 24.0125C21 26.325 20.8625 25.8625 20.65 26.35C18.425 26.9125 17.4625 26.95 17.4625 28.125C17.4625 31.95 17.2125 32.7875 18.4125 33.125C21.0125 33.775 20.5875 33.5625 20.8 34.0375C19.55 36.0125 18.9625 36.725 19.8 37.55C22.5 40.25 22.925 41.025 23.975 40.3875C26.275 39.0125 25.8375 39.1375 26.3125 39.35C26.875 41.575 26.9125 42.5375 28.0875 42.5375C31.9 42.5375 32.75 42.7875 33.0875 41.5875C33.7375 38.9875 33.525 39.4125 34 39.2C35.975 40.45 36.6875 41.0375 37.5125 40.2C40.2125 37.5 40.9875 37.075 40.35 36.025C38.975 33.725 39.1 34.1625 39.3125 33.6875C41.5375 33.125 42.5 33.0875 42.5 31.9125C42.5 28.0875 42.75 27.2125 41.55 26.9125ZM40 30.9C37.9125 31.425 37.4125 31.4125 37.1625 32.225C36.425 34.6 35.9125 33.3875 37.7125 36.4375L36.4625 37.6875C34.6 36.5625 34.2625 36.2125 33.5125 36.6125C31.3125 37.7625 31.775 36.6125 30.925 39.975H29.1C28.575 37.8875 28.5875 37.3875 27.775 37.1375C25.4 36.4 26.625 35.8875 23.5625 37.6875L22.3125 36.4375C23.4375 34.575 23.7875 34.2375 23.3875 33.4875C22.2375 31.2875 23.3875 31.75 20.025 30.9V29.1C22.075 28.5875 22.6 28.6 22.8625 27.775C23.6 25.4 24.1125 26.625 22.3125 23.5625L23.5625 22.3125C25.4125 23.425 25.7625 23.7875 26.5125 23.3875C28.7125 22.225 28.25 23.3875 29.1 20.025H30.9C31.425 22.1125 31.4125 22.6125 32.225 22.8625C34.6 23.6 33.375 24.1125 36.4375 22.3125L37.6875 23.5625C36.6 25.375 36.2125 25.7375 36.6125 26.5125C37.7625 28.7125 36.6125 28.25 39.975 29.1L40 30.9Z" fill="#3A1078"/>
</svg>
