<svg width="71" height="70" viewBox="0 0 71 70" fill="none" xmlns="http://www.w3.org/2000/svg">
<path d="M16.6984 7.02732L35.5 5.0531L54.3016 7.02732L68.8594 26.4086L35.5 64.9469L2.14062 26.4086L16.6984 7.02732Z" fill="#FDB300"/>
<path d="M15.6539 26.4086L35.5 64.9468L2.14062 26.4086H15.6539Z" fill="#EA6C00"/>
<path d="M55.3461 26.4086L35.5 64.9468L68.8594 26.4086H55.3461Z" fill="#EA6C00"/>
<path d="M15.6539 26.4086H55.3461L35.5 64.9468L15.6539 26.4086Z" fill="#FDAD00"/>
<path d="M35.5 5.0531L16.6984 7.02732L15.6539 26.4086L35.5 5.0531Z" fill="#FDD231"/>
<path d="M35.5 5.0531L54.3016 7.02732L55.3461 26.4086L35.5 5.0531Z" fill="#FDD231"/>
<path d="M68.8594 26.4086L54.3016 7.02734L55.3461 26.4086H68.8594Z" fill="#FDAD00"/>
<path d="M35.5 5.0531L15.6539 26.4086H55.3461L35.5 5.0531Z" fill="#FEEEB7"/>
<path d="M2.14062 26.4086L16.6984 7.02734L15.6539 26.4086H2.14062Z" fill="#FDAD00"/>
</svg>
