<svg width="71" height="70" viewBox="0 0 71 70" fill="none" xmlns="http://www.w3.org/2000/svg">
<path d="M16.6984 7.02732L35.5 5.0531L54.3016 7.02732L68.8594 26.4086L35.5 64.9469L2.14062 26.4086L16.6984 7.02732Z" fill="#ABABAB"/>
<path d="M15.6539 26.4086L35.5 64.9468L2.14062 26.4086H15.6539Z" fill="#ABABAB"/>
<path d="M55.3461 26.4086L35.5 64.9468L68.8594 26.4086H55.3461Z" fill="#ABABAB"/>
<path d="M15.6539 26.4086H55.3461L35.5 64.9468L15.6539 26.4086Z" fill="#ABABAB"/>
<path d="M35.5 5.0531L16.6985 7.02732L15.6539 26.4086L35.5 5.0531Z" fill="#ABABAB"/>
<path d="M35.5 5.0531L54.3016 7.02732L55.3461 26.4086L35.5 5.0531Z" fill="#ABABAB"/>
<path d="M68.8593 26.4086L54.3015 7.02734L55.346 26.4086H68.8593Z" fill="#ABABAB"/>
<path d="M35.5 5.0531L15.6539 26.4086H55.3461L35.5 5.0531Z" fill="#ABABAB"/>
<path d="M2.14062 26.4086L16.6984 7.02734L15.6539 26.4086H2.14062Z" fill="#ABABAB"/>
</svg>
