<svg width="71" height="70" viewBox="0 0 71 70" fill="none" xmlns="http://www.w3.org/2000/svg">
<g clip-path="url(#clip0_524_4332)">
<path d="M26.1661 0C22.3001 0 19.1666 3.1344 19.1666 6.99977C19.1657 7.91807 19.346 8.82756 19.6972 9.67631C20.0485 10.5251 20.5638 11.2965 21.2138 11.9464C21.8638 12.5964 22.6356 13.1123 23.4854 13.4646C24.3351 13.8168 25.246 13.9986 26.1661 13.9995H33.1668V6.99977C33.1684 5.14507 32.4317 3.3657 31.1189 2.05302C29.806 0.740342 28.0245 0.00186025 26.1661 0ZM26.1661 18.666H7.49953C3.63356 18.666 0.5 21.8004 0.5 25.667C0.5 29.5323 3.63356 32.6667 7.49953 32.6667H26.1673C30.0321 32.6667 33.1668 29.5323 33.1668 25.667C33.1668 21.8004 30.0321 18.666 26.1661 18.666Z" fill="#36C5F0"/>
<path d="M70.5 25.667C70.5 21.8004 67.3653 18.666 63.4993 18.666C59.6333 18.666 56.4998 21.8004 56.4998 25.667V32.6667H63.4993C65.3577 32.6649 67.1392 31.9264 68.4521 30.6137C69.7649 29.301 70.5016 27.5217 70.5 25.667ZM51.8334 25.667V6.99977C51.835 5.14507 51.0983 3.3657 49.7855 2.05302C48.4726 0.740341 46.6911 0.00186025 44.8327 0C40.9668 0 37.8332 3.1344 37.8332 6.99977V25.6658C37.8332 29.5335 40.9668 32.6679 44.8327 32.6679C46.6911 32.666 48.4726 31.9276 49.7855 30.6149C51.0983 29.3022 51.835 27.5217 51.8334 25.667Z" fill="#2EB67D"/>
<path d="M44.8327 70C46.6911 69.9981 48.4726 69.2597 49.7855 67.947C51.0983 66.6343 51.835 64.8549 51.8334 63.0002C51.835 61.1455 51.0983 59.3662 49.7855 58.0535C48.4726 56.7408 46.6911 56.0023 44.8327 56.0005H37.8332V63.0002C37.8332 66.8656 40.9668 70 44.8327 70ZM44.8327 51.334H63.5005C67.3653 51.334 70.5 48.1996 70.5 44.333C70.5016 42.4783 69.7649 40.6989 68.4521 39.3863C67.1392 38.0736 65.3577 37.3351 63.4993 37.3333H44.8327C40.9668 37.3333 37.8332 40.4677 37.8332 44.333C37.8323 45.2513 38.0126 46.1608 38.3638 47.0096C38.7151 47.8583 39.2304 48.6297 39.8804 49.2797C40.5304 49.9297 41.3022 50.4455 42.152 50.7978C43.0017 51.1501 43.9126 51.333 44.8327 51.334Z" fill="#ECB22E"/>
<path d="M0.500004 44.333C0.49908 45.2513 0.679395 46.1608 1.03065 47.0096C1.38191 47.8583 1.89724 48.6297 2.54721 49.2797C3.19717 49.9297 3.96905 50.4455 4.81877 50.7978C5.6685 51.1501 6.57942 51.3319 7.49953 51.3328C9.3579 51.3309 11.1394 50.5924 12.4523 49.2798C13.7651 47.9671 14.5018 46.1877 14.5002 44.333V37.3333H7.49953C3.63356 37.3333 0.500004 40.4677 0.500004 44.333ZM19.1666 44.333V62.9991C19.1666 66.8656 22.3002 70 26.1661 70C28.0245 69.9981 29.806 69.2597 31.1189 67.947C32.4317 66.6343 33.1684 64.8549 33.1668 63.0002V44.333C33.1678 43.4146 32.9874 42.505 32.6361 41.6562C32.2847 40.8074 31.7693 40.0359 31.1192 39.3859C30.4691 38.7359 29.6971 38.2201 28.8472 37.8679C27.9974 37.5157 27.0863 37.334 26.1661 37.3333C22.3002 37.3333 19.1666 40.4677 19.1666 44.333Z" fill="#E01E5A"/>
</g>
<defs>
<clipPath id="clip0_524_4332">
<rect width="70" height="70" fill="white" transform="translate(0.5)"/>
</clipPath>
</defs>
</svg>
