<svg width="385" height="305" viewBox="0 0 385 305" fill="none" xmlns="http://www.w3.org/2000/svg">
<path fill-rule="evenodd" clip-rule="evenodd" d="M171.375 -63.9667C166.161 -63.9667 161.67 -67.0576 159.637 -71.5056L165.147 -73.2817C166.386 -71.1292 168.711 -69.6799 171.375 -69.6799C175.341 -69.6799 178.556 -72.8924 178.556 -76.8553C178.556 -80.8182 175.341 -84.0307 171.375 -84.0307C167.409 -84.0307 164.194 -80.8182 164.194 -76.8553C164.194 -76.7026 164.199 -76.551 164.208 -76.4006L158.671 -74.6157C158.543 -75.343 158.477 -76.0914 158.477 -76.8553C158.477 -83.9734 164.251 -89.7438 171.375 -89.7438C178.498 -89.7438 184.273 -83.9734 184.273 -76.8553C184.273 -69.7371 178.498 -63.9667 171.375 -63.9667ZM171.375 -60.7106C164.71 -60.7106 158.987 -64.7434 156.518 -70.5003L130.363 -62.0694L107.775 -13.8287L107.45 -13.1329L106.705 -12.9418L83.8142 -7.06704L103.923 22.7189L119.64 20.086L132.697 -3.64305L133.059 -4.30012L133.793 -4.45267L157.183 -9.30936C157.072 -9.9828 157.013 -10.6743 157.013 -11.3795C157.013 -18.3145 162.639 -23.9365 169.58 -23.9365C176.52 -23.9365 182.146 -18.3145 182.146 -11.3795C182.146 -4.4444 176.52 1.17756 169.58 1.17756C164.495 1.17756 160.115 -1.84044 158.137 -6.18166L135.191 -1.41714L123.737 19.3998L179.737 10.0193L194.619 -17.9733L194.988 -18.6671L195.761 -18.8103L259.647 -30.6456C259.444 -31.6666 259.338 -32.7223 259.338 -33.8027C259.338 -42.7192 266.572 -49.9474 275.495 -49.9474C284.418 -49.9474 291.651 -42.7192 291.651 -33.8027C291.651 -24.8862 284.418 -17.658 275.495 -17.658C268.805 -17.658 263.065 -21.7211 260.61 -27.5124L197.128 -15.7519L182.238 12.2561L181.861 12.9652L181.069 13.0979L121.736 23.0367L100.05 62.4482L111.207 79.7911L115.322 79.6376L140.801 36.6732L141.185 36.0266L141.926 35.8988L201.035 25.703C201.008 25.3046 200.995 24.9027 200.995 24.4977C200.995 14.5905 209.032 6.55912 218.947 6.55912C228.861 6.55912 236.898 14.5905 236.898 24.4977C236.898 34.4049 228.861 42.4363 218.947 42.4363C210.559 42.4363 203.515 36.6884 201.544 28.9194L143.221 38.9797L119.196 79.4932L230.555 75.3411L231.381 75.3103L231.894 75.9587L260.127 111.666H279.093C279.088 111.461 279.085 111.257 279.085 111.051C279.085 97.9243 289.734 87.2827 302.871 87.2827C316.008 87.2827 326.657 97.9243 326.657 111.051C326.657 124.178 316.008 134.82 302.871 134.82C291.053 134.82 281.248 126.208 279.399 114.922H259.338H258.549L258.06 114.303L229.85 78.6258L117.22 82.8254L105.436 102.696H116.173H200.995H201.849L202.335 103.398L238.249 155.236L286.6 159.234C287.934 153.469 293.105 149.171 299.281 149.171C306.469 149.171 312.296 154.994 312.296 162.176C312.296 169.359 306.469 175.182 299.281 175.182C292.192 175.182 286.427 169.519 286.269 162.474L237.213 158.417L236.446 158.354L236.008 157.721L200.141 105.952H116.173H103.505L93.34 123.093L92.8552 123.911L91.9044 123.891L66.5325 123.362L58.809 137.398L58.3448 138.242H57.3813H30.0685L23.029 150.971L73.3108 157.873L74.1695 157.99L74.5515 158.768L92.3364 194.958L109.63 198.912L137.724 158.556L138.265 157.778L139.209 157.864L151.833 159.011C153.143 150.393 160.589 143.789 169.58 143.789C179.494 143.789 187.531 151.821 187.531 161.728C187.531 171.635 179.494 179.666 169.58 179.666C159.844 179.666 151.919 171.922 151.636 162.263L139.858 161.193L111.676 201.674L111.048 202.577L109.975 202.331L94.1858 198.721L98.9104 208.335L141.961 220.015L159.746 196.183L160.349 195.375L161.342 195.554L325.152 225.153L325.785 225.268L326.169 225.784L346.83 253.567C350.825 250.532 355.809 248.73 361.214 248.73C374.351 248.73 385 259.371 385 272.499C385 285.626 374.351 296.267 361.214 296.267C348.077 296.267 337.428 285.626 337.428 272.499C337.428 265.948 340.08 260.016 344.37 255.717L323.938 228.243L161.755 198.938L145.341 220.932L182.977 231.142C184.831 226.22 189.587 222.719 195.161 222.719C202.349 222.719 208.176 228.542 208.176 235.724C208.176 242.907 202.349 248.73 195.161 248.73C187.973 248.73 182.146 242.907 182.146 235.724C182.146 235.247 182.171 234.775 182.222 234.311L143.247 223.738L83.371 303.967L82.6004 305L81.4175 304.488L38.9514 286.114L30.3106 295.571L29.4802 296.48L28.3788 295.93L-30.8619 266.331L-31.4271 266.048L-31.6539 265.459L-35.8986 254.431L-64.4186 241.858L-66.8461 246.363L-67.6314 247.82L-69.0767 247.011L-102.736 228.176L-103.264 227.88L-103.471 227.312L-106.84 218.055L-120.62 211.17L-121.234 210.863L-121.444 210.21L-138.439 157.138L-143.093 155.468C-143.838 157.549 -145.828 159.037 -148.166 159.037C-151.14 159.037 -153.551 156.628 -153.551 153.655C-153.551 150.683 -151.14 148.274 -148.166 148.274C-145.758 148.274 -143.719 149.853 -143.03 152.032L-139.691 153.229L-142.986 142.94L-139.882 141.948L-135.825 154.616L-128.042 157.408L-125.502 150.535L-127.602 149.814L-128.393 149.542L-128.633 148.742L-132.813 134.819C-132.844 134.82 -132.875 134.82 -132.907 134.82C-135.881 134.82 -138.292 132.411 -138.292 129.438C-138.292 126.466 -135.881 124.057 -132.907 124.057C-129.932 124.057 -127.521 126.466 -127.521 129.438C-127.521 131.22 -128.388 132.8 -129.723 133.779L-125.752 147.006L-124.373 147.48L-117.83 129.771L-117.346 128.462L-115.977 128.74L-101.148 131.746L-103.199 123.891H-109.121H-110.27L-110.656 122.809L-113.467 114.922H-119.892V111.666H-114.627L-123.524 86.7057L-125.5 93.9874L-125.826 95.1893H-127.073H-149.512V91.9332H-128.319L-125.441 81.3278L-130.855 66.1373L-141.039 68.6813L-142.542 69.0567L-142.992 67.5759L-145.783 58.4153H-154V55.1591H-144.575H-143.368L-143.017 56.3131L-140.326 65.1469L-131.953 63.0553L-132.909 60.3749C-135.882 60.3737 -138.292 57.9648 -138.292 54.9933C-138.292 52.0212 -135.881 49.6118 -132.907 49.6118C-129.932 49.6118 -127.521 52.0212 -127.521 54.9933C-127.521 56.8096 -128.422 58.4157 -129.801 59.3902L-128.777 62.2618L-128.39 62.1651L-123.447 44.2587L-126.748 44.9287L-128.225 45.2285L-128.639 43.7805L-133.419 27.0636L-135.621 28.4942C-135.607 28.655 -135.599 28.8178 -135.599 28.9824C-135.599 31.9545 -138.011 34.3639 -140.985 34.3639C-143.959 34.3639 -146.37 31.9545 -146.37 28.9824C-146.37 26.0102 -143.959 23.6008 -140.985 23.6008C-139.362 23.6008 -137.906 24.3184 -136.919 25.4534L-133.346 23.1326L-131.497 21.9318L-130.891 24.0504L-125.92 41.4379L-122.475 40.7387L-117.872 24.0648L-117.626 23.1731L-116.733 22.9279L-99.676 18.2405L-90.9453 -13.6035L-90.7258 -14.4039L-89.9487 -14.6967L-62.5724 -25.0114L-61.2661 -25.5036L-60.5791 -24.2891L-55.413 -15.1557L-45.7358 -18.503L-40.1762 -32.6056L-39.9364 -33.2139L-39.342 -33.4875L0.600525 -51.8746L1.97437 -52.507L2.7074 -51.1849L20.4558 -19.1747L64.5048 -33.5564L65.6737 -33.9381L66.3615 -32.9193L81.8798 -9.93244L105.15 -15.9045L127.712 -64.0913L128.013 -64.7332L128.688 -64.9508L155.545 -73.6081C155.331 -74.6571 155.218 -75.743 155.218 -76.8553C155.218 -85.7718 162.452 -93 171.375 -93C180.298 -93 187.531 -85.7718 187.531 -76.8553C187.531 -67.9388 180.298 -60.7106 171.375 -60.7106ZM-133.48 132.598L-133.652 132.025C-134.776 131.702 -135.599 130.666 -135.599 129.438C-135.599 127.952 -134.394 126.748 -132.907 126.748C-131.419 126.748 -130.214 127.952 -130.214 129.438C-130.214 129.951 -130.357 130.43 -130.606 130.838L-130.417 131.468C-129.965 130.915 -129.693 130.208 -129.693 129.438C-129.693 127.665 -131.132 126.228 -132.907 126.228C-134.681 126.228 -136.12 127.665 -136.12 129.438C-136.12 131.016 -134.981 132.328 -133.48 132.598ZM-136.12 54.9933C-136.12 56.486 -135.1 57.7407 -133.719 58.1005L-133.941 57.4783C-134.915 57.0731 -135.599 56.1131 -135.599 54.9933C-135.599 53.5072 -134.394 52.3025 -132.907 52.3025C-131.419 52.3025 -130.214 53.5072 -130.214 54.9933C-130.214 55.6152 -130.425 56.1879 -130.78 56.6436L-130.579 57.2067C-130.03 56.6307 -129.693 55.8513 -129.693 54.9933C-129.693 53.2201 -131.132 51.7825 -132.907 51.7825C-134.681 51.7825 -136.12 53.2201 -136.12 54.9933ZM-137.936 29.9974L-138.804 30.5616C-139.189 31.0914 -139.763 31.4754 -140.426 31.6152L-140.546 31.6928L-140.578 31.6427C-140.711 31.6628 -140.847 31.6731 -140.985 31.6731C-142.472 31.6731 -143.677 30.4684 -143.677 28.9824C-143.677 27.4963 -142.472 26.2916 -140.985 26.2916C-140.31 26.2916 -139.694 26.5394 -139.221 26.9488L-138.77 26.656C-139.347 26.1079 -140.127 25.7716 -140.985 25.7716C-142.759 25.7716 -144.198 27.2091 -144.198 28.9824C-144.198 30.7556 -142.759 32.1931 -140.985 32.1931C-139.565 32.1931 -138.361 31.2732 -137.936 29.9974ZM160.272 -11.3795C160.272 -10.9012 160.308 -10.4314 160.378 -9.97266L164.228 -10.7721C164.206 -10.9715 164.194 -11.1741 164.194 -11.3795C164.194 -14.3516 166.605 -16.761 169.58 -16.761C172.554 -16.761 174.965 -14.3516 174.965 -11.3795C174.965 -8.4073 172.554 -5.99789 169.58 -5.99789C168.012 -5.99789 166.601 -6.66694 165.617 -7.73482L161.439 -6.86722C163.027 -4.01117 166.078 -2.07864 169.58 -2.07864C174.72 -2.07864 178.887 -6.24276 178.887 -11.3795C178.887 -16.5162 174.72 -20.6803 169.58 -20.6803C164.439 -20.6803 160.272 -16.5162 160.272 -11.3795ZM186.141 232L189.979 233.042C190.951 231.172 192.907 229.894 195.161 229.894C198.383 229.894 200.995 232.505 200.995 235.724C200.995 238.944 198.383 241.555 195.161 241.555C192.114 241.555 189.613 239.221 189.349 236.245L185.419 235.179C185.409 235.359 185.404 235.541 185.404 235.724C185.404 241.109 189.772 245.474 195.161 245.474C200.549 245.474 204.917 241.109 204.917 235.724C204.917 230.34 200.549 225.975 195.161 225.975C191.092 225.975 187.605 228.464 186.141 232ZM299.281 152.427C294.819 152.427 291.056 155.42 289.894 159.507L293.933 159.841C294.834 157.784 296.89 156.346 299.281 156.346C302.503 156.346 305.115 158.956 305.115 162.176C305.115 165.396 302.503 168.006 299.281 168.006C296.364 168.006 293.947 165.867 293.515 163.073L289.54 162.745C289.835 167.865 294.083 171.926 299.281 171.926C304.669 171.926 309.037 167.561 309.037 162.176C309.037 156.792 304.669 152.427 299.281 152.427ZM348.774 256.18L354.906 264.427C356.651 263.021 358.839 262.184 361.214 262.184C366.915 262.184 371.536 267.003 371.536 272.947C371.536 278.891 366.915 283.71 361.214 283.71C355.513 283.71 350.892 278.891 350.892 272.947C350.892 270.701 351.551 268.616 352.679 266.891L346.338 258.364C342.836 262.043 340.687 267.02 340.687 272.499C340.687 283.827 349.877 293.011 361.214 293.011C372.551 293.011 381.741 283.827 381.741 272.499C381.741 261.17 372.551 251.986 361.214 251.986C356.537 251.986 352.226 253.549 348.774 256.18ZM282.343 111.051C282.343 111.257 282.346 111.462 282.353 111.666H292.55C292.549 111.61 292.549 111.555 292.549 111.5C292.549 105.556 297.17 100.737 302.871 100.737C308.572 100.737 313.193 105.556 313.193 111.5C313.193 117.444 308.572 122.263 302.871 122.263C298.317 122.263 294.453 119.189 293.081 114.922H282.708C284.52 124.4 292.858 131.564 302.871 131.564C314.208 131.564 323.398 122.38 323.398 111.051C323.398 99.7226 314.208 90.5389 302.871 90.5389C291.534 90.5389 282.343 99.7226 282.343 111.051ZM155.085 159.306L161.708 159.908C162.533 156.326 165.744 153.655 169.58 153.655C174.041 153.655 177.658 157.27 177.658 161.728C177.658 166.186 174.041 169.8 169.58 169.8C165.611 169.8 162.311 166.94 161.63 163.171L154.91 162.56C155.341 170.282 161.744 176.41 169.58 176.41C177.694 176.41 184.273 169.837 184.273 161.728C184.273 153.619 177.694 147.045 169.58 147.045C162.29 147.045 156.241 152.35 155.085 159.306ZM204.254 24.4977C204.254 24.7147 204.258 24.9306 204.268 25.1453L210.883 24.0042C211.138 19.7758 214.651 16.4253 218.947 16.4253C223.408 16.4253 227.025 20.0395 227.025 24.4977C227.025 28.9559 223.408 32.5701 218.947 32.5701C215.445 32.5701 212.463 30.3432 211.343 27.2293L204.768 28.3633C206.466 34.5967 212.171 39.1801 218.947 39.1801C227.061 39.1801 233.64 32.6066 233.64 24.4977C233.64 16.3888 227.061 9.81531 218.947 9.81531C210.832 9.81531 204.254 16.3888 204.254 24.4977ZM262.852 -31.2394L268.476 -32.2812C268.37 -32.7716 268.314 -33.2806 268.314 -33.8027C268.314 -37.7656 271.529 -40.9781 275.495 -40.9781C279.46 -40.9781 282.675 -37.7656 282.675 -33.8027C282.675 -29.8398 279.46 -26.6273 275.495 -26.6273C273.262 -26.6273 271.267 -27.6455 269.95 -29.2427L263.913 -28.1242C266.014 -23.8535 270.411 -20.9142 275.495 -20.9142C282.618 -20.9142 288.393 -26.6846 288.393 -33.8027C288.393 -40.9208 282.618 -46.6912 275.495 -46.6912C268.371 -46.6912 262.597 -40.9208 262.597 -33.8027C262.597 -32.925 262.685 -32.0678 262.852 -31.2394ZM80.464 -6.20722L101.807 25.4082L102.394 26.2766L103.428 26.1034L117.639 23.7228L98.0453 59.3326L83.4355 36.6228L82.8591 35.7269L81.8067 35.8957L45.4545 41.7257L44.5949 41.8636L44.2318 42.6543L23.8728 87H15.4649L7.31308 62.991L6.90158 61.7791L5.62592 61.8924L-33.3608 65.3554L-37.0749 49.685L-37.4359 48.1618L-38.9731 48.4624L-55.8896 51.7697C-56.8719 50.4595 -58.4381 49.6118 -60.2024 49.6118C-63.1768 49.6118 -65.588 52.0212 -65.588 54.9933C-65.588 56.9337 -64.5602 58.6343 -63.019 59.5811L-66.335 68.7567L-89.1384 71.7663L-89.9705 71.8761L-90.3641 72.6168L-99.3573 89.5413L-107.587 66.5535L-107.973 65.4737H-109.121H-119.892H-121.138L-121.464 66.6757L-123.945 75.8181L-127.679 65.3438L-126.677 65.0936L-125.755 64.8631L-125.502 63.9471L-119.866 43.5318L-98.0254 39.0987L-97.0593 38.9026L-96.7849 37.9564L-88.0282 7.7681L-80.3991 4.64938L-69.7917 30.9366L-69.2449 32.2916L-67.8379 31.8946L-29.6905 21.1314L-28.9236 20.9151L-28.6238 20.1774L-15.7582 -11.4686C-15.3223 -11.4098 -14.8774 -11.3795 -14.4254 -11.3795C-8.97244 -11.3795 -4.55197 -15.7967 -4.55197 -21.2457C-4.55197 -22.0336 -4.64441 -22.8 -4.81903 -23.5346L4.91956 -25.6707L22.7367 7.33214L23.3417 8.4528L24.576 8.13605L80.464 -6.20722ZM-39.8847 51.9585L-54.8181 54.8782C-54.8174 54.9164 -54.817 54.9548 -54.817 54.9933C-54.817 57.8428 -57.0331 60.175 -59.837 60.3627L-63.6067 70.7941L-63.9432 71.7255L-64.9258 71.8552L-87.8796 74.8846L-97.8722 93.6898L-92.5648 108.516L-86.8642 93.0001L-86.497 92.0007L-85.4336 91.9362L-4.20209 87.003L-3.07858 86.9348L-2.61716 87.9607L10.2733 116.622L22.3779 90.2562H14.2972H13.1295L12.7543 89.1512L4.63876 65.2491L-34.4769 68.7235L-35.8816 68.8483L-36.2066 67.4771L-39.8847 51.9585ZM-57.0043 55.3056C-57.1203 56.5061 -57.8978 57.5134 -58.9683 57.9587L-58.705 57.2301C-58.0938 56.8208 -57.6596 56.168 -57.5416 55.4106L-57.0043 55.3056ZM-62.0638 56.9375L-62.2542 57.4644C-62.9638 56.8755 -63.4156 55.9871 -63.4156 54.9933C-63.4156 53.2201 -61.977 51.7825 -60.2024 51.7825C-59.5719 51.7825 -58.9837 51.9641 -58.4875 52.2776L-59.3383 52.444C-59.6095 52.3522 -59.9001 52.3025 -60.2022 52.3025C-61.6894 52.3025 -62.895 53.5072 -62.895 54.9933C-62.895 55.7577 -62.5759 56.4477 -62.0638 56.9375ZM-8.00323 -22.8361C-7.87732 -22.3267 -7.81052 -21.794 -7.81052 -21.2457C-7.81052 -17.5951 -10.7721 -14.6357 -14.4254 -14.6357L-14.4706 -14.6358L-13.5738 -16.8417C-11.5024 -17.2393 -9.93753 -19.0599 -9.93753 -21.2457C-9.93753 -21.6376 -9.98785 -22.0177 -10.0823 -22.38L-8.00323 -22.8361ZM-17.6479 -15.4717L-16.8381 -17.4636C-18.086 -18.2601 -18.9134 -19.6563 -18.9134 -21.2457C-18.9134 -23.7225 -16.904 -25.7303 -14.4254 -25.7303C-13.673 -25.7303 -12.9639 -25.5453 -12.341 -25.2183L-9.64117 -25.8105C-10.8457 -27.0707 -12.5438 -27.8557 -14.4254 -27.8557C-18.0787 -27.8557 -21.0403 -24.8963 -21.0403 -21.2457C-21.0403 -18.7642 -19.6718 -16.6021 -17.6479 -15.4717ZM-18.881 -12.4388C-22.0955 -14.0659 -24.2988 -17.3987 -24.2988 -21.2457C-24.2988 -26.6947 -19.8784 -31.1119 -14.4254 -31.1119C-10.9404 -31.1119 -7.87704 -29.3076 -6.1199 -26.5829L5.42084 -29.1144L6.62079 -29.3776L7.2041 -28.2972L24.9996 4.66546L78.5296 -9.07262L64.3478 -30.0796L20.1887 -15.6619L18.9097 -15.2443L18.2576 -16.4204L0.590149 -48.2847L-37.3843 -30.8037L-42.9787 -16.6128L-43.2534 -15.9159L-43.9617 -15.671L-55.6302 -11.6348L-56.9134 -11.1909L-57.5816 -12.3722L-62.729 -21.4724L-88.0219 -11.9427L-96.7784 19.9948L-97.0234 20.8887L-97.9177 21.1344L-114.977 25.8223L-118.894 40.0119L-99.6401 36.1038L-90.9387 6.10587L-90.7195 5.35017L-89.9908 5.05225L-80.1173 1.01607L-78.6017 0.396507L-77.9894 1.91409L-67.3163 28.3639L-31.3428 18.2141L-18.881 -12.4388ZM-122.029 81.1959L-118.645 68.7299H-110.268L-101.962 91.9332H-106.926C-107.283 89.3069 -109.536 87.2827 -112.262 87.2827C-115.237 87.2827 -117.648 89.6921 -117.648 92.6643C-117.648 93.0762 -117.602 93.4773 -117.514 93.8627L-122.029 81.1959ZM-117.09 95.0531C-116.209 96.8267 -114.378 98.0459 -112.262 98.0459C-110.201 98.0459 -108.41 96.8889 -107.505 95.1893H-100.796L-94.898 111.666H-111.168L-117.09 95.0531ZM-110.277 95.1893C-110.824 95.6189 -111.513 95.8751 -112.262 95.8751C-113.011 95.8751 -113.701 95.6189 -114.247 95.1893H-113.195C-112.904 95.2966 -112.59 95.3551 -112.262 95.3551C-111.934 95.3551 -111.62 95.2966 -111.33 95.1893H-110.277ZM-115.392 91.9332C-115.061 90.5122 -113.785 89.4535 -112.262 89.4535C-110.739 89.4535 -109.464 90.5122 -109.133 91.9332H-109.67C-109.989 90.8024 -111.029 89.9735 -112.262 89.9735C-113.496 89.9735 -114.536 90.8024 -114.854 91.9332H-115.392ZM-110.008 114.922H-93.7323L-90.908 122.811L-90.5214 123.891H-89.3739H-80.9442L-86.247 134.768L-97.5923 132.467L-100.364 121.852L-100.681 120.635H-101.94H-107.972L-110.008 114.922ZM-96.6764 135.976L-85.6588 138.209L-84.4225 138.46L-83.87 137.327L-71.1282 111.192L-23.6668 114.5L-10.1069 148.871L-9.75732 149.757L-8.8129 149.887L17.8792 153.551L9.43799 168.814L5.18942 167.753C5.27606 167.252 5.32126 166.738 5.32126 166.212C5.32126 161.259 1.30264 157.243 -3.6546 157.243C-8.61185 157.243 -12.6305 161.259 -12.6305 166.212C-12.6305 171.166 -8.61185 175.182 -3.6546 175.182C-0.384705 175.182 2.47678 173.435 4.04593 170.823L9.86295 172.277L11.0782 172.58L11.6841 171.485L21.3396 154.026L72.0087 160.981L88.2466 194.023L57.7447 187.049L56.6406 186.796L56.0191 187.742L32.4876 223.574C31.3262 223.026 30.0282 222.719 28.6585 222.719C25.2993 222.719 22.3711 224.563 20.8323 227.293L-37.4105 208.407L-47.9058 180.44L-49.0525 177.384L-50.8059 180.138L-62.708 198.828L-92.5862 189.77C-92.5393 189.398 -92.5151 189.02 -92.5151 188.636C-92.5151 183.682 -96.5338 179.666 -101.491 179.666C-101.981 179.666 -102.461 179.706 -102.929 179.781L-111.152 152.734L-111.394 151.938L-112.181 151.667L-121.291 148.538L-115.257 132.208L-100.232 135.255L-95.4383 153.618L-95.1206 154.835H-93.8618H-90.5907C-90.0525 157.24 -87.9037 159.037 -85.3349 159.037C-82.3606 159.037 -79.9494 156.628 -79.9494 153.655C-79.9494 150.683 -82.3606 148.274 -85.3349 148.274C-87.5727 148.274 -89.4917 149.638 -90.3049 151.579H-92.603L-96.6764 135.976ZM-87.0473 151.579H-87.7857C-87.1963 150.885 -86.3171 150.445 -85.3349 150.445C-83.5604 150.445 -82.1218 151.882 -82.1218 153.655C-82.1218 155.429 -83.5604 156.866 -85.3349 156.866C-86.6927 156.866 -87.8538 156.025 -88.3243 154.835H-87.7556C-87.3181 155.73 -86.3984 156.346 -85.3347 156.346C-83.8475 156.346 -82.6419 155.142 -82.6419 153.655C-82.6419 152.169 -83.8475 150.965 -85.3347 150.965C-85.9852 150.965 -86.5818 151.195 -87.0473 151.579ZM-62.4705 202.302L-93.5775 192.872C-95.0911 195.689 -98.0672 197.605 -101.491 197.605C-106.448 197.605 -110.467 193.589 -110.467 188.636C-110.467 185.325 -108.672 182.433 -106.001 180.879L-114.028 154.476L-122.42 151.594L-125.544 160.049L-126.103 161.563L-127.623 161.018L-134.574 158.525L-118.549 208.564L-104.802 215.433L-104.221 215.723L-103.999 216.333L-100.616 225.63L-68.9298 243.361L-66.5736 238.989L-65.8595 237.664L-64.4814 238.271L-33.9635 251.725L-33.3437 251.998L-33.1005 252.63L-28.8394 263.701L28.7345 292.467L37.3288 283.061L38.1126 282.203L39.1794 282.665L81.5294 300.988L139.867 222.82L97.3458 211.285L96.6349 211.092L96.3102 210.431L90.0959 197.786L58.122 190.475L35.1347 225.478C36.6829 227.09 37.6344 229.278 37.6344 231.688C37.6344 236.642 33.6158 240.658 28.6585 240.658C23.7013 240.658 19.6827 236.642 19.6827 231.688C19.6827 231.242 19.7153 230.804 19.7783 230.375L-39.1632 211.262L-39.9101 211.02L-40.1859 210.285L-49.8102 184.639L-60.623 201.618L-61.287 202.661L-62.4705 202.302ZM-108.294 188.636C-108.294 186.311 -107.127 184.259 -105.346 183.033L-104.62 185.421C-105.458 186.236 -105.979 187.375 -105.979 188.636C-105.979 191.112 -103.97 193.12 -101.491 193.12C-100.11 193.12 -98.8745 192.497 -98.0512 191.516L-95.712 192.225C-96.913 194.152 -99.0522 195.434 -101.491 195.434C-105.248 195.434 -108.294 192.39 -108.294 188.636ZM-101.6 184.152L-102.29 181.884C-102.028 181.853 -101.761 181.837 -101.491 181.837C-97.7336 181.837 -94.6875 184.881 -94.6875 188.636C-94.6875 188.801 -94.6934 188.965 -94.705 189.128L-97.008 188.43C-97.1158 186.048 -99.0818 184.151 -101.491 184.151C-101.528 184.151 -101.564 184.152 -101.6 184.152ZM22.9544 227.981C24.1682 226.12 26.2696 224.89 28.6585 224.89C29.5876 224.89 30.4732 225.076 31.2799 225.413L29.9751 227.4C29.5589 227.272 29.1169 227.204 28.6588 227.204C27.3118 227.204 26.1033 227.797 25.2807 228.736L22.9544 227.981ZM33.9016 227.356L32.5381 229.432C32.9251 230.095 33.1468 230.866 33.1468 231.688C33.1468 234.165 31.1375 236.173 28.6588 236.173C26.2175 236.173 24.2314 234.225 24.1723 231.8L21.884 231.058C21.8792 231.11 21.8749 231.162 21.8713 231.215C21.8681 231.261 21.8654 231.306 21.8632 231.352C21.8578 231.463 21.8551 231.576 21.8551 231.688C21.8551 235.443 24.9011 238.487 28.6585 238.487C32.416 238.487 35.462 235.443 35.462 231.688C35.462 230.042 34.8763 228.532 33.9016 227.356ZM-0.744354 169.627L1.80887 170.265C0.568939 171.931 -1.41666 173.011 -3.6546 173.011C-7.41205 173.011 -10.4581 169.967 -10.4581 166.212C-10.4581 162.458 -7.41205 159.414 -3.6546 159.414C0.102844 159.414 3.14886 162.458 3.14886 166.212C3.14886 166.556 3.12335 166.894 3.07407 167.224L0.811646 166.659C0.826172 166.512 0.833618 166.363 0.833618 166.212C0.833618 163.736 -1.17572 161.728 -3.6543 161.728C-6.1329 161.728 -8.14221 163.736 -8.14221 166.212C-8.14221 168.689 -6.1329 170.697 -3.6543 170.697C-2.54401 170.697 -1.52789 170.294 -0.744354 169.627ZM19.5686 150.496L-7.42508 146.791L-20.0651 114.752L-18.586 114.855L-10.033 131.094L-9.57486 131.963H-8.59119H5.77017H6.81528L7.25104 131.014L11.2931 122.21L62.8561 123.285L56.4178 134.986H29.1074H28.1463L27.6814 135.826L19.5686 150.496ZM64.6278 120.065L12.7742 118.984L25.963 90.2562H64.1231L73.2523 104.391L64.6278 120.065ZM75.0364 101.149L66.3797 87.7453L65.8984 87H65.0108H27.4579L46.8305 44.8029L81.2708 39.2795L96.2595 62.5782L75.0364 101.149ZM98.2638 65.6938L108.968 82.3331L109.471 83.1143L110.4 83.0797L113.346 82.9698L101.648 102.696H77.9035L98.2638 65.6938ZM76.1118 105.952H99.717L91.0215 120.615L68.3043 120.142L76.1118 105.952ZM-90.8518 113.301L-84.1725 95.1218L-5.12796 90.3215L8.46872 120.553L4.72507 128.707H-7.60757L-16.1253 112.535L-16.5481 111.733L-17.4537 111.67L-21.3893 111.395L-25.476 101.036L-25.8827 100.006H-26.9917H-68.2806H-69.2992L-69.7453 100.921L-73.0947 107.79L-75.3479 107.633L-76.635 107.544L-77.0174 108.775L-80.7007 120.635H-88.2263L-90.8518 113.301ZM-69.5891 108.035L-67.262 103.262H-28.1007L-24.991 111.144L-69.5891 108.035ZM-23.0453 -62.7386C-23.2735 -63.2102 -23.4015 -63.7393 -23.4015 -64.2983C-23.4015 -66.2797 -21.794 -67.886 -19.8111 -67.886C-17.8429 -67.886 -16.2446 -66.3035 -16.221 -64.3423L-16.1238 -64.1568L-15.1876 -62.3708C-14.9397 -62.9641 -14.8027 -63.6152 -14.8027 -64.2983C-14.8027 -67.0623 -17.045 -69.3029 -19.811 -69.3029C-22.577 -69.3029 -24.8193 -67.0623 -24.8193 -64.2983C-24.8193 -63.5334 -24.6476 -62.8086 -24.3406 -62.1603L-23.0453 -62.7386ZM-26.3248 -61.2744C-26.7527 -62.1933 -26.9917 -63.2179 -26.9917 -64.2983C-26.9917 -68.2611 -23.7768 -71.4737 -19.811 -71.4737C-15.8452 -71.4737 -12.6303 -68.2611 -12.6303 -64.2983C-12.6303 -62.727 -13.1357 -61.2737 -13.993 -60.0918L-11.8401 -55.9849L13.759 -64.938L14.9575 -65.3572L15.657 -64.2982L29.628 -43.1455L37.0773 -47.3703C36.8554 -48.1918 36.737 -49.0558 36.737 -49.9474C36.737 -55.3964 41.1575 -59.8136 46.6105 -59.8136C52.0634 -59.8136 56.4839 -55.3964 56.4839 -49.9474C56.4839 -44.4985 52.0634 -40.0812 46.6105 -40.0812C43.2154 -40.0812 40.2205 -41.7936 38.4436 -44.4011L29.9116 -39.5622L28.5867 -38.8108L27.7476 -40.0813L13.6369 -61.4455L-12.0921 -52.4469L-13.4205 -51.9823L-14.0736 -53.2281L-16.5299 -57.914C-17.5134 -57.4083 -18.6288 -57.1228 -19.811 -57.1228C-21.478 -57.1228 -23.0123 -57.6904 -24.2309 -58.6428L-37.3568 -52.7823L-47.8949 -22.9461L-48.934 -20.0042L-50.7548 -22.5385L-58.757 -33.6763C-59.7306 -33.1834 -60.8316 -32.9058 -61.9976 -32.9058C-64.1721 -32.9058 -66.1208 -33.8716 -67.4376 -35.3973L-74.182 -30.9043L-78.028 -22.791L-78.2889 -22.2405L-78.8474 -21.9964L-92.5502 -16.0058L-100.397 7.0827L-100.571 7.59452L-101.017 7.90074L-103.439 9.56464C-103.339 10.042 -103.286 10.5367 -103.286 11.0438C-103.286 15.0067 -106.501 18.2192 -110.467 18.2192C-114.433 18.2192 -117.648 15.0067 -117.648 11.0438C-117.648 7.08089 -114.433 3.86833 -110.467 3.86833C-108.19 3.86833 -106.161 4.92728 -104.845 6.57919L-103.309 5.52374L-95.4045 -17.733L-95.1734 -18.4132L-94.5148 -18.7011L-80.7119 -24.7354L-76.9337 -32.7058L-76.7405 -33.1133L-76.3651 -33.3635L-68.9553 -38.2997C-69.1009 -38.8693 -69.1783 -39.4662 -69.1783 -40.0812C-69.1783 -44.0441 -65.9634 -47.2566 -61.9976 -47.2566C-58.0319 -47.2566 -54.817 -44.0441 -54.817 -40.0812C-54.817 -38.4654 -55.3514 -36.9743 -56.2534 -35.7748L-49.9286 -26.9718L-40.1967 -54.5254L-39.9638 -55.1848L-39.3249 -55.47L-26.3248 -61.2744ZM-106.642 7.81335C-107.56 6.72815 -108.933 6.03912 -110.467 6.03912C-113.233 6.03912 -115.475 8.27979 -115.475 11.0438C-115.475 13.8078 -113.233 16.0484 -110.467 16.0484C-107.701 16.0484 -105.459 13.8078 -105.459 11.0438C-105.459 11.0134 -105.459 10.983 -105.459 10.9527L-107.011 12.0185C-107.436 13.5263 -108.822 14.6315 -110.467 14.6315C-112.45 14.6315 -114.057 13.0252 -114.057 11.0438C-114.057 9.06232 -112.45 7.45605 -110.467 7.45605C-109.418 7.45605 -108.475 7.90531 -107.818 8.62174L-106.642 7.81335ZM-61.9976 -35.0765C-61.3054 -35.0765 -60.6459 -35.2169 -60.0463 -35.4706L-60.9031 -36.6632C-61.2481 -36.553 -61.6158 -36.4935 -61.9975 -36.4935C-62.9232 -36.4935 -63.767 -36.8435 -64.4037 -37.4184L-65.6101 -36.6148C-64.6987 -35.6667 -63.4171 -35.0765 -61.9976 -35.0765ZM-67.0059 -40.0812C-67.0059 -39.9232 -66.9986 -39.767 -66.9843 -39.6128L-65.5555 -40.5646C-65.3192 -42.3174 -63.8163 -43.6689 -61.9975 -43.6689C-60.0146 -43.6689 -58.4071 -42.0626 -58.4071 -40.0812C-58.4071 -39.7053 -58.465 -39.3429 -58.5723 -39.0024L-57.6109 -37.6644C-57.2148 -38.3808 -56.9893 -39.2047 -56.9893 -40.0812C-56.9893 -42.8452 -59.2316 -45.0858 -61.9976 -45.0858C-64.7636 -45.0858 -67.0059 -42.8452 -67.0059 -40.0812ZM-21.8275 -59.7159L-19.5839 -60.7176C-19.0872 -60.7486 -18.618 -60.8805 -18.1964 -61.093L-17.5382 -59.8374C-18.2203 -59.4897 -18.9927 -59.2936 -19.811 -59.2936C-20.5284 -59.2936 -21.2106 -59.4444 -21.8275 -59.7159ZM43.1618 -47.077L41.2919 -46.0165C42.497 -44.3911 44.4306 -43.3374 46.6105 -43.3374C50.2638 -43.3374 53.2253 -46.2968 53.2253 -49.9474C53.2253 -53.598 50.2638 -56.5574 46.6105 -56.5574C42.9572 -56.5574 39.9956 -53.598 39.9956 -49.9474C39.9956 -49.6462 40.0158 -49.3496 40.0548 -49.059L42.1314 -50.2368C42.2807 -52.5787 44.2288 -54.432 46.6101 -54.432C49.0887 -54.432 51.0981 -52.4242 51.0981 -49.9474C51.0981 -47.4706 49.0887 -45.4627 46.6101 -45.4627C45.2242 -45.4627 43.985 -46.0905 43.1618 -47.077ZM-5.08423 48.4321L1.68384 35.6573C-0.481873 33.8475 -1.85941 31.1272 -1.85941 28.0854C-1.85941 22.6364 2.5611 18.2192 8.01404 18.2192C11.7762 18.2192 15.0469 20.3219 16.7135 23.4153L62.8447 12.2883C62.7934 11.8807 62.7669 11.4653 62.7669 11.0437C62.7669 5.59478 67.1874 1.17752 72.6404 1.17752C78.0933 1.17752 82.5138 5.59478 82.5138 11.0437C82.5138 16.4927 78.0933 20.91 72.6404 20.91C68.7568 20.91 65.3969 18.6694 63.7846 15.4113L17.7626 26.512C17.8448 27.0243 17.8875 27.5499 17.8875 28.0854C17.8875 33.5344 13.467 37.9516 8.01404 37.9516C6.77509 37.9516 5.58939 37.7236 4.49677 37.3072L-2.66336 50.8219L-3.12231 51.6883H-4.10327H-22.9526H-23.8823L-24.3553 50.8884L-35.3979 32.2145L-60.8628 38.8889L-71.7544 61.0915L-72.0839 61.7631L-72.8084 61.9509L-84.9258 65.0901L-86.3629 65.4624L-86.8672 64.0671L-90.2749 54.6371C-90.9799 54.8683 -91.733 54.9933 -92.5154 54.9933C-95.7612 54.9933 -98.504 52.8413 -99.3929 49.8873L-110.674 51.0951C-111.319 53.3459 -113.393 54.9933 -115.852 54.9933C-118.827 54.9933 -121.238 52.5839 -121.238 49.6117C-121.238 46.6395 -118.827 44.2301 -115.852 44.2301C-113.503 44.2301 -111.505 45.7337 -110.769 47.8304L-99.5989 46.6345C-99.0343 43.2347 -96.0778 40.6424 -92.5154 40.6424C-88.5496 40.6424 -85.3347 43.855 -85.3347 47.8178C-85.3347 49.8005 -86.1394 51.5954 -87.4403 52.8941L-84.3065 61.5658L-74.3508 58.9866L-63.4605 36.7866L-63.1323 36.1174L-62.4109 35.9284L-35.0345 28.7529L-33.8444 28.441L-33.2184 29.4995L-22.0229 48.4321H-5.08423ZM-113.158 51.361L-113.875 51.4378C-114.367 51.9696 -115.071 52.3025 -115.853 52.3025C-117.34 52.3025 -118.545 51.0978 -118.545 49.6117C-118.545 48.1256 -117.34 46.9209 -115.853 46.9209C-114.912 46.9209 -114.084 47.4032 -113.602 48.1338L-113.032 48.0727C-113.577 47.0765 -114.636 46.4009 -115.852 46.4009C-117.627 46.4009 -119.066 47.8384 -119.066 49.6117C-119.066 51.3849 -117.627 52.8225 -115.852 52.8225C-114.724 52.8225 -113.731 52.2408 -113.158 51.361ZM-88.2986 50.5191C-87.7976 49.7399 -87.5071 48.8128 -87.5071 47.8178C-87.5071 45.0539 -89.7494 42.8132 -92.5154 42.8132C-94.785 42.8132 -96.702 44.3218 -97.317 46.3902L-95.731 46.2204C-95.1429 45.0406 -93.9238 44.2301 -92.5153 44.2301C-90.5324 44.2301 -88.9249 45.8364 -88.9249 47.8178C-88.9249 48.0752 -88.952 48.3262 -89.0035 48.5682L-88.2986 50.5191ZM-91.0134 52.5935L-91.4957 51.2589C-91.8189 51.3543 -92.1611 51.4056 -92.5153 51.4056C-93.8934 51.4056 -95.0902 50.6296 -95.692 49.4911L-97.1774 49.6501C-96.4456 51.5077 -94.6342 52.8225 -92.5154 52.8225C-91.9921 52.8225 -91.4875 52.7423 -91.0134 52.5935ZM1.39917 28.0854C1.39917 29.8716 2.10815 31.4923 3.26025 32.6818L4.33459 30.654C3.82504 29.9264 3.52606 29.0408 3.52606 28.0854C3.52606 25.6086 5.5354 23.6008 8.01401 23.6008C9.1843 23.6008 10.2499 24.0484 11.0489 24.7817L13.3801 24.2194C12.1787 22.5571 10.2228 21.4754 8.01404 21.4754C4.36075 21.4754 1.39917 24.4348 1.39917 28.0854ZM7.06024 32.4686L6.03918 34.3958C6.66284 34.5905 7.3262 34.6954 8.01404 34.6954C11.6673 34.6954 14.6289 31.736 14.6289 28.0854C14.6289 27.8126 14.6124 27.5437 14.5802 27.2796L12.4919 27.7833C12.4986 27.8831 12.5019 27.9839 12.5019 28.0854C12.5019 30.5622 10.4926 32.5701 8.01401 32.5701C7.68674 32.5701 7.36758 32.5351 7.06024 32.4686ZM66.0255 11.0437C66.0255 11.2029 66.0311 11.3608 66.0422 11.5171L68.1525 11.0081C68.1717 8.54771 70.1736 6.55912 72.6403 6.55912C75.1189 6.55912 77.1283 8.56696 77.1283 11.0438C77.1283 13.5206 75.1189 15.5284 72.6403 15.5284C71.3305 15.5284 70.1518 14.9677 69.3314 14.0734L67.0749 14.6177C68.2519 16.4442 70.3048 17.6538 72.6404 17.6538C76.2937 17.6538 79.2552 14.6944 79.2552 11.0437C79.2552 7.39313 76.2937 4.43371 72.6404 4.43371C68.9871 4.43371 66.0255 7.39313 66.0255 11.0437ZM-150.858 153.655C-150.858 155.142 -149.653 156.346 -148.166 156.346C-146.678 156.346 -145.473 155.142 -145.473 153.655C-145.473 152.169 -146.678 150.965 -148.166 150.965C-149.653 150.965 -150.858 152.169 -150.858 153.655ZM-148.166 156.866C-149.94 156.866 -151.379 155.429 -151.379 153.655C-151.379 151.882 -149.94 150.445 -148.166 150.445C-146.391 150.445 -144.952 151.882 -144.952 153.655C-144.952 155.429 -146.391 156.866 -148.166 156.866Z" fill="#090017" fill-opacity="0.15"/>
</svg>
