<svg width="65" height="70" viewBox="0 0 65 70" fill="none" xmlns="http://www.w3.org/2000/svg">
<g clip-path="url(#clip0_521_9021)">
<mask id="mask0_521_9021" style="mask-type:luminance" maskUnits="userSpaceOnUse" x="34" y="0" width="30" height="70">
<path d="M63.9119 17.0874L34.0251 0.00927734V70L45.9669 63.0649V43.3768L54.9834 48.5921L54.9324 35.1252L45.9669 30.0027V22.1821L63.9536 32.5755L63.9119 17.0874Z" fill="white"/>
</mask>
<g mask="url(#mask0_521_9021)">
<path d="M72.0848 -0.245605H-1.30399V70.0882H72.0848V-0.245605Z" fill="url(#paint0_linear_521_9021)"/>
</g>
<mask id="mask1_521_9021" style="mask-type:luminance" maskUnits="userSpaceOnUse" x="1" y="0" width="31" height="70">
<path d="M1.45429 17.0874L31.341 0.00927734V70L19.3993 63.0649V22.1821L1.41257 32.5755L1.45429 17.0874Z" fill="white"/>
</mask>
<g mask="url(#mask1_521_9021)">
<path d="M71.5841 -0.245605H-1.80466V70.0882H71.5841V-0.245605Z" fill="url(#paint1_linear_521_9021)"/>
</g>
</g>
<defs>
<linearGradient id="paint0_linear_521_9021" x1="-1.30399" y1="34.9213" x2="72.0848" y2="34.9213" gradientUnits="userSpaceOnUse">
<stop stop-color="#FF6F00"/>
<stop offset="1" stop-color="#FFA800"/>
</linearGradient>
<linearGradient id="paint1_linear_521_9021" x1="-1.80466" y1="34.9213" x2="71.5887" y2="34.9213" gradientUnits="userSpaceOnUse">
<stop stop-color="#FF6F00"/>
<stop offset="1" stop-color="#FFA800"/>
</linearGradient>
<clipPath id="clip0_521_9021">
<rect width="63.0464" height="70" fill="white" transform="translate(0.976807)"/>
</clipPath>
</defs>
</svg>
