<svg width="765" height="289" viewBox="0 0 765 289" fill="none" xmlns="http://www.w3.org/2000/svg">
<path fill-rule="evenodd" clip-rule="evenodd" d="M235.012 79.1821C243.53 77.3911 249.807 70.8013 251.602 62.8397L241.99 61.8324C240.703 65.773 237.402 68.9382 233.05 69.8533C226.57 71.2156 220.215 67.0743 218.854 60.6034C217.494 54.1325 221.644 47.7823 228.123 46.42C234.603 45.0577 240.959 49.199 242.319 55.6699C242.372 55.9193 242.416 56.1684 242.452 56.4172L252.113 57.4296C252.071 56.198 251.923 54.9532 251.661 53.7059C249.217 42.0828 237.801 34.6441 226.162 37.0912C214.523 39.5382 207.069 50.9443 209.513 62.5674C211.956 74.1905 223.373 81.6291 235.012 79.1821ZM236.129 84.4991C247.019 82.2095 254.985 73.6586 257.043 63.4099L302.672 68.1917L356.14 139.204L356.911 140.228L358.193 140.284L397.612 142.013L374.982 197.558L348.397 198.658L318.917 164.397L318.101 163.448L316.848 163.451L276.963 163.556C276.915 162.418 276.773 161.269 276.53 160.117C274.15 148.793 263.027 141.546 251.688 143.93C240.348 146.314 233.086 157.427 235.466 168.751C237.847 180.075 248.97 187.322 260.309 184.938C268.618 183.192 274.737 176.759 276.479 168.991L315.606 168.888L341.468 198.945L246.748 202.865L212.822 162.269L211.981 161.263L210.669 161.295L102.222 163.915C102.203 162.178 102.014 160.418 101.643 158.654C98.5818 144.094 84.2814 134.776 69.702 137.842C55.1226 140.907 45.7852 155.195 48.8463 169.754C51.9074 184.314 66.2079 193.632 80.7872 190.567C91.718 188.268 99.7022 179.662 101.724 169.362L209.485 166.758L243.43 207.377L244.289 208.405L245.63 208.35L345.987 204.196L394.95 261.101L382.674 293.252L375.897 294.416L319.516 233.012L318.668 232.088L317.413 232.134L217.334 235.791C217.241 235.132 217.125 234.471 216.985 233.809C213.584 217.632 197.695 207.279 181.496 210.685C165.296 214.09 154.921 229.966 158.323 246.143C161.724 262.32 177.613 272.674 193.812 269.268C207.517 266.386 217.053 254.581 217.606 241.218L316.354 237.61L369.518 295.51L186.143 326.985L184.782 327.219L184.167 328.454L150.294 396.458L119.306 402.973C119.245 402.638 119.179 402.302 119.108 401.967C114.602 380.532 93.5481 366.814 72.084 371.327C50.6199 375.839 36.8732 396.874 41.3798 418.309C45.8864 439.744 66.9399 453.462 88.404 448.949C107.713 444.89 120.777 427.459 119.924 408.395L152.702 401.503L153.991 401.232L154.578 400.054L188.422 332.106L373.891 300.273L399.967 328.671L382.423 332.36L243.832 361.498L242.437 361.792L241.884 363.104L201 460.086L123.371 483.226C119.211 474.269 109.287 469.028 99.197 471.149C87.4525 473.619 79.9307 485.128 82.3966 496.857C84.8625 508.585 96.3823 516.091 108.127 513.622C119.709 511.187 127.184 499.961 125.024 488.402L203.785 464.926L205.016 464.559L205.515 463.376L246.344 366.522L383.541 337.677L404.24 333.325L426.733 357.822L427.805 358.99L429.352 358.631L470.626 349.051L488.064 369.318L489.112 370.536L490.687 370.205L535.313 360.823L551.185 379.189L471.399 407.732L470.036 408.22L469.679 409.62L453.044 474.824L426.146 487.221L366.388 430.975L365.237 429.892L363.724 430.356L343.492 436.565C338.392 422.943 323.958 414.718 309.269 417.806C293.07 421.212 282.695 437.087 286.096 453.265C289.497 469.442 305.387 479.795 321.586 476.39C337.493 473.045 347.784 457.678 344.93 441.807L363.806 436.014L423.75 492.434L425.087 493.692L426.755 492.923L451.314 481.604L446.895 498.926L380.565 532.786L343.323 499.982L342.06 498.869L340.5 499.503L83.0114 604.107L82.0153 604.511L81.5651 605.487L57.3451 657.95C49.7766 654.366 41.0145 653.136 32.1829 654.993C10.7188 659.506 -3.02792 680.541 1.4787 701.976C5.98532 723.41 27.0388 737.129 48.5029 732.616C69.967 728.103 83.7137 707.068 79.2071 685.633C76.9582 674.937 70.5887 666.162 62.104 660.615L86.055 608.735L340.986 505.17L375.356 535.444L317.368 565.045C312.648 557.646 303.676 553.562 294.569 555.477C282.825 557.946 275.303 569.456 277.769 581.184C280.235 592.913 291.754 600.419 303.499 597.95C315.243 595.481 322.765 583.971 320.299 572.242C320.135 571.463 319.931 570.702 319.69 569.961L379.741 539.307L505.117 649.744L506.73 651.165L508.487 649.923L571.565 605.332L588.93 617.806L590.599 619.005L592.21 617.728L678.842 549.046L679.669 548.391L679.837 547.35L682.986 527.884L725.269 497.557L730.782 504.079L732.565 506.188L734.649 504.371L783.179 462.052L783.941 461.388L784.083 460.389L786.409 444.117L806.562 428.14L807.46 427.428L807.577 426.29L817.126 333.791L824.158 329.466C826.089 332.607 829.851 334.354 833.671 333.551C838.531 332.529 841.643 327.767 840.623 322.913C839.602 318.06 834.835 314.954 829.976 315.976C826.041 316.803 823.252 320.082 822.874 323.876L817.829 326.979L819.681 309.046L814.269 308.492L811.99 330.571L800.231 337.804L793.722 327.454L796.905 325.554L798.104 324.839L798.222 323.45L800.271 299.28C800.323 299.27 800.374 299.26 800.425 299.249C805.285 298.227 808.397 293.465 807.377 288.612C806.357 283.758 801.59 280.652 796.73 281.674C791.87 282.696 788.758 287.459 789.778 292.312C790.39 295.221 792.348 297.503 794.866 298.644L792.919 321.605L790.828 322.852L774.058 296.185L772.818 294.213L770.677 295.136L747.479 305.14L748.133 291.609L757.809 289.575L759.687 289.18L759.945 287.281L761.831 273.436L772.329 271.229L771.211 265.912L762.609 267.72L768.576 223.907L774.305 235.119L775.251 236.969L777.287 236.541L813.951 228.833L812.833 223.516L778.205 230.796L769.862 214.468L773.493 187.803L791.006 188.459L793.59 188.556L793.819 185.983L795.233 170.066L808.659 167.243L807.541 161.926L792.142 165.164L790.17 165.579L789.992 167.584L788.629 182.933L774.23 182.393L774.871 177.688C779.729 176.665 782.839 171.904 781.819 167.052C780.799 162.198 776.032 159.092 771.172 160.114C766.312 161.136 763.2 165.899 764.22 170.752C764.844 173.718 766.866 176.031 769.454 177.148L768.768 182.189L768.103 182.164L753.878 154.623L759.502 154.583L762.018 154.565L762.198 152.058L764.268 123.12L768.358 124.699C768.389 124.967 768.433 125.235 768.49 125.504C769.51 130.357 774.277 133.463 779.137 132.441C783.997 131.419 787.109 126.657 786.089 121.804C785.068 116.951 780.302 113.845 775.442 114.866C772.79 115.424 770.658 117.096 769.434 119.288L762.8 116.726L759.367 115.4L759.104 119.068L756.95 149.167L751.082 149.209L737.837 123.564L737.128 122.192L735.586 122.099L706.107 120.304L680.909 71.3059L680.276 70.0744L678.905 69.8632L630.634 62.425L628.33 62.0701L627.625 64.2891L622.319 80.9776L605.359 78.8361L591.433 57.7183L590.833 56.8072L589.768 56.5646L518.193 40.262L515.731 39.7013L514.987 42.112L496.977 100.478L420.068 92.1261L418.027 91.9045L417.253 93.8042L399.789 136.67L359.717 134.912L306.309 63.9796L305.598 63.0346L304.42 62.9112L257.566 58.001C257.556 56.2146 257.367 54.4026 256.985 52.5865C253.924 38.0269 239.624 28.7089 225.044 31.7742C210.465 34.8395 201.127 49.1272 204.189 63.6868C207.25 78.2464 221.55 87.5643 236.129 84.4991ZM800.598 295.425L800.683 294.429C802.41 293.515 803.399 291.541 802.977 289.537C802.467 287.11 800.084 285.557 797.654 286.068C795.224 286.579 793.668 288.96 794.178 291.387C794.354 292.224 794.752 292.957 795.299 293.537L795.206 294.631C794.278 293.883 793.592 292.823 793.327 291.565C792.719 288.67 794.576 285.828 797.475 285.219C800.375 284.609 803.219 286.462 803.827 289.358C804.369 291.934 802.959 294.468 800.598 295.425ZM778.27 167.798C778.782 170.235 777.547 172.634 775.415 173.696L775.563 172.604C777.015 171.608 777.804 169.805 777.42 167.977C776.909 165.55 774.526 163.997 772.096 164.508C769.666 165.019 768.11 167.4 768.62 169.827C768.834 170.842 769.375 171.705 770.111 172.327L769.976 173.315C768.882 172.563 768.064 171.406 767.77 170.005C767.161 167.11 769.018 164.269 771.918 163.659C774.817 163.049 777.661 164.902 778.27 167.798ZM772.656 126.359L774.269 126.982C775.079 127.714 776.148 128.144 777.281 128.145L777.502 128.23L777.539 128.137C777.762 128.125 777.987 128.095 778.213 128.048C780.643 127.537 782.199 125.155 781.689 122.729C781.178 120.302 778.795 118.749 776.365 119.26C775.263 119.492 774.341 120.108 773.709 120.939L772.872 120.616C773.626 119.523 774.784 118.706 776.187 118.411C779.087 117.801 781.93 119.654 782.539 122.55C783.148 125.446 781.291 128.287 778.392 128.897C776.072 129.384 773.788 128.296 772.656 126.359ZM271.206 161.237C271.37 162.018 271.473 162.797 271.516 163.57L264.951 163.588C264.919 163.254 264.868 162.919 264.798 162.584C263.778 157.731 259.011 154.625 254.151 155.647C249.291 156.668 246.179 161.431 247.199 166.284C248.219 171.137 252.986 174.243 257.846 173.222C260.407 172.683 262.483 171.106 263.724 169.024L270.849 169.006C269.234 174.215 264.913 178.418 259.192 179.621C250.792 181.387 242.554 176.019 240.791 167.632C239.027 159.244 244.406 151.013 252.805 149.247C261.204 147.481 269.443 152.849 271.206 161.237ZM312.492 567.534L306.579 570.553C304.349 567.833 300.716 566.419 297.033 567.194C291.768 568.301 288.396 573.46 289.501 578.718C290.607 583.975 295.771 587.34 301.036 586.233C306.014 585.187 309.299 580.517 308.708 575.567L314.763 572.476C314.842 572.767 314.912 573.063 314.975 573.362C316.824 582.154 311.185 590.782 302.381 592.633C293.577 594.484 284.941 588.857 283.093 580.065C281.244 571.273 286.883 562.645 295.687 560.794C302.335 559.396 308.886 562.262 312.492 567.534ZM100.315 476.466C107.605 474.933 114.78 478.528 118.081 484.802L111.597 486.735C109.418 483.685 105.567 482.045 101.66 482.866C96.3956 483.973 93.0237 489.132 94.1292 494.39C95.2345 499.648 100.399 503.012 105.663 501.905C110.429 500.903 113.644 496.58 113.39 491.87L119.771 489.968C121.048 498.429 115.501 506.52 107.009 508.305C98.2049 510.156 89.5693 504.529 87.7208 495.737C85.8723 486.945 91.5108 478.317 100.315 476.466ZM55.0664 662.886L47.8777 678.457C44.5449 676.76 40.6827 676.146 36.8016 676.962C27.487 678.92 21.5904 688.376 23.6311 698.083C25.6718 707.789 34.8771 714.07 44.1918 712.112C53.5064 710.153 59.403 700.697 57.3623 690.991C56.5913 687.324 54.7979 684.146 52.3625 681.717L59.7964 665.614C66.7816 670.419 72.002 677.807 73.8829 686.753C77.7721 705.251 65.9086 723.404 47.385 727.299C28.8614 731.193 10.6921 719.355 6.8029 700.856C2.91367 682.358 14.7772 664.205 33.3008 660.31C40.9422 658.704 48.5232 659.774 55.0664 662.886ZM113.784 403.086C113.855 403.422 113.92 403.757 113.98 404.092L97.3183 407.596C97.3007 407.505 97.2824 407.415 97.2634 407.324C95.2226 397.618 86.0173 391.337 76.7027 393.295C67.3881 395.254 61.4915 404.71 63.5322 414.416C65.5729 424.123 74.7783 430.404 84.0929 428.445C91.5329 426.881 96.7923 420.533 97.5679 413.095L114.517 409.532C114.811 425.631 103.646 440.193 87.2861 443.632C68.7625 447.527 50.5933 435.688 46.704 417.19C42.8148 398.691 54.6783 380.538 73.2019 376.644C91.7255 372.749 109.895 384.588 113.784 403.086ZM338.279 438.165L327.665 441.422C325.086 435.857 318.923 432.599 312.656 433.917C305.367 435.449 300.698 442.593 302.228 449.873C303.759 457.153 310.909 461.812 318.199 460.279C324.683 458.916 329.094 453.112 328.912 446.723L339.683 443.417C341.628 456.174 333.27 468.381 320.468 471.073C307.209 473.86 294.204 465.386 291.42 452.145C288.636 438.905 297.128 425.911 310.387 423.123C322.297 420.619 334.003 427.202 338.279 438.165ZM211.661 234.929C211.736 235.283 211.802 235.637 211.861 235.991L200.66 236.4C198.791 229.583 191.901 225.319 184.883 226.795C177.593 228.328 172.924 235.471 174.455 242.751C175.985 250.031 183.136 254.69 190.425 253.157C196.147 251.954 200.255 247.294 201.016 241.824L212.148 241.418C211.513 252.179 203.766 261.623 192.695 263.951C179.436 266.738 166.431 258.264 163.647 245.024C160.863 231.783 169.355 218.789 182.613 216.002C195.872 213.214 208.877 221.688 211.661 234.929ZM96.7819 164.047L87.2356 164.277C87.2404 163.44 87.1568 162.59 86.9775 161.737C85.617 155.266 79.2613 151.125 72.7816 152.487C66.3018 153.85 62.1519 160.2 63.5124 166.671C64.8729 173.142 71.2286 177.283 77.7083 175.921C81.3564 175.154 84.266 172.806 85.8696 169.745L96.1178 169.498C94.1513 177.193 87.9761 183.503 79.6694 185.25C68.0305 187.697 56.6142 180.258 54.1705 168.635C51.7268 157.012 59.181 145.606 70.8199 143.159C82.4588 140.712 93.875 148.15 96.3187 159.773C96.6201 161.207 96.7709 162.636 96.7819 164.047ZM403.381 142.266L379.361 201.223L378.702 202.842L376.953 202.914L352.915 203.909L397.155 255.325L413.23 213.224L413.864 211.563L415.641 211.477L477.039 208.509L478.491 208.438L479.356 209.605L527.845 275.022L541.582 272.134L546.659 230.13L546.916 228.01L549.039 227.756L613.928 220.018L614.617 193.154L614.684 190.543L617.299 190.506L646.074 190.095C647.23 187.618 649.498 185.696 652.38 185.09C657.24 184.068 662.007 187.174 663.027 192.027C663.693 195.196 662.598 198.326 660.405 200.401L668.973 214.245L707.265 211.325L708.662 211.219L709.56 212.293L730.064 236.84L735.618 196.476L735.879 194.58L737.754 194.186L755.353 190.486L757.389 190.058L758.335 191.908L765.527 205.984L768.031 187.599L766.309 187.534L764.723 187.475L763.995 186.066L747.778 154.666L710.57 154.93L708.925 154.942L708.151 153.491L683.48 107.205L669.944 104.734L661.637 151.301L661.209 153.702L658.773 153.537L592.749 149.066L591.422 148.977L590.679 147.875L558.793 100.621C558.101 100.866 557.384 101.069 556.646 101.224C547.736 103.097 538.997 97.4029 537.126 88.5054C536.856 87.2187 536.744 85.9356 536.777 84.6762L520.132 84.5335L502.35 144.544L501.746 146.582L499.621 146.488L403.381 142.266ZM619.989 195.902L645.391 195.539C645.403 195.602 645.415 195.665 645.428 195.727C646.407 200.38 650.828 203.427 655.474 202.77L665.214 218.509L666.084 219.914L667.734 219.788L706.279 216.85L729.062 244.124L725.48 270.156L710.839 246.779L709.896 245.273L708.136 245.533L573.718 265.383L571.858 265.657L571.457 267.491L560.234 318.72L531.405 279.826L544.608 277.05L546.516 276.649L546.75 274.716L551.804 232.898L616.908 225.135L619.246 224.856L619.307 222.505L619.989 195.902ZM649.11 195.486C649.711 197.406 651.327 198.784 653.229 199.143L652.549 198.044C651.41 197.586 650.476 196.669 650.024 195.473L649.11 195.486ZM657.936 196.413L658.429 197.208C659.386 196.002 659.819 194.396 659.478 192.774C658.869 189.878 656.025 188.025 653.126 188.635C652.095 188.851 651.197 189.35 650.493 190.032L651.941 190.011C652.352 189.768 652.81 189.587 653.304 189.484C655.733 188.973 658.117 190.526 658.627 192.952C658.89 194.201 658.605 195.437 657.936 196.413ZM542.22 84.7228C542.189 85.5979 542.262 86.4907 542.451 87.386C543.704 93.347 549.559 97.162 555.528 95.907L555.602 95.8912L553.379 92.5974C549.858 92.6597 546.676 90.2245 545.926 86.6553C545.791 86.0154 545.743 85.3774 545.773 84.7533L542.22 84.7228ZM560.506 93.4348L558.499 90.4605C560.265 88.7313 561.137 86.1671 560.592 83.5719C559.741 79.5276 555.769 76.9393 551.719 77.7907C550.49 78.0492 549.395 78.5949 548.489 79.3428L543.875 79.3033C545.41 76.8318 547.915 74.9666 550.989 74.3202C556.959 73.0652 562.814 76.8802 564.067 82.8412C564.919 86.8932 563.425 90.8938 560.506 93.4348ZM563.562 97.9636C568.256 94.2025 570.712 88.0035 569.391 81.7218C567.52 72.8243 558.781 67.13 549.872 69.0032C544.177 70.2004 539.792 74.1989 537.856 79.2517L518.13 79.0826L516.079 79.065L515.497 81.0296L497.737 140.967L405.558 136.923L421.518 97.7494L498.619 106.122L500.853 106.365L501.514 104.22L519.442 46.1203L587.49 61.6196L601.503 82.8699L602.191 83.9133L603.432 84.07L623.883 86.6522L626.132 86.9362L626.818 84.7778L632.105 68.1499L676.703 75.0221L701.974 124.164L702.682 125.54L704.227 125.634L733.71 127.428L744.982 149.252L712.18 149.485L687.665 103.491L687.047 102.333L685.754 102.096L668.236 98.8976L665.547 98.4066L665.067 101.095L656.709 147.951L594.447 143.735L563.562 97.9636ZM764.242 215.424L754.434 196.231L740.747 199.109L735.141 239.85L743.252 238.145C742.933 233.734 745.92 229.655 750.374 228.718C755.234 227.697 760.001 230.803 761.021 235.656C761.163 236.328 761.225 236.999 761.214 237.659L764.242 215.424ZM760.929 239.748C760.099 242.947 757.526 245.566 754.069 246.293C750.701 247.001 747.378 245.727 745.316 243.263L734.354 245.568L730.373 274.498L756.958 268.908L760.929 239.748ZM749.845 242.311C750.886 242.824 752.1 243.006 753.324 242.749C754.548 242.491 755.586 241.836 756.332 240.947L754.612 241.308C754.174 241.583 753.681 241.787 753.145 241.9C752.61 242.012 752.076 242.025 751.565 241.949L749.845 242.311ZM757.084 235.237C756.055 233.03 753.608 231.74 751.119 232.263C748.631 232.786 746.911 234.953 746.857 237.387L747.735 237.202C747.868 235.246 749.282 233.536 751.298 233.112C753.313 232.688 755.297 233.685 756.206 235.421L757.084 235.237ZM756.179 274.624L729.586 280.215L727.68 294.068L727.419 295.964L725.544 296.358L711.771 299.254L724.169 315.192L741.917 307.539L742.801 289.253L742.902 287.157L744.959 286.724L754.813 284.652L756.179 274.624ZM741.625 313.582L724.39 321.015L722.456 321.849L721.164 320.188L691.373 281.889L614.961 303.596L604.605 364.378L604.338 365.945L602.84 366.481L560.485 381.633L579.517 403.656L586.095 400.464C585.781 399.676 585.531 398.852 585.351 397.994C583.65 389.905 588.837 381.968 596.937 380.265C605.037 378.562 612.981 383.739 614.682 391.827C616.383 399.916 611.195 407.854 603.095 409.556C597.753 410.68 592.477 408.81 589.017 405.085L580.012 409.456L578.13 410.369L576.764 408.789L554.994 383.597L474.593 412.36L459.406 471.892L506.849 450.026L508.566 449.234L509.906 450.566L560.656 500.991C562.365 499.697 564.381 498.75 566.619 498.28C572.107 497.126 577.525 499.131 580.976 503.06L669.656 452.214L677.203 402.941L678.028 397.558L681.838 401.451L707.701 427.881L753.41 402.827C753.206 402.237 753.036 401.627 752.904 400.999C751.204 392.911 756.391 384.973 764.491 383.27C765.291 383.102 766.089 383.001 766.88 382.963L771.03 335.973L771.152 334.591L772.346 333.879L786.155 325.64L770.69 301.048L747.187 311.183L745.659 342.815L745.557 344.912L743.501 345.344L738.156 346.468C738.102 350.58 735.208 354.252 731.011 355.135C726.151 356.157 721.384 353.051 720.364 348.197C719.344 343.344 722.456 338.582 727.316 337.56C730.972 336.791 734.576 338.359 736.571 341.249L740.326 340.46L741.625 313.582ZM731.249 342.368L732.455 342.115C731.254 341.184 729.666 340.767 728.061 341.105C725.162 341.714 723.305 344.556 723.914 347.451C724.522 350.347 727.366 352.2 730.266 351.59C732.484 351.124 734.092 349.351 734.453 347.247L733.524 347.442C733.116 349.053 731.825 350.376 730.087 350.741C727.657 351.252 725.274 349.699 724.763 347.272C724.253 344.846 725.809 342.465 728.239 341.954C729.302 341.73 730.356 341.902 731.249 342.368ZM708.506 433.636L756.095 407.552C759.535 411.632 765.055 413.738 770.649 412.562C778.749 410.859 783.936 402.921 782.236 394.832C781.099 389.426 777.173 385.321 772.276 383.701L776.327 337.831L789.049 330.241L797.057 342.975L798.49 345.254L800.786 343.842L811.287 337.383L802.283 424.597L782.179 440.535L781.33 441.208L781.177 442.28L778.841 458.624L733.156 498.462L727.805 492.132L726.183 490.213L724.14 491.678L678.895 524.131L677.976 524.79L677.796 525.905L674.634 545.446L590.439 612.195L573.168 599.789L571.593 598.658L570.008 599.778L507.103 644.246L384.949 536.648L450.464 503.204L451.56 502.645L451.863 501.455L457.676 478.672L507.408 455.751L556.984 505.009C555.008 508.173 554.205 512.073 555.032 516.009C556.733 524.097 564.677 529.274 572.777 527.571C580.877 525.868 586.064 517.931 584.364 509.842C584.21 509.113 584.007 508.408 583.757 507.73L673.5 456.273L674.637 455.621L674.836 454.327L681.756 409.144L705.253 433.154L706.695 434.629L708.506 433.636ZM778.686 395.579C777.888 391.783 775.276 388.834 771.946 387.443L771.579 391.591C773.229 392.634 774.47 394.315 774.903 396.374C775.754 400.418 773.16 404.387 769.11 405.239C766.853 405.713 764.62 405.12 762.939 403.801L759.36 405.762C761.984 408.496 765.919 409.855 769.904 409.017C776.043 407.726 779.975 401.71 778.686 395.579ZM766.209 390.558L766.558 386.616C766.119 386.656 765.678 386.722 765.236 386.815C759.097 388.106 755.165 394.122 756.454 400.253C756.511 400.523 756.577 400.789 756.651 401.05L760.174 399.119C759.533 395.194 762.094 391.421 766.031 390.593C766.09 390.58 766.15 390.569 766.209 390.558ZM577.745 504.913C575.123 502.291 571.267 501.003 567.364 501.824C565.846 502.143 564.463 502.751 563.26 503.579L566.074 506.375C566.711 506.024 567.409 505.76 568.158 505.602C570.359 505.14 572.537 505.693 574.203 506.944L577.745 504.913ZM559.644 507.652L562.584 510.573C562.18 511.789 562.082 513.124 562.365 514.467C563.215 518.511 567.187 521.1 571.237 520.248C575.226 519.41 577.802 515.547 577.066 511.566L580.55 509.568C580.576 509.652 580.601 509.736 580.625 509.821C580.646 509.894 580.666 509.968 580.685 510.042C580.732 510.222 580.775 510.404 580.814 510.588C582.103 516.719 578.171 522.736 572.032 524.026C565.893 525.317 559.871 521.393 558.582 515.262C558.016 512.574 558.455 509.907 559.644 507.652ZM596.433 401.485L592.481 403.404C595.079 405.7 598.694 406.781 602.35 406.012C608.49 404.721 612.422 398.705 611.132 392.574C609.843 386.443 603.822 382.519 597.682 383.81C591.543 385.1 587.611 391.117 588.9 397.248C589.018 397.809 589.176 398.352 589.37 398.874L592.872 397.174C592.798 396.939 592.735 396.699 592.683 396.452C591.833 392.408 594.426 388.439 598.476 387.588C602.526 386.736 606.498 389.325 607.349 393.369C608.199 397.413 605.605 401.382 601.555 402.234C599.741 402.615 597.943 402.306 596.433 401.485ZM556.676 377.225L599.509 361.902L609.162 305.244L606.781 305.92L598.381 335.375L597.931 336.952L596.324 337.29L572.859 342.224L571.151 342.583L570.114 341.182L560.486 328.194L476.606 347.663L491.143 364.557L535.766 355.176L537.336 354.845L538.384 356.058L556.676 377.225ZM472.606 343.014L556.959 323.436L525.547 281.057L463.197 294.166L453.134 320.383L472.606 343.014ZM449.105 315.701L458.648 290.841L459.179 289.459L460.629 289.154L521.987 276.254L475.847 214.006L417.679 216.818L401.187 260.011L449.105 315.701ZM398.982 265.787L387.204 296.634L386.651 298.083L385.122 298.345L380.269 299.178L406.156 327.37L444.952 319.213L398.982 265.787ZM448.997 323.915L410.429 332.024L429.67 352.98L466.625 344.402L448.997 323.915ZM724.324 278.558L707.169 251.168L576.37 270.483L564.533 324.519L573.449 336.548L593.599 332.311L601.964 302.978L602.38 301.522L603.838 301.108L610.174 299.308L613.295 280.99L613.605 279.167L615.418 278.786L682.88 264.602L684.544 264.252L685.587 265.593L693.418 275.66L697.046 274.629L699.118 274.041L700.166 275.92L710.255 294.021L722.552 291.435L724.324 278.558ZM687.774 277.263L682.333 270.269L618.347 283.722L615.972 297.661L687.774 277.263ZM553.098 14.3994C553.309 13.551 553.336 12.643 553.145 11.7303C552.464 8.49487 549.286 6.42422 546.047 7.10538C542.831 7.78151 540.763 10.9146 541.397 14.1251L541.302 14.4614L540.386 17.6992C539.777 16.8157 539.329 15.7996 539.095 14.6842C538.146 10.171 541.041 5.74195 545.56 4.79176C550.079 3.84157 554.512 6.73001 555.461 11.2433C555.724 12.4922 555.692 13.7347 555.413 14.8988L553.098 14.3994ZM558.959 15.6638C559.343 14.0162 559.382 12.2611 559.011 10.497C557.65 4.02609 551.294 -0.115235 544.815 1.24711C538.335 2.60945 534.185 8.95957 535.545 15.4305C536.085 17.9962 537.41 20.1956 539.216 21.831L537.108 29.2767L492.208 23.4512L490.106 23.1785L489.327 25.1481L473.761 64.4873L460.139 60.1476C460.22 58.7299 460.117 57.2785 459.81 55.8226C457.94 46.9251 449.201 41.2308 440.291 43.104C431.381 44.9772 425.675 53.7086 427.546 62.6062C429.417 71.5037 438.156 77.198 447.065 75.3248C452.613 74.1585 456.918 70.3336 458.926 65.4653L474.528 70.4358L476.951 71.2076L477.886 68.8447L493.607 29.1122L538.735 34.9673L541.065 35.2696L541.704 33.0109L544.109 24.5156C545.889 25.0035 547.81 25.0865 549.741 24.6804C552.465 24.1077 554.777 22.6538 556.441 20.6801L579.9 25.7405L607.361 70.8394L610.069 75.2863L612.174 70.5226L621.425 49.5869C623.185 50.0572 625.079 50.1324 626.984 49.7319C630.537 48.9849 633.39 46.7384 635.018 43.7947L647.58 48.8144L656.649 60.7412L657.264 61.5504L658.261 61.7572L682.707 66.832L703.454 101.837L703.914 102.613L704.748 102.96L709.276 104.845C709.277 105.659 709.361 106.485 709.535 107.313C710.895 113.784 717.251 117.925 723.731 116.562C730.21 115.2 734.36 108.85 733 102.379C731.639 95.9082 725.284 91.7669 718.804 93.1292C715.084 93.9114 712.131 96.3377 710.549 99.487L707.676 98.2913L686.777 63.031L686.166 61.9999L684.991 61.756L660.367 56.6442L651.457 44.9275L651.002 44.3284L650.302 44.0489L636.501 38.534C636.543 37.5539 636.465 36.5527 636.254 35.5485C634.893 29.0776 628.537 24.9363 622.058 26.2986C615.578 27.661 611.428 34.0111 612.788 40.482C613.343 43.1205 614.728 45.3716 616.614 47.0203L609.302 63.5673L583.942 21.9186L583.335 20.922L582.193 20.6757L558.959 15.6638ZM713.908 100.885C715.036 98.7975 717.043 97.2008 719.549 96.6739C724.068 95.7237 728.501 98.6121 729.45 103.125C730.399 107.639 727.505 112.068 722.985 113.018C718.466 113.968 714.033 111.08 713.084 106.566C713.074 106.517 713.064 106.467 713.054 106.417L715.955 107.625C717.167 109.941 719.812 111.269 722.499 110.704C725.739 110.023 727.814 106.848 727.134 103.612C726.454 100.377 723.276 98.3063 720.036 98.9875C718.322 99.3477 716.935 100.405 716.108 101.801L713.908 100.885ZM626.239 46.1872C625.108 46.425 623.983 46.4224 622.916 46.2141L623.906 43.9724C624.508 44.0339 625.129 44.0047 625.753 43.8736C627.265 43.5556 628.524 42.6941 629.367 41.5367L631.614 42.4345C630.45 44.2958 628.559 45.6996 626.239 46.1872ZM632.704 36.2948C632.758 36.5527 632.8 36.8104 632.83 37.0671L630.168 36.0037C629.181 33.2227 626.261 31.5322 623.289 32.157C620.049 32.8381 617.974 36.0132 618.655 39.2487C618.784 39.8625 619.003 40.4344 619.295 40.9535L618.183 43.4686C617.29 42.4347 616.639 41.1669 616.338 39.7357C615.389 35.2225 618.284 30.7935 622.803 29.8433C627.322 28.8931 631.755 31.7815 632.704 36.2948ZM552.146 19.7535L548.136 18.8885C547.314 19.0085 546.502 18.9544 545.74 18.7522L545.096 21.0285C546.33 21.362 547.659 21.4168 548.996 21.1357C550.168 20.8893 551.231 20.4088 552.146 19.7535ZM450.298 62.7167L453.718 63.806C452.307 66.8742 449.509 69.2589 445.947 70.0078C439.978 71.2628 434.123 67.4478 432.87 61.4868C431.617 55.5257 435.44 49.676 441.409 48.421C447.378 47.166 453.233 50.981 454.486 56.942C454.59 57.4339 454.659 57.9251 454.694 58.413L450.897 57.2032C449.849 53.4304 446.03 51.0734 442.139 51.8914C438.089 52.7429 435.496 56.7117 436.346 60.756C437.196 64.8004 441.168 67.3887 445.218 66.5372C447.483 66.0611 449.292 64.6103 450.298 62.7167ZM561.917 202.098L546.473 183.563C549.39 179.864 550.707 174.949 549.663 169.982C547.792 161.085 539.053 155.39 530.143 157.264C523.996 158.556 519.374 163.113 517.713 168.737L438.519 166.415C438.463 165.732 438.363 165.044 438.219 164.356C436.348 155.458 427.609 149.764 418.699 151.637C409.79 153.51 404.083 162.242 405.954 171.139C407.825 180.037 416.564 185.731 425.474 183.858C431.819 182.524 436.54 177.711 438.055 171.837L517.062 174.154C517.104 175.018 517.214 175.891 517.398 176.766C519.269 185.663 528.008 191.358 536.918 189.484C538.942 189.059 540.801 188.279 542.443 187.224L558.782 206.832L559.829 208.089L561.432 207.752L592.23 201.277L593.749 200.958L594.248 199.489L605.879 165.203L649.778 167.354L675.196 199.867L675.965 200.85L677.213 200.908L698.09 201.871L700.566 201.985L700.911 199.534L703.241 182.965C704.473 183.1 705.746 183.046 707.024 182.777C712.328 181.662 716.07 177.206 716.509 172.077L735.356 170.174C737.181 173.628 741.136 175.605 745.155 174.76C750.015 173.738 753.127 168.976 752.107 164.123C751.086 159.269 746.32 156.163 741.46 157.185C737.621 157.992 734.872 161.134 734.39 164.81L715.728 166.695C713.639 161.337 707.918 158.12 702.097 159.344C695.618 160.706 691.468 167.056 692.828 173.527C693.509 176.765 695.44 179.419 698.011 181.093L695.868 196.329L678.716 195.538L653.301 163.029L652.535 162.049L651.291 161.988L604.097 159.676L602.046 159.575L601.386 161.519L589.593 196.279L561.917 202.098ZM739.505 169.755L740.703 169.634C741.69 170.333 742.954 170.635 744.232 170.366C746.662 169.855 748.218 167.474 747.708 165.048C747.197 162.621 744.814 161.068 742.384 161.579C740.847 161.902 739.659 162.974 739.123 164.332L738.17 164.429C738.719 162.615 740.217 161.148 742.205 160.73C745.104 160.12 747.949 161.973 748.557 164.869C749.166 167.764 747.309 170.606 744.41 171.216C742.565 171.603 740.743 170.995 739.505 169.755ZM698.598 176.92C697.512 175.82 696.719 174.405 696.378 172.781C695.429 168.268 698.323 163.839 702.843 162.888C706.551 162.109 710.201 163.914 711.916 167.08L709.266 167.347C707.901 165.623 705.63 164.718 703.329 165.202C700.089 165.883 698.014 169.058 698.694 172.294C698.783 172.714 698.913 173.115 699.08 173.492L698.598 176.92ZM703.746 179.374L704.076 177.029C704.637 177.074 705.214 177.04 705.792 176.919C708.044 176.445 709.733 174.767 710.326 172.701L712.807 172.451C712.249 175.735 709.741 178.505 706.279 179.232C705.424 179.412 704.572 179.455 703.746 179.374ZM544.339 171.102C544.952 174.018 544.35 176.908 542.876 179.246L540.424 176.304C541.007 174.941 541.192 173.392 540.864 171.832C540.013 167.788 536.041 165.2 531.991 166.051C530.079 166.453 528.491 167.55 527.438 169.022L523.436 168.905C524.828 165.778 527.652 163.339 531.261 162.581C537.23 161.326 543.085 165.141 544.339 171.102ZM536.594 180.204L538.924 183C537.972 183.532 536.924 183.931 535.8 184.167C529.831 185.422 523.976 181.607 522.722 175.646C522.629 175.201 522.563 174.756 522.525 174.314L526.11 174.419C526.134 174.584 526.163 174.75 526.198 174.916C527.048 178.96 531.02 181.548 535.07 180.697C535.605 180.584 536.114 180.418 536.594 180.204ZM432.894 165.475C432.949 165.735 432.994 165.995 433.03 166.254L429.407 166.148C428.531 162.137 424.577 159.577 420.547 160.425C416.497 161.276 413.903 165.245 414.754 169.289C415.604 173.334 419.576 175.922 423.626 175.071C425.766 174.621 427.5 173.3 428.533 171.558L432.407 171.672C431.111 175.058 428.172 177.739 424.356 178.541C418.387 179.796 412.532 175.981 411.278 170.02C410.025 164.059 413.848 158.209 419.817 156.954C425.786 155.699 431.641 159.514 432.894 165.475ZM836.223 323.838C836.733 326.265 835.177 328.646 832.747 329.157C830.317 329.668 827.934 328.115 827.424 325.688C826.913 323.262 828.47 320.881 830.899 320.37C833.329 319.859 835.713 321.412 836.223 323.838ZM832.925 330.006C835.825 329.397 837.682 326.555 837.073 323.66C836.464 320.764 833.62 318.911 830.721 319.521C827.821 320.13 825.964 322.972 826.573 325.867C827.182 328.763 830.026 330.616 832.925 330.006Z" fill="white" fill-opacity="0.1"/>
</svg>
