<svg width="292" height="457" viewBox="0 0 292 457" fill="none" xmlns="http://www.w3.org/2000/svg">
<path fill-rule="evenodd" clip-rule="evenodd" d="M245.332 33.3372C251.319 33.3372 256.477 29.7881 258.812 24.6807L252.485 22.6414C251.061 25.113 248.391 26.7771 245.332 26.7771C240.778 26.7771 237.086 23.0884 237.086 18.538C237.086 13.9877 240.778 10.2989 245.332 10.2989C249.886 10.2989 253.578 13.9877 253.578 18.538C253.578 18.7134 253.573 18.8874 253.562 19.0601L259.922 21.1097C260.068 20.2745 260.144 19.4152 260.144 18.538C260.144 10.3647 253.513 3.73889 245.332 3.73889C237.151 3.73889 230.52 10.3647 230.52 18.538C230.52 26.7114 237.151 33.3372 245.332 33.3372ZM245.332 37.0761C252.986 37.0761 259.558 32.4454 262.394 25.8351L292.431 35.5157L318.371 90.9077L318.745 91.7067L319.6 91.9261L345.889 98.6718L322.796 132.873L304.745 129.85L289.75 102.603L289.335 101.849L288.491 101.674L261.63 96.097C261.758 95.3238 261.825 94.5297 261.825 93.7201C261.825 85.757 255.364 79.3016 247.394 79.3016C239.424 79.3016 232.962 85.757 232.962 93.7201C232.962 101.683 239.424 108.139 247.394 108.139C253.233 108.139 258.263 104.673 260.535 99.6884L286.886 105.159L300.041 129.062L235.728 118.291L218.637 86.1487L218.214 85.3521L217.326 85.1877L143.958 71.5979C144.191 70.4255 144.313 69.2134 144.313 67.9728C144.313 57.7345 136.006 49.4347 125.758 49.4347C115.511 49.4347 107.204 57.7345 107.204 67.9728C107.204 78.211 115.511 86.5108 125.758 86.5108C133.441 86.5108 140.034 81.8454 142.852 75.1955L215.756 88.6995L232.856 120.859L233.289 121.674L234.199 121.826L302.339 133.238L327.244 178.492L314.43 198.406L309.704 198.23L280.443 148.896L280.003 148.154L279.152 148.007L211.27 136.3C211.3 135.842 211.316 135.381 211.316 134.916C211.316 123.54 202.085 114.318 190.699 114.318C179.313 114.318 170.083 123.54 170.083 134.916C170.083 146.292 179.313 155.514 190.699 155.514C200.332 155.514 208.421 148.914 210.685 139.993L277.664 151.545L305.256 198.064L177.369 193.296L176.42 193.261L175.831 194.005L143.407 235.005H121.626C121.632 234.771 121.635 234.536 121.635 234.3C121.635 219.227 109.405 207.008 94.3189 207.008C79.2325 207.008 67.0025 219.227 67.0025 234.3C67.0025 249.373 79.2325 261.592 94.3189 261.592C107.891 261.592 119.151 251.704 121.275 238.744H144.313H145.219L145.781 238.034L178.178 197.068L307.525 201.89L321.058 224.707H308.727H211.316H210.335L209.777 225.512L168.533 285.034L113.005 289.626C111.472 283.005 105.534 278.07 98.4421 278.07C90.1873 278.07 83.4954 284.756 83.4954 293.004C83.4954 301.251 90.1873 307.937 98.4421 307.937C106.583 307.937 113.203 301.435 113.385 293.346L169.722 288.688L170.603 288.615L171.106 287.889L212.296 228.445H308.727H323.276L334.949 248.127L335.506 249.066L336.598 249.043L365.735 248.435L374.605 264.553L375.138 265.522H376.245H407.611L415.696 280.137L357.951 288.062L356.965 288.198L356.526 289.09L336.102 330.645L316.242 335.185L283.977 288.847L283.356 287.954L282.272 288.053L267.775 289.369C266.27 279.474 257.718 271.891 247.394 271.891C236.008 271.891 226.778 281.113 226.778 292.489C226.778 303.865 236.008 313.087 247.394 313.087C258.574 313.087 267.676 304.195 268.001 293.103L281.527 291.874L313.891 338.357L314.613 339.393L315.845 339.112L333.978 334.966L328.552 346.005L279.112 359.416L258.686 332.052L257.994 331.124L256.854 331.33L68.7313 365.316L68.0035 365.448L67.5624 366.041L43.835 397.942C39.2477 394.457 33.5239 392.388 27.3164 392.388C12.23 392.388 0 404.607 0 419.68C0 434.753 12.23 446.973 27.3164 446.973C42.4028 446.973 54.6328 434.753 54.6328 419.68C54.6328 412.159 51.5873 405.348 46.661 400.411L70.1249 368.864L256.379 335.215L275.23 360.469L232.008 372.193C229.878 366.542 224.417 362.522 218.016 362.522C209.761 362.522 203.069 369.207 203.069 377.455C203.069 385.702 209.761 392.388 218.016 392.388C226.271 392.388 232.963 385.702 232.963 377.455C232.963 376.907 232.933 376.365 232.875 375.832L277.634 363.691L346.398 455.814L347.283 457L348.641 456.412L397.41 435.315L407.333 446.173L408.287 447.217L409.552 446.585L477.585 412.599L478.234 412.274L478.495 411.598L483.37 398.934L516.123 384.497L518.91 389.67L519.812 391.344L521.472 390.415L560.127 368.787L560.734 368.448L560.972 367.795L564.84 357.166L580.666 349.26L581.371 348.908L581.611 348.158L601.129 287.219L606.474 285.302C607.33 287.69 609.615 289.399 612.3 289.399C615.715 289.399 618.484 286.633 618.484 283.22C618.484 279.807 615.715 277.041 612.3 277.041C609.534 277.041 607.193 278.854 606.401 281.355L602.567 282.731L606.351 270.916L602.787 269.777L598.128 284.323L589.189 287.529L586.272 279.637L588.684 278.809L589.592 278.497L589.868 277.578L594.668 261.591C594.704 261.592 594.74 261.592 594.776 261.592C598.192 261.592 600.961 258.826 600.961 255.413C600.961 252 598.192 249.234 594.776 249.234C591.36 249.234 588.591 252 588.591 255.413C588.591 257.459 589.586 259.273 591.12 260.397L586.559 275.585L584.976 276.129L577.461 255.795L576.906 254.292L575.334 254.611L558.304 258.063L560.659 249.043H567.46H568.779L569.222 247.801L572.451 238.744H579.829V235.005H573.784L584 206.345L586.27 214.707L586.645 216.087H588.076H613.846V212.348H589.507L586.202 200.17L592.42 182.728L604.115 185.649L605.841 186.08L606.359 184.38L609.563 173.861H619V170.122H608.177H606.79L606.386 171.447L603.297 181.591L593.681 179.189L594.778 176.111C598.193 176.11 600.961 173.344 600.961 169.932C600.961 166.519 598.192 163.753 594.776 163.753C591.36 163.753 588.591 166.519 588.591 169.932C588.591 172.018 589.625 173.862 591.209 174.981L590.033 178.278L589.589 178.167L583.912 157.606L587.703 158.375L589.399 158.72L589.875 157.057L595.364 137.862L597.893 139.505C597.877 139.689 597.868 139.876 597.868 140.065C597.868 143.478 600.637 146.245 604.053 146.245C607.469 146.245 610.238 143.478 610.238 140.065C610.238 136.652 607.469 133.886 604.053 133.886C602.189 133.886 600.518 134.71 599.384 136.013L595.28 133.348L593.157 131.969L592.461 134.402L586.752 154.367L582.796 153.564L577.51 134.419L577.227 133.395L576.202 133.113L556.613 127.731L546.586 91.1663L546.334 90.2473L545.442 89.9111L514.002 78.0673L512.502 77.5022L511.713 78.8967L505.78 89.384L494.667 85.5405L488.282 69.3474L488.007 68.6488L487.324 68.3347L441.453 47.2219L439.875 46.4957L439.034 48.0138L418.651 84.7693L368.064 68.2556L366.722 67.8174L365.932 68.9871L348.11 95.3816L321.386 88.5242L295.475 33.1941L295.13 32.4571L294.355 32.2072L263.511 22.2666C263.757 21.0621 263.887 19.8152 263.887 18.538C263.887 8.29976 255.579 0 245.332 0C235.085 0 226.778 8.29976 226.778 18.538C226.778 28.7763 235.085 37.0761 245.332 37.0761ZM595.434 259.041L595.632 258.383C596.923 258.012 597.868 256.823 597.868 255.413C597.868 253.707 596.484 252.323 594.776 252.323C593.068 252.323 591.683 253.707 591.683 255.413C591.683 256.001 591.848 256.551 592.134 257.02L591.917 257.744C591.397 257.108 591.086 256.297 591.086 255.413C591.086 253.377 592.738 251.726 594.776 251.726C596.814 251.726 598.466 253.377 598.466 255.413C598.466 257.225 597.158 258.731 595.434 259.041ZM598.466 169.932C598.466 171.646 597.295 173.087 595.709 173.5L595.964 172.785C597.082 172.32 597.868 171.218 597.868 169.932C597.868 168.226 596.484 166.842 594.776 166.842C593.068 166.842 591.683 168.226 591.683 169.932C591.683 170.646 591.926 171.304 592.333 171.827L592.103 172.473C591.473 171.812 591.086 170.917 591.086 169.932C591.086 167.896 592.738 166.245 594.776 166.245C596.814 166.245 598.466 167.896 598.466 169.932ZM600.551 141.231L601.549 141.879C601.991 142.487 602.65 142.928 603.412 143.088L603.549 143.177L603.586 143.12C603.739 143.143 603.894 143.155 604.053 143.155C605.761 143.155 607.145 141.772 607.145 140.065C607.145 138.359 605.761 136.975 604.053 136.975C603.278 136.975 602.57 137.26 602.028 137.73L601.51 137.394C602.172 136.765 603.067 136.378 604.053 136.378C606.091 136.378 607.743 138.029 607.743 140.065C607.743 142.101 606.091 143.752 604.053 143.752C602.423 143.752 601.04 142.696 600.551 141.231ZM258.083 93.7201C258.083 94.2692 258.041 94.8086 257.961 95.3354L253.54 94.4174C253.565 94.1885 253.579 93.9558 253.579 93.7201C253.579 90.3073 250.81 87.5407 247.394 87.5407C243.978 87.5407 241.209 90.3073 241.209 93.7201C241.209 97.1328 243.978 99.8994 247.394 99.8994C249.194 99.8994 250.814 99.1312 251.944 97.905L256.743 98.9012C254.918 102.181 251.415 104.4 247.394 104.4C241.49 104.4 236.705 99.6182 236.705 93.7201C236.705 87.8219 241.49 83.0405 247.394 83.0405C253.297 83.0405 258.083 87.8219 258.083 93.7201ZM228.374 373.179L223.966 374.375C222.85 372.227 220.604 370.761 218.016 370.761C214.315 370.761 211.316 373.758 211.316 377.455C211.316 381.152 214.315 384.149 218.016 384.149C221.515 384.149 224.387 381.47 224.69 378.052L229.203 376.828C229.214 377.036 229.22 377.245 229.22 377.455C229.22 383.638 224.204 388.65 218.016 388.65C211.828 388.65 206.811 383.638 206.811 377.455C206.811 371.272 211.828 366.26 218.016 366.26C222.688 366.26 226.692 369.118 228.374 373.179ZM98.4421 281.809C103.566 281.809 107.887 285.246 109.221 289.939L104.583 290.322C103.548 287.96 101.188 286.31 98.4421 286.31C94.7417 286.31 91.7419 289.307 91.7419 293.004C91.7419 296.701 94.7417 299.698 98.4421 299.698C101.792 299.698 104.568 297.242 105.064 294.034L109.628 293.657C109.29 299.535 104.411 304.198 98.4421 304.198C92.2541 304.198 87.2376 299.186 87.2376 293.004C87.2376 286.821 92.2541 281.809 98.4421 281.809ZM41.6027 400.943L34.5602 410.412C32.5569 408.797 30.0442 407.837 27.3163 407.837C20.7693 407.837 15.462 413.37 15.462 420.195C15.462 427.021 20.7693 432.554 27.3163 432.554C33.8632 432.554 39.1706 427.021 39.1706 420.195C39.1706 417.617 38.4131 415.223 37.1176 413.242L44.4003 403.45C48.4222 407.675 50.8906 413.39 50.8906 419.68C50.8906 432.689 40.3361 443.234 27.3164 443.234C14.2967 443.234 3.74222 432.689 3.74222 419.68C3.74222 406.672 14.2967 396.127 27.3164 396.127C32.6873 396.127 37.6387 397.922 41.6027 400.943ZM117.893 234.3C117.893 234.536 117.89 234.771 117.883 235.005H106.172C106.173 234.942 106.173 234.879 106.173 234.815C106.173 227.99 100.866 222.456 94.3188 222.456C87.7718 222.456 82.4645 227.99 82.4645 234.815C82.4645 241.641 87.7718 247.174 94.3188 247.174C99.5482 247.174 103.987 243.644 105.561 238.744H117.474C115.394 249.628 105.818 257.853 94.3189 257.853C81.2993 257.853 70.7447 247.308 70.7447 234.3C70.7447 221.292 81.2993 210.747 94.3189 210.747C107.339 210.747 117.893 221.292 117.893 234.3ZM264.039 289.709L256.434 290.399C255.486 286.287 251.798 283.22 247.394 283.22C242.27 283.22 238.116 287.37 238.116 292.489C238.116 297.608 242.27 301.758 247.394 301.758C251.951 301.758 255.742 298.474 256.523 294.146L264.241 293.445C263.745 302.311 256.392 309.348 247.394 309.348C238.074 309.348 230.52 301.8 230.52 292.489C230.52 283.178 238.074 275.63 247.394 275.63C255.765 275.63 262.712 281.721 264.039 289.709ZM207.573 134.916C207.573 135.165 207.568 135.413 207.557 135.659L199.96 134.349C199.667 129.494 195.633 125.647 190.699 125.647C185.576 125.647 181.422 129.797 181.422 134.916C181.422 140.035 185.576 144.185 190.699 144.185C194.721 144.185 198.145 141.628 199.432 138.052L206.982 139.354C205.032 146.512 198.481 151.775 190.699 151.775C181.38 151.775 173.826 144.227 173.826 134.916C173.826 125.605 181.38 118.057 190.699 118.057C200.019 118.057 207.573 125.605 207.573 134.916ZM140.278 70.9161L133.819 69.7198C133.941 69.1567 134.005 68.5722 134.005 67.9728C134.005 63.4224 130.313 59.7337 125.759 59.7337C121.204 59.7337 117.512 63.4224 117.512 67.9728C117.512 72.5231 121.204 76.2119 125.759 76.2119C128.323 76.2119 130.613 75.0427 132.126 73.2088L139.059 74.493C136.646 79.3969 131.597 82.7719 125.758 82.7719C117.578 82.7719 110.946 76.1461 110.946 67.9728C110.946 59.7994 117.578 53.1736 125.758 53.1736C133.939 53.1736 140.571 59.7994 140.571 67.9728C140.571 68.9806 140.47 69.9649 140.278 70.9161ZM349.736 99.659L325.225 135.961L324.552 136.958L323.364 136.759L307.043 134.026L329.545 174.915L346.324 148.838L346.986 147.81L348.194 148.003L389.942 154.698L390.929 154.856L391.346 155.764L414.727 206.683H424.383L433.744 179.115L434.217 177.724L435.682 177.854L480.455 181.83L484.721 163.837L485.135 162.088L486.901 162.433L506.328 166.231C507.456 164.726 509.255 163.753 511.281 163.753C514.697 163.753 517.466 166.519 517.466 169.932C517.466 172.16 516.285 174.113 514.515 175.2L518.323 185.736L544.511 189.191L545.467 189.317L545.919 190.168L556.247 209.601L565.698 183.206L566.142 181.966H567.46H579.829H581.261L581.635 183.346L584.484 193.844L588.772 181.817L587.622 181.53L586.562 181.265L586.272 180.213L579.8 156.771L554.717 151.681L553.608 151.456L553.293 150.37L543.236 115.706L534.475 112.125L522.293 142.309L521.665 143.865L520.049 143.409L476.24 131.05L475.359 130.802L475.015 129.955L460.24 93.6177C459.739 93.6852 459.228 93.7201 458.709 93.7201C452.447 93.7201 447.37 88.648 447.37 82.3913C447.37 81.4865 447.477 80.6065 447.677 79.7631L436.493 77.3102L416.031 115.205L415.337 116.492L413.919 116.129L349.736 99.659ZM487.947 166.447L505.097 169.8C505.096 169.844 505.096 169.888 505.096 169.932C505.096 173.204 507.641 175.882 510.861 176.097L515.19 188.075L515.577 189.145L516.705 189.294L543.066 192.772L554.542 214.365L548.446 231.388L541.9 213.573L541.478 212.425L540.257 212.351L446.969 206.687L445.678 206.609L445.148 207.787L430.345 240.697L416.444 210.422H425.724H427.065L427.495 209.154L436.816 181.708L481.737 185.698L483.35 185.841L483.723 184.266L487.947 166.447ZM507.608 170.291C507.741 171.669 508.634 172.826 509.863 173.337L509.561 172.5C508.859 172.03 508.361 171.281 508.225 170.411L507.608 170.291ZM513.418 172.164L513.637 172.769C514.452 172.093 514.971 171.073 514.971 169.932C514.971 167.896 513.319 166.245 511.281 166.245C510.557 166.245 509.881 166.454 509.311 166.814L510.288 167.005C510.6 166.899 510.933 166.842 511.28 166.842C512.988 166.842 514.373 168.226 514.373 169.932C514.373 170.81 514.006 171.602 513.418 172.164ZM451.334 80.5651C451.189 81.15 451.113 81.7617 451.113 82.3913C451.113 86.583 454.514 89.9812 458.709 89.9812L458.761 89.981L457.731 87.4481C455.353 86.9916 453.555 84.9011 453.555 82.3913C453.555 81.9413 453.613 81.5048 453.722 81.0887L451.334 80.5651ZM462.41 89.0212L461.48 86.7341C462.913 85.8195 463.863 84.2162 463.863 82.3913C463.863 79.5473 461.556 77.2418 458.709 77.2418C457.845 77.2418 457.031 77.4543 456.316 77.8297L453.215 77.1497C454.598 75.7027 456.548 74.8013 458.709 74.8013C462.905 74.8013 466.306 78.1995 466.306 82.3913C466.306 85.2406 464.734 87.7233 462.41 89.0212ZM463.826 92.5037C467.518 90.6354 470.048 86.8085 470.048 82.3913C470.048 76.1345 464.972 71.0625 458.709 71.0625C454.707 71.0625 451.189 73.1342 449.171 76.2628L435.917 73.3561L434.539 73.0538L433.87 74.2944L413.433 112.144L351.958 96.3689L368.244 72.2478L418.958 88.8028L420.427 89.2823L421.175 87.9318L441.465 51.3439L485.076 71.4164L491.501 87.711L491.816 88.5111L492.629 88.7924L506.03 93.4269L507.504 93.9366L508.271 92.5802L514.182 82.1309L543.229 93.0733L553.285 129.745L553.567 130.772L554.594 131.054L574.185 136.437L578.684 152.73L556.572 148.242L546.579 113.797L546.327 112.93L545.49 112.588L534.151 107.953L532.411 107.242L531.708 108.984L519.45 139.355L478.138 127.701L463.826 92.5037ZM582.283 200.019L578.398 185.705H568.777L559.238 212.348H564.939C565.349 209.332 567.937 207.008 571.067 207.008C574.483 207.008 577.252 209.775 577.252 213.187C577.252 213.66 577.199 214.121 577.098 214.563L582.283 200.019ZM576.611 215.93C575.6 217.967 573.497 219.367 571.067 219.367C568.7 219.367 566.644 218.038 565.604 216.087H557.9L551.126 235.005H569.811L576.611 215.93ZM568.788 216.087C569.415 216.58 570.207 216.874 571.067 216.874C571.928 216.874 572.719 216.58 573.347 216.087H572.138C571.805 216.21 571.444 216.277 571.067 216.277C570.691 216.277 570.33 216.21 569.996 216.087H568.788ZM574.661 212.348C574.281 210.716 572.816 209.501 571.067 209.501C569.318 209.501 567.854 210.716 567.473 212.348H568.091C568.457 211.049 569.651 210.098 571.067 210.098C572.484 210.098 573.678 211.049 574.044 212.348H574.661ZM568.478 238.744H549.787L546.544 247.803L546.1 249.043H544.782H535.101L541.191 261.532L554.22 258.891L557.403 246.702L557.768 245.304H559.213H566.14L568.478 238.744ZM553.168 262.919L540.515 265.484L539.096 265.772L538.461 264.471L523.828 234.461L469.322 238.261L453.75 277.726L453.348 278.744L452.264 278.893L421.61 283.1L431.304 300.626L436.183 299.407C436.084 298.832 436.032 298.241 436.032 297.638C436.032 291.951 440.647 287.34 446.34 287.34C452.033 287.34 456.648 291.951 456.648 297.638C456.648 303.326 452.033 307.937 446.34 307.937C442.585 307.937 439.298 305.931 437.496 302.933L430.816 304.602L429.42 304.95L428.725 303.692L417.636 283.645L359.446 291.631L340.798 329.571L375.827 321.563L377.095 321.273L377.809 322.36L404.833 363.503C406.167 362.874 407.658 362.522 409.231 362.522C413.089 362.522 416.451 364.639 418.219 367.774L485.106 346.088L497.159 313.975L498.476 310.467L500.489 313.628L514.158 335.088L548.471 324.688C548.417 324.262 548.389 323.827 548.389 323.386C548.389 317.698 553.004 313.087 558.697 313.087C559.26 313.087 559.811 313.132 560.349 313.218L569.793 282.162L570.07 281.248L570.975 280.937L581.436 277.344L574.506 258.594L557.252 262.091L551.746 283.177L551.382 284.574H549.936H546.179C545.561 287.336 543.094 289.399 540.143 289.399C536.728 289.399 533.959 286.633 533.959 283.22C533.959 279.807 536.728 277.041 540.143 277.041C542.713 277.041 544.917 278.607 545.851 280.836H548.49L553.168 262.919ZM542.11 280.836H542.958C542.281 280.039 541.271 279.533 540.143 279.533C538.105 279.533 536.453 281.184 536.453 283.22C536.453 285.256 538.105 286.907 540.143 286.907C541.703 286.907 543.036 285.94 543.576 284.574H542.923C542.421 285.602 541.365 286.31 540.143 286.31C538.435 286.31 537.051 284.926 537.051 283.22C537.051 281.514 538.435 280.13 540.143 280.13C540.89 280.13 541.575 280.395 542.11 280.836ZM513.885 339.078L549.609 328.25C551.348 331.485 554.765 333.685 558.697 333.685C564.39 333.685 569.005 329.074 569.005 323.386C569.005 319.584 566.944 316.264 563.877 314.479L573.095 284.162L582.732 280.853L586.32 290.562L586.963 292.3L588.708 291.674L596.69 288.811L578.287 346.268L562.5 354.155L561.833 354.488L561.578 355.188L557.692 365.864L521.303 386.224L518.597 381.203L517.777 379.682L516.195 380.379L481.147 395.827L480.435 396.141L480.156 396.867L475.263 409.579L409.143 442.609L399.274 431.809L398.373 430.824L397.148 431.354L348.513 452.394L281.517 362.638L330.349 349.392L331.165 349.171L331.538 348.412L338.675 333.892L375.394 325.498L401.793 365.689C400.015 367.54 398.923 370.053 398.923 372.82C398.923 378.508 403.538 383.119 409.231 383.119C414.924 383.119 419.539 378.508 419.539 372.82C419.539 372.308 419.501 371.805 419.429 371.312L487.119 349.366L487.977 349.088L488.293 348.245L499.346 318.797L511.764 338.293L512.526 339.49L513.885 339.078ZM566.511 323.386C566.511 320.717 565.17 318.36 563.125 316.953L562.291 319.694C563.254 320.63 563.852 321.938 563.852 323.386C563.852 326.23 561.544 328.535 558.698 328.535C557.111 328.535 555.693 327.819 554.747 326.693L552.061 327.507C553.44 329.72 555.897 331.192 558.697 331.192C563.013 331.192 566.511 327.697 566.511 323.386ZM558.823 318.238L559.615 315.633C559.314 315.597 559.008 315.579 558.697 315.579C554.382 315.579 550.884 319.074 550.884 323.386C550.884 323.576 550.891 323.764 550.904 323.951L553.549 323.149C553.673 320.415 555.931 318.236 558.698 318.236C558.74 318.236 558.781 318.237 558.823 318.238ZM415.781 368.564C414.388 366.427 411.974 365.014 409.231 365.014C408.164 365.014 407.147 365.228 406.22 365.615L407.719 367.896C408.197 367.75 408.704 367.671 409.23 367.671C410.777 367.671 412.165 368.352 413.11 369.43L415.781 368.564ZM403.209 367.845L404.775 370.229C404.331 370.991 404.076 371.876 404.076 372.82C404.076 375.664 406.384 377.97 409.23 377.97C412.034 377.97 414.315 375.733 414.383 372.948L417.011 372.096C417.016 372.156 417.021 372.217 417.025 372.277C417.029 372.329 417.032 372.382 417.035 372.434C417.041 372.562 417.044 372.691 417.044 372.82C417.044 377.132 413.546 380.627 409.231 380.627C404.916 380.627 401.417 377.132 401.417 372.82C401.417 370.93 402.09 369.196 403.209 367.845ZM442.998 301.559L440.065 302.291C441.489 304.205 443.77 305.445 446.34 305.445C450.655 305.445 454.153 301.95 454.153 297.638C454.153 293.327 450.655 289.832 446.34 289.832C442.025 289.832 438.527 293.327 438.527 297.638C438.527 298.033 438.556 298.421 438.613 298.8L441.211 298.151C441.194 297.983 441.185 297.811 441.185 297.638C441.185 294.794 443.493 292.489 446.34 292.489C449.186 292.489 451.494 294.794 451.494 297.638C451.494 300.482 449.186 302.788 446.34 302.788C445.064 302.788 443.898 302.325 442.998 301.559ZM419.67 279.592L450.67 275.337L465.186 238.549L463.487 238.667L453.665 257.314L453.139 258.312H452.009H435.516H434.316L433.816 257.222L429.174 247.113L369.957 248.347L377.351 261.783H408.715H409.819L410.353 262.748L419.67 279.592ZM367.923 244.65L427.473 243.409L412.326 210.422H368.502L358.018 226.653L367.923 244.65ZM355.969 222.929L365.911 207.539L366.464 206.683H367.483H410.61L388.362 158.231L348.81 151.889L331.596 178.641L355.969 222.929ZM329.294 182.219L317.001 201.325L316.424 202.222L315.357 202.182L311.973 202.056L325.408 224.707H352.677L329.294 182.219ZM354.734 228.445H327.626L337.612 245.282L363.701 244.738L354.734 228.445ZM546.479 236.883L538.808 216.009L448.032 210.497L432.417 245.21L436.716 254.573H450.88L460.661 236.004L461.147 235.082L462.187 235.01L466.707 234.695L471.4 222.801L471.867 221.617H473.141H520.558H521.728L522.24 222.668L526.086 230.556L528.674 230.375L530.152 230.272L530.591 231.686L534.821 245.304H543.464L546.479 236.883ZM522.061 230.836L519.388 225.356H474.414L470.843 234.407L522.061 230.836ZM468.609 34.7474C468.871 34.2059 469.018 33.5983 469.018 32.9565C469.018 30.6813 467.172 28.8369 464.894 28.8369C462.634 28.8369 460.799 30.6541 460.771 32.9059L460.66 33.119L459.585 35.1697C459.3 34.4885 459.143 33.7408 459.143 32.9565C459.143 29.7828 461.718 27.21 464.894 27.21C468.071 27.21 470.646 29.7828 470.646 32.9565C470.646 33.8348 470.449 34.667 470.096 35.4114L468.609 34.7474ZM472.375 36.4287C472.866 35.3735 473.141 34.197 473.141 32.9565C473.141 28.4062 469.449 24.7174 464.894 24.7174C460.34 24.7174 456.648 28.4062 456.648 32.9565C456.648 34.7607 457.228 36.4294 458.213 37.7865L455.74 42.5023L426.342 32.2219L424.965 31.7406L424.162 32.9566L408.117 57.245L399.562 52.3939C399.817 51.4506 399.953 50.4585 399.953 49.4347C399.953 43.178 394.877 38.1059 388.614 38.1059C382.352 38.1059 377.275 43.178 377.275 49.4347C377.275 55.6915 382.352 60.7635 388.614 60.7635C392.513 60.7635 395.953 58.7974 397.993 55.8032L407.792 61.3595L409.313 62.2223L410.277 60.7634L426.482 36.2322L456.03 46.5648L457.555 47.0982L458.305 45.6677L461.126 40.2872C462.256 40.8679 463.537 41.1956 464.894 41.1956C466.809 41.1956 468.571 40.5439 469.97 39.4503L485.044 46.1796L497.146 80.4387L498.34 83.8168L500.431 80.9068L509.621 68.118C510.739 68.6838 512.003 69.0027 513.342 69.0027C515.84 69.0027 518.077 67.8937 519.59 66.1418L527.335 71.3008L531.752 80.6168L532.052 81.2489L532.693 81.5293L548.43 88.4079L557.441 114.919L557.641 115.507L558.153 115.858L560.935 117.769C560.82 118.317 560.759 118.885 560.759 119.467C560.759 124.018 564.451 127.706 569.006 127.706C573.56 127.706 577.252 124.018 577.252 119.467C577.252 114.917 573.56 111.228 569.006 111.228C566.391 111.228 564.06 112.444 562.549 114.341L560.785 113.129L551.708 86.4246L551.442 85.6437L550.686 85.3131L534.834 78.3842L530.495 69.2323L530.273 68.7643L529.842 68.4771L521.333 62.8091C521.5 62.155 521.589 61.4697 521.589 60.7636C521.589 56.2132 517.897 52.5244 513.342 52.5244C508.788 52.5244 505.096 56.2132 505.096 60.7636C505.096 62.6189 505.71 64.3311 506.746 65.7083L499.482 75.8163L488.306 44.1781L488.038 43.421L487.305 43.0934L472.375 36.4287ZM564.612 115.758C565.668 114.512 567.244 113.721 569.006 113.721C572.182 113.721 574.757 116.294 574.757 119.467C574.757 122.641 572.182 125.214 569.006 125.214C565.829 125.214 563.254 122.641 563.254 119.467C563.254 119.432 563.254 119.398 563.255 119.363L565.037 120.587C565.525 122.318 567.117 123.587 569.006 123.587C571.283 123.587 573.129 121.743 573.129 119.467C573.129 117.192 571.283 115.348 569.006 115.348C567.801 115.348 566.718 115.864 565.964 116.686L564.612 115.758ZM513.342 66.5101C512.547 66.5101 511.79 66.349 511.101 66.0576L512.085 64.6882C512.482 64.8148 512.904 64.8831 513.342 64.8831C514.405 64.8831 515.374 64.4812 516.106 63.8211L517.491 64.7438C516.444 65.8325 514.973 66.5101 513.342 66.5101ZM519.094 60.7636C519.094 60.9449 519.086 61.1244 519.069 61.3014L517.428 60.2085C517.157 58.1958 515.431 56.644 513.342 56.644C511.065 56.644 509.219 58.4884 509.219 60.7636C509.219 61.1952 509.285 61.6113 509.409 62.0023L508.305 63.5387C507.85 62.716 507.591 61.77 507.591 60.7636C507.591 57.5898 510.166 55.017 513.342 55.017C516.519 55.017 519.094 57.5898 519.094 60.7636ZM467.21 38.2182L464.633 37.068C464.063 37.0324 463.524 36.8809 463.04 36.6369L462.284 38.0786C463.067 38.4779 463.955 38.703 464.894 38.703C465.718 38.703 466.502 38.53 467.21 38.2182ZM392.575 52.7306L394.722 53.9484C393.338 55.8148 391.118 57.0247 388.614 57.0247C384.419 57.0247 381.018 53.6265 381.018 49.4347C381.018 45.243 384.419 41.8448 388.614 41.8448C392.81 41.8448 396.211 45.243 396.211 49.4347C396.211 49.7807 396.188 50.1212 396.143 50.4548L393.758 49.1025C393.587 46.4134 391.349 44.2853 388.615 44.2853C385.768 44.2853 383.461 46.5908 383.461 49.4348C383.461 52.2787 385.768 54.5842 388.615 54.5842C390.206 54.5842 391.629 53.8634 392.575 52.7306ZM447.982 162.398L440.209 147.73C442.696 145.652 444.278 142.528 444.278 139.035C444.278 132.779 439.202 127.706 432.939 127.706C428.619 127.706 424.863 130.121 422.949 133.673L369.971 120.896C370.029 120.428 370.06 119.951 370.06 119.467C370.06 113.211 364.983 108.139 358.721 108.139C352.459 108.139 347.382 113.211 347.382 119.467C347.382 125.724 352.459 130.796 358.721 130.796C363.181 130.796 367.04 128.223 368.891 124.482L421.744 137.229C421.65 137.817 421.6 138.42 421.6 139.035C421.6 145.292 426.677 150.364 432.939 150.364C434.362 150.364 435.724 150.102 436.979 149.624L445.202 165.142L445.729 166.137H446.855H468.502H469.57L470.113 165.219L482.795 143.776L512.039 151.44L524.547 176.934L524.926 177.705L525.758 177.921L539.674 181.526L541.324 181.953L541.903 180.351L545.817 169.523C546.626 169.788 547.491 169.932 548.39 169.932C552.117 169.932 555.267 167.461 556.288 164.069L569.244 165.456C569.984 168.04 572.366 169.932 575.19 169.932C578.606 169.932 581.375 167.165 581.375 163.753C581.375 160.34 578.606 157.573 575.19 157.573C572.492 157.573 570.197 159.3 569.352 161.707L556.524 160.334C555.876 156.43 552.481 153.454 548.39 153.454C543.835 153.454 540.143 157.143 540.143 161.693C540.143 163.969 541.067 166.03 542.561 167.522L538.962 177.479L527.529 174.517L515.022 149.026L514.645 148.258L513.817 148.041L482.377 139.802L481.011 139.444L480.292 140.659L467.434 162.398H447.982ZM572.096 165.761L572.919 165.849C573.484 166.46 574.293 166.842 575.191 166.842C576.899 166.842 578.283 165.459 578.283 163.753C578.283 162.046 576.899 160.663 575.191 160.663C574.11 160.663 573.159 161.217 572.606 162.056L571.951 161.985C572.578 160.842 573.793 160.066 575.19 160.066C577.228 160.066 578.88 161.716 578.88 163.753C578.88 165.789 577.228 167.439 575.19 167.439C573.894 167.439 572.754 166.771 572.096 165.761ZM543.547 164.795C542.972 163.9 542.638 162.835 542.638 161.693C542.638 158.519 545.213 155.946 548.39 155.946C550.996 155.946 553.198 157.679 553.904 160.054L552.083 159.859C551.407 158.504 550.007 157.573 548.39 157.573C546.112 157.573 544.266 159.418 544.266 161.693C544.266 161.988 544.297 162.277 544.357 162.554L543.547 164.795ZM546.665 167.176L547.219 165.644C547.59 165.754 547.983 165.812 548.39 165.812C549.972 165.812 551.347 164.921 552.038 163.614L553.744 163.797C552.903 165.93 550.823 167.439 548.39 167.439C547.789 167.439 547.209 167.347 546.665 167.176ZM440.536 139.035C440.536 141.086 439.722 142.947 438.399 144.313L437.165 141.985C437.75 141.149 438.093 140.132 438.093 139.035C438.093 136.191 435.786 133.886 432.939 133.886C431.595 133.886 430.372 134.4 429.454 135.242L426.777 134.596C428.157 132.687 430.403 131.445 432.939 131.445C437.135 131.445 440.536 134.843 440.536 139.035ZM434.035 144.068L435.207 146.281C434.491 146.505 433.729 146.625 432.939 146.625C428.744 146.625 425.343 143.227 425.343 139.035C425.343 138.722 425.362 138.413 425.399 138.11L427.797 138.688C427.789 138.803 427.785 138.919 427.785 139.035C427.785 141.879 430.093 144.185 432.939 144.185C433.315 144.185 433.682 144.145 434.035 144.068ZM366.318 119.467C366.318 119.65 366.311 119.831 366.298 120.011L363.875 119.426C363.853 116.601 361.554 114.318 358.721 114.318C355.875 114.318 353.567 116.623 353.567 119.467C353.567 122.311 355.875 124.617 358.721 124.617C360.225 124.617 361.579 123.973 362.521 122.946L365.113 123.571C363.761 125.668 361.403 127.057 358.721 127.057C354.525 127.057 351.124 123.659 351.124 119.467C351.124 115.276 354.525 111.877 358.721 111.877C362.916 111.877 366.318 115.276 366.318 119.467ZM615.392 283.22C615.392 284.926 614.008 286.31 612.3 286.31C610.592 286.31 609.207 284.926 609.207 283.22C609.207 281.514 610.592 280.13 612.3 280.13C614.008 280.13 615.392 281.514 615.392 283.22ZM612.3 286.907C614.338 286.907 615.99 285.256 615.99 283.22C615.99 281.184 614.338 279.533 612.3 279.533C610.262 279.533 608.61 281.184 608.61 283.22C608.61 285.256 610.262 286.907 612.3 286.907Z" fill="white" fill-opacity="0.9"/>
</svg>
