<svg width="128" height="132" viewBox="0 0 128 132" fill="none" xmlns="http://www.w3.org/2000/svg">
<path opacity="0.4" d="M63.7037 -28C46.8084 -28 30.6051 -21.2572 18.6584 -9.25489C6.71162 2.7474 0 19.026 0 35.9998C0 79.1997 56.1389 127.999 58.5278 130.079C59.9701 131.319 61.8057 132 63.7037 132C65.6017 132 67.4373 131.319 68.8796 130.079C71.6667 127.999 127.407 79.1997 127.407 35.9998C127.407 19.026 120.696 2.7474 108.749 -9.25489C96.8023 -21.2572 80.599 -28 63.7037 -28ZM63.7037 113.2C46.7426 97.1996 15.9259 62.7197 15.9259 35.9998C15.9259 23.2694 20.9596 11.0605 29.9197 2.05878C38.8798 -6.94294 51.0322 -12.0001 63.7037 -12.0001C76.3752 -12.0001 88.5276 -6.94294 97.4877 2.05878C106.448 11.0605 111.481 23.2694 111.481 35.9998C111.481 62.7197 80.6648 97.2796 63.7037 113.2ZM63.7037 3.9999C57.404 3.9999 51.2458 5.87666 46.0078 9.39285C40.7698 12.909 36.6872 17.9067 34.2764 23.754C31.8656 29.6012 31.2349 36.0353 32.4639 42.2427C33.6929 48.45 36.7265 54.1519 41.181 58.6271C45.6356 63.1024 51.3111 66.1501 57.4897 67.3848C63.6684 68.6195 70.0727 67.9858 75.8929 65.5639C81.7131 63.1419 86.6876 59.0403 90.1876 53.778C93.6875 48.5156 95.5556 42.3288 95.5556 35.9998C95.5556 27.5129 92.1997 19.3736 86.2264 13.3724C80.253 7.3713 72.1513 3.9999 63.7037 3.9999ZM63.7037 51.9997C60.5539 51.9997 57.4747 51.0614 54.8557 49.3033C52.2367 47.5452 50.1955 45.0463 48.9901 42.1227C47.7847 39.1991 47.4693 35.982 48.0838 32.8784C48.6983 29.7747 50.2151 26.9238 52.4424 24.6861C54.6697 22.4485 57.5074 20.9246 60.5967 20.3073C63.686 19.6899 66.8882 20.0068 69.7983 21.2178C72.7084 22.4288 75.1957 24.4795 76.9456 27.1107C78.6956 29.7419 79.6296 32.8353 79.6296 35.9998C79.6296 40.2432 77.9517 44.3129 74.965 47.3135C71.9783 50.314 67.9275 51.9997 63.7037 51.9997Z" fill="#8B8B8B"/>
</svg>
