<svg width="26" height="17" viewBox="0 0 26 17" fill="none" xmlns="http://www.w3.org/2000/svg">
<path fill-rule="evenodd" clip-rule="evenodd" d="M16.9096 0.262469C17.2579 -0.0874896 17.8226 -0.0874896 18.1709 0.262469L25.7388 7.86634C25.906 8.0344 26 8.26233 26 8.5C26 8.73767 25.906 8.9656 25.7388 9.13366L18.1709 16.7375C17.8226 17.0875 17.2579 17.0875 16.9096 16.7375C16.5613 16.3876 16.5613 15.8202 16.9096 15.4702L22.9549 9.39612H0.891878C0.399308 9.39612 0 8.99492 0 8.5C0 8.00508 0.399308 7.60387 0.891878 7.60387H22.9549L16.9096 1.52978C16.5613 1.17982 16.5613 0.612428 16.9096 0.262469Z" fill="white"/>
</svg>
