<svg width="79" height="70" viewBox="0 0 79 70" fill="none" xmlns="http://www.w3.org/2000/svg">
<g clip-path="url(#clip0_524_4023)">
<path d="M22.8832 0.00689697C20.7609 0.0115013 18.6834 1.21631 17.6152 3.05406L0.998369 31.9191C-0.053574 33.7618 -0.053574 36.1704 0.998369 38.0131L17.6152 66.8784C18.6834 68.7162 20.7609 69.9213 22.8832 69.9256H56.1168C58.2391 69.921 60.3166 68.7162 61.3848 66.8784L78.0017 38.0131C79.0536 36.1704 79.0533 33.7618 78.0017 31.9191L61.3848 3.05406C60.3166 1.216 58.2391 0.0111944 56.1168 0.00689697H22.8832ZM23.1849 16.8935C23.2307 16.8889 23.2786 16.8889 23.3243 16.8935H29.0564C29.1838 16.8977 29.308 16.9339 29.4176 16.999C29.5272 17.064 29.6186 17.1557 29.6832 17.2656L39.4073 34.5939C39.4564 34.6799 39.4877 34.775 39.4994 34.8732C39.5117 34.775 39.543 34.6799 39.5921 34.5939L49.2929 17.2656C49.3597 17.1526 49.4548 17.0589 49.5687 16.9937C49.6826 16.9285 49.8115 16.894 49.9427 16.8935H55.6751C56.1825 16.8978 56.5629 17.5372 56.325 17.9866L46.8329 34.9663L56.325 51.9226C56.5853 52.3744 56.196 53.0433 55.6751 53.039H49.9427C49.8092 53.0362 49.6787 52.9981 49.5646 52.9287C49.4505 52.8593 49.3568 52.7609 49.2929 52.6436L39.5921 35.315C39.543 35.2293 39.5117 35.1339 39.4997 35.0359C39.4878 35.1343 39.4564 35.2292 39.4073 35.3153L29.6829 52.6436C29.6211 52.7576 29.5311 52.8538 29.4214 52.923C29.3118 52.9922 29.1862 53.0322 29.0567 53.039H23.324C22.8031 53.0436 22.4139 52.3744 22.6742 51.9226L32.1662 34.9663L22.6742 17.9866C22.4467 17.5765 22.7245 16.981 23.1849 16.8935Z" fill="#ABABAB"/>
</g>
<defs>
<clipPath id="clip0_524_4023">
<rect width="78.5811" height="70" fill="white" transform="translate(0.209473)"/>
</clipPath>
</defs>
</svg>
